<?xml version="1.0" encoding="UTF-8" standalone="no"?>
<svg
   xmlns:dc="http://purl.org/dc/elements/1.1/"
   xmlns:cc="http://creativecommons.org/ns#"
   xmlns:rdf="http://www.w3.org/1999/02/22-rdf-syntax-ns#"
   xmlns:svg="http://www.w3.org/2000/svg"
   xmlns="http://www.w3.org/2000/svg"
   xmlns:sodipodi="http://sodipodi.sourceforge.net/DTD/sodipodi-0.dtd"
   xmlns:inkscape="http://www.inkscape.org/namespaces/inkscape"
   width="34.520588mm"
   height="57.328308mm"
   viewBox="0 0 122.31704 203.1318"
   id="svg14504"
   version="1.1"
   inkscape:version="1.0.1 (3bc2e813f5, 2020-09-07)"
   sodipodi:docname="moth.svg">
  <defs
     id="defs14506" />
  <sodipodi:namedview
     id="base"
     pagecolor="#ffffff"
     bordercolor="#666666"
     borderopacity="1.0"
     inkscape:pageopacity="0.0"
     inkscape:pageshadow="2"
     inkscape:zoom="2.8"
     inkscape:cx="30.076769"
     inkscape:cy="126.0182"
     inkscape:document-units="px"
     inkscape:current-layer="layer1"
     showgrid="false"
     inkscape:window-width="1723"
     inkscape:window-height="745"
     inkscape:window-x="832"
     inkscape:window-y="252"
     inkscape:window-maximized="0"
     fit-margin-top="0"
     fit-margin-left="0"
     fit-margin-right="0"
     fit-margin-bottom="0"
     inkscape:document-rotation="0" />
  <metadata
     id="metadata14509">
    <rdf:RDF>
      <cc:Work
         rdf:about="">
        <dc:format>image/svg+xml</dc:format>
        <dc:type
           rdf:resource="http://purl.org/dc/dcmitype/StillImage" />
        <dc:title></dc:title>
      </cc:Work>
    </rdf:RDF>
  </metadata>
  <g
     inkscape:label="F.SilkS"
     inkscape:groupmode="layer"
     id="layer1"
     transform="translate(-7.4129126,-5.0820221)">
    <path
       style="fill:#000000"
       d="M 129.13509,105.63162 C 128.44205,106.90892 126.96775,107.79199 124.76186,108.25114 123.37363,108.54008 120.36156,110.51891 117.3081,113.14803 116.55091,113.79998 115.55324,114.3334 115.09108,114.3334 114.62889,114.3334 113.45671,114.73883 112.48623,115.23435 110.90327,116.04258 110.05327,116.13462 104.22552,116.12889 98.562139,116.12332 97.203609,115.98224 93.628649,115.02838 89.344369,113.88528 85.625209,113.84914 86.049469,114.95476 86.349079,115.73553 96.280939,118.28554 101.63723,118.95694 105.54919,119.44728 107.26104,121.30391 104.53985,122.10502 102.98239,122.56354 102.52206,123.91913 103.61564,124.82673 103.99893,125.14482 105.53903,125.45482 107.09352,125.52676 110.63828,125.69085 110.79663,125.7587 111.12506,127.254 111.27511,127.93721 111.76438,128.82787 112.21234,129.23328 112.74077,129.7115 113.02681,130.51777 113.02681,131.52915 113.02681,132.38647 113.33236,133.91318 113.70583,134.92183 114.16502,136.16194 114.40047,138.2575 114.43305,141.39388 114.47412,145.34761 114.3604,146.21343 113.66244,147.26141 113.21211,147.93757 112.25938,149.90624 111.54528,151.63624 110.83115,153.36624 109.949,155.25222 109.58495,155.82732 109.22088,156.40243 108.78554,157.34447 108.61753,157.92073 108.44953,158.497 107.19936,160.65151 105.83939,162.7085 104.47943,164.76551 103.2625,166.86378 103.13512,167.37132 102.80208,168.69819 98.599059,173.62952 96.913089,174.67152 96.125999,175.15797 94.573169,175.65809 93.462349,175.7829 91.567399,175.99583 91.280939,175.89101 88.823269,174.08534 87.382569,173.02686 86.203819,172.00467 86.203819,171.81379 86.203819,171.25491 84.183779,170.49401 82.700089,170.49401 81.725689,170.49401 80.983519,170.13097 80.124109,169.23391 79.329079,168.40409 78.775479,168.11522 78.502789,168.38789 78.275039,168.61563 78.030219,170.88108 77.958709,173.42225 77.833199,177.8826 77.769019,178.16124 76.104499,181.47185 72.234099,189.16965 63.246229,196.45003 55.481619,198.17681 53.760339,198.55961 52.535119,199.1689 51.290529,200.261 50.323229,201.10977 48.939189,202.10912 48.214899,202.48176 47.490609,202.85438 46.290349,203.92649 45.547689,204.86418 43.946329,206.88607 41.544909,208.21382 39.489409,208.21382 37.412459,208.21382 35.131029,205.75017 32.734319,200.9192 30.012669,195.43329 29.483369,191.90905 29.738359,180.97173 29.849619,176.19971 30.153529,171.72786 30.421959,170.91312 31.126349,168.77506 32.953179,157.95905 33.397459,153.29619 33.607889,151.0876 33.979219,144.76508 34.222629,139.24616 34.466009,133.72725 34.859509,126.88781 35.097039,124.04738 35.653779,117.3896 35.577309,117.14541 33.047019,117.50153 31.971209,117.65293 30.288099,118.2367 29.306769,118.79875 27.958269,119.57111 26.985919,119.80184 25.325239,119.74351 23.321349,119.67313 20.482499,120.4013 18.628189,121.46134 18.227939,121.69015 17.319689,121.87736 16.609879,121.87736 15.164139,121.87736 13.840259,122.46308 12.771239,123.57564 12.362499,124.00106 11.706949,124.23127 11.246889,124.11097 10.802929,123.99488 10.312989,124.10491 10.158109,124.35551 10.003239,124.60611 9.3956986,124.81112 8.8080486,124.81112 7.8609686,124.81112 7.7713086,124.68469 8.0188686,123.69833 8.1986386,122.9821 8.1071386,122.46748 7.7621286,122.25425 7.4672786,122.07203 7.3651886,121.78381 7.5352286,121.61376 7.7052686,121.44371 8.0675986,121.52776 8.3403586,121.80053 8.6131386,122.0733 9.2376086,122.29647 9.7280986,122.29647 11.156619,122.29647 17.486839,119.65281 19.822419,118.08082 21.000999,117.28754 22.310099,116.43635 22.731489,116.18929 23.448569,115.76885 23.408699,115.60825 22.108799,113.68217 20.803899,111.74868 20.711059,111.37045 20.573019,107.42565 20.492189,105.11641 20.232439,102.56816 19.995789,101.76289 19.334929,99.514193 19.471679,98.289453 20.626139,96.118233 21.866979,93.784493 21.535419,92.958843 19.357419,92.958843 18.022609,92.958843 14.624549,91.351093 13.761539,90.311223 13.521709,90.022233 11.995509,89.226703 10.369979,88.543333 8.7444686,87.859983 7.4138086,87.065123 7.4129286,86.776993 7.4106186,86.017623 7.6482886,86.063633 14.654099,88.178843 19.626709,89.680153 21.771299,90.122953 24.385249,90.188053 26.229339,90.233973 28.351059,90.498973 29.100239,90.776963 29.849389,91.054953 30.980979,91.447813 31.614889,91.649953 32.248789,91.852123 33.073169,92.145873 33.446839,92.302723 34.526229,92.755863 35.357839,91.533533 35.842629,88.781323 36.199879,86.753223 36.167449,85.898183 35.681029,84.519533 35.215849,83.201063 35.068229,80.413383 35.054269,72.684153 35.031339,59.998323 34.013669,48.092603 32.278249,40.207263 31.292239,35.727133 31.709299,22.839933 32.985369,18.357453 34.828059,11.884513 38.563899,5.7670429 41.056099,5.1415329 42.641089,4.7437329 45.638569,6.3692229 48.447579,9.1498029 51.589749,12.260203 60.421369,17.938343 62.117039,17.938343 62.660869,17.938343 66.686039,20.580053 67.736739,21.626553 68.068029,21.956513 69.140369,22.569953 70.119749,22.989773 72.162339,23.865333 75.093829,27.304853 76.887759,30.930723 77.786749,32.747743 78.014149,33.768263 77.961739,35.750473 77.925179,37.133523 77.687129,38.803843 77.432749,39.462313 77.044829,40.466403 77.113679,40.891583 77.859559,42.098453 78.362609,42.912393 78.652339,43.906643 78.526599,44.387493 78.404319,44.855033 78.503519,45.809093 78.747039,46.507633 79.137469,47.627663 79.334789,47.748693 80.417429,47.532163 81.838319,47.247973 85.560309,44.871683 87.022729,43.314993 87.574739,42.727393 88.204359,42.246653 88.421869,42.246653 88.639409,42.246653 89.458679,41.683593 90.242509,40.995373 91.026329,40.307183 92.182819,39.642693 92.812479,39.518753 93.442159,39.394793 94.848409,39.092973 95.937479,38.848033 97.969749,38.390943 98.634899,38.559053 101.18698,40.174823 102.48434,40.996213 102.36786,41.408443 100.8384,41.408443 99.982709,41.408443 98.942709,41.903483 97.756699,42.875323 96.772129,43.682113 95.584719,44.342213 95.118049,44.342213 94.096839,44.342213 93.494649,45.001903 93.107389,46.544873 92.793579,47.795163 93.224799,48.004473 94.599169,47.268923 95.263469,46.913413 95.501599,47.048103 96.036099,48.081703 96.899379,49.751093 98.252559,50.628843 99.962959,50.628843 101.03789,50.628843 101.32426,50.777863 101.14534,51.244083 100.86452,51.975883 101.53229,52.514183 101.92754,51.874643 102.07857,51.630273 102.01428,51.202853 101.78466,50.924823 101.49448,50.573423 101.64324,50.076543 102.27247,49.295273 102.98854,48.406193 103.60166,48.143393 105.20603,48.037953 L 107.23428,47.904623 109.6625,52.724383 C 113.67333,60.685513 114.30461,62.201803 114.74393,64.929743 114.97527,66.366213 115.26125,67.697973 115.37945,67.889213 115.77187,68.524203 115.60971,75.101903 115.12821,78.079623 114.55703,81.611913 113.94503,82.626313 110.89699,85.092963 106.10595,88.970133 102.11286,90.863293 98.726149,90.863293 95.984619,90.863293 86.203819,94.700833 86.203819,95.776483 86.203819,96.096353 87.249189,96.836673 88.526839,97.421593 90.422489,98.289453 91.405579,98.469163 93.870489,98.398443 101.15518,98.189433 113.04262,98.430023 115.54146,98.837043 121.15648,99.751613 127.86436,101.67413 128.94139,102.67753 129.94138,103.60917 129.97276,104.0878 129.13509,105.63162 Z M 114.9128,109.51365 C 113.19751,109.51365 113.27658,110.55495 115.04667,111.27723 116.43502,111.84374 116.43761,111.84252 116.30401,110.67927 116.19075,109.69329 115.97635,109.51365 114.9128,109.51365 Z M 110.82649,110.99385 C 110.10823,111.01214 108.62937,112.17122 108.93473,112.47655 109.16485,112.7067 111.35037,111.49917 111.35037,111.14189 111.35037,111.05314 111.11463,110.98653 110.82649,110.99385 Z M 108.24747,84.859723 C 107.3301,84.507713 105.90196,85.026973 105.90196,85.712563 105.90196,86.053013 105.52475,86.430203 105.06374,86.550773 104.16139,86.786753 103.97256,87.304613 104.63876,87.716353 105.09566,87.998733 108.83572,85.952283 108.83572,85.419903 108.83572,85.235963 108.571,84.983883 108.24747,84.859723 Z M 105.45578,50.643323 C 104.76373,51.013693 104.6901,51.226413 105.08798,51.705843 105.83834,52.609933 106.32107,52.428643 106.32107,51.242753 106.32107,50.299033 106.22433,50.232013 105.45578,50.643323 Z M 95.849069,49.057183 C 95.845909,48.769043 95.538449,48.533283 95.165789,48.533283 94.667689,48.533283 94.555179,48.783023 94.740959,49.476303 94.879959,49.994943 94.996259,50.655043 94.999399,50.943183 95.002559,51.231303 95.310009,51.467063 95.682659,51.467063 96.180769,51.467063 96.293279,51.217323 96.107489,50.524063 95.968509,50.005413 95.852199,49.345323 95.849069,49.057183 Z M 93.143859,66.554973 C 93.042209,66.554973 92.842489,66.743573 92.700019,66.974083 92.557569,67.204593 92.640729,67.393203 92.884839,67.393203 93.128959,67.393203 93.328689,67.204593 93.328689,66.974083 93.328689,66.743573 93.245529,66.554973 93.143859,66.554973 Z M 92.453959,43.271873 C 92.203349,43.116983 91.813689,43.174893 91.588029,43.400573 91.320389,43.668193 91.478779,43.889573 92.043659,44.037283 92.953659,44.275273 93.233309,43.753543 92.453959,43.271873 Z M 85.439779,84.564023 C 83.900669,85.050443 81.834699,85.561533 80.848759,85.699743 79.862799,85.837973 78.978269,86.076973 78.883159,86.230883 78.673789,86.569643 86.548089,86.467663 86.888539,86.127193 87.020379,85.995373 87.580359,86.059393 88.132909,86.269473 88.917549,86.567793 89.137599,86.513163 89.137599,86.020023 89.137599,85.672723 89.444409,85.270843 89.819389,85.126953 90.373649,84.914263 90.289519,84.754413 89.369689,84.272453 88.362769,83.744883 87.929979,83.777003 85.439779,84.564023 Z M 83.993259,125.64935 C 83.557089,125.64935 83.274299,125.87162 83.364869,126.14329 83.638949,126.96554 84.784539,127.47779 85.622969,127.15299 86.393109,126.85466 86.392519,126.83144 85.599839,126.24808 85.152389,125.91877 84.429429,125.64935 83.993259,125.64935 Z M 84.321119,114.89093 C 84.088799,114.96826 83.837749,115.34595 83.763219,115.73023 83.664939,116.23702 83.924949,116.42895 84.709759,116.42895 85.687379,116.42895 85.741229,116.34795 85.267659,115.58964 84.979389,115.12801 84.553429,114.81359 84.321119,114.89093 Z M 83.773169,138.01943 C 83.127839,137.4764 82.259669,136.40414 81.843909,135.63662 81.142859,134.3424 78.407489,132.46777 77.924639,132.95061 77.628699,133.24655 80.020729,136.05977 80.599779,136.09681 80.859949,136.11346 81.297059,136.6684 81.571129,137.33003 82.019639,138.41287 83.496739,139.47994 84.547119,139.47994 85.224609,139.47994 84.995819,139.04821 83.773169,138.01943 Z M 84.527399,95.054393 C 84.296889,95.054393 84.108289,95.337283 84.108289,95.683053 84.108289,96.028823 84.296889,96.311703 84.527399,96.311703 84.757899,96.311703 84.946509,96.028823 84.946509,95.683053 84.946509,95.337283 84.757899,95.054393 84.527399,95.054393 Z M 82.721449,120.62646 C 82.534969,120.62293 82.498939,120.80864 82.641389,121.03914 82.783859,121.26965 83.219339,121.45538 83.609129,121.45184 84.219889,121.44631 84.230959,121.38926 83.689169,121.03914 83.343409,120.81569 82.907939,120.62999 82.721449,120.62646 Z M 82.672119,89.382913 C 81.882249,89.008083 80.797799,88.765853 80.262249,88.844623 79.516379,88.954333 79.797299,89.158223 81.462839,89.716013 82.658689,90.116513 83.743129,90.444183 83.872709,90.444183 84.478499,90.444183 83.979999,90.003533 82.672119,89.382913 Z M 79.556429,94.649233 C 79.017859,94.660153 79.083209,94.841273 79.858859,95.487443 80.403039,95.940803 81.157429,96.305433 81.535279,96.297773 82.073859,96.286853 82.008509,96.105733 81.232859,95.459543 80.688679,95.006213 79.934279,94.641553 79.556429,94.649233 Z M 81.009799,113.91429 C 80.380479,113.91429 79.816869,114.93159 80.221839,115.33656 80.517399,115.63211 81.593639,114.80483 81.593639,114.28209 81.593639,114.07979 81.330909,113.91429 81.009799,113.91429 Z M 78.764639,124.38945 C 78.361249,124.38801 77.506709,124.11328 76.865689,123.77889 75.238039,122.92988 74.378639,123.3165 74.976539,124.62875 75.481409,125.73685 77.061109,126.46411 77.314159,125.70496 77.401189,125.44386 77.928159,125.23023 78.485239,125.23023 79.042309,125.23023 79.498089,125.04164 79.498089,124.81112 79.498089,124.58061 79.168049,124.39086 78.764639,124.38945 Z M 78.610409,121.45826 C 78.379899,121.45826 78.307849,121.64685 78.450309,121.87736 78.592769,122.10788 78.897939,122.29647 79.128439,122.29647 79.358949,122.29647 79.430999,122.10788 79.288529,121.87736 79.146079,121.64685 78.840909,121.45826 78.610409,121.45826 Z M 75.575779,126.61938 C 73.524059,125.5584 74.477129,126.97239 76.595099,128.1317 L 78.450309,129.14717 77.613079,128.19357 C 77.152619,127.66909 76.235829,126.9607 75.575779,126.61938 Z M 76.290379,86.196923 C 75.612009,86.591243 75.669069,86.648293 76.752929,86.659463 77.654569,86.668763 77.864069,86.546993 77.526759,86.209683 77.195259,85.878163 76.844979,85.874553 76.290379,86.196923 Z M 77.217719,89.605973 C 77.116069,89.605973 76.916349,89.794583 76.773889,90.025083 76.631419,90.255593 76.714589,90.444183 76.958689,90.444183 77.202809,90.444183 77.402549,90.255593 77.402549,90.025083 77.402549,89.794583 77.319379,89.605973 77.217719,89.605973 Z M 76.145219,175.06993 C 76.145219,174.85828 75.855689,174.68509 75.501819,174.68509 75.147919,174.68509 74.393529,174.38051 73.825369,174.00824 72.932089,173.42292 72.792339,173.41602 72.792339,173.95711 72.792339,174.30127 73.201739,174.85468 73.702089,175.18692 74.213739,175.52664 74.482219,176.00072 74.315609,176.27028 74.039259,176.71746 71.096169,177.73883 70.835409,177.47806 70.770439,177.41311 70.834409,176.37126 70.977519,175.16285 71.167959,173.55505 71.389999,173.02416 71.805389,173.18355 72.159929,173.31961 72.589999,172.88208 72.950999,172.01806 73.268899,171.25724 73.976199,170.27302 74.522759,169.83093 75.849209,168.75805 76.093409,165.88381 74.858099,165.88381 74.413449,165.88381 74.049669,166.17075 74.049669,166.52146 74.049669,166.87216 73.577169,167.37439 72.999659,167.63751 72.306589,167.95331 71.802459,168.66259 71.516629,169.72408 71.005109,171.62367 70.638199,171.71319 69.466919,170.22415 68.093739,168.47843 64.726069,168.86614 62.432799,171.03397 61.190629,172.20819 61.064079,172.24549 60.830549,171.50623 60.691099,171.06475 60.425349,170.41321 60.240009,170.0583 60.006519,169.61125 60.279249,169.03681 61.127879,168.18818 62.178489,167.13756 62.468459,167.03558 63.166209,167.47133 63.613619,167.75075 64.473909,167.97936 65.077979,167.97936 65.910529,167.97936 66.114279,167.81783 65.920109,167.31175 65.004879,164.92677 65.675789,163.3544 67.840439,162.8111 68.712879,162.59213 68.893959,162.34764 68.708599,161.63885 68.481579,160.77066 68.558389,160.75226 71.219499,161.03724 74.502219,161.38878 74.891539,161.03776 73.783959,158.72511 72.930189,156.94242 72.576449,156.79697 71.350129,157.72451 70.902679,158.06294 69.989439,158.33985 69.320689,158.33985 68.651949,158.33985 67.638669,158.70652 67.068959,159.15464 66.056739,159.95084 64.829259,159.91792 64.829259,159.09455 64.829259,158.86743 65.206469,158.20207 65.667489,157.61599 66.128519,157.0299 66.505709,156.11714 66.505709,155.58766 66.505709,155.0135 66.970859,154.29755 67.658249,153.81373 68.705509,153.07664 68.960609,153.05504 70.450659,153.57732 71.352559,153.89344 72.172059,154.07053 72.271749,153.97084 72.712399,153.53016 71.765759,151.0535 70.275159,148.74724 L 68.653819,146.23873 67.111829,146.66451 C 66.263739,146.89866 65.141849,146.98285 64.618729,146.85155 63.588749,146.59304 63.169819,147.38981 63.158559,149.62859 63.155009,150.33336 62.833809,150.93712 62.314619,151.215 61.193589,151.81495 61.257489,152.65637 62.494969,153.58991 63.459149,154.31726 63.735129,154.94182 63.621589,156.13952 63.552029,156.87363 62.454719,156.79481 62.163059,156.03475 62.030369,155.68899 61.538699,155.40608 61.070449,155.40608 60.379639,155.40608 60.219069,155.67806 60.219069,156.84822 60.219069,158.4631 60.596209,158.81595 62.685079,159.15549 63.480749,159.28484 64.211129,159.62873 64.308129,159.91971 64.598689,160.79139 61.952829,162.95005 60.593859,162.95005 59.926709,162.95005 59.380849,163.17094 59.380849,163.44094 59.380849,164.44999 57.975939,165.4647 56.578889,165.4647 55.486099,165.4647 54.870319,165.79936 53.872939,166.93531 52.419329,168.5909 50.874189,169.16473 49.945459,168.39394 49.161659,167.74344 48.064909,168.51533 48.064909,169.71747 48.064909,170.17332 47.634319,170.67846 47.059429,170.89704 46.506429,171.1073 45.757479,171.70259 45.395129,172.21992 44.775519,173.10455 44.690219,173.11883 43.962059,172.45986 43.234159,171.8011 43.103149,171.82163 41.772949,172.80304 40.994789,173.37715 40.104199,173.84688 39.793889,173.84688 39.483579,173.84688 38.708379,174.2323 38.071219,174.70337 36.789869,175.65071 35.663419,175.46744 35.276599,174.24871 35.140789,173.82077 34.662109,173.35398 34.212879,173.2114 33.686909,173.04448 33.396099,172.57481 33.396099,171.89237 33.396099,170.41876 34.634249,166.30292 35.077539,166.30292 35.685089,166.30292 36.096109,167.28628 35.974229,168.44823 35.815059,169.96577 36.620219,170.16654 40.788049,169.64863 45.003469,169.12481 46.325229,168.58685 46.658409,167.25932 46.987649,165.94754 46.643669,165.67328 44.861669,165.82681 43.184089,165.97135 41.107279,165.24764 40.784289,164.40598 40.655239,164.0697 41.180599,163.48186 42.089369,162.94567 43.318959,162.22019 43.800049,162.13462 44.600059,162.49915 45.888149,163.08602 45.969369,163.07327 45.969369,162.28379 45.969369,161.91733 45.562159,161.28779 45.064469,160.88478 44.442399,160.38105 44.274619,159.96708 44.527649,159.56027 44.730099,159.2348 44.840899,158.54416 44.773889,158.02552 44.644809,157.02645 45.100239,156.80015 45.810519,157.51043 46.101639,157.80155 46.697779,157.62877 47.675539,156.96984 48.907359,156.13973 49.112689,155.76422 49.112689,154.34163 L 49.112689,152.68187 47.226699,152.68187 C 44.654619,152.68187 44.292929,152.34672 44.292929,149.96334 44.292929,148.257 44.474169,147.78039 45.399959,147.05219 46.246229,146.3865 46.641089,146.2927 47.076389,146.65396 47.389559,146.91389 47.645789,147.382 47.645789,147.69422 47.645789,148.00645 48.125029,148.57591 48.710739,148.95968 50.147279,149.90094 51.836889,149.19932 51.836889,147.66155 51.836889,146.73499 52.016059,146.6048 53.291099,146.6048 54.662719,146.6048 54.777879,146.71656 55.319229,148.57309 55.634879,149.65566 56.064939,150.59303 56.274899,150.6562 56.647249,150.76816 57.597729,149.57891 59.512849,146.6048 60.032379,145.79801 60.828139,145.08139 61.281239,145.01232 62.236039,144.86676 64.105829,140.82932 64.106479,138.9118 64.106979,137.39853 63.382529,136.92749 61.266849,137.06548 59.874269,137.15634 59.567199,137.3386 59.453319,138.14208 59.377899,138.67403 59.611559,139.56005 59.972529,140.11099 60.902479,141.53026 60.093129,141.82504 58.303379,140.71892 57.488669,140.21541 56.761719,139.87211 56.687909,139.95603 56.614089,140.03995 56.235139,140.73478 55.845769,141.5001 55.145319,142.87688 55.110439,142.89016 52.544379,142.75742 50.095859,142.63077 49.957839,142.67371 50.075169,143.52583 50.166029,144.18566 49.838759,144.60835 48.858239,145.09749 46.973359,146.03779 46.859509,145.99054 45.926199,143.88059 45.127049,142.074 43.873819,141.30624 43.873819,142.62326 43.873819,142.96902 43.685239,143.25192 43.454719,143.25192 42.851789,143.25192 42.962219,142.33643 43.679559,141.38792 44.019079,140.939 44.188959,140.23175 44.057109,139.81626 43.857409,139.1871 44.061419,139.06083 45.277519,139.06083 46.375819,139.06083 46.939099,139.33735 47.550469,140.17662 48.597139,141.61347 49.503479,141.27398 50.171099,139.19495 50.453859,138.3144 51.176609,137.19026 51.777209,136.69685 52.737779,135.90772 52.817149,135.6555 52.436709,134.60131 51.994179,133.37505 51.936349,133.36244 49.217459,133.89915 47.738239,134.19115 47.701529,133.41665 49.131739,132.09118 50.102359,131.19163 50.178099,130.88494 49.971629,128.69023 49.782419,126.6792 49.553079,126.13861 48.592609,125.43979 46.674739,124.04439 44.296809,121.59408 44.582899,121.30799 44.730759,121.16013 45.360669,121.03914 45.982699,121.03914 47.243149,121.03914 49.322229,119.60833 49.322229,118.74089 49.322229,118.43234 49.913629,117.68227 50.636459,117.07406 51.674619,116.2005 52.213819,116.02602 53.203529,116.24341 54.736639,116.58014 54.449469,115.87961 52.679109,114.96414 51.728939,114.47278 51.024169,114.42975 49.295609,114.75757 45.979959,115.38637 45.131159,115.30476 45.131159,114.35717 45.131159,113.90923 44.706799,113.23982 44.188149,112.86962 L 43.245149,112.19652 44.397709,111.34401 C 45.827169,110.28669 45.867199,109.72321 44.512859,109.72321 43.565299,109.72321 43.511829,109.62756 43.895339,108.61886 44.216439,107.77428 44.158119,107.27477 43.647369,106.49527 43.116269,105.68471 43.083949,105.35018 43.489579,104.86144 43.930769,104.32982 44.132589,104.37176 44.984489,105.1721 45.526179,105.68099 45.969369,106.43052 45.969369,106.83775 45.969369,108.0249 46.802629,108.21012 47.718899,107.22666 48.514049,106.37317 48.522929,106.26978 47.863919,105.54157 47.477769,105.11488 47.223559,104.34278 47.299039,103.82579 47.374519,103.3088 47.200509,102.80542 46.912369,102.70717 46.624239,102.60889 46.388469,102.82711 46.388469,103.19209 46.388469,104.20909 45.818869,103.97632 45.235919,102.72107 44.460309,101.05096 44.556759,100.74064 46.356959,99.114253 47.567829,98.020303 47.942009,97.399163 47.774969,96.760383 47.520959,95.789073 46.810259,95.638473 46.053199,96.395533 45.432159,97.016563 45.401569,96.534423 45.991999,95.431203 46.347269,94.767363 46.707079,94.657073 47.829999,94.867723 48.697119,95.030393 49.339109,94.947063 49.524009,94.647843 49.730789,94.313293 49.990109,94.396163 50.372389,94.918973 50.900679,95.641443 50.958429,95.639833 51.799029,94.879093 52.967199,93.821923 52.919029,93.649523 51.230479,92.844303 50.114299,92.312043 49.723179,91.821343 49.510209,90.686063 49.144099,88.734513 48.325709,88.139093 46.009489,88.139093 43.634949,88.139093 43.169279,87.460853 45.112559,86.832763 45.909109,86.575323 46.633749,86.145913 46.722879,85.878573 46.811999,85.611223 47.621909,85.016473 48.522679,84.556943 49.594079,84.010363 50.160449,83.434483 50.160449,82.891703 50.160449,82.435373 49.992039,82.062013 49.786179,82.062013 49.187779,82.062013 48.833939,80.706223 49.308499,80.231673 50.030349,79.509833 49.795839,78.775173 48.798349,78.633503 48.279719,78.559853 47.853169,78.310993 47.850509,78.080463 47.847849,77.849953 47.590609,77.051803 47.278899,76.306793 46.967169,75.561773 46.821979,74.665923 46.956259,74.316023 47.301799,73.415553 48.372769,73.527063 48.903489,74.518753 49.150429,74.980143 50.049209,75.648773 50.900779,76.004583 52.329589,76.601563 52.490149,76.595333 52.981199,75.923783 53.735979,74.891573 53.649349,74.327013 52.529299,72.978543 51.988079,72.326953 51.423949,71.322343 51.275669,70.746073 50.692219,68.478483 50.310639,68.340533 48.765179,69.838453 47.616069,70.952203 47.053839,71.199523 45.917909,71.090933 44.608529,70.965763 44.497839,70.841653 44.440579,69.434413 44.388479,68.153893 44.499629,67.944833 45.143039,68.113083 45.693669,68.257083 46.216539,67.823203 47.013169,66.561273 47.839389,65.252453 48.297529,64.883313 48.825369,65.101183 49.213899,65.261553 49.861849,65.487653 50.265239,65.603633 50.713439,65.732503 50.998679,66.224463 50.998679,66.868603 50.998679,67.862243 51.098089,67.909353 52.732479,67.690123 54.924409,67.396113 56.324139,67.922143 56.938639,69.270773 57.522559,70.552353 57.852079,70.577313 59.422669,69.458973 60.516189,68.680303 60.668759,68.661643 60.905109,69.277593 61.050019,69.655213 60.954949,70.177843 60.693839,70.438953 60.432719,70.700073 60.219069,71.357113 60.219069,71.899053 60.219069,72.641333 60.606359,73.046203 61.789099,73.540383 63.971489,74.452253 66.127359,73.903933 66.691449,72.293553 67.057849,71.247533 66.962589,71.006453 65.833829,70.123073 65.135419,69.576483 64.309679,68.358633 63.998819,67.416723 63.549529,66.055363 63.275999,65.754203 62.664899,65.948173 62.126579,66.119023 61.765049,65.901053 61.458739,65.221013 60.608879,63.334313 59.893129,62.298503 59.013329,61.682263 58.523919,61.339483 58.123529,60.775693 58.123529,60.429393 58.123529,60.083093 57.934939,59.916323 57.704419,60.058783 57.473909,60.201253 57.285309,60.624583 57.285309,60.999503 57.285309,63.194823 53.432129,64.564553 52.696849,62.630593 51.955059,60.679543 50.170209,60.877933 48.556309,63.090833 L 47.710979,64.249883 46.525839,63.354563 C 45.575119,62.636353 45.350789,62.152583 45.391699,60.908663 45.462519,58.755543 46.241749,58.069033 48.032049,58.582483 48.807299,58.804813 49.603329,58.886773 49.801019,58.764583 50.218329,58.506683 50.279919,56.457123 49.900119,55.467373 49.563069,54.589083 47.455859,53.500973 46.673469,53.801203 46.228869,53.971813 46.019429,53.624873 45.888139,52.500333 45.736219,51.199093 45.855769,50.911043 46.677439,50.598633 47.613699,50.242683 47.942479,49.388803 47.365479,48.811783 47.211309,48.657593 46.736049,48.847403 46.309369,49.233543 45.580619,49.893043 45.426129,49.876423 43.760719,48.959343 42.785629,48.422403 41.936249,47.945253 41.873199,47.899073 41.810139,47.852853 41.876669,47.507203 42.021059,47.130943 42.359729,46.248403 45.061509,45.522753 46.750839,45.860603 47.882249,46.086873 48.064909,46.003783 48.064909,45.262743 48.064909,43.803563 47.022469,43.224463 43.928849,42.965103 42.308519,42.829263 40.626449,42.527423 40.190949,42.294363 39.755459,42.061293 38.979569,41.980303 38.466739,42.114403 37.685159,42.318793 37.555579,42.603373 37.665559,43.874113 37.776099,45.151513 37.656399,45.410003 36.904619,45.517233 36.178019,45.620893 35.960619,45.368133 35.733059,44.155133 35.526119,43.051973 35.241219,42.665763 34.634429,42.665763 33.927909,42.665763 33.815209,42.961803 33.815209,44.817453 33.815209,46.000903 33.990589,47.651133 34.204949,48.484673 34.754229,50.620473 35.636839,57.716813 35.540239,59.220583 35.495829,59.912103 35.577939,62.033843 35.722749,63.935553 35.970479,67.189333 36.042909,67.393203 36.951299,67.393203 38.859489,67.393203 38.921649,69.830573 37.099319,73.199323 35.640439,75.896243 35.699109,77.180533 37.270989,76.957333 38.117139,76.837173 38.213979,76.593253 38.197959,74.622823 38.188119,73.412653 38.303919,72.422493 38.455289,72.422493 38.741049,72.422493 40.169429,74.461463 41.719469,77.082003 42.212719,77.915913 42.590819,79.047493 42.559689,79.596653 42.528549,80.145813 42.631469,80.894963 42.788399,81.261423 42.955399,81.651353 42.805079,82.150693 42.426019,82.465283 41.887049,82.912603 41.778279,82.888693 41.778279,82.322883 41.778279,81.947413 41.440319,81.642903 41.023609,81.642903 40.608559,81.642903 39.757499,81.407153 39.132379,81.119023 38.183319,80.681563 38.036679,80.405343 38.243449,79.444693 38.451599,78.477683 38.314409,78.227083 37.383179,77.873043 36.773849,77.641363 36.193269,77.451803 36.093029,77.451803 35.692549,77.451803 35.941719,83.347883 36.383149,84.316673 36.784419,85.197373 37.115649,85.342303 38.583459,85.279383 40.056669,85.216243 40.311389,85.328893 40.311389,86.043543 40.311389,86.504563 40.028499,86.909013 39.682729,86.942333 38.548449,87.051593 37.168079,87.601513 37.168079,87.944143 37.168079,88.759183 37.724809,89.605973 38.260689,89.605973 38.581789,89.605973 38.844509,89.794583 38.844509,90.025083 38.844509,90.583443 38.286289,90.556553 37.699679,89.969933 37.346739,89.616993 37.067059,89.874683 36.606349,90.977313 35.656149,93.251443 34.083819,93.384163 29.414559,91.584353 28.723019,91.317803 26.648449,91.052253 24.804359,90.994243 21.245479,90.882283 17.470129,90.146723 15.876329,89.254793 15.345609,88.957763 14.599979,88.774723 14.219369,88.848023 12.879939,89.105973 16.942169,91.809523 19.207129,92.167573 20.443639,92.363033 21.789229,92.925753 22.549119,93.565133 23.960929,94.753103 24.771619,95.018783 27.500069,95.187603 29.689909,95.323093 29.960209,95.771423 28.766769,97.288613 28.096199,98.141113 27.517409,98.407253 26.334069,98.407253 24.450119,98.407253 23.209109,99.220693 21.879329,101.32717 20.651929,103.27151 20.860719,104.6939 22.373509,104.6939 23.018859,104.6939 23.338489,104.89075 23.224149,105.21779 23.123399,105.50593 22.727959,105.68567 22.345389,105.61724 21.035679,105.38293 21.118649,106.7473 22.512189,108.35998 24.229789,110.34767 25.660999,111.02263 27.555309,110.73831 28.871209,110.54078 29.109919,110.64805 29.561849,111.63988 30.213169,113.06937 29.387299,114.1273 27.316879,114.51571 26.490479,114.67074 25.467909,115.29771 24.856689,116.02408 24.281389,116.70778 23.458479,117.26716 23.027999,117.26716 22.318069,117.26716 18.727279,119.58781 18.727279,120.04662 18.727279,120.42073 21.884369,119.67909 22.836779,119.08127 23.597029,118.60404 24.097019,118.57183 25.182689,118.93015 26.768689,119.45358 27.727419,119.2045 29.205009,117.88518 29.931049,117.23689 31.033769,116.86594 32.796199,116.67707 35.452729,116.39241 36.217809,116.75301 36.869179,118.59674 37.030009,119.052 37.409609,119.22108 37.952259,119.07916 38.641789,118.89885 38.746069,119.01996 38.549269,119.77252 38.418129,120.27402 37.865109,120.85381 37.320339,121.06093 35.917339,121.59435 36.084169,121.77516 38.003749,121.80166 40.077619,121.83028 40.520959,122.09155 40.520959,123.28516 40.520959,124.64444 39.735229,125.23023 37.912109,125.23023 35.906849,125.23023 35.702669,125.70576 35.355279,131.18499 35.140099,134.57867 35.207619,135.36407 35.762229,135.91868 37.383279,137.53973 38.315949,134.65173 36.719999,132.95293 L 35.788719,131.96162 36.897509,131.54006 C 38.226529,131.03477 38.262929,130.81713 37.170479,129.90761 35.940399,128.88351 36.705339,128.07699 38.998369,127.98039 40.058279,127.93571 41.054479,127.77017 41.212169,127.61248 41.949849,126.87482 42.248149,127.46201 41.971399,129.107 41.665319,130.92632 39.768179,134.87488 38.557229,136.21297 38.185679,136.62352 37.807159,137.94456 37.712429,139.16136 37.445219,142.59352 37.229659,143.25192 36.373189,143.25192 35.094709,143.25192 34.778509,144.10204 34.524589,148.22204 34.300259,151.86154 34.341529,152.15972 35.096809,152.35722 36.128149,152.62693 36.166869,153.72965 35.144999,153.72965 34.512179,153.72965 34.271389,154.34807 33.758029,157.29188 33.416369,159.2511 33.273039,161.07451 33.439519,161.34386 33.605989,161.61324 33.476409,162.23928 33.151549,162.73509 32.358099,163.94603 31.876169,168.60581 32.504219,168.99396 33.363289,169.52489 33.035089,171.1712 31.973759,171.65478 31.133079,172.03782 30.922229,172.52808 30.672389,174.68077 29.780649,182.36397 30.364179,192.56636 31.973469,197.42931 33.728699,202.73327 37.255499,207.3756 39.529699,207.3756 40.314559,207.3756 40.520959,207.15156 40.520959,206.29958 40.520959,205.43687 40.364629,205.27318 39.732369,205.47386 38.818139,205.76401 38.175059,204.65005 38.967579,204.1491 39.669389,203.7055 43.438629,203.65762 43.705179,204.08893 44.348369,205.12962 46.070149,203.52244 45.736449,202.19286 45.582249,201.57846 45.782249,201.00893 46.324589,200.51811 47.018929,199.88974 47.279689,199.85764 48.005699,200.31103 49.172209,201.03952 49.633859,200.45156 48.702999,199.42296 48.091109,198.7468 48.047309,198.47186 48.470289,197.9622 49.419449,196.81852 51.180319,196.24337 53.408549,196.34917 55.836339,196.46448 56.249769,195.93136 54.770659,194.59277 54.309629,194.17557 53.932439,193.70046 53.932439,193.53698 53.932439,193.14899 57.669369,191.71027 58.752189,191.68138 59.360709,191.66514 59.590419,191.37215 59.590419,190.61223 59.590419,189.69731 59.815159,189.53532 61.374459,189.32634 62.396319,189.1894 63.397079,188.76097 63.716939,188.32357 64.222019,187.63282 64.300559,187.62553 64.539159,188.24733 64.715209,188.70613 65.298479,188.93481 66.292669,188.93481 67.753009,188.93481 67.769859,188.91571 67.147499,187.96588 66.547059,187.04952 66.592009,186.92005 67.976059,185.57857 68.780929,184.79844 69.439469,183.99719 69.439469,183.79797 69.439469,183.59878 68.732219,183.49431 67.867819,183.56586 66.500759,183.679 66.243949,183.87326 65.895159,185.05804 65.416569,186.68367 64.573239,186.81753 63.914799,185.37237 63.652219,184.7961 63.279069,184.32461 63.085549,184.32461 62.892049,184.32461 62.733729,183.94741 62.733729,183.48638 62.733729,182.82306 63.013139,182.64816 64.072889,182.64816 64.924529,182.64816 65.803879,182.27277 66.488309,181.61705 67.436179,180.70894 67.687919,180.64743 68.598539,181.10142 69.167209,181.38494 69.858119,182.06945 70.133859,182.62254 70.645669,183.64911 71.954129,184.65026 71.954129,184.01527 71.954129,183.82222 71.395999,183.0113 70.713829,182.21323 69.208689,180.45233 69.120209,179.7144 70.414189,179.7144 70.950269,179.7144 71.846129,179.22648 72.404959,178.63012 73.211689,177.76921 73.696499,177.59027 74.758219,177.76151 76.124239,177.98184 76.686509,177.34619 76.304949,176.01292 76.217089,175.70594 76.145219,175.28159 76.145219,175.06993 Z M 68.594919,173.64306 C 68.130409,174.06343 67.602389,174.9885 67.421549,175.69878 67.161689,176.71939 66.597089,177.23949 64.729089,178.17906 62.018809,179.54227 60.938669,179.41564 60.013299,177.62616 59.155089,175.96659 57.393969,174.68509 55.971459,174.68509 55.230919,174.68509 54.770659,174.4638 54.770659,174.10774 54.770659,173.79021 54.487749,173.29562 54.141999,173.00865 53.796239,172.7217 53.513329,172.15897 53.513329,171.75814 53.513329,171.21493 53.769369,171.0783 54.518849,171.22157 55.364489,171.38323 55.569689,171.20739 55.809469,170.11568 56.136779,168.62544 56.849779,168.44304 57.607159,169.65579 57.895069,170.1168 58.411929,170.49401 58.755739,170.49401 59.457689,170.49401 59.607629,171.5617 58.961759,171.96089 58.191249,172.43708 58.515459,174.22909 59.485639,174.85661 60.799599,175.70651 62.507349,176.07076 63.580719,175.73009 64.358229,175.48331 64.449389,175.23516 64.217209,173.99748 63.664559,171.05167 64.870609,170.24061 68.119599,171.37323 69.646939,171.90565 69.785189,172.56589 68.594919,173.64306 Z M 67.854649,150.78655 C 67.328779,150.79169 66.786829,150.50485 66.650339,150.14914 66.268599,149.15435 66.626869,149.09923 67.769299,149.97702 L 68.810809,150.77724 67.854649,150.78655 Z M 58.758469,185.57584 C 57.955129,186.35446 57.226289,186.9101 57.138819,186.8106 56.575699,186.17017 56.027979,184.63442 56.027979,183.69594 56.027979,182.04407 55.289529,180.97173 54.151979,180.97173 53.597409,180.97173 53.039799,181.13984 52.912829,181.3453 52.617949,181.82241 54.058819,185.09676 55.204689,186.55347 56.198899,187.81741 55.994239,188.51571 54.629619,188.51571 54.118239,188.51571 53.280349,188.80951 52.767639,189.16864 51.563119,190.01231 51.094399,189.68548 50.758309,187.76755 50.608259,186.91122 50.223759,185.79288 49.903859,185.28234 48.521979,183.0769 49.677489,179.78763 51.446119,180.89217 51.885309,181.16644 52.317919,181.39085 52.407479,181.39085 52.811279,181.39085 53.047109,178.73306 52.700739,178.08585 52.048749,176.86761 52.780209,176.25657 54.393699,176.67156 55.491149,176.95382 56.042119,177.46574 56.792229,178.9001 57.327809,179.92423 58.317949,181.33694 58.992549,182.03945 59.667139,182.74195 60.219069,183.50651 60.219069,183.73845 60.219069,183.97041 59.561809,184.79723 58.758469,185.57584 Z M 50.607119,192.30242 C 49.247789,191.57493 47.776459,191.81275 46.383139,192.98516 45.298499,193.89782 44.987599,193.9935 44.680949,193.50904 44.474619,193.18306 44.302869,192.61173 44.299339,192.23942 44.295819,191.86711 43.915209,191.08232 43.453579,190.49543 42.439919,189.20678 42.664599,188.47904 44.510919,187.07078 46.734989,185.37441 48.083129,185.72475 48.693779,188.15777 48.846229,188.76513 49.521489,189.78951 50.194369,190.43417 51.627609,191.80731 51.888499,192.98819 50.607119,192.30242 Z M 45.754059,187.88704 C 44.775219,187.88704 44.473299,188.09251 44.368559,188.83003 44.256069,189.62214 44.429289,189.77302 45.451269,189.77302 46.860939,189.77302 47.305779,189.44541 47.130669,188.53613 47.051079,188.12288 46.550889,187.88704 45.754059,187.88704 Z M 50.265239,174.79698 C 49.631329,175.61343 48.791409,176.86526 48.398749,177.57882 47.683399,178.87872 46.677279,179.26343 46.164199,178.43326 45.652859,177.60586 46.389889,176.15489 47.753609,175.30428 48.876429,174.60394 49.090279,174.23384 48.983799,173.17529 48.840699,171.75257 49.762449,170.67071 50.783779,171.06263 51.771469,171.44164 51.532139,173.16524 50.265239,174.79698 Z M 47.456309,135.96782 C 47.121589,136.09625 46.650089,136.07921 46.408549,135.92992 45.618719,135.44177 45.947089,134.86974 47.017139,134.86974 48.153299,134.86974 48.441299,135.58983 47.456309,135.96782 Z M 43.850649,182.12428 C 42.441859,183.6274 42.180269,183.72074 41.442989,182.98346 40.210409,181.75088 41.424589,179.93182 43.796549,179.45743 44.917349,179.23328 45.130839,179.31641 45.129219,179.97634 45.128149,180.40855 44.552779,181.37511 43.850649,182.12428 Z M 44.432629,119.08331 C 43.954519,119.56141 42.923689,119.39136 42.171019,118.71018 41.573349,118.16929 41.528919,117.84857 41.911349,116.8354 42.461319,115.37835 43.397579,114.89794 43.710729,115.91213 43.834079,116.31163 44.109839,116.96599 44.323529,117.36626 44.783539,118.22794 44.813669,118.70227 44.432629,119.08331 Z M 43.864389,92.544783 C 43.138549,92.933243 42.814099,92.888293 42.176019,92.310833 41.060269,91.301103 41.810829,89.923673 43.378129,90.104743 44.847149,90.274453 45.161259,91.850713 43.864389,92.544783 Z M 41.522469,196.45657 C 39.186009,196.92097 38.694609,196.9166 38.385579,196.42867 37.842259,195.57084 37.929809,194.38322 38.536389,194.38322 38.827929,194.38322 39.770249,194.00601 40.630399,193.545 42.505789,192.53986 42.616499,192.52841 42.616499,193.33956 42.616499,193.68757 42.993689,194.29529 43.454719,194.69003 43.915729,195.08476 44.292929,195.5198 44.292929,195.6568 44.292929,195.7938 43.046229,196.15367 41.522469,196.45657 Z M 43.648159,57.753693 C 43.209929,58.500253 43.102909,59.471663 43.275929,61.132733 43.503209,63.314613 43.435909,63.552703 42.225719,64.848203 41.186459,65.960733 40.815619,66.135223 40.336099,65.737273 39.827879,65.315483 39.823169,65.004953 40.304379,63.641093 40.615069,62.760533 41.180829,61.437563 41.561649,60.701143 42.198159,59.470283 42.200609,59.187333 41.592239,57.195853 40.265499,52.852683 40.786099,51.667733 43.033589,53.915223 44.426889,55.308513 44.567589,56.187413 43.648159,57.753693 Z M 42.006879,157.31112 C 41.441079,157.87691 40.666059,158.33985 40.284589,158.33985 39.526959,158.33985 39.568099,157.65128 40.578209,153.42442 41.052579,151.43946 41.017559,151.02525 40.206149,149.02379 39.165819,146.4576 38.849179,144.03485 39.523499,143.80057 39.781689,143.71088 40.573479,144.5422 41.283049,145.64795 42.473089,147.50247 42.540959,147.80176 42.158009,149.50618 41.834229,150.94713 41.885149,151.70954 42.389239,152.96936 43.282579,155.20208 43.202119,156.11589 42.006879,157.31112 Z M 42.382209,110.56142 C 42.022849,110.56142 41.845359,110.37282 41.987839,110.14231 42.130309,109.9118 42.424329,109.72321 42.641239,109.72321 42.858129,109.72321 43.035609,109.9118 43.035609,110.14231 43.035609,110.37282 42.741589,110.56142 42.382209,110.56142 Z M 41.124879,190.61124 C 40.765509,190.61124 40.589949,190.41956 40.734719,190.18529 40.879519,189.95102 41.173539,189.86786 41.388119,190.00048 41.969439,190.35976 41.861049,190.61124 41.124879,190.61124 Z M 41.114689,108.88498 C 40.374579,108.88498 40.503459,107.98274 41.280589,107.72371 41.554329,107.63246 41.778279,107.85641 41.778279,108.2214 41.778279,108.58638 41.479659,108.88498 41.114689,108.88498 Z M 40.940059,46.437753 C 40.709539,46.437753 40.520959,46.249143 40.520959,46.018633 40.520959,45.788123 40.709539,45.599523 40.940059,45.599523 41.170569,45.599523 41.359169,45.788123 41.359169,46.018633 41.359169,46.249143 41.170569,46.437753 40.940059,46.437753 Z M 39.497919,166.30292 C 39.138539,166.30292 38.844509,166.11432 38.844509,165.88381 38.844509,165.6533 39.021999,165.4647 39.238899,165.4647 39.455789,165.4647 39.749829,165.6533 39.892289,165.88381 40.034759,166.11432 39.857279,166.30292 39.497919,166.30292 Z M 37.776819,185.52918 C 36.512709,187.03147 35.302729,187.21428 34.653419,186.00104 34.334739,185.40555 33.775889,185.16282 32.723539,185.16282 31.427109,185.16282 31.258969,185.04514 31.376179,184.21982 31.502949,183.32719 31.698549,183.27683 35.037609,183.27683 37.276369,183.27683 38.622479,183.44896 38.722149,183.74795 38.808529,184.00707 38.383129,184.80863 37.776819,185.52918 Z M 38.425399,66.554973 C 38.194899,66.554973 38.006299,66.083473 38.006299,65.507203 38.006299,64.930933 38.194899,64.459433 38.425399,64.459433 38.655909,64.459433 38.844509,64.930933 38.844509,65.507203 38.844509,66.083473 38.655909,66.554973 38.425399,66.554973 Z M 38.469319,61.708083 C 38.018939,61.986443 37.485389,60.772113 37.820119,60.230513 37.949719,60.020813 38.233229,59.849243 38.450139,59.849243 38.952389,59.849243 38.968389,61.399643 38.469319,61.708083 Z M 38.119579,51.580613 C 37.959389,53.115683 37.168079,53.414943 37.168079,51.940453 37.168079,51.536503 36.801669,50.812713 36.353839,50.332013 35.553309,49.472763 35.553039,49.445853 36.338229,48.735273 37.278109,47.884693 38.455569,48.187313 38.354949,49.253583 38.316199,49.664203 38.210279,50.711373 38.119579,51.580613 Z M 36.769919,200.18787 C 36.493309,200.09568 36.281129,199.88349 36.298429,199.71637 36.350269,199.21525 36.925109,199.3123 37.105219,199.8526 37.197409,200.12921 37.046539,200.28008 36.769919,200.18787 Z M 36.329859,162.53093 C 36.099349,162.53093 35.910749,162.24805 35.910749,161.90227 35.910749,161.55651 36.099349,161.2736 36.329859,161.2736 36.560379,161.2736 36.748979,161.55651 36.748979,161.90227 36.748979,162.24805 36.560379,162.53093 36.329859,162.53093 Z M 35.925489,198.57431 C 35.338109,198.57431 34.653419,197.12283 34.653419,195.87765 34.653419,194.28042 35.389429,194.57615 35.888709,196.37399 36.429109,198.31991 36.433389,198.57431 35.925489,198.57431 Z M 32.893179,180.46881 C 31.720769,181.64121 31.322339,180.39492 32.162839,178.18422 32.517639,177.25106 32.683499,177.14113 32.994629,177.63306 33.538859,178.49354 33.489519,179.87245 32.893179,180.46881 Z M 32.586839,193.73665 C 32.085339,194.04661 31.588439,193.25819 31.933439,192.69995 32.223129,192.23123 32.976979,192.53894 32.976979,193.12589 32.976979,193.32919 32.801419,193.60405 32.586839,193.73665 Z M 75.237149,120.62003 C 73.711059,120.62003 73.766359,120.80299 75.411769,121.19773 76.095989,121.36187 76.564309,121.30068 76.564309,121.04713 76.564309,120.81223 75.967089,120.62003 75.237149,120.62003 Z M 75.529699,104.27479 C 75.154779,104.27479 75.008489,104.52051 75.155429,104.90345 75.288119,105.24921 75.565089,105.53212 75.770949,105.53212 75.976799,105.53212 76.145219,105.24921 76.145219,104.90345 76.145219,104.55769 75.868239,104.27479 75.529699,104.27479 Z M 75.342879,42.709473 C 74.891849,41.997173 73.630559,42.400133 73.630559,43.256553 73.630559,44.044523 74.334819,44.483303 75.117509,44.182943 75.813449,43.915883 75.870529,43.542793 75.342879,42.709473 Z M 73.957989,96.057643 C 72.157009,96.417833 71.437039,97.149933 72.883799,97.149933 74.290749,97.149933 75.306999,96.757623 75.306999,96.214483 75.306999,95.957503 74.770529,95.895123 73.957989,96.057643 Z M 71.430239,126.92557 C 71.026839,126.91518 70.696799,127.07218 70.696799,127.27447 70.696799,128.04524 71.800489,128.47624 73.211449,128.25648 L 74.678329,128.02802 73.420999,127.48625 C 72.729469,127.18828 71.833629,126.93597 71.430239,126.92557 Z M 73.202459,56.915473 C 72.474249,56.915473 69.312439,59.178223 69.809249,59.343823 70.727269,59.649843 70.254859,60.543093 68.810809,61.231713 67.385939,61.911173 67.343919,61.906803 67.343919,61.078963 67.343919,60.610233 67.609079,59.713973 67.933149,59.087263 68.439399,58.108303 68.439399,57.834313 67.933149,57.141983 67.609079,56.698783 67.343919,55.829513 67.343919,55.210243 67.343919,54.591003 67.061029,53.849563 66.715259,53.562603 65.116879,52.236043 66.663489,50.924823 68.447649,52.093853 69.352019,52.686403 69.608559,52.712913 69.906899,52.244693 70.105989,51.932253 70.176569,51.425423 70.063729,51.118443 69.950899,50.811453 69.858569,50.296393 69.858569,49.973883 69.858569,49.651363 69.420639,49.277573 68.885389,49.143233 67.693009,48.843953 66.344369,46.680853 66.641579,45.544343 66.944849,44.384643 66.006059,44.145593 64.403299,44.974413 63.078799,45.659343 63.049339,45.652803 61.826589,44.402143 60.621909,43.169963 60.606989,43.103583 61.253359,41.853603 62.020249,40.370613 62.857619,40.216603 63.690299,41.405433 64.012059,41.864803 64.875379,42.360653 65.608789,42.507343 66.342199,42.654033 67.043759,42.938273 67.167839,43.139003 67.607909,43.851083 68.619869,43.484993 70.228369,42.031793 71.205989,41.148603 72.111699,40.656993 72.492299,40.803033 73.422179,41.159883 73.887099,40.117913 73.065929,39.517443 72.684949,39.238853 72.373239,38.634913 72.373239,38.175333 72.373239,37.715763 71.901729,36.831003 71.325459,36.209193 70.628959,35.457643 70.277689,34.594083 70.277689,33.633333 70.277689,32.162333 69.787399,31.848043 68.632699,32.578843 68.225279,32.836693 67.561689,32.634863 66.544639,31.943763 65.724679,31.386593 64.720379,30.930723 64.312879,30.930723 63.349559,30.930723 63.376669,30.297843 64.411759,28.623013 L 65.251589,27.264153 64.045569,27.022953 C 62.433049,26.700443 61.930889,25.482303 63.410469,25.482303 64.834169,25.482303 64.498129,24.477403 63.015739,24.301903 62.239069,24.209973 61.895519,24.362713 61.895519,24.799933 61.895519,25.225663 61.526399,25.404913 60.759389,25.351633 59.222329,25.244893 59.071169,26.283063 60.412929,27.730883 61.812359,29.240873 61.754959,30.027213 60.100709,32.007823 59.344089,32.913723 58.498789,34.175003 58.222269,34.810653 57.553359,36.348263 55.074339,37.572033 54.162129,36.814943 53.416959,36.196513 53.314549,35.069113 53.946179,34.437483 54.549829,33.833843 53.963409,32.505583 53.219339,32.791123 52.128599,33.209663 51.082949,32.250733 50.799279,30.571763 50.535959,29.013203 49.417219,27.996953 47.964769,27.996953 47.410999,27.996953 44.292929,24.764013 44.292929,24.189833 44.292929,23.978663 43.859149,23.805853 43.328979,23.805853 42.393049,23.805853 41.359169,23.116553 41.359169,22.492543 41.359169,22.323443 41.863269,22.125423 42.479399,22.052483 44.320989,21.834473 44.061549,20.981363 41.806149,19.838443 39.482199,18.660813 39.477509,18.652113 40.142839,16.743553 40.507819,15.696573 40.832759,15.429783 41.714509,15.453143 42.325859,15.469333 43.203239,15.631833 43.664269,15.814253 45.450539,16.521003 46.184289,15.289183 44.750149,13.991293 44.005699,13.317583 43.858459,13.314553 42.633669,13.947923 41.909649,14.322323 40.955789,14.513923 40.513969,14.373703 39.882709,14.173333 39.656259,14.370683 39.456749,15.295093 39.139029,16.767113 37.973949,19.686343 37.481859,20.243443 37.242569,20.514353 36.921929,20.405793 36.575139,19.936443 36.080279,19.266703 36.001329,19.292173 35.558359,20.264393 35.294199,20.844133 34.956779,22.113903 34.808539,23.086053 34.660279,24.058233 34.386929,25.048563 34.201069,25.286793 34.015219,25.525053 33.993809,25.921113 34.153519,26.166953 34.678979,26.975883 35.683239,27.057963 36.848519,26.387243 37.962289,25.746173 38.038889,25.768583 39.467959,27.153683 41.942049,29.551653 41.378539,29.980103 36.120309,29.698933 33.229529,29.544353 32.934629,29.206973 33.215379,26.375783 33.414679,24.365913 33.370779,24.139893 32.919719,24.853643 32.219529,25.961603 32.213459,38.594003 32.912289,40.289953 33.540879,41.815423 34.385399,41.530933 34.653419,39.703443 34.800749,38.698913 35.111879,38.229273 35.701199,38.121843 36.162219,38.037803 36.855939,37.688613 37.242829,37.345863 38.018429,36.658713 39.309029,36.890723 40.115319,37.862243 40.394869,38.199083 40.891039,38.474673 41.217909,38.474673 41.544779,38.474673 42.366589,38.884533 43.044149,39.385483 44.232729,40.264243 44.305329,40.269803 45.107629,39.543723 45.916959,38.811293 45.984449,38.839683 47.630719,40.605143 48.561059,41.602833 49.322229,42.763453 49.322229,43.184263 49.322229,44.162323 50.278949,44.532583 51.339499,43.964983 52.013039,43.604513 52.462569,43.759343 53.782129,44.806253 54.671589,45.511903 55.550749,46.357343 55.735829,46.685023 55.955339,47.073643 56.428939,47.191303 57.097929,47.023393 58.588969,46.649163 60.123259,47.152053 60.428939,48.115153 60.619719,48.716263 61.063259,48.952403 62.001519,48.952403 63.480519,48.952403 65.248369,50.361383 65.248369,51.540103 65.248369,52.097273 64.931929,52.305283 64.084319,52.305283 62.460989,52.305283 60.979469,53.432113 61.138219,54.546063 61.295559,55.650073 62.797199,55.962993 63.555159,55.049713 63.851349,54.692823 64.259189,54.400823 64.461489,54.400823 65.128499,54.400823 64.844279,56.216343 64.039229,57.098003 63.604709,57.573893 63.120969,58.386063 62.964279,58.902853 62.737899,59.649463 62.901189,59.943503 63.759289,60.334483 64.466169,60.656563 64.814969,61.128223 64.769059,61.699983 64.602979,63.768123 64.749559,63.914823 67.238939,64.171753 69.491839,64.404273 69.708999,64.346743 70.576749,63.287393 71.087229,62.664213 71.518439,61.965753 71.535019,61.735223 71.551599,61.504713 72.028939,60.750313 72.595789,60.058783 73.634139,58.792023 73.996339,56.915473 73.202459,56.915473 Z M 69.621739,40.999703 C 67.043579,41.979923 65.248369,40.972893 65.248369,38.546453 65.248369,37.312953 65.145349,37.217353 63.815769,37.217353 63.027849,37.217353 62.077879,37.334513 61.704729,37.477693 60.637669,37.887163 59.710869,40.048653 60.012829,41.423543 60.243779,42.475013 60.136709,42.670473 59.201199,42.905273 58.608479,43.054033 58.123529,43.349813 58.123529,43.562573 58.123529,44.506683 56.798909,44.369683 55.990519,43.341983 55.516639,42.739543 54.859709,42.246653 54.530669,42.246653 53.759149,42.246653 53.776909,42.038763 54.665869,40.663003 55.782369,38.935143 57.329849,37.698023 59.044359,37.162653 59.975509,36.871913 61.120209,36.023853 61.912869,35.037503 63.090119,33.572563 63.372309,33.426973 64.538189,33.683043 66.204589,34.049053 68.557589,35.898833 68.861449,37.081733 68.990319,37.583413 69.455989,38.319893 69.896279,38.718343 70.995529,39.713163 70.899179,40.514033 69.621739,40.999703 Z M 67.583419,37.821343 C 67.025419,37.063163 66.965329,37.057713 66.700349,37.741233 66.320459,38.721183 66.746949,39.732003 67.540319,39.732003 68.345719,39.732003 68.364849,38.883153 67.583419,37.821343 Z M 64.200599,35.121813 C 63.854829,35.121813 63.571949,35.304483 63.571949,35.527753 63.571949,35.751023 63.854829,35.825163 64.200599,35.692473 64.546369,35.559783 64.829259,35.377123 64.829259,35.286523 64.829259,35.195923 64.546369,35.121813 64.200599,35.121813 Z M 52.090839,41.790693 C 51.086069,42.624583 50.026889,41.154693 50.318489,39.331103 50.542139,37.932463 50.449369,37.756953 49.103219,37.031993 47.976449,36.425203 47.645789,35.982473 47.645789,35.080543 47.645789,34.438913 47.865289,33.778303 48.133559,33.612493 48.741919,33.236513 50.475389,35.189453 50.846789,36.669233 50.997049,37.267933 51.469899,38.107683 51.897559,38.535333 52.816399,39.454183 52.914539,41.107103 52.090839,41.790693 Z M 46.581329,33.864473 C 46.226379,33.864473 45.177509,33.477543 44.250489,33.004603 42.832129,32.281023 42.585689,31.966073 42.695529,31.017433 42.887039,29.363343 44.124719,29.345923 45.804129,30.973663 47.293389,32.417113 47.682519,33.864473 46.581329,33.864473 Z M 45.155879,37.636453 C 44.938979,37.636453 44.644939,37.447863 44.502479,37.217353 44.360019,36.986843 44.537489,36.798243 44.896859,36.798243 45.256229,36.798243 45.550269,36.986843 45.550269,37.217353 45.550269,37.447863 45.372789,37.636453 45.155879,37.636453 Z M 37.587189,33.864473 C 37.356679,33.864473 37.168079,33.664753 37.168079,33.420633 37.168079,33.176523 37.356679,33.093353 37.587189,33.235823 37.817689,33.378283 38.006299,33.577993 38.006299,33.679653 38.006299,33.781313 37.817689,33.864473 37.587189,33.864473 Z M 34.653419,34.283583 C 34.422909,34.283583 34.234329,33.812083 34.234329,33.235823 34.234329,32.659543 34.422909,32.188043 34.653419,32.188043 34.883929,32.188043 35.072529,32.659543 35.072529,33.235823 35.072529,33.812083 34.883929,34.283583 34.653419,34.283583 Z M 70.312119,121.55627 C 68.814739,121.41239 67.745269,121.57005 66.630549,122.09903 L 65.059419,122.84458 66.451929,123.50405 C 67.750609,124.1191 67.882159,124.11195 68.404249,123.39796 68.856849,122.779 69.287519,122.68703 70.653259,122.91778 71.582329,123.07474 72.554429,123.07218 72.813479,122.91207 73.661529,122.38796 72.518229,121.76825 70.312119,121.55627 Z M 71.488079,42.904343 C 71.011159,43.199083 71.002399,45.060803 71.476559,45.353853 72.061879,45.715593 72.240779,45.267033 72.044489,43.929763 71.943149,43.239273 71.692769,42.777823 71.488079,42.904343 Z M 70.744439,166.12281 C 70.540149,165.99653 70.274959,166.26813 70.155119,166.72632 69.932979,167.57583 70.363139,168.1733 70.847889,167.68855 71.236579,167.29988 71.176439,166.38981 70.744439,166.12281 Z M 69.153869,53.981703 C 68.621079,53.981703 68.595429,54.098353 69.016529,54.605753 69.301379,54.948983 69.704759,55.124563 69.912899,54.995903 70.447879,54.665273 69.936289,53.981703 69.153869,53.981703 Z M 69.635869,45.599523 C 68.960229,45.599523 68.319709,46.715023 68.748899,47.144223 69.047399,47.442713 70.277689,46.495613 70.277689,45.967323 70.277689,45.765033 69.988869,45.599523 69.635869,45.599523 Z M 68.601239,155.8252 C 68.135569,155.8252 67.763029,156.10459 67.763029,156.45386 67.763029,156.80312 68.135569,157.08253 68.601239,157.08253 69.066929,157.08253 69.439469,156.80312 69.439469,156.45386 69.439469,156.10459 69.066929,155.8252 68.601239,155.8252 Z M 67.896529,165.0456 C 67.363769,165.0456 67.338109,165.16223 67.759209,165.66964 68.044069,166.01287 68.447429,166.18844 68.655579,166.05979 69.190559,165.72914 68.678969,165.0456 67.896529,165.0456 Z M 63.128079,115.17163 C 62.219659,115.17163 61.476409,115.01696 61.476409,114.82795 61.476409,114.63893 60.816309,113.7131 60.009519,112.77056 59.202739,111.82801 58.542639,110.63937 58.542639,110.12915 58.542639,109.35473 58.439439,109.28711 57.918029,109.71985 57.518369,110.05153 57.385309,110.60439 57.548589,111.25493 57.717829,111.92925 57.549759,112.55232 57.049489,113.1051 56.320279,113.91086 56.325779,113.95996 57.214989,114.58279 57.720849,114.93712 58.501389,115.94569 58.949519,116.82406 59.940579,118.76672 60.658529,119.08328 62.778609,118.51241 63.948909,118.19727 64.410169,117.84766 64.410169,117.27575 64.410169,116.8372 64.601839,116.35995 64.836099,116.21517 65.651729,115.71108 64.768769,115.17163 63.128079,115.17163 Z M 63.426359,90.884403 C 61.255189,90.167853 59.423719,91.234063 59.394179,93.231773 59.385649,93.809943 58.854619,94.443863 57.913969,94.998853 56.286139,95.959303 56.037349,96.702153 57.238349,97.016223 57.814469,97.166873 58.013889,97.571383 57.971779,98.503973 57.894879,100.20774 58.809929,100.47168 59.166429,98.848563 59.320989,98.144833 59.626989,97.569043 59.846419,97.569043 60.065849,97.569043 60.362419,97.238993 60.505479,96.835593 61.016249,95.395303 62.025529,94.635283 63.427349,94.635283 64.778899,94.635283 64.829259,94.576213 64.829259,92.991343 64.829259,91.498463 64.700369,91.304863 63.426359,90.884403 Z M 60.902879,50.788333 C 60.065769,51.138123 59.380849,51.694803 59.380849,52.025453 59.380849,52.356103 58.987249,52.729553 58.506189,52.855353 57.941789,53.002933 57.683319,53.353093 57.777549,53.842403 58.025099,55.127853 59.271889,54.989003 59.992369,53.595753 60.355379,52.893793 61.236639,52.017313 61.950759,51.648043 63.810089,50.686533 62.911309,49.949153 60.902879,50.788333 Z M 61.245459,192.34411 C 60.561859,192.21165 60.531069,192.28228 61.017179,192.86799 61.681969,193.66903 62.458969,193.76876 62.210029,193.02111 62.114099,192.73298 61.680029,192.42833 61.245459,192.34411 Z M 60.408859,159.58495 C 59.438029,158.98496 58.837599,158.243 58.678299,157.44651 58.329129,155.70064 57.840249,155.60415 57.053399,157.12577 56.377199,158.43338 56.384959,158.46909 57.559419,159.45171 59.581019,161.14306 60.866729,161.71564 61.414059,161.16832 62.045599,160.53675 62.108039,160.63511 60.408859,159.58495 Z M 60.023459,56.810233 C 58.601559,57.082053 56.447089,54.931703 56.447089,53.240683 56.447089,52.548343 56.082769,51.686373 55.608869,51.257503 55.147849,50.840283 54.770659,50.153503 54.770659,49.731303 54.770659,48.919323 51.961799,46.049243 51.148289,46.029983 50.126009,46.005783 50.284509,47.235503 51.492639,48.701153 52.400079,49.802043 52.635949,50.380593 52.328379,50.751173 52.092739,51.035123 51.838579,51.826723 51.763629,52.510293 51.653249,53.516773 51.786739,53.754923 52.465549,53.762633 53.447029,53.773773 53.485209,54.169093 52.664879,55.827203 52.115169,56.938343 52.131769,57.083953 52.856109,57.503633 53.292379,57.756413 54.003139,58.300493 54.435539,58.712673 55.399509,59.631553 57.638229,59.328903 59.689999,58.002353 61.314119,56.952263 61.429009,56.541543 60.023459,56.810233 Z M 58.563269,152.9962 C 56.590909,151.35875 54.827599,151.21554 53.402969,152.57711 52.860279,153.09574 52.083699,153.70869 51.677219,153.93921 50.993429,154.32697 50.987239,154.45235 51.594499,155.61563 52.492179,157.33529 52.445049,158.03723 51.453049,157.72238 51.011419,157.58221 50.542189,157.64213 50.410309,157.85555 50.091029,158.37214 50.950599,160.87151 51.774799,161.82309 52.346959,162.48367 52.352859,162.63232 51.820229,162.96923 51.483629,163.18212 51.071629,163.35921 50.904669,163.36274 50.417389,163.37305 49.263399,165.86864 49.539399,166.31522 49.979769,167.02776 50.747279,166.73825 52.337029,165.25992 53.694769,163.99735 53.856199,163.64325 53.650889,162.37806 53.459719,161.19993 53.579239,160.84872 54.303309,160.46122 54.925569,160.12819 55.189779,159.58247 55.189779,158.63014 55.189779,157.73399 55.626909,156.74318 56.477599,155.71114 57.800539,154.10618 58.832899,153.76845 59.716129,154.65168 59.992759,154.92831 60.215679,154.97545 60.211499,154.75646 60.207359,154.53749 59.465649,153.74537 58.563269,152.9962 Z M 58.174849,77.451803 C 57.742059,77.451803 57.151229,77.166593 56.861909,76.817983 56.267909,76.102253 55.189779,76.679143 55.189779,77.712693 55.189779,78.030213 55.001169,78.290033 54.770659,78.290033 53.987459,78.290033 54.347169,79.624693 55.189779,79.845033 56.189879,80.106563 56.227709,80.380413 55.412649,81.458013 54.636939,82.483623 54.601789,83.319343 55.334349,83.319343 56.187839,83.319343 57.243459,81.956963 57.540399,80.472253 57.686169,79.743383 58.065609,78.931123 58.383599,78.667223 59.195499,77.993403 59.102479,77.451803 58.174849,77.451803 Z M 58.527879,22.101873 C 57.928829,20.982523 54.164089,20.921233 53.740939,22.023943 53.147359,23.570833 57.477089,25.989043 58.682339,24.783793 59.098019,24.368113 59.020519,23.022353 58.527879,22.101873 Z M 56.668809,27.985533 C 55.290389,29.280473 54.456179,31.734663 55.231549,32.213873 56.072799,32.733803 56.865359,31.836303 56.872609,30.355503 56.876149,29.634583 57.061849,28.761833 57.285309,28.416063 58.043719,27.242493 57.708749,27.008563 56.668809,27.985533 Z M 55.804209,130.54673 C 54.098409,129.73329 52.564629,129.64578 51.355459,130.2929 50.579249,130.70831 50.564369,130.80542 51.173669,131.47867 51.538669,131.88201 52.799659,132.66274 53.975879,133.21365 56.066919,134.19304 56.127419,134.19751 56.699859,133.41464 57.642789,132.1251 57.385339,131.30072 55.804209,130.54673 Z M 52.427959,23.386763 C 52.292019,23.386763 51.826799,23.811113 51.394139,24.329753 50.488209,25.415673 50.215259,28.527173 51.103449,27.643193 51.995429,26.755443 53.043689,23.386763 52.427959,23.386763 Z M 51.647939,16.865543 C 50.263609,15.958453 49.237929,16.233713 48.534679,17.700993 47.859249,19.110223 48.196389,19.914063 49.858889,20.858203 50.838499,21.414533 51.023789,21.398383 51.808259,20.688463 53.019919,19.591923 52.941119,17.712843 51.647939,16.865543 Z M 51.469109,197.7361 C 51.266829,197.7361 50.866529,198.01898 50.579569,198.36476 50.156429,198.8746 50.173139,198.99343 50.667959,198.99343 51.003519,198.99343 51.403819,198.86769 51.557479,198.71402 51.955509,198.31598 51.903099,197.7361 51.469109,197.7361 Z M 50.500979,96.863633 C 50.166639,96.997423 50.265949,97.096743 50.754199,97.116853 51.196009,97.135043 51.443539,97.035993 51.304279,96.896703 51.165009,96.757463 50.803529,96.742563 50.500979,96.863633 Z M 49.741349,102.17925 C 49.280329,102.17925 48.903129,102.36783 48.903129,102.59835 48.903129,102.82885 49.280329,103.01746 49.741349,103.01746 50.202359,103.01746 50.579569,102.82885 50.579569,102.59835 50.579569,102.36783 50.202359,102.17925 49.741349,102.17925 Z M 49.661589,49.371513 C 49.110709,49.371513 49.455649,50.324043 50.082159,50.532883 50.388419,50.634973 50.482089,50.443373 50.325459,50.035213 50.185389,49.670173 49.886629,49.371513 49.661589,49.371513 Z M 48.344319,161.2736 C 47.443639,161.2736 47.224389,161.74353 47.705589,162.64266 48.067549,163.31898 48.226549,163.36943 48.522649,162.9019 49.065379,162.04491 48.980899,161.2736 48.344319,161.2736 Z M 46.975229,23.973503 C 46.300949,24.232253 46.295539,24.311653 46.910249,24.926353 47.311739,25.327853 47.875959,25.483663 48.316379,25.314643 48.990649,25.055913 48.996069,24.976523 48.381369,24.361813 47.979889,23.960303 47.415649,23.804493 46.975229,23.973503 Z M 45.327369,20.637863 C 44.735209,21.420803 44.474749,22.967653 44.935109,22.967653 45.231759,22.967653 45.912789,21.245393 45.929469,20.452993 45.939379,19.982353 45.788039,20.028833 45.327369,20.637863 Z M 40.311389,9.5561629 C 39.965639,9.2691829 39.682729,8.6572129 39.682729,8.1962029 39.682729,7.4986329 39.577229,7.4455229 39.054069,7.8797229 38.208079,8.5818329 38.212039,11.596143 39.059399,11.921293 39.783239,12.199053 40.940059,11.388733 40.940059,10.603923 40.940059,10.314613 40.657159,9.8431129 40.311389,9.5561629 Z M 37.821469,12.909033 C 37.719819,12.909033 37.520099,13.097623 37.377629,13.328133 37.235179,13.558643 37.318339,13.747253 37.562449,13.747253 37.806569,13.747253 38.006299,13.558643 38.006299,13.328133 38.006299,13.097623 37.923129,12.909033 37.821469,12.909033 Z M 36.748979,11.023043 C 36.518459,11.165513 36.329859,11.564963 36.329859,11.910733 36.329859,12.256503 36.518459,12.422833 36.748979,12.280363 36.979489,12.137913 37.168079,11.738453 37.168079,11.392673 37.168079,11.046913 36.979489,10.880573 36.748979,11.023043 Z M 36.329859,69.069643 C 36.099349,69.069643 35.910749,69.457963 35.910749,69.932583 35.910749,70.407203 36.099349,70.678983 36.329859,70.536513 36.560379,70.394053 36.748979,70.005723 36.748979,69.673563 36.748979,69.341403 36.560379,69.069643 36.329859,69.069643 Z M 26.807809,111.38962 C 25.196289,111.22721 24.318389,110.87252 23.436379,110.02751 22.192569,108.83586 21.241919,108.54681 21.241919,109.36025 21.241919,110.61789 22.306749,113.14284 23.185089,113.96799 24.103139,114.83044 24.281249,114.85364 25.952199,114.32832 28.650399,113.48003 29.268479,113.08721 29.121149,112.31435 29.022609,111.79751 28.404869,111.55055 26.807809,111.38962 Z M 25.603689,95.497483 C 22.541689,94.964253 22.072669,95.138233 21.004749,97.203373 19.874649,99.388763 20.564399,102.02992 21.752119,100.06511 22.447179,98.915243 25.063859,97.569043 26.603789,97.569043 27.913509,97.569043 28.366779,97.292743 28.366779,96.494433 28.366779,96.186943 27.250969,95.784343 25.603689,95.497483 Z M 17.260409,120.46847 C 16.914639,120.60116 16.631739,120.78384 16.631739,120.87444 16.631739,120.96503 16.914639,121.03914 17.260409,121.03914 17.606159,121.03914 17.889059,120.85647 17.889059,120.63319 17.889059,120.40991 17.606159,120.3358 17.260409,120.46847 Z"
       id="path13939"
       inkscape:connector-curvature="0" />
  </g>
</svg>
