M48
; DRILL file {KiCad (5.1.2)-2} date 8/12/2020 11:33:38 PM
; FORMAT={-:-/ absolute / inch / decimal}
; #@! TF.CreationDate,2020-12-08T23:33:38+13:00
; #@! TF.GenerationSoftware,Kicad,Pcbnew,(5.1.2)-2
; #@! TF.FileFunction,Plated,1,4,PTH
FMAT,2
INCH
T1C0.0079
T2C0.0394
T3C0.0520
T4C0.0698
T5C0.0906
%
G90
G05
T1
X2.5Y-1.6857
X2.5Y-1.8307
X2.5Y-1.9757
X2.5Y-3.733
X2.5Y-3.878
X2.5Y-4.023
X2.6535Y-1.8819
X2.6575Y-3.9272
X2.7028Y-3.8536
X2.7028Y-3.8768
X2.7083Y-1.7733
X2.7248Y-1.7897
X3.061Y-2.8839
X3.0866Y-2.3425
X3.0866Y-2.4409
X3.0866Y-2.5
X3.0866Y-2.5591
X3.0866Y-2.6181
X3.0866Y-3.2087
X3.0866Y-3.3071
X3.0866Y-3.3661
X3.0866Y-3.4252
X3.0866Y-3.4843
X3.1594Y-3.0709
X3.1919Y-2.0472
X3.2176Y-2.0472
X3.2579Y-3.9665
X3.2913Y-3.0709
X3.3592Y-3.1299
X3.3849Y-3.1299
X3.3858Y-3.8484
X3.3957Y-1.9291
X3.4277Y-2.1825
X3.4449Y-3.7894
X3.4534Y-2.1825
X3.4744Y-2.5984
X3.512Y-2.0177
X3.5138Y-2.3327
X3.5138Y-2.3917
X3.5138Y-2.4508
X3.5335Y-3.7795
X3.5353Y-2.0177
X3.5689Y-1.9569
X3.5689Y-1.9801
X3.5698Y-2.126
X3.5728Y-1.8602
X3.5728Y-2.5098
X3.5955Y-2.126
X3.6024Y-2.3327
X3.6024Y-2.4311
X3.6104Y-2.0177
X3.6319Y-2.5098
X3.6337Y-2.0177
X3.6772Y-2.0276
X3.6772Y-2.1811
X3.6811Y-2.3327
X3.6811Y-2.4311
X3.6909Y-2.5098
X3.7697Y-2.3327
X3.7697Y-2.3917
X3.7697Y-2.4508
X3.7795Y-2.0965
X3.7992Y-2.0768
X3.7992Y-2.6378
X3.8189Y-2.5591
X3.9129Y-2.5989
X3.9291Y-3.0098
X3.9921Y-2.8543
X4.0039Y-3.1811
X4.0453Y-2.7559
X4.065Y-2.9626
X4.1437Y-2.9823
X4.1909Y-3.0098
X4.2028Y-3.1004
X4.252Y-2.7992
X4.2618Y-3.189
X4.2717Y-2.9626
X4.311Y-3.0413
X4.3307Y-3.1594
X4.5236Y-2.6378
X4.5433Y-2.3031
X4.5433Y-2.3622
X4.5433Y-2.4213
X4.5433Y-2.4803
X4.6614Y-2.5787
T2
X4.6949Y-3.1256
X4.6949Y-3.2256
X4.6949Y-3.3055
X4.6949Y-3.4055
T3
X2.6567Y-2.0965
X2.6567Y-2.7461
X4.9713Y-2.1752
X4.9713Y-2.8248
X2.6567Y-2.9626
X2.6567Y-3.6122
T4
X2.9236Y-2.0965
X2.9236Y-2.7461
X4.7043Y-2.1752
X4.7043Y-2.8248
X2.9236Y-2.9626
X2.9236Y-3.6122
T5
X4.8Y-3.0055
X4.8Y-3.5457
T0
M30
