G04 #@! TF.GenerationSoftware,KiCad,Pcbnew,(5.1.2)-2*
G04 #@! TF.CreationDate,2020-12-08T23:46:53+13:00*
G04 #@! TF.ProjectId,DPSwitch,44505377-6974-4636-982e-6b696361645f,rev?*
G04 #@! TF.SameCoordinates,Original*
G04 #@! TF.FileFunction,Legend,Top*
G04 #@! TF.FilePolarity,Positive*
%FSLAX46Y46*%
G04 Gerber Fmt 4.6, Leading zero omitted, Abs format (unit mm)*
G04 Created by KiCad (PCBNEW (5.1.2)-2) date 2020-12-08 23:46:53*
%MOMM*%
%LPD*%
G04 APERTURE LIST*
%ADD10C,0.150000*%
%ADD11C,0.100000*%
%ADD12C,0.120000*%
%ADD13C,0.200000*%
%ADD14C,0.304800*%
%ADD15C,0.066040*%
%ADD16R,0.352000X0.852000*%
%ADD17R,1.002000X1.302000*%
%ADD18R,1.602000X1.352000*%
%ADD19R,1.302000X1.002000*%
%ADD20C,1.552000*%
%ADD21C,2.762000*%
%ADD22C,2.084000*%
%ADD23R,2.502000X0.382000*%
%ADD24R,0.902000X1.002000*%
%ADD25R,1.302000X0.852000*%
%ADD26C,1.051560*%
%ADD27R,1.651000X0.601980*%
%ADD28R,1.701800X2.702560*%
%ADD29R,1.701800X2.001520*%
%ADD30R,1.227000X1.402000*%
%ADD31O,0.342000X0.702000*%
%ADD32O,0.702000X0.342000*%
%ADD33R,1.652000X1.402000*%
%ADD34C,1.602000*%
%ADD35C,3.102000*%
%ADD36R,0.852000X1.302000*%
G04 APERTURE END LIST*
D10*
X94902500Y-87452380D02*
X94902500Y-88166666D01*
X94854880Y-88309523D01*
X94759642Y-88404761D01*
X94616785Y-88452380D01*
X94521547Y-88452380D01*
X95807261Y-88452380D02*
X95807261Y-87928571D01*
X95759642Y-87833333D01*
X95664404Y-87785714D01*
X95473928Y-87785714D01*
X95378690Y-87833333D01*
X95807261Y-88404761D02*
X95712023Y-88452380D01*
X95473928Y-88452380D01*
X95378690Y-88404761D01*
X95331071Y-88309523D01*
X95331071Y-88214285D01*
X95378690Y-88119047D01*
X95473928Y-88071428D01*
X95712023Y-88071428D01*
X95807261Y-88023809D01*
X96283452Y-88452380D02*
X96283452Y-87785714D01*
X96283452Y-87976190D02*
X96331071Y-87880952D01*
X96378690Y-87833333D01*
X96473928Y-87785714D01*
X96569166Y-87785714D01*
X97283452Y-88404761D02*
X97188214Y-88452380D01*
X96997738Y-88452380D01*
X96902500Y-88404761D01*
X96854880Y-88309523D01*
X96854880Y-87928571D01*
X96902500Y-87833333D01*
X96997738Y-87785714D01*
X97188214Y-87785714D01*
X97283452Y-87833333D01*
X97331071Y-87928571D01*
X97331071Y-88023809D01*
X96854880Y-88119047D01*
X98188214Y-88452380D02*
X98188214Y-87452380D01*
X98188214Y-88404761D02*
X98092976Y-88452380D01*
X97902500Y-88452380D01*
X97807261Y-88404761D01*
X97759642Y-88357142D01*
X97712023Y-88261904D01*
X97712023Y-87976190D01*
X97759642Y-87880952D01*
X97807261Y-87833333D01*
X97902500Y-87785714D01*
X98092976Y-87785714D01*
X98188214Y-87833333D01*
X99378690Y-88404761D02*
X99521547Y-88452380D01*
X99759642Y-88452380D01*
X99854880Y-88404761D01*
X99902500Y-88357142D01*
X99950119Y-88261904D01*
X99950119Y-88166666D01*
X99902500Y-88071428D01*
X99854880Y-88023809D01*
X99759642Y-87976190D01*
X99569166Y-87928571D01*
X99473928Y-87880952D01*
X99426309Y-87833333D01*
X99378690Y-87738095D01*
X99378690Y-87642857D01*
X99426309Y-87547619D01*
X99473928Y-87500000D01*
X99569166Y-87452380D01*
X99807261Y-87452380D01*
X99950119Y-87500000D01*
X100807261Y-88452380D02*
X100807261Y-87928571D01*
X100759642Y-87833333D01*
X100664404Y-87785714D01*
X100473928Y-87785714D01*
X100378690Y-87833333D01*
X100807261Y-88404761D02*
X100712023Y-88452380D01*
X100473928Y-88452380D01*
X100378690Y-88404761D01*
X100331071Y-88309523D01*
X100331071Y-88214285D01*
X100378690Y-88119047D01*
X100473928Y-88071428D01*
X100712023Y-88071428D01*
X100807261Y-88023809D01*
X101283452Y-87785714D02*
X101283452Y-88452380D01*
X101283452Y-87880952D02*
X101331071Y-87833333D01*
X101426309Y-87785714D01*
X101569166Y-87785714D01*
X101664404Y-87833333D01*
X101712023Y-87928571D01*
X101712023Y-88452380D01*
X102140595Y-88404761D02*
X102235833Y-88452380D01*
X102426309Y-88452380D01*
X102521547Y-88404761D01*
X102569166Y-88309523D01*
X102569166Y-88261904D01*
X102521547Y-88166666D01*
X102426309Y-88119047D01*
X102283452Y-88119047D01*
X102188214Y-88071428D01*
X102140595Y-87976190D01*
X102140595Y-87928571D01*
X102188214Y-87833333D01*
X102283452Y-87785714D01*
X102426309Y-87785714D01*
X102521547Y-87833333D01*
X103140595Y-88452380D02*
X103045357Y-88404761D01*
X102997738Y-88357142D01*
X102950119Y-88261904D01*
X102950119Y-87976190D01*
X102997738Y-87880952D01*
X103045357Y-87833333D01*
X103140595Y-87785714D01*
X103283452Y-87785714D01*
X103378690Y-87833333D01*
X103426309Y-87880952D01*
X103473928Y-87976190D01*
X103473928Y-88261904D01*
X103426309Y-88357142D01*
X103378690Y-88404761D01*
X103283452Y-88452380D01*
X103140595Y-88452380D01*
X103902500Y-87785714D02*
X103902500Y-88452380D01*
X103902500Y-87880952D02*
X103950119Y-87833333D01*
X104045357Y-87785714D01*
X104188214Y-87785714D01*
X104283452Y-87833333D01*
X104331071Y-87928571D01*
X104331071Y-88452380D01*
X105807261Y-88785714D02*
X105807261Y-87357142D01*
X107283452Y-87785714D02*
X107283452Y-88642857D01*
X107235833Y-88738095D01*
X107140595Y-88785714D01*
X107092976Y-88785714D01*
X107283452Y-87452380D02*
X107235833Y-87500000D01*
X107283452Y-87547619D01*
X107331071Y-87500000D01*
X107283452Y-87452380D01*
X107283452Y-87547619D01*
X108188214Y-88452380D02*
X108188214Y-87928571D01*
X108140595Y-87833333D01*
X108045357Y-87785714D01*
X107854880Y-87785714D01*
X107759642Y-87833333D01*
X108188214Y-88404761D02*
X108092976Y-88452380D01*
X107854880Y-88452380D01*
X107759642Y-88404761D01*
X107712023Y-88309523D01*
X107712023Y-88214285D01*
X107759642Y-88119047D01*
X107854880Y-88071428D01*
X108092976Y-88071428D01*
X108188214Y-88023809D01*
X108664404Y-88452380D02*
X108664404Y-87785714D01*
X108664404Y-87976190D02*
X108712023Y-87880952D01*
X108759642Y-87833333D01*
X108854880Y-87785714D01*
X108950119Y-87785714D01*
X109664404Y-88404761D02*
X109569166Y-88452380D01*
X109378690Y-88452380D01*
X109283452Y-88404761D01*
X109235833Y-88309523D01*
X109235833Y-87928571D01*
X109283452Y-87833333D01*
X109378690Y-87785714D01*
X109569166Y-87785714D01*
X109664404Y-87833333D01*
X109712023Y-87928571D01*
X109712023Y-88023809D01*
X109235833Y-88119047D01*
X110569166Y-88452380D02*
X110569166Y-87452380D01*
X110569166Y-88404761D02*
X110473928Y-88452380D01*
X110283452Y-88452380D01*
X110188214Y-88404761D01*
X110140595Y-88357142D01*
X110092976Y-88261904D01*
X110092976Y-87976190D01*
X110140595Y-87880952D01*
X110188214Y-87833333D01*
X110283452Y-87785714D01*
X110473928Y-87785714D01*
X110569166Y-87833333D01*
X111045357Y-88357142D02*
X111092976Y-88404761D01*
X111045357Y-88452380D01*
X110997738Y-88404761D01*
X111045357Y-88357142D01*
X111045357Y-88452380D01*
X111950119Y-87785714D02*
X111950119Y-88595238D01*
X111902500Y-88690476D01*
X111854880Y-88738095D01*
X111759642Y-88785714D01*
X111616785Y-88785714D01*
X111521547Y-88738095D01*
X111950119Y-88404761D02*
X111854880Y-88452380D01*
X111664404Y-88452380D01*
X111569166Y-88404761D01*
X111521547Y-88357142D01*
X111473928Y-88261904D01*
X111473928Y-87976190D01*
X111521547Y-87880952D01*
X111569166Y-87833333D01*
X111664404Y-87785714D01*
X111854880Y-87785714D01*
X111950119Y-87833333D01*
X112807261Y-88404761D02*
X112712023Y-88452380D01*
X112521547Y-88452380D01*
X112426309Y-88404761D01*
X112378690Y-88309523D01*
X112378690Y-87928571D01*
X112426309Y-87833333D01*
X112521547Y-87785714D01*
X112712023Y-87785714D01*
X112807261Y-87833333D01*
X112854880Y-87928571D01*
X112854880Y-88023809D01*
X112378690Y-88119047D01*
X113664404Y-88404761D02*
X113569166Y-88452380D01*
X113378690Y-88452380D01*
X113283452Y-88404761D01*
X113235833Y-88309523D01*
X113235833Y-87928571D01*
X113283452Y-87833333D01*
X113378690Y-87785714D01*
X113569166Y-87785714D01*
X113664404Y-87833333D01*
X113712023Y-87928571D01*
X113712023Y-88023809D01*
X113235833Y-88119047D01*
X114140595Y-88452380D02*
X114140595Y-87452380D01*
X114235833Y-88071428D02*
X114521547Y-88452380D01*
X114521547Y-87785714D02*
X114140595Y-88166666D01*
X114950119Y-88357142D02*
X114997738Y-88404761D01*
X114950119Y-88452380D01*
X114902500Y-88404761D01*
X114950119Y-88357142D01*
X114950119Y-88452380D01*
X115426309Y-87785714D02*
X115426309Y-88452380D01*
X115426309Y-87880952D02*
X115473928Y-87833333D01*
X115569166Y-87785714D01*
X115712023Y-87785714D01*
X115807261Y-87833333D01*
X115854880Y-87928571D01*
X115854880Y-88452380D01*
X116235833Y-87785714D02*
X116759642Y-87785714D01*
X116235833Y-88452380D01*
X116759642Y-88452380D01*
X103092976Y-85452380D02*
X103092976Y-84452380D01*
X103331071Y-84452380D01*
X103473928Y-84500000D01*
X103569166Y-84595238D01*
X103616785Y-84690476D01*
X103664404Y-84880952D01*
X103664404Y-85023809D01*
X103616785Y-85214285D01*
X103569166Y-85309523D01*
X103473928Y-85404761D01*
X103331071Y-85452380D01*
X103092976Y-85452380D01*
X104092976Y-85452380D02*
X104092976Y-84785714D01*
X104092976Y-84452380D02*
X104045357Y-84500000D01*
X104092976Y-84547619D01*
X104140595Y-84500000D01*
X104092976Y-84452380D01*
X104092976Y-84547619D01*
X104521547Y-85404761D02*
X104616785Y-85452380D01*
X104807261Y-85452380D01*
X104902500Y-85404761D01*
X104950119Y-85309523D01*
X104950119Y-85261904D01*
X104902500Y-85166666D01*
X104807261Y-85119047D01*
X104664404Y-85119047D01*
X104569166Y-85071428D01*
X104521547Y-84976190D01*
X104521547Y-84928571D01*
X104569166Y-84833333D01*
X104664404Y-84785714D01*
X104807261Y-84785714D01*
X104902500Y-84833333D01*
X105378690Y-84785714D02*
X105378690Y-85785714D01*
X105378690Y-84833333D02*
X105473928Y-84785714D01*
X105664404Y-84785714D01*
X105759642Y-84833333D01*
X105807261Y-84880952D01*
X105854880Y-84976190D01*
X105854880Y-85261904D01*
X105807261Y-85357142D01*
X105759642Y-85404761D01*
X105664404Y-85452380D01*
X105473928Y-85452380D01*
X105378690Y-85404761D01*
X106426309Y-85452380D02*
X106331071Y-85404761D01*
X106283452Y-85309523D01*
X106283452Y-84452380D01*
X107235833Y-85452380D02*
X107235833Y-84928571D01*
X107188214Y-84833333D01*
X107092976Y-84785714D01*
X106902500Y-84785714D01*
X106807261Y-84833333D01*
X107235833Y-85404761D02*
X107140595Y-85452380D01*
X106902500Y-85452380D01*
X106807261Y-85404761D01*
X106759642Y-85309523D01*
X106759642Y-85214285D01*
X106807261Y-85119047D01*
X106902500Y-85071428D01*
X107140595Y-85071428D01*
X107235833Y-85023809D01*
X107616785Y-84785714D02*
X107854880Y-85452380D01*
X108092976Y-84785714D02*
X107854880Y-85452380D01*
X107759642Y-85690476D01*
X107712023Y-85738095D01*
X107616785Y-85785714D01*
X108473928Y-85452380D02*
X108473928Y-84452380D01*
X108854880Y-84452380D01*
X108950119Y-84500000D01*
X108997738Y-84547619D01*
X109045357Y-84642857D01*
X109045357Y-84785714D01*
X108997738Y-84880952D01*
X108950119Y-84928571D01*
X108854880Y-84976190D01*
X108473928Y-84976190D01*
X109616785Y-85452380D02*
X109521547Y-85404761D01*
X109473928Y-85357142D01*
X109426309Y-85261904D01*
X109426309Y-84976190D01*
X109473928Y-84880952D01*
X109521547Y-84833333D01*
X109616785Y-84785714D01*
X109759642Y-84785714D01*
X109854880Y-84833333D01*
X109902500Y-84880952D01*
X109950119Y-84976190D01*
X109950119Y-85261904D01*
X109902500Y-85357142D01*
X109854880Y-85404761D01*
X109759642Y-85452380D01*
X109616785Y-85452380D01*
X110378690Y-85452380D02*
X110378690Y-84785714D01*
X110378690Y-84976190D02*
X110426309Y-84880952D01*
X110473928Y-84833333D01*
X110569166Y-84785714D01*
X110664404Y-84785714D01*
X110854880Y-84785714D02*
X111235833Y-84785714D01*
X110997738Y-84452380D02*
X110997738Y-85309523D01*
X111045357Y-85404761D01*
X111140595Y-85452380D01*
X111235833Y-85452380D01*
X112283452Y-85404761D02*
X112426309Y-85452380D01*
X112664404Y-85452380D01*
X112759642Y-85404761D01*
X112807261Y-85357142D01*
X112854880Y-85261904D01*
X112854880Y-85166666D01*
X112807261Y-85071428D01*
X112759642Y-85023809D01*
X112664404Y-84976190D01*
X112473928Y-84928571D01*
X112378690Y-84880952D01*
X112331071Y-84833333D01*
X112283452Y-84738095D01*
X112283452Y-84642857D01*
X112331071Y-84547619D01*
X112378690Y-84500000D01*
X112473928Y-84452380D01*
X112712023Y-84452380D01*
X112854880Y-84500000D01*
X113188214Y-84785714D02*
X113378690Y-85452380D01*
X113569166Y-84976190D01*
X113759642Y-85452380D01*
X113950119Y-84785714D01*
X114331071Y-85452380D02*
X114331071Y-84785714D01*
X114331071Y-84452380D02*
X114283452Y-84500000D01*
X114331071Y-84547619D01*
X114378690Y-84500000D01*
X114331071Y-84452380D01*
X114331071Y-84547619D01*
X114664404Y-84785714D02*
X115045357Y-84785714D01*
X114807261Y-84452380D02*
X114807261Y-85309523D01*
X114854880Y-85404761D01*
X114950119Y-85452380D01*
X115045357Y-85452380D01*
X115807261Y-85404761D02*
X115712023Y-85452380D01*
X115521547Y-85452380D01*
X115426309Y-85404761D01*
X115378690Y-85357142D01*
X115331071Y-85261904D01*
X115331071Y-84976190D01*
X115378690Y-84880952D01*
X115426309Y-84833333D01*
X115521547Y-84785714D01*
X115712023Y-84785714D01*
X115807261Y-84833333D01*
X116235833Y-85452380D02*
X116235833Y-84452380D01*
X116664404Y-85452380D02*
X116664404Y-84928571D01*
X116616785Y-84833333D01*
X116521547Y-84785714D01*
X116378690Y-84785714D01*
X116283452Y-84833333D01*
X116235833Y-84880952D01*
D11*
G36*
X90500000Y-104500000D02*
G01*
X74500000Y-104500000D01*
X74500000Y-94000000D01*
X90500000Y-94000000D01*
X90500000Y-104500000D01*
G37*
X90500000Y-104500000D02*
X74500000Y-104500000D01*
X74500000Y-94000000D01*
X90500000Y-94000000D01*
X90500000Y-104500000D01*
G36*
X90500000Y-51000000D02*
G01*
X74500000Y-51000000D01*
X74500000Y-40500000D01*
X90500000Y-40500000D01*
X90500000Y-51000000D01*
G37*
X90500000Y-51000000D02*
X74500000Y-51000000D01*
X74500000Y-40500000D01*
X90500000Y-40500000D01*
X90500000Y-51000000D01*
D10*
X129452380Y-68119047D02*
X130166666Y-68119047D01*
X130309523Y-68166666D01*
X130404761Y-68261904D01*
X130452380Y-68404761D01*
X130452380Y-68500000D01*
X130452380Y-67166666D02*
X130452380Y-67642857D01*
X129452380Y-67642857D01*
X130357142Y-66261904D02*
X130404761Y-66309523D01*
X130452380Y-66452380D01*
X130452380Y-66547619D01*
X130404761Y-66690476D01*
X130309523Y-66785714D01*
X130214285Y-66833333D01*
X130023809Y-66880952D01*
X129880952Y-66880952D01*
X129690476Y-66833333D01*
X129595238Y-66785714D01*
X129500000Y-66690476D01*
X129452380Y-66547619D01*
X129452380Y-66452380D01*
X129500000Y-66309523D01*
X129547619Y-66261904D01*
X129452380Y-65547619D02*
X130166666Y-65547619D01*
X130309523Y-65595238D01*
X130404761Y-65690476D01*
X130452380Y-65833333D01*
X130452380Y-65928571D01*
X130452380Y-64595238D02*
X130452380Y-65071428D01*
X129452380Y-65071428D01*
X130357142Y-63690476D02*
X130404761Y-63738095D01*
X130452380Y-63880952D01*
X130452380Y-63976190D01*
X130404761Y-64119047D01*
X130309523Y-64214285D01*
X130214285Y-64261904D01*
X130023809Y-64309523D01*
X129880952Y-64309523D01*
X129690476Y-64261904D01*
X129595238Y-64214285D01*
X129500000Y-64119047D01*
X129452380Y-63976190D01*
X129452380Y-63880952D01*
X129500000Y-63738095D01*
X129547619Y-63690476D01*
X129452380Y-62976190D02*
X130166666Y-62976190D01*
X130309523Y-63023809D01*
X130404761Y-63119047D01*
X130452380Y-63261904D01*
X130452380Y-63357142D01*
X130452380Y-62023809D02*
X130452380Y-62500000D01*
X129452380Y-62500000D01*
X130357142Y-61119047D02*
X130404761Y-61166666D01*
X130452380Y-61309523D01*
X130452380Y-61404761D01*
X130404761Y-61547619D01*
X130309523Y-61642857D01*
X130214285Y-61690476D01*
X130023809Y-61738095D01*
X129880952Y-61738095D01*
X129690476Y-61690476D01*
X129595238Y-61642857D01*
X129500000Y-61547619D01*
X129452380Y-61404761D01*
X129452380Y-61309523D01*
X129500000Y-61166666D01*
X129547619Y-61119047D01*
X129452380Y-60404761D02*
X130166666Y-60404761D01*
X130309523Y-60452380D01*
X130404761Y-60547619D01*
X130452380Y-60690476D01*
X130452380Y-60785714D01*
X130452380Y-59452380D02*
X130452380Y-59928571D01*
X129452380Y-59928571D01*
X130357142Y-58547619D02*
X130404761Y-58595238D01*
X130452380Y-58738095D01*
X130452380Y-58833333D01*
X130404761Y-58976190D01*
X130309523Y-59071428D01*
X130214285Y-59119047D01*
X130023809Y-59166666D01*
X129880952Y-59166666D01*
X129690476Y-59119047D01*
X129595238Y-59071428D01*
X129500000Y-58976190D01*
X129452380Y-58833333D01*
X129452380Y-58738095D01*
X129500000Y-58595238D01*
X129547619Y-58547619D01*
D12*
X109450000Y-79300000D02*
X109250000Y-79300000D01*
X107150000Y-79300000D02*
X107150000Y-79700000D01*
X107050000Y-79300000D02*
X107150000Y-79300000D01*
X107050000Y-76700000D02*
X107050000Y-79300000D01*
X107250000Y-76700000D02*
X107050000Y-76700000D01*
X109450000Y-76700000D02*
X109250000Y-76700000D01*
X109450000Y-79300000D02*
X109450000Y-76700000D01*
X86850000Y-100300000D02*
X87950000Y-100300000D01*
X87950000Y-100300000D02*
X87950000Y-97700000D01*
X86850000Y-100300000D02*
X86850000Y-97700000D01*
X87950000Y-44700000D02*
X86850000Y-44700000D01*
X86850000Y-44700000D02*
X86850000Y-47300000D01*
X87950000Y-44700000D02*
X87950000Y-47300000D01*
X100250000Y-76100000D02*
X101250000Y-76100000D01*
X101250000Y-74400000D02*
X100250000Y-74400000D01*
X70500000Y-101150000D02*
X72500000Y-101150000D01*
X72500000Y-101150000D02*
X72500000Y-97250000D01*
X70500000Y-101150000D02*
X70500000Y-97250000D01*
X70500000Y-47500000D02*
X70500000Y-43600000D01*
X72500000Y-47500000D02*
X72500000Y-43600000D01*
X70500000Y-47500000D02*
X72500000Y-47500000D01*
D13*
X78500000Y-67100000D02*
G75*
G02X78500000Y-66900000I0J100000D01*
G01*
X78500000Y-66900000D02*
G75*
G02X78500000Y-67100000I0J-100000D01*
G01*
X78500000Y-66900000D02*
X78500000Y-66900000D01*
X78500000Y-67100000D02*
X78500000Y-67100000D01*
D11*
X76400000Y-69950000D02*
X76400000Y-67100000D01*
X76400000Y-53050000D02*
X76400000Y-56500000D01*
X62400000Y-69950000D02*
X65400000Y-69950000D01*
X62400000Y-53050000D02*
X62400000Y-69950000D01*
X65400000Y-53050000D02*
X62400000Y-53050000D01*
D12*
X99170000Y-79260000D02*
X100100000Y-79260000D01*
X102330000Y-79260000D02*
X101400000Y-79260000D01*
X102330000Y-79260000D02*
X102330000Y-77100000D01*
X99170000Y-79260000D02*
X99170000Y-77800000D01*
X82000000Y-77320000D02*
X83000000Y-77320000D01*
X83000000Y-78680000D02*
X82000000Y-78680000D01*
X101100000Y-82350000D02*
X100400000Y-82350000D01*
X100400000Y-81150000D02*
X101100000Y-81150000D01*
X90430000Y-98000000D02*
X90430000Y-99000000D01*
X89070000Y-99000000D02*
X89070000Y-98000000D01*
X90180000Y-46000000D02*
X90180000Y-47000000D01*
X88820000Y-47000000D02*
X88820000Y-46000000D01*
X105930000Y-77500000D02*
X105930000Y-78500000D01*
X104570000Y-78500000D02*
X104570000Y-77500000D01*
X110320000Y-78500000D02*
X110320000Y-77500000D01*
X111680000Y-77500000D02*
X111680000Y-78500000D01*
D14*
X62501780Y-50497960D02*
X61501020Y-50497960D01*
X62501780Y-42502040D02*
X61501020Y-42502040D01*
X66499740Y-50497960D02*
X66499740Y-49499740D01*
X65498980Y-50497960D02*
X66499740Y-50497960D01*
X66499740Y-42502040D02*
X66499740Y-43500260D01*
X65498980Y-42507120D02*
X65498980Y-42502040D01*
X66479420Y-42507120D02*
X65498980Y-42507120D01*
D15*
X62651640Y-47848740D02*
X62651640Y-45151260D01*
X62651640Y-45151260D02*
X64348360Y-45151260D01*
X64348360Y-47848740D02*
X64348360Y-45151260D01*
X62651640Y-47848740D02*
X64348360Y-47848740D01*
X62651640Y-51183760D02*
X62651640Y-49182240D01*
X62651640Y-49182240D02*
X64348360Y-49182240D01*
X64348360Y-51183760D02*
X64348360Y-49182240D01*
X62651640Y-51183760D02*
X64348360Y-51183760D01*
X62651640Y-43817760D02*
X62651640Y-41816240D01*
X62651640Y-41816240D02*
X64348360Y-41816240D01*
X64348360Y-43817760D02*
X64348360Y-41816240D01*
X62651640Y-43817760D02*
X64348360Y-43817760D01*
X62750700Y-51082160D02*
X62750700Y-49283840D01*
X62750700Y-49283840D02*
X64249300Y-49283840D01*
X64249300Y-51082160D02*
X64249300Y-49283840D01*
X62750700Y-51082160D02*
X64249300Y-51082160D01*
X63152020Y-47249300D02*
X63152020Y-45750700D01*
X63152020Y-45750700D02*
X63847980Y-45750700D01*
X63847980Y-47249300D02*
X63847980Y-45750700D01*
X63152020Y-47249300D02*
X63847980Y-47249300D01*
X62750700Y-43716160D02*
X62750700Y-41917840D01*
X62750700Y-41917840D02*
X64249300Y-41917840D01*
X64249300Y-43716160D02*
X64249300Y-41917840D01*
X62750700Y-43716160D02*
X64249300Y-43716160D01*
D14*
X62501780Y-102497960D02*
X61501020Y-102497960D01*
X62501780Y-94502040D02*
X61501020Y-94502040D01*
X66499740Y-102497960D02*
X66499740Y-101499740D01*
X65498980Y-102497960D02*
X66499740Y-102497960D01*
X66499740Y-94502040D02*
X66499740Y-95500260D01*
X65498980Y-94507120D02*
X65498980Y-94502040D01*
X66479420Y-94507120D02*
X65498980Y-94507120D01*
D15*
X62651640Y-99848740D02*
X62651640Y-97151260D01*
X62651640Y-97151260D02*
X64348360Y-97151260D01*
X64348360Y-99848740D02*
X64348360Y-97151260D01*
X62651640Y-99848740D02*
X64348360Y-99848740D01*
X62651640Y-103183760D02*
X62651640Y-101182240D01*
X62651640Y-101182240D02*
X64348360Y-101182240D01*
X64348360Y-103183760D02*
X64348360Y-101182240D01*
X62651640Y-103183760D02*
X64348360Y-103183760D01*
X62651640Y-95817760D02*
X62651640Y-93816240D01*
X62651640Y-93816240D02*
X64348360Y-93816240D01*
X64348360Y-95817760D02*
X64348360Y-93816240D01*
X62651640Y-95817760D02*
X64348360Y-95817760D01*
X62750700Y-103082160D02*
X62750700Y-101283840D01*
X62750700Y-101283840D02*
X64249300Y-101283840D01*
X64249300Y-103082160D02*
X64249300Y-101283840D01*
X62750700Y-103082160D02*
X64249300Y-103082160D01*
X63152020Y-99249300D02*
X63152020Y-97750700D01*
X63152020Y-97750700D02*
X63847980Y-97750700D01*
X63847980Y-99249300D02*
X63847980Y-97750700D01*
X63152020Y-99249300D02*
X63847980Y-99249300D01*
X62750700Y-95716160D02*
X62750700Y-93917840D01*
X62750700Y-93917840D02*
X64249300Y-93917840D01*
X64249300Y-95716160D02*
X64249300Y-93917840D01*
X62750700Y-95716160D02*
X64249300Y-95716160D01*
D12*
X96250000Y-64550000D02*
X96700000Y-64550000D01*
X96550000Y-56450000D02*
X96550000Y-56750000D01*
X96250000Y-56450000D02*
X96550000Y-56450000D01*
X88450000Y-56450000D02*
X88450000Y-56750000D01*
X88750000Y-56450000D02*
X88450000Y-56450000D01*
X88450000Y-64550000D02*
X88450000Y-64250000D01*
X88750000Y-64550000D02*
X88450000Y-64550000D01*
X77070000Y-49730000D02*
X77070000Y-49700000D01*
X77070000Y-43270000D02*
X77070000Y-43300000D01*
X83530000Y-43270000D02*
X83530000Y-43300000D01*
X83530000Y-49700000D02*
X83530000Y-49730000D01*
X77070000Y-47800000D02*
X77070000Y-45200000D01*
X83530000Y-49730000D02*
X77070000Y-49730000D01*
X83530000Y-47800000D02*
X83530000Y-45200000D01*
X83530000Y-43270000D02*
X77070000Y-43270000D01*
X83630000Y-95270000D02*
X83630000Y-95300000D01*
X83630000Y-101730000D02*
X83630000Y-101700000D01*
X77170000Y-101730000D02*
X77170000Y-101700000D01*
X77170000Y-95300000D02*
X77170000Y-95270000D01*
X83630000Y-97200000D02*
X83630000Y-99800000D01*
X77170000Y-95270000D02*
X83630000Y-95270000D01*
X77170000Y-97200000D02*
X77170000Y-99800000D01*
X77170000Y-101730000D02*
X83630000Y-101730000D01*
X108820000Y-70500000D02*
X108820000Y-69500000D01*
X110180000Y-69500000D02*
X110180000Y-70500000D01*
X105820000Y-70500000D02*
X105820000Y-69500000D01*
X107180000Y-69500000D02*
X107180000Y-70500000D01*
X103320000Y-70500000D02*
X103320000Y-69500000D01*
X104680000Y-69500000D02*
X104680000Y-70500000D01*
X112680000Y-69500000D02*
X112680000Y-70500000D01*
X111320000Y-70500000D02*
X111320000Y-69500000D01*
X98220000Y-70500000D02*
X98220000Y-69500000D01*
X99580000Y-69500000D02*
X99580000Y-70500000D01*
X102080000Y-69500000D02*
X102080000Y-70500000D01*
X100720000Y-70500000D02*
X100720000Y-69500000D01*
X118110000Y-75450000D02*
X120440000Y-75450000D01*
X118110000Y-90440000D02*
X120230000Y-90440000D01*
X118110000Y-75450000D02*
X118110000Y-90440000D01*
X132200000Y-75450000D02*
X132200000Y-90440000D01*
X123400000Y-75450000D02*
X132200000Y-75450000D01*
X123600000Y-90440000D02*
X132200000Y-90440000D01*
X107350000Y-64100000D02*
X106650000Y-64100000D01*
X106650000Y-62900000D02*
X107350000Y-62900000D01*
X102350000Y-62600000D02*
X101650000Y-62600000D01*
X101650000Y-61400000D02*
X102350000Y-61400000D01*
X107350000Y-61100000D02*
X106650000Y-61100000D01*
X106650000Y-59900000D02*
X107350000Y-59900000D01*
X102350000Y-59600000D02*
X101650000Y-59600000D01*
X101650000Y-58400000D02*
X102350000Y-58400000D01*
X102350000Y-58600000D02*
X101650000Y-58600000D01*
X101650000Y-57400000D02*
X102350000Y-57400000D01*
X107350000Y-63100000D02*
X106650000Y-63100000D01*
X106650000Y-61900000D02*
X107350000Y-61900000D01*
X102350000Y-61600000D02*
X101650000Y-61600000D01*
X101650000Y-60400000D02*
X102350000Y-60400000D01*
X107350000Y-60100000D02*
X106650000Y-60100000D01*
X106650000Y-58900000D02*
X107350000Y-58900000D01*
X97850000Y-66600000D02*
X97150000Y-66600000D01*
X97150000Y-65400000D02*
X97850000Y-65400000D01*
X94000000Y-53200000D02*
X94000000Y-53900000D01*
X92800000Y-53900000D02*
X92800000Y-53200000D01*
X81500000Y-55800000D02*
X81500000Y-56500000D01*
X80300000Y-56500000D02*
X80300000Y-55800000D01*
X82850000Y-81600000D02*
X82150000Y-81600000D01*
X82150000Y-80400000D02*
X82850000Y-80400000D01*
X82500000Y-55800000D02*
X82500000Y-56500000D01*
X81300000Y-56500000D02*
X81300000Y-55800000D01*
X82850000Y-82600000D02*
X82150000Y-82600000D01*
X82150000Y-81400000D02*
X82850000Y-81400000D01*
D13*
X115250000Y-57900000D02*
G75*
G02X115250000Y-58100000I0J-100000D01*
G01*
X115250000Y-58100000D02*
G75*
G02X115250000Y-57900000I0J100000D01*
G01*
X115250000Y-58100000D02*
X115250000Y-58100000D01*
X115250000Y-57900000D02*
X115250000Y-57900000D01*
D11*
X117350000Y-55050000D02*
X117350000Y-57900000D01*
X117350000Y-71950000D02*
X117350000Y-68500000D01*
X131350000Y-55050000D02*
X128350000Y-55050000D01*
X131350000Y-71950000D02*
X131350000Y-55050000D01*
X128350000Y-71950000D02*
X131350000Y-71950000D01*
D13*
X78500000Y-89100000D02*
G75*
G02X78500000Y-88900000I0J100000D01*
G01*
X78500000Y-88900000D02*
G75*
G02X78500000Y-89100000I0J-100000D01*
G01*
X78500000Y-88900000D02*
X78500000Y-88900000D01*
X78500000Y-89100000D02*
X78500000Y-89100000D01*
D11*
X76400000Y-91950000D02*
X76400000Y-89100000D01*
X76400000Y-75050000D02*
X76400000Y-78500000D01*
X62400000Y-91950000D02*
X65400000Y-91950000D01*
X62400000Y-75050000D02*
X62400000Y-91950000D01*
X65400000Y-75050000D02*
X62400000Y-75050000D01*
%LPC*%
G36*
X79670000Y-70596000D02*
G01*
X79846000Y-70423000D01*
X80025000Y-70320000D01*
X80222000Y-70278000D01*
X80379000Y-70283000D01*
X80541000Y-70340000D01*
X80704000Y-70437000D01*
X80833000Y-70568000D01*
X80929000Y-70736000D01*
X80994000Y-70944000D01*
X81029000Y-71194000D01*
X81064000Y-71419000D01*
X81140000Y-71589000D01*
X81277000Y-71746000D01*
X81461000Y-71944000D01*
X81549000Y-72117000D01*
X81573000Y-72328000D01*
X81557000Y-72486000D01*
X81493000Y-72658000D01*
X81401000Y-72825000D01*
X81271000Y-72951000D01*
X81117000Y-73052000D01*
X80955000Y-73096000D01*
X80752000Y-73094000D01*
X80537000Y-73082000D01*
X80377000Y-73102000D01*
X80230000Y-73167000D01*
X80056000Y-73287000D01*
X79862000Y-73412000D01*
X79672000Y-73491000D01*
X79485000Y-73525000D01*
X79302000Y-73514000D01*
X79123000Y-73457000D01*
X78974000Y-73374000D01*
X78867000Y-73258000D01*
X78780000Y-73101000D01*
X78732000Y-72922000D01*
X78727000Y-72734000D01*
X78752000Y-72583000D01*
X78803000Y-72434000D01*
X78888000Y-72269000D01*
X79015000Y-72071000D01*
X79136000Y-71887000D01*
X79227000Y-71727000D01*
X79298000Y-71570000D01*
X79360000Y-71395000D01*
X79422000Y-71181000D01*
X79504000Y-70901000D01*
X79578000Y-70726000D01*
X79670000Y-70596000D01*
X79670000Y-70596000D01*
G37*
G36*
X81368000Y-70428000D02*
G01*
X81485000Y-70354000D01*
X81604000Y-70305000D01*
X81798000Y-70277000D01*
X82011000Y-70277000D01*
X82227000Y-70306000D01*
X82428000Y-70359000D01*
X82600000Y-70436000D01*
X82771000Y-70557000D01*
X82940000Y-70714000D01*
X83089000Y-70884000D01*
X83198000Y-71047000D01*
X83248000Y-71179000D01*
X83227000Y-71333000D01*
X83131000Y-71481000D01*
X82969000Y-71614000D01*
X82749000Y-71721000D01*
X82530000Y-71785000D01*
X82316000Y-71808000D01*
X82101000Y-71790000D01*
X81880000Y-71731000D01*
X81646000Y-71630000D01*
X81433000Y-71511000D01*
X81316000Y-71395000D01*
X81216000Y-71228000D01*
X81164000Y-71044000D01*
X81159000Y-70851000D01*
X81203000Y-70656000D01*
X81264000Y-70529000D01*
X81368000Y-70428000D01*
X81368000Y-70428000D01*
G37*
G36*
X79912000Y-73587000D02*
G01*
X80072000Y-73454000D01*
X80248000Y-73376000D01*
X80442000Y-73353000D01*
X80655000Y-73383000D01*
X80890000Y-73468000D01*
X81092000Y-73576000D01*
X81264000Y-73703000D01*
X81406000Y-73850000D01*
X81522000Y-74021000D01*
X81613000Y-74216000D01*
X81676000Y-74444000D01*
X81685000Y-74648000D01*
X81642000Y-74816000D01*
X81548000Y-74938000D01*
X81402000Y-74997000D01*
X81182000Y-75024000D01*
X80926000Y-75020000D01*
X80675000Y-74986000D01*
X80466000Y-74921000D01*
X80315000Y-74835000D01*
X80160000Y-74716000D01*
X80013000Y-74575000D01*
X79887000Y-74426000D01*
X79794000Y-74281000D01*
X79744000Y-74118000D01*
X79735000Y-73938000D01*
X79771000Y-73784000D01*
X79830000Y-73687000D01*
X79912000Y-73587000D01*
X79912000Y-73587000D01*
G37*
G36*
X82485000Y-72011000D02*
G01*
X82635000Y-71898000D01*
X82811000Y-71826000D01*
X83003000Y-71797000D01*
X83202000Y-71813000D01*
X83395000Y-71874000D01*
X83531000Y-71947000D01*
X83648000Y-72043000D01*
X83775000Y-72191000D01*
X83939000Y-72417000D01*
X84108000Y-72678000D01*
X84208000Y-72880000D01*
X84246000Y-73047000D01*
X84232000Y-73201000D01*
X84162000Y-73350000D01*
X84038000Y-73444000D01*
X83861000Y-73482000D01*
X83632000Y-73465000D01*
X83351000Y-73392000D01*
X83137000Y-73310000D01*
X82939000Y-73212000D01*
X82761000Y-73101000D01*
X82609000Y-72980000D01*
X82485000Y-72852000D01*
X82396000Y-72721000D01*
X82339000Y-72543000D01*
X82337000Y-72347000D01*
X82387000Y-72160000D01*
X82485000Y-72011000D01*
X82485000Y-72011000D01*
G37*
G36*
X81808000Y-73494000D02*
G01*
X81976000Y-73353000D01*
X82195000Y-73283000D01*
X82379000Y-73275000D01*
X82588000Y-73302000D01*
X82812000Y-73363000D01*
X83043000Y-73456000D01*
X83274000Y-73578000D01*
X83510000Y-73738000D01*
X83671000Y-73893000D01*
X83757000Y-74044000D01*
X83770000Y-74192000D01*
X83707000Y-74360000D01*
X83576000Y-74487000D01*
X83369000Y-74579000D01*
X83078000Y-74640000D01*
X82768000Y-74675000D01*
X82512000Y-74681000D01*
X82302000Y-74657000D01*
X82128000Y-74600000D01*
X81983000Y-74509000D01*
X81855000Y-74382000D01*
X81737000Y-74202000D01*
X81674000Y-74016000D01*
X81664000Y-73831000D01*
X81709000Y-73655000D01*
X81808000Y-73494000D01*
X81808000Y-73494000D01*
G37*
G36*
X83494000Y-71082000D02*
G01*
X83615000Y-71191000D01*
X83753000Y-71376000D01*
X83843000Y-71553000D01*
X83835000Y-71698000D01*
X83689000Y-71675000D01*
X83473000Y-71611000D01*
X83340000Y-71552000D01*
X83363000Y-71409000D01*
X83418000Y-71196000D01*
X83494000Y-71082000D01*
X83494000Y-71082000D01*
G37*
G36*
X81659000Y-75061000D02*
G01*
X81778000Y-74886000D01*
X81880000Y-74773000D01*
X82018000Y-74841000D01*
X82211000Y-74968000D01*
X82318000Y-75060000D01*
X82247000Y-75132000D01*
X82042000Y-75191000D01*
X81801000Y-75219000D01*
X81621000Y-75197000D01*
X81659000Y-75061000D01*
X81659000Y-75061000D01*
G37*
G36*
X84285000Y-73410000D02*
G01*
X84378000Y-73236000D01*
X84421000Y-73155000D01*
X84540000Y-73292000D01*
X84652000Y-73489000D01*
X84742000Y-73710000D01*
X84766000Y-73843000D01*
X84697000Y-73869000D01*
X84466000Y-73755000D01*
X84238000Y-73619000D01*
X84190000Y-73528000D01*
X84285000Y-73410000D01*
X84285000Y-73410000D01*
G37*
G36*
X83981000Y-74081000D02*
G01*
X84093000Y-74114000D01*
X84295000Y-74189000D01*
X84518000Y-74285000D01*
X84542000Y-74337000D01*
X84425000Y-74410000D01*
X84201000Y-74488000D01*
X83974000Y-74535000D01*
X83792000Y-74535000D01*
X83824000Y-74452000D01*
X83899000Y-74251000D01*
X83981000Y-74081000D01*
X83981000Y-74081000D01*
G37*
D16*
X107500000Y-79550000D03*
X108000000Y-79550000D03*
X108500000Y-79550000D03*
X109000000Y-79550000D03*
X109000000Y-76450000D03*
X108500000Y-76450000D03*
X108000000Y-76450000D03*
X107500000Y-76450000D03*
D17*
X87400000Y-99600000D03*
X87400000Y-97400000D03*
X87400000Y-45400000D03*
X87400000Y-47600000D03*
D18*
X102000000Y-75250000D03*
X99500000Y-75250000D03*
D19*
X71500000Y-100550000D03*
X71500000Y-97250000D03*
X71500000Y-43600000D03*
X71500000Y-46900000D03*
D20*
X66700000Y-61500000D03*
D21*
X74260000Y-69750000D03*
D22*
X67480000Y-69750000D03*
X67480000Y-53250000D03*
D21*
X74260000Y-53250000D03*
D23*
X76860000Y-57500000D03*
X76860000Y-58000000D03*
X76860000Y-58500000D03*
X76860000Y-59000000D03*
X76860000Y-59500000D03*
X76860000Y-60000000D03*
X76860000Y-60500000D03*
X76860000Y-61000000D03*
X76860000Y-61500000D03*
X76860000Y-62000000D03*
X76860000Y-62500000D03*
X76860000Y-63000000D03*
X76860000Y-63500000D03*
X76860000Y-64000000D03*
X76860000Y-64500000D03*
X76860000Y-65000000D03*
X76860000Y-65500000D03*
X76860000Y-66000000D03*
X76860000Y-66500000D03*
X76860000Y-67000000D03*
D24*
X101700000Y-77500000D03*
X99800000Y-77500000D03*
X100750000Y-79500000D03*
D19*
X83600000Y-78000000D03*
X81400000Y-78000000D03*
D25*
X101700000Y-81750000D03*
X99800000Y-81750000D03*
D17*
X89750000Y-99600000D03*
X89750000Y-97400000D03*
X89500000Y-47600000D03*
X89500000Y-45400000D03*
X105250000Y-79100000D03*
X105250000Y-76900000D03*
X111000000Y-76900000D03*
X111000000Y-79100000D03*
D26*
X65699640Y-48399920D03*
X65699640Y-44600080D03*
D27*
X66222880Y-45202060D03*
D28*
X63500000Y-46500000D03*
D29*
X63500000Y-50183000D03*
X63500000Y-42817000D03*
D27*
X66222880Y-47147700D03*
X66222880Y-47797940D03*
X66222880Y-45852300D03*
X66222880Y-46500000D03*
D26*
X65699640Y-100399920D03*
X65699640Y-96600080D03*
D27*
X66222880Y-97202060D03*
D28*
X63500000Y-98500000D03*
D29*
X63500000Y-102183000D03*
X63500000Y-94817000D03*
D27*
X66222880Y-99147700D03*
X66222880Y-99797940D03*
X66222880Y-97852300D03*
X66222880Y-98500000D03*
D30*
X90812500Y-58550000D03*
X90812500Y-59850000D03*
X90812500Y-61150000D03*
X90812500Y-62450000D03*
X91937500Y-58550000D03*
X91937500Y-59850000D03*
X91937500Y-61150000D03*
X91937500Y-62450000D03*
X93062500Y-58550000D03*
X93062500Y-59850000D03*
X93062500Y-61150000D03*
X93062500Y-62450000D03*
X94187500Y-58550000D03*
X94187500Y-59850000D03*
X94187500Y-61150000D03*
X94187500Y-62450000D03*
D31*
X95750000Y-64400000D03*
X95250000Y-64400000D03*
X94750000Y-64400000D03*
X94250000Y-64400000D03*
X93750000Y-64400000D03*
X93250000Y-64400000D03*
X92750000Y-64400000D03*
X92250000Y-64400000D03*
X91750000Y-64400000D03*
X91250000Y-64400000D03*
X90750000Y-64400000D03*
X90250000Y-64400000D03*
X89750000Y-64400000D03*
X89250000Y-64400000D03*
D32*
X88600000Y-63750000D03*
X88600000Y-63250000D03*
X88600000Y-62750000D03*
X88600000Y-62250000D03*
X88600000Y-61750000D03*
X88600000Y-61250000D03*
X88600000Y-60750000D03*
X88600000Y-60250000D03*
X88600000Y-59750000D03*
X88600000Y-59250000D03*
X88600000Y-58750000D03*
X88600000Y-58250000D03*
X88600000Y-57750000D03*
X88600000Y-57250000D03*
D31*
X89250000Y-56600000D03*
X89750000Y-56600000D03*
X90250000Y-56600000D03*
X90750000Y-56600000D03*
X91250000Y-56600000D03*
X91750000Y-56600000D03*
X92250000Y-56600000D03*
X92750000Y-56600000D03*
X93250000Y-56600000D03*
X93750000Y-56600000D03*
X94250000Y-56600000D03*
X94750000Y-56600000D03*
X95250000Y-56600000D03*
X95750000Y-56600000D03*
D32*
X96400000Y-57250000D03*
X96400000Y-57750000D03*
X96400000Y-58250000D03*
X96400000Y-58750000D03*
X96400000Y-59250000D03*
X96400000Y-59750000D03*
X96400000Y-60250000D03*
X96400000Y-60750000D03*
X96400000Y-61250000D03*
X96400000Y-61750000D03*
X96400000Y-62250000D03*
X96400000Y-62750000D03*
X96400000Y-63250000D03*
X96400000Y-63750000D03*
D33*
X84280000Y-44250000D03*
X84280000Y-48750000D03*
X76320000Y-48750000D03*
X76320000Y-44250000D03*
X76420000Y-100750000D03*
X76420000Y-96250000D03*
X84380000Y-96250000D03*
X84380000Y-100750000D03*
D17*
X109500000Y-68900000D03*
X109500000Y-71100000D03*
X106500000Y-68900000D03*
X106500000Y-71100000D03*
X104000000Y-68900000D03*
X104000000Y-71100000D03*
X112000000Y-71100000D03*
X112000000Y-68900000D03*
X98900000Y-68900000D03*
X98900000Y-71100000D03*
X101400000Y-71100000D03*
X101400000Y-68900000D03*
D34*
X119250000Y-79390000D03*
X119250000Y-81930000D03*
X119250000Y-83960000D03*
X119250000Y-86500000D03*
D35*
X121920000Y-76340000D03*
X121920000Y-90060000D03*
D25*
X107950000Y-63500000D03*
X106050000Y-63500000D03*
X102950000Y-62000000D03*
X101050000Y-62000000D03*
X107950000Y-60500000D03*
X106050000Y-60500000D03*
X102950000Y-59000000D03*
X101050000Y-59000000D03*
X102950000Y-58000000D03*
X101050000Y-58000000D03*
X107950000Y-62500000D03*
X106050000Y-62500000D03*
X102950000Y-61000000D03*
X101050000Y-61000000D03*
X107950000Y-59500000D03*
X106050000Y-59500000D03*
X98450000Y-66000000D03*
X96550000Y-66000000D03*
D36*
X93400000Y-52600000D03*
X93400000Y-54500000D03*
X80900000Y-55200000D03*
X80900000Y-57100000D03*
D25*
X83450000Y-81000000D03*
X81550000Y-81000000D03*
D36*
X81900000Y-55200000D03*
X81900000Y-57100000D03*
D25*
X83450000Y-82000000D03*
X81550000Y-82000000D03*
D20*
X127050000Y-63500000D03*
D21*
X119490000Y-55250000D03*
D22*
X126270000Y-55250000D03*
X126270000Y-71750000D03*
D21*
X119490000Y-71750000D03*
D23*
X116890000Y-67500000D03*
X116890000Y-67000000D03*
X116890000Y-66500000D03*
X116890000Y-66000000D03*
X116890000Y-65500000D03*
X116890000Y-65000000D03*
X116890000Y-64500000D03*
X116890000Y-64000000D03*
X116890000Y-63500000D03*
X116890000Y-63000000D03*
X116890000Y-62500000D03*
X116890000Y-62000000D03*
X116890000Y-61500000D03*
X116890000Y-61000000D03*
X116890000Y-60500000D03*
X116890000Y-60000000D03*
X116890000Y-59500000D03*
X116890000Y-59000000D03*
X116890000Y-58500000D03*
X116890000Y-58000000D03*
D20*
X66700000Y-83500000D03*
D21*
X74260000Y-91750000D03*
D22*
X67480000Y-91750000D03*
X67480000Y-75250000D03*
D21*
X74260000Y-75250000D03*
D23*
X76860000Y-79500000D03*
X76860000Y-80000000D03*
X76860000Y-80500000D03*
X76860000Y-81000000D03*
X76860000Y-81500000D03*
X76860000Y-82000000D03*
X76860000Y-82500000D03*
X76860000Y-83000000D03*
X76860000Y-83500000D03*
X76860000Y-84000000D03*
X76860000Y-84500000D03*
X76860000Y-85000000D03*
X76860000Y-85500000D03*
X76860000Y-86000000D03*
X76860000Y-86500000D03*
X76860000Y-87000000D03*
X76860000Y-87500000D03*
X76860000Y-88000000D03*
X76860000Y-88500000D03*
X76860000Y-89000000D03*
M02*
