G04 #@! TF.GenerationSoftware,KiCad,Pcbnew,(5.1.2)-2*
G04 #@! TF.CreationDate,2021-01-19T20:41:26+13:00*
G04 #@! TF.ProjectId,DPSwitch,44505377-6974-4636-982e-6b696361645f,rev?*
G04 #@! TF.SameCoordinates,Original*
G04 #@! TF.FileFunction,Copper,L2,Inr*
G04 #@! TF.FilePolarity,Positive*
%FSLAX46Y46*%
G04 Gerber Fmt 4.6, Leading zero omitted, Abs format (unit mm)*
G04 Created by KiCad (PCBNEW (5.1.2)-2) date 2021-01-19 20:41:26*
%MOMM*%
%LPD*%
G04 APERTURE LIST*
%ADD10C,2.660000*%
%ADD11C,1.982000*%
%ADD12C,1.500000*%
%ADD13C,3.000000*%
%ADD14C,0.450000*%
%ADD15C,0.254000*%
G04 APERTURE END LIST*
D10*
X74260000Y-69750000D03*
D11*
X67480000Y-69750000D03*
X67480000Y-53250000D03*
D10*
X74260000Y-53250000D03*
D12*
X119250000Y-79390000D03*
X119250000Y-81930000D03*
X119250000Y-83960000D03*
X119250000Y-86500000D03*
D13*
X121920000Y-76340000D03*
X121920000Y-90060000D03*
D10*
X119490000Y-55250000D03*
D11*
X126270000Y-55250000D03*
X126270000Y-71750000D03*
D10*
X119490000Y-71750000D03*
X74260000Y-91750000D03*
D11*
X67480000Y-91750000D03*
X67480000Y-75250000D03*
D10*
X74260000Y-75250000D03*
D14*
X91500000Y-61750000D03*
X93500000Y-61750000D03*
X93500000Y-59250000D03*
X91500000Y-59250000D03*
X115400000Y-60000000D03*
X115400000Y-58500000D03*
X115400000Y-61500000D03*
X115400000Y-63000000D03*
X78400000Y-59500000D03*
X78400000Y-62000000D03*
X78400000Y-63500000D03*
X78400000Y-65000000D03*
X78400000Y-66500000D03*
X78400000Y-84000000D03*
X78400000Y-85500000D03*
X78400000Y-87000000D03*
X78400000Y-88500000D03*
X89250000Y-62250000D03*
X89250000Y-60750000D03*
X89250000Y-59250000D03*
X78400000Y-81500000D03*
X118400000Y-65500000D03*
X93400000Y-51500000D03*
X99386802Y-66013198D03*
X101400000Y-72500000D03*
X108000000Y-71100000D03*
X114900000Y-67000000D03*
X89750000Y-96000000D03*
X90750000Y-47250000D03*
X90750000Y-63750000D03*
X92250000Y-63750000D03*
X93750000Y-63750000D03*
X95750000Y-59250000D03*
X95750000Y-60750000D03*
X95750000Y-62250000D03*
X83600000Y-78000000D03*
X67400000Y-47800000D03*
X63500000Y-46500000D03*
X63500000Y-42817000D03*
X63500000Y-50183000D03*
X63500000Y-98500000D03*
X63500000Y-94817000D03*
X63500000Y-102183000D03*
X67500000Y-99750000D03*
X103250000Y-75250000D03*
X101700000Y-80800000D03*
X110000000Y-80250000D03*
X78000000Y-96250000D03*
X82750000Y-48750000D03*
X63500000Y-61500000D03*
X63500000Y-72500000D03*
X63500000Y-83500000D03*
X93750000Y-86500000D03*
X115000000Y-91000000D03*
X130750000Y-83000000D03*
X130750000Y-63500000D03*
X104750000Y-51000000D03*
X75000000Y-82500000D03*
X75000000Y-83250000D03*
X75000000Y-60500000D03*
X75000000Y-62250000D03*
X121500000Y-59000000D03*
X119500000Y-59000000D03*
X119500000Y-64500000D03*
X118750000Y-64000000D03*
X93400000Y-55400000D03*
X102750000Y-70000000D03*
X88250000Y-66000000D03*
X96500000Y-67000000D03*
X77750000Y-73250000D03*
X99800000Y-76450000D03*
X106450000Y-76450000D03*
X87064028Y-55434445D03*
X85976600Y-79500000D03*
X87717228Y-55434445D03*
X85323400Y-79500000D03*
X88541060Y-54208940D03*
X68750000Y-97880665D03*
X88958940Y-53791060D03*
X68750000Y-98471635D03*
X93464369Y-50335634D03*
X90673400Y-54000000D03*
X81073400Y-52000000D03*
X91326600Y-54000000D03*
X81726600Y-52000000D03*
X93500000Y-49750000D03*
X80250000Y-78000000D03*
X81500000Y-82000000D03*
X82000000Y-57000000D03*
X81500000Y-81000000D03*
X80750000Y-57000000D03*
X91704515Y-51250000D03*
X69500000Y-45880665D03*
X92295485Y-51250000D03*
X69500000Y-46471635D03*
X96000000Y-53250000D03*
X97000000Y-65000000D03*
X108500000Y-75250000D03*
X110750000Y-75250000D03*
X87500000Y-96250000D03*
X108250000Y-81000000D03*
X82750000Y-100750000D03*
X109500000Y-77250000D03*
X96500000Y-52750000D03*
X106750000Y-78750000D03*
X74000000Y-80500000D03*
X75000000Y-57750000D03*
X122000000Y-66500000D03*
D15*
G36*
X113694124Y-52113218D02*
G01*
X113736594Y-52135919D01*
X113787433Y-52151341D01*
X113837591Y-52168879D01*
X113851895Y-52170895D01*
X113865717Y-52175088D01*
X113918597Y-52180296D01*
X113971204Y-52187711D01*
X114019279Y-52185000D01*
X130366495Y-52185000D01*
X130654782Y-52213267D01*
X130899855Y-52287259D01*
X131125890Y-52407443D01*
X131324281Y-52569248D01*
X131487460Y-52766497D01*
X131609220Y-52991687D01*
X131684924Y-53236247D01*
X131715001Y-53522408D01*
X131715000Y-91466495D01*
X131686733Y-91754782D01*
X131612741Y-91999855D01*
X131492554Y-92225893D01*
X131330754Y-92424279D01*
X131133503Y-92587460D01*
X130908310Y-92709221D01*
X130663753Y-92784924D01*
X130377602Y-92815000D01*
X114018153Y-92815000D01*
X113968972Y-92812387D01*
X113917505Y-92819811D01*
X113865717Y-92824912D01*
X113850822Y-92829430D01*
X113835421Y-92831652D01*
X113786381Y-92848978D01*
X113736594Y-92864081D01*
X113693131Y-92887312D01*
X90347617Y-103815000D01*
X63433505Y-103815000D01*
X63145218Y-103786733D01*
X62900145Y-103712741D01*
X62674107Y-103592554D01*
X62475721Y-103430754D01*
X62312540Y-103233503D01*
X62190779Y-103008310D01*
X62115076Y-102763753D01*
X62085000Y-102477602D01*
X62085000Y-100295600D01*
X64640460Y-100295600D01*
X64640460Y-100504240D01*
X64681164Y-100708871D01*
X64761007Y-100901630D01*
X64876921Y-101075108D01*
X65024452Y-101222639D01*
X65197930Y-101338553D01*
X65390689Y-101418396D01*
X65595320Y-101459100D01*
X65803960Y-101459100D01*
X66008591Y-101418396D01*
X66201350Y-101338553D01*
X66374828Y-101222639D01*
X66522359Y-101075108D01*
X66638273Y-100901630D01*
X66718116Y-100708871D01*
X66726783Y-100665297D01*
X81890000Y-100665297D01*
X81890000Y-100834703D01*
X81923049Y-101000853D01*
X81987878Y-101157363D01*
X82081995Y-101298218D01*
X82201782Y-101418005D01*
X82342637Y-101512122D01*
X82499147Y-101576951D01*
X82665297Y-101610000D01*
X82834703Y-101610000D01*
X83000853Y-101576951D01*
X83157363Y-101512122D01*
X83298218Y-101418005D01*
X83418005Y-101298218D01*
X83512122Y-101157363D01*
X83576951Y-101000853D01*
X83610000Y-100834703D01*
X83610000Y-100665297D01*
X83576951Y-100499147D01*
X83512122Y-100342637D01*
X83418005Y-100201782D01*
X83298218Y-100081995D01*
X83157363Y-99987878D01*
X83000853Y-99923049D01*
X82834703Y-99890000D01*
X82665297Y-99890000D01*
X82499147Y-99923049D01*
X82342637Y-99987878D01*
X82201782Y-100081995D01*
X82081995Y-100201782D01*
X81987878Y-100342637D01*
X81923049Y-100499147D01*
X81890000Y-100665297D01*
X66726783Y-100665297D01*
X66758820Y-100504240D01*
X66758820Y-100295600D01*
X66718116Y-100090969D01*
X66638273Y-99898210D01*
X66522359Y-99724732D01*
X66374828Y-99577201D01*
X66201350Y-99461287D01*
X66008591Y-99381444D01*
X65803960Y-99340740D01*
X65595320Y-99340740D01*
X65390689Y-99381444D01*
X65197930Y-99461287D01*
X65024452Y-99577201D01*
X64876921Y-99724732D01*
X64761007Y-99898210D01*
X64681164Y-100090969D01*
X64640460Y-100295600D01*
X62085000Y-100295600D01*
X62085000Y-97795962D01*
X67890000Y-97795962D01*
X67890000Y-97965368D01*
X67923049Y-98131518D01*
X67941536Y-98176150D01*
X67923049Y-98220782D01*
X67890000Y-98386932D01*
X67890000Y-98556338D01*
X67923049Y-98722488D01*
X67987878Y-98878998D01*
X68081995Y-99019853D01*
X68201782Y-99139640D01*
X68342637Y-99233757D01*
X68499147Y-99298586D01*
X68665297Y-99331635D01*
X68834703Y-99331635D01*
X69000853Y-99298586D01*
X69157363Y-99233757D01*
X69298218Y-99139640D01*
X69418005Y-99019853D01*
X69512122Y-98878998D01*
X69576951Y-98722488D01*
X69610000Y-98556338D01*
X69610000Y-98386932D01*
X69576951Y-98220782D01*
X69558464Y-98176150D01*
X69576951Y-98131518D01*
X69610000Y-97965368D01*
X69610000Y-97795962D01*
X69576951Y-97629812D01*
X69512122Y-97473302D01*
X69418005Y-97332447D01*
X69298218Y-97212660D01*
X69157363Y-97118543D01*
X69000853Y-97053714D01*
X68834703Y-97020665D01*
X68665297Y-97020665D01*
X68499147Y-97053714D01*
X68342637Y-97118543D01*
X68201782Y-97212660D01*
X68081995Y-97332447D01*
X67987878Y-97473302D01*
X67923049Y-97629812D01*
X67890000Y-97795962D01*
X62085000Y-97795962D01*
X62085000Y-96495760D01*
X64640460Y-96495760D01*
X64640460Y-96704400D01*
X64681164Y-96909031D01*
X64761007Y-97101790D01*
X64876921Y-97275268D01*
X65024452Y-97422799D01*
X65197930Y-97538713D01*
X65390689Y-97618556D01*
X65595320Y-97659260D01*
X65803960Y-97659260D01*
X66008591Y-97618556D01*
X66201350Y-97538713D01*
X66374828Y-97422799D01*
X66522359Y-97275268D01*
X66638273Y-97101790D01*
X66718116Y-96909031D01*
X66758820Y-96704400D01*
X66758820Y-96495760D01*
X66718116Y-96291129D01*
X66665995Y-96165297D01*
X86640000Y-96165297D01*
X86640000Y-96334703D01*
X86673049Y-96500853D01*
X86737878Y-96657363D01*
X86831995Y-96798218D01*
X86951782Y-96918005D01*
X87092637Y-97012122D01*
X87249147Y-97076951D01*
X87415297Y-97110000D01*
X87584703Y-97110000D01*
X87750853Y-97076951D01*
X87907363Y-97012122D01*
X88048218Y-96918005D01*
X88168005Y-96798218D01*
X88262122Y-96657363D01*
X88326951Y-96500853D01*
X88360000Y-96334703D01*
X88360000Y-96165297D01*
X88326951Y-95999147D01*
X88262122Y-95842637D01*
X88168005Y-95701782D01*
X88048218Y-95581995D01*
X87907363Y-95487878D01*
X87750853Y-95423049D01*
X87584703Y-95390000D01*
X87415297Y-95390000D01*
X87249147Y-95423049D01*
X87092637Y-95487878D01*
X86951782Y-95581995D01*
X86831995Y-95701782D01*
X86737878Y-95842637D01*
X86673049Y-95999147D01*
X86640000Y-96165297D01*
X66665995Y-96165297D01*
X66638273Y-96098370D01*
X66522359Y-95924892D01*
X66374828Y-95777361D01*
X66201350Y-95661447D01*
X66008591Y-95581604D01*
X65803960Y-95540900D01*
X65595320Y-95540900D01*
X65390689Y-95581604D01*
X65197930Y-95661447D01*
X65024452Y-95777361D01*
X64876921Y-95924892D01*
X64761007Y-96098370D01*
X64681164Y-96291129D01*
X64640460Y-96495760D01*
X62085000Y-96495760D01*
X62085000Y-92878996D01*
X66530609Y-92878996D01*
X66625287Y-93142476D01*
X66913369Y-93282467D01*
X67223226Y-93363565D01*
X67542951Y-93382654D01*
X67860257Y-93339002D01*
X68162949Y-93234285D01*
X68334713Y-93142476D01*
X68342576Y-93120593D01*
X73069012Y-93120593D01*
X73204562Y-93418751D01*
X73550399Y-93592592D01*
X73923506Y-93695623D01*
X74309543Y-93723885D01*
X74693677Y-93676292D01*
X75061145Y-93554672D01*
X75315438Y-93418751D01*
X75450988Y-93120593D01*
X74260000Y-91929605D01*
X73069012Y-93120593D01*
X68342576Y-93120593D01*
X68429391Y-92878996D01*
X67480000Y-91929605D01*
X66530609Y-92878996D01*
X62085000Y-92878996D01*
X62085000Y-91812951D01*
X65847346Y-91812951D01*
X65890998Y-92130257D01*
X65995715Y-92432949D01*
X66087524Y-92604713D01*
X66351004Y-92699391D01*
X67300395Y-91750000D01*
X67659605Y-91750000D01*
X68608996Y-92699391D01*
X68872476Y-92604713D01*
X69012467Y-92316631D01*
X69093565Y-92006774D01*
X69105937Y-91799543D01*
X72286115Y-91799543D01*
X72333708Y-92183677D01*
X72455328Y-92551145D01*
X72591249Y-92805438D01*
X72889407Y-92940988D01*
X74080395Y-91750000D01*
X74439605Y-91750000D01*
X75630593Y-92940988D01*
X75928751Y-92805438D01*
X76102592Y-92459601D01*
X76205623Y-92086494D01*
X76233885Y-91700457D01*
X76215449Y-91551653D01*
X120607952Y-91551653D01*
X120763962Y-91867214D01*
X121138745Y-92058020D01*
X121543551Y-92172044D01*
X121962824Y-92204902D01*
X122380451Y-92155334D01*
X122780383Y-92025243D01*
X123076038Y-91867214D01*
X123232048Y-91551653D01*
X121920000Y-90239605D01*
X120607952Y-91551653D01*
X76215449Y-91551653D01*
X76186292Y-91316323D01*
X76064672Y-90948855D01*
X75928751Y-90694562D01*
X75630593Y-90559012D01*
X74439605Y-91750000D01*
X74080395Y-91750000D01*
X72889407Y-90559012D01*
X72591249Y-90694562D01*
X72417408Y-91040399D01*
X72314377Y-91413506D01*
X72286115Y-91799543D01*
X69105937Y-91799543D01*
X69112654Y-91687049D01*
X69069002Y-91369743D01*
X68964285Y-91067051D01*
X68872476Y-90895287D01*
X68608996Y-90800609D01*
X67659605Y-91750000D01*
X67300395Y-91750000D01*
X66351004Y-90800609D01*
X66087524Y-90895287D01*
X65947533Y-91183369D01*
X65866435Y-91493226D01*
X65847346Y-91812951D01*
X62085000Y-91812951D01*
X62085000Y-90621004D01*
X66530609Y-90621004D01*
X67480000Y-91570395D01*
X68429391Y-90621004D01*
X68342577Y-90379407D01*
X73069012Y-90379407D01*
X74260000Y-91570395D01*
X75450988Y-90379407D01*
X75325247Y-90102824D01*
X119775098Y-90102824D01*
X119824666Y-90520451D01*
X119954757Y-90920383D01*
X120112786Y-91216038D01*
X120428347Y-91372048D01*
X121740395Y-90060000D01*
X122099605Y-90060000D01*
X123411653Y-91372048D01*
X123727214Y-91216038D01*
X123918020Y-90841255D01*
X124032044Y-90436449D01*
X124064902Y-90017176D01*
X124015334Y-89599549D01*
X123885243Y-89199617D01*
X123727214Y-88903962D01*
X123411653Y-88747952D01*
X122099605Y-90060000D01*
X121740395Y-90060000D01*
X120428347Y-88747952D01*
X120112786Y-88903962D01*
X119921980Y-89278745D01*
X119807956Y-89683551D01*
X119775098Y-90102824D01*
X75325247Y-90102824D01*
X75315438Y-90081249D01*
X74969601Y-89907408D01*
X74596494Y-89804377D01*
X74210457Y-89776115D01*
X73826323Y-89823708D01*
X73458855Y-89945328D01*
X73204562Y-90081249D01*
X73069012Y-90379407D01*
X68342577Y-90379407D01*
X68334713Y-90357524D01*
X68046631Y-90217533D01*
X67736774Y-90136435D01*
X67417049Y-90117346D01*
X67099743Y-90160998D01*
X66797051Y-90265715D01*
X66625287Y-90357524D01*
X66530609Y-90621004D01*
X62085000Y-90621004D01*
X62085000Y-88568347D01*
X120607952Y-88568347D01*
X121920000Y-89880395D01*
X123232048Y-88568347D01*
X123076038Y-88252786D01*
X122701255Y-88061980D01*
X122296449Y-87947956D01*
X121877176Y-87915098D01*
X121459549Y-87964666D01*
X121059617Y-88094757D01*
X120763962Y-88252786D01*
X120607952Y-88568347D01*
X62085000Y-88568347D01*
X62085000Y-83366052D01*
X65340000Y-83366052D01*
X65340000Y-83633948D01*
X65392264Y-83896697D01*
X65494784Y-84144201D01*
X65643619Y-84366949D01*
X65833051Y-84556381D01*
X66055799Y-84705216D01*
X66303303Y-84807736D01*
X66566052Y-84860000D01*
X66833948Y-84860000D01*
X67096697Y-84807736D01*
X67344201Y-84705216D01*
X67566949Y-84556381D01*
X67756381Y-84366949D01*
X67905216Y-84144201D01*
X68007736Y-83896697D01*
X68060000Y-83633948D01*
X68060000Y-83366052D01*
X68007736Y-83103303D01*
X67905216Y-82855799D01*
X67756381Y-82633051D01*
X67566949Y-82443619D01*
X67524563Y-82415297D01*
X74140000Y-82415297D01*
X74140000Y-82584703D01*
X74173049Y-82750853D01*
X74224473Y-82875000D01*
X74173049Y-82999147D01*
X74140000Y-83165297D01*
X74140000Y-83334703D01*
X74173049Y-83500853D01*
X74237878Y-83657363D01*
X74331995Y-83798218D01*
X74451782Y-83918005D01*
X74592637Y-84012122D01*
X74749147Y-84076951D01*
X74915297Y-84110000D01*
X75084703Y-84110000D01*
X75250853Y-84076951D01*
X75407363Y-84012122D01*
X75548218Y-83918005D01*
X75668005Y-83798218D01*
X75762122Y-83657363D01*
X75826951Y-83500853D01*
X75860000Y-83334703D01*
X75860000Y-83165297D01*
X75826951Y-82999147D01*
X75775527Y-82875000D01*
X75826951Y-82750853D01*
X75860000Y-82584703D01*
X75860000Y-82415297D01*
X75826951Y-82249147D01*
X75762122Y-82092637D01*
X75668005Y-81951782D01*
X75548218Y-81831995D01*
X75407363Y-81737878D01*
X75250853Y-81673049D01*
X75084703Y-81640000D01*
X74915297Y-81640000D01*
X74749147Y-81673049D01*
X74592637Y-81737878D01*
X74451782Y-81831995D01*
X74331995Y-81951782D01*
X74237878Y-82092637D01*
X74173049Y-82249147D01*
X74140000Y-82415297D01*
X67524563Y-82415297D01*
X67344201Y-82294784D01*
X67096697Y-82192264D01*
X66833948Y-82140000D01*
X66566052Y-82140000D01*
X66303303Y-82192264D01*
X66055799Y-82294784D01*
X65833051Y-82443619D01*
X65643619Y-82633051D01*
X65494784Y-82855799D01*
X65392264Y-83103303D01*
X65340000Y-83366052D01*
X62085000Y-83366052D01*
X62085000Y-80415297D01*
X73140000Y-80415297D01*
X73140000Y-80584703D01*
X73173049Y-80750853D01*
X73237878Y-80907363D01*
X73331995Y-81048218D01*
X73451782Y-81168005D01*
X73592637Y-81262122D01*
X73749147Y-81326951D01*
X73915297Y-81360000D01*
X74084703Y-81360000D01*
X74250853Y-81326951D01*
X74407363Y-81262122D01*
X74548218Y-81168005D01*
X74668005Y-81048218D01*
X74756820Y-80915297D01*
X80640000Y-80915297D01*
X80640000Y-81084703D01*
X80673049Y-81250853D01*
X80737878Y-81407363D01*
X80799777Y-81500000D01*
X80737878Y-81592637D01*
X80673049Y-81749147D01*
X80640000Y-81915297D01*
X80640000Y-82084703D01*
X80673049Y-82250853D01*
X80737878Y-82407363D01*
X80831995Y-82548218D01*
X80951782Y-82668005D01*
X81092637Y-82762122D01*
X81249147Y-82826951D01*
X81415297Y-82860000D01*
X81584703Y-82860000D01*
X81750853Y-82826951D01*
X81907363Y-82762122D01*
X82048218Y-82668005D01*
X82168005Y-82548218D01*
X82262122Y-82407363D01*
X82326951Y-82250853D01*
X82360000Y-82084703D01*
X82360000Y-81915297D01*
X82326951Y-81749147D01*
X82262122Y-81592637D01*
X82200223Y-81500000D01*
X82262122Y-81407363D01*
X82326951Y-81250853D01*
X82360000Y-81084703D01*
X82360000Y-80915297D01*
X107390000Y-80915297D01*
X107390000Y-81084703D01*
X107423049Y-81250853D01*
X107487878Y-81407363D01*
X107581995Y-81548218D01*
X107701782Y-81668005D01*
X107842637Y-81762122D01*
X107999147Y-81826951D01*
X108165297Y-81860000D01*
X108334703Y-81860000D01*
X108500853Y-81826951D01*
X108581395Y-81793589D01*
X117865000Y-81793589D01*
X117865000Y-82066411D01*
X117918225Y-82333989D01*
X118022629Y-82586043D01*
X118174201Y-82812886D01*
X118306315Y-82945000D01*
X118174201Y-83077114D01*
X118022629Y-83303957D01*
X117918225Y-83556011D01*
X117865000Y-83823589D01*
X117865000Y-84096411D01*
X117918225Y-84363989D01*
X118022629Y-84616043D01*
X118174201Y-84842886D01*
X118367114Y-85035799D01*
X118593957Y-85187371D01*
X118696873Y-85230000D01*
X118593957Y-85272629D01*
X118367114Y-85424201D01*
X118174201Y-85617114D01*
X118022629Y-85843957D01*
X117918225Y-86096011D01*
X117865000Y-86363589D01*
X117865000Y-86636411D01*
X117918225Y-86903989D01*
X118022629Y-87156043D01*
X118174201Y-87382886D01*
X118367114Y-87575799D01*
X118593957Y-87727371D01*
X118846011Y-87831775D01*
X119113589Y-87885000D01*
X119386411Y-87885000D01*
X119653989Y-87831775D01*
X119906043Y-87727371D01*
X120132886Y-87575799D01*
X120325799Y-87382886D01*
X120477371Y-87156043D01*
X120581775Y-86903989D01*
X120635000Y-86636411D01*
X120635000Y-86363589D01*
X120581775Y-86096011D01*
X120477371Y-85843957D01*
X120325799Y-85617114D01*
X120132886Y-85424201D01*
X119906043Y-85272629D01*
X119803127Y-85230000D01*
X119906043Y-85187371D01*
X120132886Y-85035799D01*
X120325799Y-84842886D01*
X120477371Y-84616043D01*
X120581775Y-84363989D01*
X120635000Y-84096411D01*
X120635000Y-83823589D01*
X120581775Y-83556011D01*
X120477371Y-83303957D01*
X120325799Y-83077114D01*
X120193685Y-82945000D01*
X120325799Y-82812886D01*
X120477371Y-82586043D01*
X120581775Y-82333989D01*
X120635000Y-82066411D01*
X120635000Y-81793589D01*
X120581775Y-81526011D01*
X120477371Y-81273957D01*
X120325799Y-81047114D01*
X120132886Y-80854201D01*
X119906043Y-80702629D01*
X119806721Y-80661489D01*
X119848832Y-80646277D01*
X119961863Y-80585860D01*
X120027388Y-80346993D01*
X119250000Y-79569605D01*
X118472612Y-80346993D01*
X118538137Y-80585860D01*
X118696477Y-80660164D01*
X118593957Y-80702629D01*
X118367114Y-80854201D01*
X118174201Y-81047114D01*
X118022629Y-81273957D01*
X117918225Y-81526011D01*
X117865000Y-81793589D01*
X108581395Y-81793589D01*
X108657363Y-81762122D01*
X108798218Y-81668005D01*
X108918005Y-81548218D01*
X109012122Y-81407363D01*
X109076951Y-81250853D01*
X109110000Y-81084703D01*
X109110000Y-80915297D01*
X109076951Y-80749147D01*
X109012122Y-80592637D01*
X108918005Y-80451782D01*
X108798218Y-80331995D01*
X108657363Y-80237878D01*
X108500853Y-80173049D01*
X108334703Y-80140000D01*
X108165297Y-80140000D01*
X107999147Y-80173049D01*
X107842637Y-80237878D01*
X107701782Y-80331995D01*
X107581995Y-80451782D01*
X107487878Y-80592637D01*
X107423049Y-80749147D01*
X107390000Y-80915297D01*
X82360000Y-80915297D01*
X82326951Y-80749147D01*
X82262122Y-80592637D01*
X82168005Y-80451782D01*
X82048218Y-80331995D01*
X81907363Y-80237878D01*
X81750853Y-80173049D01*
X81584703Y-80140000D01*
X81415297Y-80140000D01*
X81249147Y-80173049D01*
X81092637Y-80237878D01*
X80951782Y-80331995D01*
X80831995Y-80451782D01*
X80737878Y-80592637D01*
X80673049Y-80749147D01*
X80640000Y-80915297D01*
X74756820Y-80915297D01*
X74762122Y-80907363D01*
X74826951Y-80750853D01*
X74860000Y-80584703D01*
X74860000Y-80415297D01*
X74826951Y-80249147D01*
X74762122Y-80092637D01*
X74668005Y-79951782D01*
X74548218Y-79831995D01*
X74407363Y-79737878D01*
X74250853Y-79673049D01*
X74084703Y-79640000D01*
X73915297Y-79640000D01*
X73749147Y-79673049D01*
X73592637Y-79737878D01*
X73451782Y-79831995D01*
X73331995Y-79951782D01*
X73237878Y-80092637D01*
X73173049Y-80249147D01*
X73140000Y-80415297D01*
X62085000Y-80415297D01*
X62085000Y-79415297D01*
X84463400Y-79415297D01*
X84463400Y-79584703D01*
X84496449Y-79750853D01*
X84561278Y-79907363D01*
X84655395Y-80048218D01*
X84775182Y-80168005D01*
X84916037Y-80262122D01*
X85072547Y-80326951D01*
X85238697Y-80360000D01*
X85408103Y-80360000D01*
X85574253Y-80326951D01*
X85650000Y-80295575D01*
X85725747Y-80326951D01*
X85891897Y-80360000D01*
X86061303Y-80360000D01*
X86227453Y-80326951D01*
X86383963Y-80262122D01*
X86524818Y-80168005D01*
X86644605Y-80048218D01*
X86738722Y-79907363D01*
X86803551Y-79750853D01*
X86836600Y-79584703D01*
X86836600Y-79415297D01*
X86803551Y-79249147D01*
X86738722Y-79092637D01*
X86644605Y-78951782D01*
X86524818Y-78831995D01*
X86383963Y-78737878D01*
X86227453Y-78673049D01*
X86188481Y-78665297D01*
X105890000Y-78665297D01*
X105890000Y-78834703D01*
X105923049Y-79000853D01*
X105987878Y-79157363D01*
X106081995Y-79298218D01*
X106201782Y-79418005D01*
X106342637Y-79512122D01*
X106499147Y-79576951D01*
X106665297Y-79610000D01*
X106834703Y-79610000D01*
X107000853Y-79576951D01*
X107157363Y-79512122D01*
X107231638Y-79462492D01*
X117860188Y-79462492D01*
X117901035Y-79732238D01*
X117993723Y-79988832D01*
X118054140Y-80101863D01*
X118293007Y-80167388D01*
X119070395Y-79390000D01*
X119429605Y-79390000D01*
X120206993Y-80167388D01*
X120445860Y-80101863D01*
X120561760Y-79854884D01*
X120627250Y-79590040D01*
X120639812Y-79317508D01*
X120598965Y-79047762D01*
X120506277Y-78791168D01*
X120445860Y-78678137D01*
X120206993Y-78612612D01*
X119429605Y-79390000D01*
X119070395Y-79390000D01*
X118293007Y-78612612D01*
X118054140Y-78678137D01*
X117938240Y-78925116D01*
X117872750Y-79189960D01*
X117860188Y-79462492D01*
X107231638Y-79462492D01*
X107298218Y-79418005D01*
X107418005Y-79298218D01*
X107512122Y-79157363D01*
X107576951Y-79000853D01*
X107610000Y-78834703D01*
X107610000Y-78665297D01*
X107576951Y-78499147D01*
X107549555Y-78433007D01*
X118472612Y-78433007D01*
X119250000Y-79210395D01*
X120027388Y-78433007D01*
X119961863Y-78194140D01*
X119714884Y-78078240D01*
X119450040Y-78012750D01*
X119177508Y-78000188D01*
X118907762Y-78041035D01*
X118651168Y-78133723D01*
X118538137Y-78194140D01*
X118472612Y-78433007D01*
X107549555Y-78433007D01*
X107512122Y-78342637D01*
X107418005Y-78201782D01*
X107298218Y-78081995D01*
X107157363Y-77987878D01*
X107000853Y-77923049D01*
X106834703Y-77890000D01*
X106665297Y-77890000D01*
X106499147Y-77923049D01*
X106342637Y-77987878D01*
X106201782Y-78081995D01*
X106081995Y-78201782D01*
X105987878Y-78342637D01*
X105923049Y-78499147D01*
X105890000Y-78665297D01*
X86188481Y-78665297D01*
X86061303Y-78640000D01*
X85891897Y-78640000D01*
X85725747Y-78673049D01*
X85650000Y-78704425D01*
X85574253Y-78673049D01*
X85408103Y-78640000D01*
X85238697Y-78640000D01*
X85072547Y-78673049D01*
X84916037Y-78737878D01*
X84775182Y-78831995D01*
X84655395Y-78951782D01*
X84561278Y-79092637D01*
X84496449Y-79249147D01*
X84463400Y-79415297D01*
X62085000Y-79415297D01*
X62085000Y-77915297D01*
X79390000Y-77915297D01*
X79390000Y-78084703D01*
X79423049Y-78250853D01*
X79487878Y-78407363D01*
X79581995Y-78548218D01*
X79701782Y-78668005D01*
X79842637Y-78762122D01*
X79999147Y-78826951D01*
X80165297Y-78860000D01*
X80334703Y-78860000D01*
X80500853Y-78826951D01*
X80657363Y-78762122D01*
X80798218Y-78668005D01*
X80918005Y-78548218D01*
X81012122Y-78407363D01*
X81076951Y-78250853D01*
X81110000Y-78084703D01*
X81110000Y-77915297D01*
X81076951Y-77749147D01*
X81012122Y-77592637D01*
X80918005Y-77451782D01*
X80798218Y-77331995D01*
X80657363Y-77237878D01*
X80500853Y-77173049D01*
X80334703Y-77140000D01*
X80165297Y-77140000D01*
X79999147Y-77173049D01*
X79842637Y-77237878D01*
X79701782Y-77331995D01*
X79581995Y-77451782D01*
X79487878Y-77592637D01*
X79423049Y-77749147D01*
X79390000Y-77915297D01*
X62085000Y-77915297D01*
X62085000Y-76378996D01*
X66530609Y-76378996D01*
X66625287Y-76642476D01*
X66913369Y-76782467D01*
X67223226Y-76863565D01*
X67542951Y-76882654D01*
X67860257Y-76839002D01*
X68162949Y-76734285D01*
X68334713Y-76642476D01*
X68342576Y-76620593D01*
X73069012Y-76620593D01*
X73204562Y-76918751D01*
X73550399Y-77092592D01*
X73923506Y-77195623D01*
X74309543Y-77223885D01*
X74693677Y-77176292D01*
X75061145Y-77054672D01*
X75315438Y-76918751D01*
X75450988Y-76620593D01*
X74260000Y-75429605D01*
X73069012Y-76620593D01*
X68342576Y-76620593D01*
X68429391Y-76378996D01*
X67480000Y-75429605D01*
X66530609Y-76378996D01*
X62085000Y-76378996D01*
X62085000Y-75312951D01*
X65847346Y-75312951D01*
X65890998Y-75630257D01*
X65995715Y-75932949D01*
X66087524Y-76104713D01*
X66351004Y-76199391D01*
X67300395Y-75250000D01*
X67659605Y-75250000D01*
X68608996Y-76199391D01*
X68872476Y-76104713D01*
X69012467Y-75816631D01*
X69093565Y-75506774D01*
X69105937Y-75299543D01*
X72286115Y-75299543D01*
X72333708Y-75683677D01*
X72455328Y-76051145D01*
X72591249Y-76305438D01*
X72889407Y-76440988D01*
X74080395Y-75250000D01*
X74439605Y-75250000D01*
X75630593Y-76440988D01*
X75797084Y-76365297D01*
X98940000Y-76365297D01*
X98940000Y-76534703D01*
X98973049Y-76700853D01*
X99037878Y-76857363D01*
X99131995Y-76998218D01*
X99251782Y-77118005D01*
X99392637Y-77212122D01*
X99549147Y-77276951D01*
X99715297Y-77310000D01*
X99884703Y-77310000D01*
X100050853Y-77276951D01*
X100207363Y-77212122D01*
X100348218Y-77118005D01*
X100468005Y-76998218D01*
X100562122Y-76857363D01*
X100626951Y-76700853D01*
X100660000Y-76534703D01*
X100660000Y-76365297D01*
X105590000Y-76365297D01*
X105590000Y-76534703D01*
X105623049Y-76700853D01*
X105687878Y-76857363D01*
X105781995Y-76998218D01*
X105901782Y-77118005D01*
X106042637Y-77212122D01*
X106199147Y-77276951D01*
X106365297Y-77310000D01*
X106534703Y-77310000D01*
X106700853Y-77276951D01*
X106857363Y-77212122D01*
X106927441Y-77165297D01*
X108640000Y-77165297D01*
X108640000Y-77334703D01*
X108673049Y-77500853D01*
X108737878Y-77657363D01*
X108831995Y-77798218D01*
X108951782Y-77918005D01*
X109092637Y-78012122D01*
X109249147Y-78076951D01*
X109415297Y-78110000D01*
X109584703Y-78110000D01*
X109750853Y-78076951D01*
X109907363Y-78012122D01*
X110048218Y-77918005D01*
X110134570Y-77831653D01*
X120607952Y-77831653D01*
X120763962Y-78147214D01*
X121138745Y-78338020D01*
X121543551Y-78452044D01*
X121962824Y-78484902D01*
X122380451Y-78435334D01*
X122780383Y-78305243D01*
X123076038Y-78147214D01*
X123232048Y-77831653D01*
X121920000Y-76519605D01*
X120607952Y-77831653D01*
X110134570Y-77831653D01*
X110168005Y-77798218D01*
X110262122Y-77657363D01*
X110326951Y-77500853D01*
X110360000Y-77334703D01*
X110360000Y-77165297D01*
X110326951Y-76999147D01*
X110262122Y-76842637D01*
X110168005Y-76701782D01*
X110048218Y-76581995D01*
X109907363Y-76487878D01*
X109750853Y-76423049D01*
X109584703Y-76390000D01*
X109415297Y-76390000D01*
X109249147Y-76423049D01*
X109092637Y-76487878D01*
X108951782Y-76581995D01*
X108831995Y-76701782D01*
X108737878Y-76842637D01*
X108673049Y-76999147D01*
X108640000Y-77165297D01*
X106927441Y-77165297D01*
X106998218Y-77118005D01*
X107118005Y-76998218D01*
X107212122Y-76857363D01*
X107276951Y-76700853D01*
X107310000Y-76534703D01*
X107310000Y-76382824D01*
X119775098Y-76382824D01*
X119824666Y-76800451D01*
X119954757Y-77200383D01*
X120112786Y-77496038D01*
X120428347Y-77652048D01*
X121740395Y-76340000D01*
X122099605Y-76340000D01*
X123411653Y-77652048D01*
X123727214Y-77496038D01*
X123918020Y-77121255D01*
X124032044Y-76716449D01*
X124064902Y-76297176D01*
X124015334Y-75879549D01*
X123885243Y-75479617D01*
X123727214Y-75183962D01*
X123411653Y-75027952D01*
X122099605Y-76340000D01*
X121740395Y-76340000D01*
X120428347Y-75027952D01*
X120112786Y-75183962D01*
X119921980Y-75558745D01*
X119807956Y-75963551D01*
X119775098Y-76382824D01*
X107310000Y-76382824D01*
X107310000Y-76365297D01*
X107276951Y-76199147D01*
X107212122Y-76042637D01*
X107118005Y-75901782D01*
X106998218Y-75781995D01*
X106857363Y-75687878D01*
X106700853Y-75623049D01*
X106534703Y-75590000D01*
X106365297Y-75590000D01*
X106199147Y-75623049D01*
X106042637Y-75687878D01*
X105901782Y-75781995D01*
X105781995Y-75901782D01*
X105687878Y-76042637D01*
X105623049Y-76199147D01*
X105590000Y-76365297D01*
X100660000Y-76365297D01*
X100626951Y-76199147D01*
X100562122Y-76042637D01*
X100468005Y-75901782D01*
X100348218Y-75781995D01*
X100207363Y-75687878D01*
X100050853Y-75623049D01*
X99884703Y-75590000D01*
X99715297Y-75590000D01*
X99549147Y-75623049D01*
X99392637Y-75687878D01*
X99251782Y-75781995D01*
X99131995Y-75901782D01*
X99037878Y-76042637D01*
X98973049Y-76199147D01*
X98940000Y-76365297D01*
X75797084Y-76365297D01*
X75928751Y-76305438D01*
X76102592Y-75959601D01*
X76205623Y-75586494D01*
X76233885Y-75200457D01*
X76186292Y-74816323D01*
X76064672Y-74448855D01*
X75928751Y-74194562D01*
X75630593Y-74059012D01*
X74439605Y-75250000D01*
X74080395Y-75250000D01*
X72889407Y-74059012D01*
X72591249Y-74194562D01*
X72417408Y-74540399D01*
X72314377Y-74913506D01*
X72286115Y-75299543D01*
X69105937Y-75299543D01*
X69112654Y-75187049D01*
X69069002Y-74869743D01*
X68964285Y-74567051D01*
X68872476Y-74395287D01*
X68608996Y-74300609D01*
X67659605Y-75250000D01*
X67300395Y-75250000D01*
X66351004Y-74300609D01*
X66087524Y-74395287D01*
X65947533Y-74683369D01*
X65866435Y-74993226D01*
X65847346Y-75312951D01*
X62085000Y-75312951D01*
X62085000Y-74121004D01*
X66530609Y-74121004D01*
X67480000Y-75070395D01*
X68429391Y-74121004D01*
X68342577Y-73879407D01*
X73069012Y-73879407D01*
X74260000Y-75070395D01*
X75450988Y-73879407D01*
X75315438Y-73581249D01*
X74969601Y-73407408D01*
X74596494Y-73304377D01*
X74210457Y-73276115D01*
X73826323Y-73323708D01*
X73458855Y-73445328D01*
X73204562Y-73581249D01*
X73069012Y-73879407D01*
X68342577Y-73879407D01*
X68334713Y-73857524D01*
X68046631Y-73717533D01*
X67736774Y-73636435D01*
X67417049Y-73617346D01*
X67099743Y-73660998D01*
X66797051Y-73765715D01*
X66625287Y-73857524D01*
X66530609Y-74121004D01*
X62085000Y-74121004D01*
X62085000Y-73165297D01*
X76890000Y-73165297D01*
X76890000Y-73334703D01*
X76923049Y-73500853D01*
X76987878Y-73657363D01*
X77081995Y-73798218D01*
X77201782Y-73918005D01*
X77342637Y-74012122D01*
X77499147Y-74076951D01*
X77665297Y-74110000D01*
X77834703Y-74110000D01*
X78000853Y-74076951D01*
X78157363Y-74012122D01*
X78298218Y-73918005D01*
X78418005Y-73798218D01*
X78512122Y-73657363D01*
X78576951Y-73500853D01*
X78606285Y-73353380D01*
X79898400Y-75076200D01*
X79916890Y-75096030D01*
X79937221Y-75110398D01*
X79959965Y-75120525D01*
X79984248Y-75126019D01*
X81984248Y-75376019D01*
X82000133Y-75377000D01*
X82024907Y-75374534D01*
X83071092Y-75165297D01*
X107640000Y-75165297D01*
X107640000Y-75334703D01*
X107673049Y-75500853D01*
X107737878Y-75657363D01*
X107831995Y-75798218D01*
X107951782Y-75918005D01*
X108092637Y-76012122D01*
X108249147Y-76076951D01*
X108415297Y-76110000D01*
X108584703Y-76110000D01*
X108750853Y-76076951D01*
X108907363Y-76012122D01*
X109048218Y-75918005D01*
X109168005Y-75798218D01*
X109262122Y-75657363D01*
X109326951Y-75500853D01*
X109360000Y-75334703D01*
X109360000Y-75165297D01*
X109890000Y-75165297D01*
X109890000Y-75334703D01*
X109923049Y-75500853D01*
X109987878Y-75657363D01*
X110081995Y-75798218D01*
X110201782Y-75918005D01*
X110342637Y-76012122D01*
X110499147Y-76076951D01*
X110665297Y-76110000D01*
X110834703Y-76110000D01*
X111000853Y-76076951D01*
X111157363Y-76012122D01*
X111298218Y-75918005D01*
X111418005Y-75798218D01*
X111512122Y-75657363D01*
X111576951Y-75500853D01*
X111610000Y-75334703D01*
X111610000Y-75165297D01*
X111576951Y-74999147D01*
X111514488Y-74848347D01*
X120607952Y-74848347D01*
X121920000Y-76160395D01*
X123232048Y-74848347D01*
X123076038Y-74532786D01*
X122701255Y-74341980D01*
X122296449Y-74227956D01*
X121877176Y-74195098D01*
X121459549Y-74244666D01*
X121059617Y-74374757D01*
X120763962Y-74532786D01*
X120607952Y-74848347D01*
X111514488Y-74848347D01*
X111512122Y-74842637D01*
X111418005Y-74701782D01*
X111298218Y-74581995D01*
X111157363Y-74487878D01*
X111000853Y-74423049D01*
X110834703Y-74390000D01*
X110665297Y-74390000D01*
X110499147Y-74423049D01*
X110342637Y-74487878D01*
X110201782Y-74581995D01*
X110081995Y-74701782D01*
X109987878Y-74842637D01*
X109923049Y-74999147D01*
X109890000Y-75165297D01*
X109360000Y-75165297D01*
X109326951Y-74999147D01*
X109262122Y-74842637D01*
X109168005Y-74701782D01*
X109048218Y-74581995D01*
X108907363Y-74487878D01*
X108750853Y-74423049D01*
X108584703Y-74390000D01*
X108415297Y-74390000D01*
X108249147Y-74423049D01*
X108092637Y-74487878D01*
X107951782Y-74581995D01*
X107831995Y-74701782D01*
X107737878Y-74842637D01*
X107673049Y-74999147D01*
X107640000Y-75165297D01*
X83071092Y-75165297D01*
X84524907Y-74874534D01*
X84550028Y-74866731D01*
X84571840Y-74854729D01*
X84590891Y-74838701D01*
X84606449Y-74819265D01*
X84617917Y-74797167D01*
X85117917Y-73547167D01*
X85125329Y-73520537D01*
X85126927Y-73495692D01*
X85123648Y-73471012D01*
X85115617Y-73447447D01*
X84967048Y-73120593D01*
X118299012Y-73120593D01*
X118434562Y-73418751D01*
X118780399Y-73592592D01*
X119153506Y-73695623D01*
X119539543Y-73723885D01*
X119923677Y-73676292D01*
X120291145Y-73554672D01*
X120545438Y-73418751D01*
X120680988Y-73120593D01*
X119490000Y-71929605D01*
X118299012Y-73120593D01*
X84967048Y-73120593D01*
X84366570Y-71799543D01*
X117516115Y-71799543D01*
X117563708Y-72183677D01*
X117685328Y-72551145D01*
X117821249Y-72805438D01*
X118119407Y-72940988D01*
X119310395Y-71750000D01*
X119669605Y-71750000D01*
X120860593Y-72940988D01*
X120996951Y-72878996D01*
X125320609Y-72878996D01*
X125415287Y-73142476D01*
X125703369Y-73282467D01*
X126013226Y-73363565D01*
X126332951Y-73382654D01*
X126650257Y-73339002D01*
X126952949Y-73234285D01*
X127124713Y-73142476D01*
X127219391Y-72878996D01*
X126270000Y-71929605D01*
X125320609Y-72878996D01*
X120996951Y-72878996D01*
X121158751Y-72805438D01*
X121332592Y-72459601D01*
X121435623Y-72086494D01*
X121455649Y-71812951D01*
X124637346Y-71812951D01*
X124680998Y-72130257D01*
X124785715Y-72432949D01*
X124877524Y-72604713D01*
X125141004Y-72699391D01*
X126090395Y-71750000D01*
X126449605Y-71750000D01*
X127398996Y-72699391D01*
X127662476Y-72604713D01*
X127802467Y-72316631D01*
X127883565Y-72006774D01*
X127902654Y-71687049D01*
X127859002Y-71369743D01*
X127754285Y-71067051D01*
X127662476Y-70895287D01*
X127398996Y-70800609D01*
X126449605Y-71750000D01*
X126090395Y-71750000D01*
X125141004Y-70800609D01*
X124877524Y-70895287D01*
X124737533Y-71183369D01*
X124656435Y-71493226D01*
X124637346Y-71812951D01*
X121455649Y-71812951D01*
X121463885Y-71700457D01*
X121416292Y-71316323D01*
X121294672Y-70948855D01*
X121158751Y-70694562D01*
X120996952Y-70621004D01*
X125320609Y-70621004D01*
X126270000Y-71570395D01*
X127219391Y-70621004D01*
X127124713Y-70357524D01*
X126836631Y-70217533D01*
X126526774Y-70136435D01*
X126207049Y-70117346D01*
X125889743Y-70160998D01*
X125587051Y-70265715D01*
X125415287Y-70357524D01*
X125320609Y-70621004D01*
X120996952Y-70621004D01*
X120860593Y-70559012D01*
X119669605Y-71750000D01*
X119310395Y-71750000D01*
X118119407Y-70559012D01*
X117821249Y-70694562D01*
X117647408Y-71040399D01*
X117544377Y-71413506D01*
X117516115Y-71799543D01*
X84366570Y-71799543D01*
X83865617Y-70697447D01*
X83856449Y-70680735D01*
X83840891Y-70661299D01*
X83821840Y-70645271D01*
X83800028Y-70633269D01*
X82124760Y-69915297D01*
X101890000Y-69915297D01*
X101890000Y-70084703D01*
X101923049Y-70250853D01*
X101987878Y-70407363D01*
X102081995Y-70548218D01*
X102201782Y-70668005D01*
X102342637Y-70762122D01*
X102499147Y-70826951D01*
X102665297Y-70860000D01*
X102834703Y-70860000D01*
X103000853Y-70826951D01*
X103157363Y-70762122D01*
X103298218Y-70668005D01*
X103418005Y-70548218D01*
X103512122Y-70407363D01*
X103523701Y-70379407D01*
X118299012Y-70379407D01*
X119490000Y-71570395D01*
X120680988Y-70379407D01*
X120545438Y-70081249D01*
X120199601Y-69907408D01*
X119826494Y-69804377D01*
X119440457Y-69776115D01*
X119056323Y-69823708D01*
X118688855Y-69945328D01*
X118434562Y-70081249D01*
X118299012Y-70379407D01*
X103523701Y-70379407D01*
X103576951Y-70250853D01*
X103610000Y-70084703D01*
X103610000Y-69915297D01*
X103576951Y-69749147D01*
X103512122Y-69592637D01*
X103418005Y-69451782D01*
X103298218Y-69331995D01*
X103157363Y-69237878D01*
X103000853Y-69173049D01*
X102834703Y-69140000D01*
X102665297Y-69140000D01*
X102499147Y-69173049D01*
X102342637Y-69237878D01*
X102201782Y-69331995D01*
X102081995Y-69451782D01*
X101987878Y-69592637D01*
X101923049Y-69749147D01*
X101890000Y-69915297D01*
X82124760Y-69915297D01*
X82050028Y-69883269D01*
X82035346Y-69878018D01*
X82010870Y-69873466D01*
X81985975Y-69873777D01*
X79735975Y-70123777D01*
X79705407Y-70131086D01*
X79683065Y-70142071D01*
X79663295Y-70157203D01*
X79646858Y-70175901D01*
X79634383Y-70197447D01*
X78464452Y-72771295D01*
X78418005Y-72701782D01*
X78298218Y-72581995D01*
X78157363Y-72487878D01*
X78000853Y-72423049D01*
X77834703Y-72390000D01*
X77665297Y-72390000D01*
X77499147Y-72423049D01*
X77342637Y-72487878D01*
X77201782Y-72581995D01*
X77081995Y-72701782D01*
X76987878Y-72842637D01*
X76923049Y-72999147D01*
X76890000Y-73165297D01*
X62085000Y-73165297D01*
X62085000Y-70878996D01*
X66530609Y-70878996D01*
X66625287Y-71142476D01*
X66913369Y-71282467D01*
X67223226Y-71363565D01*
X67542951Y-71382654D01*
X67860257Y-71339002D01*
X68162949Y-71234285D01*
X68334713Y-71142476D01*
X68342576Y-71120593D01*
X73069012Y-71120593D01*
X73204562Y-71418751D01*
X73550399Y-71592592D01*
X73923506Y-71695623D01*
X74309543Y-71723885D01*
X74693677Y-71676292D01*
X75061145Y-71554672D01*
X75315438Y-71418751D01*
X75450988Y-71120593D01*
X74260000Y-69929605D01*
X73069012Y-71120593D01*
X68342576Y-71120593D01*
X68429391Y-70878996D01*
X67480000Y-69929605D01*
X66530609Y-70878996D01*
X62085000Y-70878996D01*
X62085000Y-69812951D01*
X65847346Y-69812951D01*
X65890998Y-70130257D01*
X65995715Y-70432949D01*
X66087524Y-70604713D01*
X66351004Y-70699391D01*
X67300395Y-69750000D01*
X67659605Y-69750000D01*
X68608996Y-70699391D01*
X68872476Y-70604713D01*
X69012467Y-70316631D01*
X69093565Y-70006774D01*
X69105937Y-69799543D01*
X72286115Y-69799543D01*
X72333708Y-70183677D01*
X72455328Y-70551145D01*
X72591249Y-70805438D01*
X72889407Y-70940988D01*
X74080395Y-69750000D01*
X74439605Y-69750000D01*
X75630593Y-70940988D01*
X75928751Y-70805438D01*
X76102592Y-70459601D01*
X76205623Y-70086494D01*
X76233885Y-69700457D01*
X76186292Y-69316323D01*
X76064672Y-68948855D01*
X75928751Y-68694562D01*
X75630593Y-68559012D01*
X74439605Y-69750000D01*
X74080395Y-69750000D01*
X72889407Y-68559012D01*
X72591249Y-68694562D01*
X72417408Y-69040399D01*
X72314377Y-69413506D01*
X72286115Y-69799543D01*
X69105937Y-69799543D01*
X69112654Y-69687049D01*
X69069002Y-69369743D01*
X68964285Y-69067051D01*
X68872476Y-68895287D01*
X68608996Y-68800609D01*
X67659605Y-69750000D01*
X67300395Y-69750000D01*
X66351004Y-68800609D01*
X66087524Y-68895287D01*
X65947533Y-69183369D01*
X65866435Y-69493226D01*
X65847346Y-69812951D01*
X62085000Y-69812951D01*
X62085000Y-68621004D01*
X66530609Y-68621004D01*
X67480000Y-69570395D01*
X68429391Y-68621004D01*
X68342577Y-68379407D01*
X73069012Y-68379407D01*
X74260000Y-69570395D01*
X75450988Y-68379407D01*
X75315438Y-68081249D01*
X74969601Y-67907408D01*
X74596494Y-67804377D01*
X74210457Y-67776115D01*
X73826323Y-67823708D01*
X73458855Y-67945328D01*
X73204562Y-68081249D01*
X73069012Y-68379407D01*
X68342577Y-68379407D01*
X68334713Y-68357524D01*
X68046631Y-68217533D01*
X67736774Y-68136435D01*
X67417049Y-68117346D01*
X67099743Y-68160998D01*
X66797051Y-68265715D01*
X66625287Y-68357524D01*
X66530609Y-68621004D01*
X62085000Y-68621004D01*
X62085000Y-66915297D01*
X95640000Y-66915297D01*
X95640000Y-67084703D01*
X95673049Y-67250853D01*
X95737878Y-67407363D01*
X95831995Y-67548218D01*
X95951782Y-67668005D01*
X96092637Y-67762122D01*
X96249147Y-67826951D01*
X96415297Y-67860000D01*
X96584703Y-67860000D01*
X96750853Y-67826951D01*
X96907363Y-67762122D01*
X97048218Y-67668005D01*
X97168005Y-67548218D01*
X97262122Y-67407363D01*
X97326951Y-67250853D01*
X97360000Y-67084703D01*
X97360000Y-66915297D01*
X97326951Y-66749147D01*
X97262122Y-66592637D01*
X97168005Y-66451782D01*
X97131520Y-66415297D01*
X121140000Y-66415297D01*
X121140000Y-66584703D01*
X121173049Y-66750853D01*
X121237878Y-66907363D01*
X121331995Y-67048218D01*
X121451782Y-67168005D01*
X121592637Y-67262122D01*
X121749147Y-67326951D01*
X121915297Y-67360000D01*
X122084703Y-67360000D01*
X122250853Y-67326951D01*
X122407363Y-67262122D01*
X122548218Y-67168005D01*
X122668005Y-67048218D01*
X122762122Y-66907363D01*
X122826951Y-66750853D01*
X122860000Y-66584703D01*
X122860000Y-66415297D01*
X122826951Y-66249147D01*
X122762122Y-66092637D01*
X122668005Y-65951782D01*
X122548218Y-65831995D01*
X122407363Y-65737878D01*
X122250853Y-65673049D01*
X122084703Y-65640000D01*
X121915297Y-65640000D01*
X121749147Y-65673049D01*
X121592637Y-65737878D01*
X121451782Y-65831995D01*
X121331995Y-65951782D01*
X121237878Y-66092637D01*
X121173049Y-66249147D01*
X121140000Y-66415297D01*
X97131520Y-66415297D01*
X97048218Y-66331995D01*
X96907363Y-66237878D01*
X96750853Y-66173049D01*
X96584703Y-66140000D01*
X96415297Y-66140000D01*
X96249147Y-66173049D01*
X96092637Y-66237878D01*
X95951782Y-66331995D01*
X95831995Y-66451782D01*
X95737878Y-66592637D01*
X95673049Y-66749147D01*
X95640000Y-66915297D01*
X62085000Y-66915297D01*
X62085000Y-65915297D01*
X87390000Y-65915297D01*
X87390000Y-66084703D01*
X87423049Y-66250853D01*
X87487878Y-66407363D01*
X87581995Y-66548218D01*
X87701782Y-66668005D01*
X87842637Y-66762122D01*
X87999147Y-66826951D01*
X88165297Y-66860000D01*
X88334703Y-66860000D01*
X88500853Y-66826951D01*
X88657363Y-66762122D01*
X88798218Y-66668005D01*
X88918005Y-66548218D01*
X89012122Y-66407363D01*
X89076951Y-66250853D01*
X89110000Y-66084703D01*
X89110000Y-65915297D01*
X89076951Y-65749147D01*
X89012122Y-65592637D01*
X88918005Y-65451782D01*
X88798218Y-65331995D01*
X88657363Y-65237878D01*
X88500853Y-65173049D01*
X88334703Y-65140000D01*
X88165297Y-65140000D01*
X87999147Y-65173049D01*
X87842637Y-65237878D01*
X87701782Y-65331995D01*
X87581995Y-65451782D01*
X87487878Y-65592637D01*
X87423049Y-65749147D01*
X87390000Y-65915297D01*
X62085000Y-65915297D01*
X62085000Y-64915297D01*
X96140000Y-64915297D01*
X96140000Y-65084703D01*
X96173049Y-65250853D01*
X96237878Y-65407363D01*
X96331995Y-65548218D01*
X96451782Y-65668005D01*
X96592637Y-65762122D01*
X96749147Y-65826951D01*
X96915297Y-65860000D01*
X97084703Y-65860000D01*
X97250853Y-65826951D01*
X97407363Y-65762122D01*
X97548218Y-65668005D01*
X97668005Y-65548218D01*
X97762122Y-65407363D01*
X97826951Y-65250853D01*
X97860000Y-65084703D01*
X97860000Y-64915297D01*
X97826951Y-64749147D01*
X97762122Y-64592637D01*
X97668005Y-64451782D01*
X97548218Y-64331995D01*
X97407363Y-64237878D01*
X97250853Y-64173049D01*
X97084703Y-64140000D01*
X96915297Y-64140000D01*
X96749147Y-64173049D01*
X96592637Y-64237878D01*
X96451782Y-64331995D01*
X96331995Y-64451782D01*
X96237878Y-64592637D01*
X96173049Y-64749147D01*
X96140000Y-64915297D01*
X62085000Y-64915297D01*
X62085000Y-63915297D01*
X117890000Y-63915297D01*
X117890000Y-64084703D01*
X117923049Y-64250853D01*
X117987878Y-64407363D01*
X118081995Y-64548218D01*
X118201782Y-64668005D01*
X118342637Y-64762122D01*
X118499147Y-64826951D01*
X118665297Y-64860000D01*
X118718259Y-64860000D01*
X118737878Y-64907363D01*
X118831995Y-65048218D01*
X118951782Y-65168005D01*
X119092637Y-65262122D01*
X119249147Y-65326951D01*
X119415297Y-65360000D01*
X119584703Y-65360000D01*
X119750853Y-65326951D01*
X119907363Y-65262122D01*
X120048218Y-65168005D01*
X120168005Y-65048218D01*
X120262122Y-64907363D01*
X120326951Y-64750853D01*
X120360000Y-64584703D01*
X120360000Y-64415297D01*
X120326951Y-64249147D01*
X120262122Y-64092637D01*
X120168005Y-63951782D01*
X120048218Y-63831995D01*
X119907363Y-63737878D01*
X119750853Y-63673049D01*
X119584703Y-63640000D01*
X119531741Y-63640000D01*
X119512122Y-63592637D01*
X119418005Y-63451782D01*
X119332275Y-63366052D01*
X125690000Y-63366052D01*
X125690000Y-63633948D01*
X125742264Y-63896697D01*
X125844784Y-64144201D01*
X125993619Y-64366949D01*
X126183051Y-64556381D01*
X126405799Y-64705216D01*
X126653303Y-64807736D01*
X126916052Y-64860000D01*
X127183948Y-64860000D01*
X127446697Y-64807736D01*
X127694201Y-64705216D01*
X127916949Y-64556381D01*
X128106381Y-64366949D01*
X128255216Y-64144201D01*
X128357736Y-63896697D01*
X128410000Y-63633948D01*
X128410000Y-63366052D01*
X128357736Y-63103303D01*
X128255216Y-62855799D01*
X128106381Y-62633051D01*
X127916949Y-62443619D01*
X127694201Y-62294784D01*
X127446697Y-62192264D01*
X127183948Y-62140000D01*
X126916052Y-62140000D01*
X126653303Y-62192264D01*
X126405799Y-62294784D01*
X126183051Y-62443619D01*
X125993619Y-62633051D01*
X125844784Y-62855799D01*
X125742264Y-63103303D01*
X125690000Y-63366052D01*
X119332275Y-63366052D01*
X119298218Y-63331995D01*
X119157363Y-63237878D01*
X119000853Y-63173049D01*
X118834703Y-63140000D01*
X118665297Y-63140000D01*
X118499147Y-63173049D01*
X118342637Y-63237878D01*
X118201782Y-63331995D01*
X118081995Y-63451782D01*
X117987878Y-63592637D01*
X117923049Y-63749147D01*
X117890000Y-63915297D01*
X62085000Y-63915297D01*
X62085000Y-61366052D01*
X65340000Y-61366052D01*
X65340000Y-61633948D01*
X65392264Y-61896697D01*
X65494784Y-62144201D01*
X65643619Y-62366949D01*
X65833051Y-62556381D01*
X66055799Y-62705216D01*
X66303303Y-62807736D01*
X66566052Y-62860000D01*
X66833948Y-62860000D01*
X67096697Y-62807736D01*
X67344201Y-62705216D01*
X67566949Y-62556381D01*
X67756381Y-62366949D01*
X67891120Y-62165297D01*
X74140000Y-62165297D01*
X74140000Y-62334703D01*
X74173049Y-62500853D01*
X74237878Y-62657363D01*
X74331995Y-62798218D01*
X74451782Y-62918005D01*
X74592637Y-63012122D01*
X74749147Y-63076951D01*
X74915297Y-63110000D01*
X75084703Y-63110000D01*
X75250853Y-63076951D01*
X75407363Y-63012122D01*
X75548218Y-62918005D01*
X75668005Y-62798218D01*
X75762122Y-62657363D01*
X75826951Y-62500853D01*
X75860000Y-62334703D01*
X75860000Y-62165297D01*
X75826951Y-61999147D01*
X75762122Y-61842637D01*
X75668005Y-61701782D01*
X75548218Y-61581995D01*
X75407363Y-61487878D01*
X75250853Y-61423049D01*
X75084703Y-61390000D01*
X74915297Y-61390000D01*
X74749147Y-61423049D01*
X74592637Y-61487878D01*
X74451782Y-61581995D01*
X74331995Y-61701782D01*
X74237878Y-61842637D01*
X74173049Y-61999147D01*
X74140000Y-62165297D01*
X67891120Y-62165297D01*
X67905216Y-62144201D01*
X68007736Y-61896697D01*
X68060000Y-61633948D01*
X68060000Y-61366052D01*
X68007736Y-61103303D01*
X67905216Y-60855799D01*
X67756381Y-60633051D01*
X67566949Y-60443619D01*
X67524563Y-60415297D01*
X74140000Y-60415297D01*
X74140000Y-60584703D01*
X74173049Y-60750853D01*
X74237878Y-60907363D01*
X74331995Y-61048218D01*
X74451782Y-61168005D01*
X74592637Y-61262122D01*
X74749147Y-61326951D01*
X74915297Y-61360000D01*
X75084703Y-61360000D01*
X75250853Y-61326951D01*
X75407363Y-61262122D01*
X75548218Y-61168005D01*
X75668005Y-61048218D01*
X75762122Y-60907363D01*
X75826951Y-60750853D01*
X75860000Y-60584703D01*
X75860000Y-60415297D01*
X75826951Y-60249147D01*
X75762122Y-60092637D01*
X75668005Y-59951782D01*
X75548218Y-59831995D01*
X75407363Y-59737878D01*
X75250853Y-59673049D01*
X75084703Y-59640000D01*
X74915297Y-59640000D01*
X74749147Y-59673049D01*
X74592637Y-59737878D01*
X74451782Y-59831995D01*
X74331995Y-59951782D01*
X74237878Y-60092637D01*
X74173049Y-60249147D01*
X74140000Y-60415297D01*
X67524563Y-60415297D01*
X67344201Y-60294784D01*
X67096697Y-60192264D01*
X66833948Y-60140000D01*
X66566052Y-60140000D01*
X66303303Y-60192264D01*
X66055799Y-60294784D01*
X65833051Y-60443619D01*
X65643619Y-60633051D01*
X65494784Y-60855799D01*
X65392264Y-61103303D01*
X65340000Y-61366052D01*
X62085000Y-61366052D01*
X62085000Y-58915297D01*
X118640000Y-58915297D01*
X118640000Y-59084703D01*
X118673049Y-59250853D01*
X118737878Y-59407363D01*
X118831995Y-59548218D01*
X118951782Y-59668005D01*
X119092637Y-59762122D01*
X119249147Y-59826951D01*
X119415297Y-59860000D01*
X119584703Y-59860000D01*
X119750853Y-59826951D01*
X119907363Y-59762122D01*
X120048218Y-59668005D01*
X120168005Y-59548218D01*
X120262122Y-59407363D01*
X120326951Y-59250853D01*
X120360000Y-59084703D01*
X120360000Y-58915297D01*
X120640000Y-58915297D01*
X120640000Y-59084703D01*
X120673049Y-59250853D01*
X120737878Y-59407363D01*
X120831995Y-59548218D01*
X120951782Y-59668005D01*
X121092637Y-59762122D01*
X121249147Y-59826951D01*
X121415297Y-59860000D01*
X121584703Y-59860000D01*
X121750853Y-59826951D01*
X121907363Y-59762122D01*
X122048218Y-59668005D01*
X122168005Y-59548218D01*
X122262122Y-59407363D01*
X122326951Y-59250853D01*
X122360000Y-59084703D01*
X122360000Y-58915297D01*
X122326951Y-58749147D01*
X122262122Y-58592637D01*
X122168005Y-58451782D01*
X122048218Y-58331995D01*
X121907363Y-58237878D01*
X121750853Y-58173049D01*
X121584703Y-58140000D01*
X121415297Y-58140000D01*
X121249147Y-58173049D01*
X121092637Y-58237878D01*
X120951782Y-58331995D01*
X120831995Y-58451782D01*
X120737878Y-58592637D01*
X120673049Y-58749147D01*
X120640000Y-58915297D01*
X120360000Y-58915297D01*
X120326951Y-58749147D01*
X120262122Y-58592637D01*
X120168005Y-58451782D01*
X120048218Y-58331995D01*
X119907363Y-58237878D01*
X119750853Y-58173049D01*
X119584703Y-58140000D01*
X119415297Y-58140000D01*
X119249147Y-58173049D01*
X119092637Y-58237878D01*
X118951782Y-58331995D01*
X118831995Y-58451782D01*
X118737878Y-58592637D01*
X118673049Y-58749147D01*
X118640000Y-58915297D01*
X62085000Y-58915297D01*
X62085000Y-57665297D01*
X74140000Y-57665297D01*
X74140000Y-57834703D01*
X74173049Y-58000853D01*
X74237878Y-58157363D01*
X74331995Y-58298218D01*
X74451782Y-58418005D01*
X74592637Y-58512122D01*
X74749147Y-58576951D01*
X74915297Y-58610000D01*
X75084703Y-58610000D01*
X75250853Y-58576951D01*
X75407363Y-58512122D01*
X75548218Y-58418005D01*
X75668005Y-58298218D01*
X75762122Y-58157363D01*
X75826951Y-58000853D01*
X75860000Y-57834703D01*
X75860000Y-57665297D01*
X75826951Y-57499147D01*
X75762122Y-57342637D01*
X75668005Y-57201782D01*
X75548218Y-57081995D01*
X75407363Y-56987878D01*
X75250853Y-56923049D01*
X75211881Y-56915297D01*
X79890000Y-56915297D01*
X79890000Y-57084703D01*
X79923049Y-57250853D01*
X79987878Y-57407363D01*
X80081995Y-57548218D01*
X80201782Y-57668005D01*
X80342637Y-57762122D01*
X80499147Y-57826951D01*
X80665297Y-57860000D01*
X80834703Y-57860000D01*
X81000853Y-57826951D01*
X81157363Y-57762122D01*
X81298218Y-57668005D01*
X81375000Y-57591223D01*
X81451782Y-57668005D01*
X81592637Y-57762122D01*
X81749147Y-57826951D01*
X81915297Y-57860000D01*
X82084703Y-57860000D01*
X82250853Y-57826951D01*
X82407363Y-57762122D01*
X82548218Y-57668005D01*
X82668005Y-57548218D01*
X82762122Y-57407363D01*
X82826951Y-57250853D01*
X82860000Y-57084703D01*
X82860000Y-56915297D01*
X82826951Y-56749147D01*
X82773702Y-56620593D01*
X118299012Y-56620593D01*
X118434562Y-56918751D01*
X118780399Y-57092592D01*
X119153506Y-57195623D01*
X119539543Y-57223885D01*
X119923677Y-57176292D01*
X120291145Y-57054672D01*
X120545438Y-56918751D01*
X120680988Y-56620593D01*
X119490000Y-55429605D01*
X118299012Y-56620593D01*
X82773702Y-56620593D01*
X82762122Y-56592637D01*
X82668005Y-56451782D01*
X82548218Y-56331995D01*
X82407363Y-56237878D01*
X82250853Y-56173049D01*
X82084703Y-56140000D01*
X81915297Y-56140000D01*
X81749147Y-56173049D01*
X81592637Y-56237878D01*
X81451782Y-56331995D01*
X81375000Y-56408777D01*
X81298218Y-56331995D01*
X81157363Y-56237878D01*
X81000853Y-56173049D01*
X80834703Y-56140000D01*
X80665297Y-56140000D01*
X80499147Y-56173049D01*
X80342637Y-56237878D01*
X80201782Y-56331995D01*
X80081995Y-56451782D01*
X79987878Y-56592637D01*
X79923049Y-56749147D01*
X79890000Y-56915297D01*
X75211881Y-56915297D01*
X75084703Y-56890000D01*
X74915297Y-56890000D01*
X74749147Y-56923049D01*
X74592637Y-56987878D01*
X74451782Y-57081995D01*
X74331995Y-57201782D01*
X74237878Y-57342637D01*
X74173049Y-57499147D01*
X74140000Y-57665297D01*
X62085000Y-57665297D01*
X62085000Y-55349742D01*
X86204028Y-55349742D01*
X86204028Y-55519148D01*
X86237077Y-55685298D01*
X86301906Y-55841808D01*
X86396023Y-55982663D01*
X86515810Y-56102450D01*
X86656665Y-56196567D01*
X86813175Y-56261396D01*
X86979325Y-56294445D01*
X87148731Y-56294445D01*
X87314881Y-56261396D01*
X87390628Y-56230020D01*
X87466375Y-56261396D01*
X87632525Y-56294445D01*
X87801931Y-56294445D01*
X87968081Y-56261396D01*
X88124591Y-56196567D01*
X88265446Y-56102450D01*
X88385233Y-55982663D01*
X88479350Y-55841808D01*
X88544179Y-55685298D01*
X88577228Y-55519148D01*
X88577228Y-55349742D01*
X88570377Y-55315297D01*
X92540000Y-55315297D01*
X92540000Y-55484703D01*
X92573049Y-55650853D01*
X92637878Y-55807363D01*
X92731995Y-55948218D01*
X92851782Y-56068005D01*
X92992637Y-56162122D01*
X93149147Y-56226951D01*
X93315297Y-56260000D01*
X93484703Y-56260000D01*
X93650853Y-56226951D01*
X93807363Y-56162122D01*
X93948218Y-56068005D01*
X94068005Y-55948218D01*
X94162122Y-55807363D01*
X94226951Y-55650853D01*
X94260000Y-55484703D01*
X94260000Y-55315297D01*
X94256867Y-55299543D01*
X117516115Y-55299543D01*
X117563708Y-55683677D01*
X117685328Y-56051145D01*
X117821249Y-56305438D01*
X118119407Y-56440988D01*
X119310395Y-55250000D01*
X119669605Y-55250000D01*
X120860593Y-56440988D01*
X120996951Y-56378996D01*
X125320609Y-56378996D01*
X125415287Y-56642476D01*
X125703369Y-56782467D01*
X126013226Y-56863565D01*
X126332951Y-56882654D01*
X126650257Y-56839002D01*
X126952949Y-56734285D01*
X127124713Y-56642476D01*
X127219391Y-56378996D01*
X126270000Y-55429605D01*
X125320609Y-56378996D01*
X120996951Y-56378996D01*
X121158751Y-56305438D01*
X121332592Y-55959601D01*
X121435623Y-55586494D01*
X121455649Y-55312951D01*
X124637346Y-55312951D01*
X124680998Y-55630257D01*
X124785715Y-55932949D01*
X124877524Y-56104713D01*
X125141004Y-56199391D01*
X126090395Y-55250000D01*
X126449605Y-55250000D01*
X127398996Y-56199391D01*
X127662476Y-56104713D01*
X127802467Y-55816631D01*
X127883565Y-55506774D01*
X127902654Y-55187049D01*
X127859002Y-54869743D01*
X127754285Y-54567051D01*
X127662476Y-54395287D01*
X127398996Y-54300609D01*
X126449605Y-55250000D01*
X126090395Y-55250000D01*
X125141004Y-54300609D01*
X124877524Y-54395287D01*
X124737533Y-54683369D01*
X124656435Y-54993226D01*
X124637346Y-55312951D01*
X121455649Y-55312951D01*
X121463885Y-55200457D01*
X121416292Y-54816323D01*
X121294672Y-54448855D01*
X121158751Y-54194562D01*
X120996952Y-54121004D01*
X125320609Y-54121004D01*
X126270000Y-55070395D01*
X127219391Y-54121004D01*
X127124713Y-53857524D01*
X126836631Y-53717533D01*
X126526774Y-53636435D01*
X126207049Y-53617346D01*
X125889743Y-53660998D01*
X125587051Y-53765715D01*
X125415287Y-53857524D01*
X125320609Y-54121004D01*
X120996952Y-54121004D01*
X120860593Y-54059012D01*
X119669605Y-55250000D01*
X119310395Y-55250000D01*
X118119407Y-54059012D01*
X117821249Y-54194562D01*
X117647408Y-54540399D01*
X117544377Y-54913506D01*
X117516115Y-55299543D01*
X94256867Y-55299543D01*
X94226951Y-55149147D01*
X94162122Y-54992637D01*
X94068005Y-54851782D01*
X93948218Y-54731995D01*
X93807363Y-54637878D01*
X93650853Y-54573049D01*
X93484703Y-54540000D01*
X93315297Y-54540000D01*
X93149147Y-54573049D01*
X92992637Y-54637878D01*
X92851782Y-54731995D01*
X92731995Y-54851782D01*
X92637878Y-54992637D01*
X92573049Y-55149147D01*
X92540000Y-55315297D01*
X88570377Y-55315297D01*
X88544179Y-55183592D01*
X88496688Y-55068940D01*
X88625763Y-55068940D01*
X88791913Y-55035891D01*
X88948423Y-54971062D01*
X89089278Y-54876945D01*
X89209065Y-54757158D01*
X89303182Y-54616303D01*
X89321670Y-54571670D01*
X89366303Y-54553182D01*
X89507158Y-54459065D01*
X89626945Y-54339278D01*
X89721062Y-54198423D01*
X89785891Y-54041913D01*
X89811076Y-53915297D01*
X89813400Y-53915297D01*
X89813400Y-54084703D01*
X89846449Y-54250853D01*
X89911278Y-54407363D01*
X90005395Y-54548218D01*
X90125182Y-54668005D01*
X90266037Y-54762122D01*
X90422547Y-54826951D01*
X90588697Y-54860000D01*
X90758103Y-54860000D01*
X90924253Y-54826951D01*
X91000000Y-54795575D01*
X91075747Y-54826951D01*
X91241897Y-54860000D01*
X91411303Y-54860000D01*
X91577453Y-54826951D01*
X91733963Y-54762122D01*
X91874818Y-54668005D01*
X91994605Y-54548218D01*
X92088722Y-54407363D01*
X92153551Y-54250853D01*
X92186600Y-54084703D01*
X92186600Y-53915297D01*
X92153551Y-53749147D01*
X92088722Y-53592637D01*
X91994605Y-53451782D01*
X91874818Y-53331995D01*
X91733963Y-53237878D01*
X91577453Y-53173049D01*
X91538481Y-53165297D01*
X95140000Y-53165297D01*
X95140000Y-53334703D01*
X95173049Y-53500853D01*
X95237878Y-53657363D01*
X95331995Y-53798218D01*
X95451782Y-53918005D01*
X95592637Y-54012122D01*
X95749147Y-54076951D01*
X95915297Y-54110000D01*
X96084703Y-54110000D01*
X96250853Y-54076951D01*
X96407363Y-54012122D01*
X96548218Y-53918005D01*
X96586816Y-53879407D01*
X118299012Y-53879407D01*
X119490000Y-55070395D01*
X120680988Y-53879407D01*
X120545438Y-53581249D01*
X120199601Y-53407408D01*
X119826494Y-53304377D01*
X119440457Y-53276115D01*
X119056323Y-53323708D01*
X118688855Y-53445328D01*
X118434562Y-53581249D01*
X118299012Y-53879407D01*
X96586816Y-53879407D01*
X96668005Y-53798218D01*
X96762122Y-53657363D01*
X96804662Y-53554662D01*
X96907363Y-53512122D01*
X97048218Y-53418005D01*
X97168005Y-53298218D01*
X97262122Y-53157363D01*
X97326951Y-53000853D01*
X97360000Y-52834703D01*
X97360000Y-52665297D01*
X97326951Y-52499147D01*
X97262122Y-52342637D01*
X97168005Y-52201782D01*
X97048218Y-52081995D01*
X96907363Y-51987878D01*
X96750853Y-51923049D01*
X96584703Y-51890000D01*
X96415297Y-51890000D01*
X96249147Y-51923049D01*
X96092637Y-51987878D01*
X95951782Y-52081995D01*
X95831995Y-52201782D01*
X95737878Y-52342637D01*
X95695338Y-52445338D01*
X95592637Y-52487878D01*
X95451782Y-52581995D01*
X95331995Y-52701782D01*
X95237878Y-52842637D01*
X95173049Y-52999147D01*
X95140000Y-53165297D01*
X91538481Y-53165297D01*
X91411303Y-53140000D01*
X91241897Y-53140000D01*
X91075747Y-53173049D01*
X91000000Y-53204425D01*
X90924253Y-53173049D01*
X90758103Y-53140000D01*
X90588697Y-53140000D01*
X90422547Y-53173049D01*
X90266037Y-53237878D01*
X90125182Y-53331995D01*
X90005395Y-53451782D01*
X89911278Y-53592637D01*
X89846449Y-53749147D01*
X89813400Y-53915297D01*
X89811076Y-53915297D01*
X89818940Y-53875763D01*
X89818940Y-53706357D01*
X89785891Y-53540207D01*
X89721062Y-53383697D01*
X89626945Y-53242842D01*
X89507158Y-53123055D01*
X89366303Y-53028938D01*
X89209793Y-52964109D01*
X89043643Y-52931060D01*
X88874237Y-52931060D01*
X88708087Y-52964109D01*
X88551577Y-53028938D01*
X88410722Y-53123055D01*
X88290935Y-53242842D01*
X88196818Y-53383697D01*
X88178330Y-53428330D01*
X88133697Y-53446818D01*
X87992842Y-53540935D01*
X87873055Y-53660722D01*
X87778938Y-53801577D01*
X87714109Y-53958087D01*
X87681060Y-54124237D01*
X87681060Y-54293643D01*
X87714109Y-54459793D01*
X87761600Y-54574445D01*
X87632525Y-54574445D01*
X87466375Y-54607494D01*
X87390628Y-54638870D01*
X87314881Y-54607494D01*
X87148731Y-54574445D01*
X86979325Y-54574445D01*
X86813175Y-54607494D01*
X86656665Y-54672323D01*
X86515810Y-54766440D01*
X86396023Y-54886227D01*
X86301906Y-55027082D01*
X86237077Y-55183592D01*
X86204028Y-55349742D01*
X62085000Y-55349742D01*
X62085000Y-54378996D01*
X66530609Y-54378996D01*
X66625287Y-54642476D01*
X66913369Y-54782467D01*
X67223226Y-54863565D01*
X67542951Y-54882654D01*
X67860257Y-54839002D01*
X68162949Y-54734285D01*
X68334713Y-54642476D01*
X68342576Y-54620593D01*
X73069012Y-54620593D01*
X73204562Y-54918751D01*
X73550399Y-55092592D01*
X73923506Y-55195623D01*
X74309543Y-55223885D01*
X74693677Y-55176292D01*
X75061145Y-55054672D01*
X75315438Y-54918751D01*
X75450988Y-54620593D01*
X74260000Y-53429605D01*
X73069012Y-54620593D01*
X68342576Y-54620593D01*
X68429391Y-54378996D01*
X67480000Y-53429605D01*
X66530609Y-54378996D01*
X62085000Y-54378996D01*
X62085000Y-53312951D01*
X65847346Y-53312951D01*
X65890998Y-53630257D01*
X65995715Y-53932949D01*
X66087524Y-54104713D01*
X66351004Y-54199391D01*
X67300395Y-53250000D01*
X67659605Y-53250000D01*
X68608996Y-54199391D01*
X68872476Y-54104713D01*
X69012467Y-53816631D01*
X69093565Y-53506774D01*
X69105937Y-53299543D01*
X72286115Y-53299543D01*
X72333708Y-53683677D01*
X72455328Y-54051145D01*
X72591249Y-54305438D01*
X72889407Y-54440988D01*
X74080395Y-53250000D01*
X74439605Y-53250000D01*
X75630593Y-54440988D01*
X75928751Y-54305438D01*
X76102592Y-53959601D01*
X76205623Y-53586494D01*
X76233885Y-53200457D01*
X76186292Y-52816323D01*
X76064672Y-52448855D01*
X75928751Y-52194562D01*
X75630593Y-52059012D01*
X74439605Y-53250000D01*
X74080395Y-53250000D01*
X72889407Y-52059012D01*
X72591249Y-52194562D01*
X72417408Y-52540399D01*
X72314377Y-52913506D01*
X72286115Y-53299543D01*
X69105937Y-53299543D01*
X69112654Y-53187049D01*
X69069002Y-52869743D01*
X68964285Y-52567051D01*
X68872476Y-52395287D01*
X68608996Y-52300609D01*
X67659605Y-53250000D01*
X67300395Y-53250000D01*
X66351004Y-52300609D01*
X66087524Y-52395287D01*
X65947533Y-52683369D01*
X65866435Y-52993226D01*
X65847346Y-53312951D01*
X62085000Y-53312951D01*
X62085000Y-52121004D01*
X66530609Y-52121004D01*
X67480000Y-53070395D01*
X68429391Y-52121004D01*
X68342577Y-51879407D01*
X73069012Y-51879407D01*
X74260000Y-53070395D01*
X75415098Y-51915297D01*
X80213400Y-51915297D01*
X80213400Y-52084703D01*
X80246449Y-52250853D01*
X80311278Y-52407363D01*
X80405395Y-52548218D01*
X80525182Y-52668005D01*
X80666037Y-52762122D01*
X80822547Y-52826951D01*
X80988697Y-52860000D01*
X81158103Y-52860000D01*
X81324253Y-52826951D01*
X81400000Y-52795575D01*
X81475747Y-52826951D01*
X81641897Y-52860000D01*
X81811303Y-52860000D01*
X81977453Y-52826951D01*
X82133963Y-52762122D01*
X82274818Y-52668005D01*
X82394605Y-52548218D01*
X82488722Y-52407363D01*
X82553551Y-52250853D01*
X82586600Y-52084703D01*
X82586600Y-51915297D01*
X82553551Y-51749147D01*
X82488722Y-51592637D01*
X82394605Y-51451782D01*
X82274818Y-51331995D01*
X82133963Y-51237878D01*
X81977453Y-51173049D01*
X81938481Y-51165297D01*
X90844515Y-51165297D01*
X90844515Y-51334703D01*
X90877564Y-51500853D01*
X90942393Y-51657363D01*
X91036510Y-51798218D01*
X91156297Y-51918005D01*
X91297152Y-52012122D01*
X91453662Y-52076951D01*
X91619812Y-52110000D01*
X91789218Y-52110000D01*
X91955368Y-52076951D01*
X92000000Y-52058464D01*
X92044632Y-52076951D01*
X92210782Y-52110000D01*
X92380188Y-52110000D01*
X92546338Y-52076951D01*
X92702848Y-52012122D01*
X92843703Y-51918005D01*
X92963490Y-51798218D01*
X93057607Y-51657363D01*
X93122436Y-51500853D01*
X93155485Y-51334703D01*
X93155485Y-51165297D01*
X93149687Y-51136146D01*
X93213516Y-51162585D01*
X93379666Y-51195634D01*
X93549072Y-51195634D01*
X93715222Y-51162585D01*
X93871732Y-51097756D01*
X94012587Y-51003639D01*
X94132374Y-50883852D01*
X94226491Y-50742997D01*
X94291320Y-50586487D01*
X94324369Y-50420337D01*
X94324369Y-50250931D01*
X94291601Y-50086194D01*
X94326951Y-50000853D01*
X94360000Y-49834703D01*
X94360000Y-49665297D01*
X94326951Y-49499147D01*
X94262122Y-49342637D01*
X94168005Y-49201782D01*
X94048218Y-49081995D01*
X93907363Y-48987878D01*
X93750853Y-48923049D01*
X93584703Y-48890000D01*
X93415297Y-48890000D01*
X93249147Y-48923049D01*
X93092637Y-48987878D01*
X92951782Y-49081995D01*
X92831995Y-49201782D01*
X92737878Y-49342637D01*
X92673049Y-49499147D01*
X92640000Y-49665297D01*
X92640000Y-49834703D01*
X92672768Y-49999440D01*
X92637418Y-50084781D01*
X92604369Y-50250931D01*
X92604369Y-50420337D01*
X92610167Y-50449488D01*
X92546338Y-50423049D01*
X92380188Y-50390000D01*
X92210782Y-50390000D01*
X92044632Y-50423049D01*
X92000000Y-50441536D01*
X91955368Y-50423049D01*
X91789218Y-50390000D01*
X91619812Y-50390000D01*
X91453662Y-50423049D01*
X91297152Y-50487878D01*
X91156297Y-50581995D01*
X91036510Y-50701782D01*
X90942393Y-50842637D01*
X90877564Y-50999147D01*
X90844515Y-51165297D01*
X81938481Y-51165297D01*
X81811303Y-51140000D01*
X81641897Y-51140000D01*
X81475747Y-51173049D01*
X81400000Y-51204425D01*
X81324253Y-51173049D01*
X81158103Y-51140000D01*
X80988697Y-51140000D01*
X80822547Y-51173049D01*
X80666037Y-51237878D01*
X80525182Y-51331995D01*
X80405395Y-51451782D01*
X80311278Y-51592637D01*
X80246449Y-51749147D01*
X80213400Y-51915297D01*
X75415098Y-51915297D01*
X75450988Y-51879407D01*
X75315438Y-51581249D01*
X74969601Y-51407408D01*
X74596494Y-51304377D01*
X74210457Y-51276115D01*
X73826323Y-51323708D01*
X73458855Y-51445328D01*
X73204562Y-51581249D01*
X73069012Y-51879407D01*
X68342577Y-51879407D01*
X68334713Y-51857524D01*
X68046631Y-51717533D01*
X67736774Y-51636435D01*
X67417049Y-51617346D01*
X67099743Y-51660998D01*
X66797051Y-51765715D01*
X66625287Y-51857524D01*
X66530609Y-52121004D01*
X62085000Y-52121004D01*
X62085000Y-48295600D01*
X64640460Y-48295600D01*
X64640460Y-48504240D01*
X64681164Y-48708871D01*
X64761007Y-48901630D01*
X64876921Y-49075108D01*
X65024452Y-49222639D01*
X65197930Y-49338553D01*
X65390689Y-49418396D01*
X65595320Y-49459100D01*
X65803960Y-49459100D01*
X66008591Y-49418396D01*
X66201350Y-49338553D01*
X66374828Y-49222639D01*
X66522359Y-49075108D01*
X66638273Y-48901630D01*
X66718116Y-48708871D01*
X66758820Y-48504240D01*
X66758820Y-48295600D01*
X66718116Y-48090969D01*
X66638273Y-47898210D01*
X66522359Y-47724732D01*
X66374828Y-47577201D01*
X66201350Y-47461287D01*
X66008591Y-47381444D01*
X65803960Y-47340740D01*
X65595320Y-47340740D01*
X65390689Y-47381444D01*
X65197930Y-47461287D01*
X65024452Y-47577201D01*
X64876921Y-47724732D01*
X64761007Y-47898210D01*
X64681164Y-48090969D01*
X64640460Y-48295600D01*
X62085000Y-48295600D01*
X62085000Y-45795962D01*
X68640000Y-45795962D01*
X68640000Y-45965368D01*
X68673049Y-46131518D01*
X68691536Y-46176150D01*
X68673049Y-46220782D01*
X68640000Y-46386932D01*
X68640000Y-46556338D01*
X68673049Y-46722488D01*
X68737878Y-46878998D01*
X68831995Y-47019853D01*
X68951782Y-47139640D01*
X69092637Y-47233757D01*
X69249147Y-47298586D01*
X69415297Y-47331635D01*
X69584703Y-47331635D01*
X69750853Y-47298586D01*
X69907363Y-47233757D01*
X70048218Y-47139640D01*
X70168005Y-47019853D01*
X70262122Y-46878998D01*
X70326951Y-46722488D01*
X70360000Y-46556338D01*
X70360000Y-46386932D01*
X70326951Y-46220782D01*
X70308464Y-46176150D01*
X70326951Y-46131518D01*
X70360000Y-45965368D01*
X70360000Y-45795962D01*
X70326951Y-45629812D01*
X70262122Y-45473302D01*
X70168005Y-45332447D01*
X70048218Y-45212660D01*
X69907363Y-45118543D01*
X69750853Y-45053714D01*
X69584703Y-45020665D01*
X69415297Y-45020665D01*
X69249147Y-45053714D01*
X69092637Y-45118543D01*
X68951782Y-45212660D01*
X68831995Y-45332447D01*
X68737878Y-45473302D01*
X68673049Y-45629812D01*
X68640000Y-45795962D01*
X62085000Y-45795962D01*
X62085000Y-44495760D01*
X64640460Y-44495760D01*
X64640460Y-44704400D01*
X64681164Y-44909031D01*
X64761007Y-45101790D01*
X64876921Y-45275268D01*
X65024452Y-45422799D01*
X65197930Y-45538713D01*
X65390689Y-45618556D01*
X65595320Y-45659260D01*
X65803960Y-45659260D01*
X66008591Y-45618556D01*
X66201350Y-45538713D01*
X66374828Y-45422799D01*
X66522359Y-45275268D01*
X66638273Y-45101790D01*
X66718116Y-44909031D01*
X66758820Y-44704400D01*
X66758820Y-44495760D01*
X66718116Y-44291129D01*
X66638273Y-44098370D01*
X66522359Y-43924892D01*
X66374828Y-43777361D01*
X66201350Y-43661447D01*
X66008591Y-43581604D01*
X65803960Y-43540900D01*
X65595320Y-43540900D01*
X65390689Y-43581604D01*
X65197930Y-43661447D01*
X65024452Y-43777361D01*
X64876921Y-43924892D01*
X64761007Y-44098370D01*
X64681164Y-44291129D01*
X64640460Y-44495760D01*
X62085000Y-44495760D01*
X62085000Y-42533505D01*
X62113267Y-42245218D01*
X62187259Y-42000145D01*
X62307443Y-41774110D01*
X62469248Y-41575719D01*
X62666497Y-41412540D01*
X62891687Y-41290780D01*
X63136247Y-41215076D01*
X63422398Y-41185000D01*
X90148782Y-41185000D01*
X113694124Y-52113218D01*
X113694124Y-52113218D01*
G37*
X113694124Y-52113218D02*
X113736594Y-52135919D01*
X113787433Y-52151341D01*
X113837591Y-52168879D01*
X113851895Y-52170895D01*
X113865717Y-52175088D01*
X113918597Y-52180296D01*
X113971204Y-52187711D01*
X114019279Y-52185000D01*
X130366495Y-52185000D01*
X130654782Y-52213267D01*
X130899855Y-52287259D01*
X131125890Y-52407443D01*
X131324281Y-52569248D01*
X131487460Y-52766497D01*
X131609220Y-52991687D01*
X131684924Y-53236247D01*
X131715001Y-53522408D01*
X131715000Y-91466495D01*
X131686733Y-91754782D01*
X131612741Y-91999855D01*
X131492554Y-92225893D01*
X131330754Y-92424279D01*
X131133503Y-92587460D01*
X130908310Y-92709221D01*
X130663753Y-92784924D01*
X130377602Y-92815000D01*
X114018153Y-92815000D01*
X113968972Y-92812387D01*
X113917505Y-92819811D01*
X113865717Y-92824912D01*
X113850822Y-92829430D01*
X113835421Y-92831652D01*
X113786381Y-92848978D01*
X113736594Y-92864081D01*
X113693131Y-92887312D01*
X90347617Y-103815000D01*
X63433505Y-103815000D01*
X63145218Y-103786733D01*
X62900145Y-103712741D01*
X62674107Y-103592554D01*
X62475721Y-103430754D01*
X62312540Y-103233503D01*
X62190779Y-103008310D01*
X62115076Y-102763753D01*
X62085000Y-102477602D01*
X62085000Y-100295600D01*
X64640460Y-100295600D01*
X64640460Y-100504240D01*
X64681164Y-100708871D01*
X64761007Y-100901630D01*
X64876921Y-101075108D01*
X65024452Y-101222639D01*
X65197930Y-101338553D01*
X65390689Y-101418396D01*
X65595320Y-101459100D01*
X65803960Y-101459100D01*
X66008591Y-101418396D01*
X66201350Y-101338553D01*
X66374828Y-101222639D01*
X66522359Y-101075108D01*
X66638273Y-100901630D01*
X66718116Y-100708871D01*
X66726783Y-100665297D01*
X81890000Y-100665297D01*
X81890000Y-100834703D01*
X81923049Y-101000853D01*
X81987878Y-101157363D01*
X82081995Y-101298218D01*
X82201782Y-101418005D01*
X82342637Y-101512122D01*
X82499147Y-101576951D01*
X82665297Y-101610000D01*
X82834703Y-101610000D01*
X83000853Y-101576951D01*
X83157363Y-101512122D01*
X83298218Y-101418005D01*
X83418005Y-101298218D01*
X83512122Y-101157363D01*
X83576951Y-101000853D01*
X83610000Y-100834703D01*
X83610000Y-100665297D01*
X83576951Y-100499147D01*
X83512122Y-100342637D01*
X83418005Y-100201782D01*
X83298218Y-100081995D01*
X83157363Y-99987878D01*
X83000853Y-99923049D01*
X82834703Y-99890000D01*
X82665297Y-99890000D01*
X82499147Y-99923049D01*
X82342637Y-99987878D01*
X82201782Y-100081995D01*
X82081995Y-100201782D01*
X81987878Y-100342637D01*
X81923049Y-100499147D01*
X81890000Y-100665297D01*
X66726783Y-100665297D01*
X66758820Y-100504240D01*
X66758820Y-100295600D01*
X66718116Y-100090969D01*
X66638273Y-99898210D01*
X66522359Y-99724732D01*
X66374828Y-99577201D01*
X66201350Y-99461287D01*
X66008591Y-99381444D01*
X65803960Y-99340740D01*
X65595320Y-99340740D01*
X65390689Y-99381444D01*
X65197930Y-99461287D01*
X65024452Y-99577201D01*
X64876921Y-99724732D01*
X64761007Y-99898210D01*
X64681164Y-100090969D01*
X64640460Y-100295600D01*
X62085000Y-100295600D01*
X62085000Y-97795962D01*
X67890000Y-97795962D01*
X67890000Y-97965368D01*
X67923049Y-98131518D01*
X67941536Y-98176150D01*
X67923049Y-98220782D01*
X67890000Y-98386932D01*
X67890000Y-98556338D01*
X67923049Y-98722488D01*
X67987878Y-98878998D01*
X68081995Y-99019853D01*
X68201782Y-99139640D01*
X68342637Y-99233757D01*
X68499147Y-99298586D01*
X68665297Y-99331635D01*
X68834703Y-99331635D01*
X69000853Y-99298586D01*
X69157363Y-99233757D01*
X69298218Y-99139640D01*
X69418005Y-99019853D01*
X69512122Y-98878998D01*
X69576951Y-98722488D01*
X69610000Y-98556338D01*
X69610000Y-98386932D01*
X69576951Y-98220782D01*
X69558464Y-98176150D01*
X69576951Y-98131518D01*
X69610000Y-97965368D01*
X69610000Y-97795962D01*
X69576951Y-97629812D01*
X69512122Y-97473302D01*
X69418005Y-97332447D01*
X69298218Y-97212660D01*
X69157363Y-97118543D01*
X69000853Y-97053714D01*
X68834703Y-97020665D01*
X68665297Y-97020665D01*
X68499147Y-97053714D01*
X68342637Y-97118543D01*
X68201782Y-97212660D01*
X68081995Y-97332447D01*
X67987878Y-97473302D01*
X67923049Y-97629812D01*
X67890000Y-97795962D01*
X62085000Y-97795962D01*
X62085000Y-96495760D01*
X64640460Y-96495760D01*
X64640460Y-96704400D01*
X64681164Y-96909031D01*
X64761007Y-97101790D01*
X64876921Y-97275268D01*
X65024452Y-97422799D01*
X65197930Y-97538713D01*
X65390689Y-97618556D01*
X65595320Y-97659260D01*
X65803960Y-97659260D01*
X66008591Y-97618556D01*
X66201350Y-97538713D01*
X66374828Y-97422799D01*
X66522359Y-97275268D01*
X66638273Y-97101790D01*
X66718116Y-96909031D01*
X66758820Y-96704400D01*
X66758820Y-96495760D01*
X66718116Y-96291129D01*
X66665995Y-96165297D01*
X86640000Y-96165297D01*
X86640000Y-96334703D01*
X86673049Y-96500853D01*
X86737878Y-96657363D01*
X86831995Y-96798218D01*
X86951782Y-96918005D01*
X87092637Y-97012122D01*
X87249147Y-97076951D01*
X87415297Y-97110000D01*
X87584703Y-97110000D01*
X87750853Y-97076951D01*
X87907363Y-97012122D01*
X88048218Y-96918005D01*
X88168005Y-96798218D01*
X88262122Y-96657363D01*
X88326951Y-96500853D01*
X88360000Y-96334703D01*
X88360000Y-96165297D01*
X88326951Y-95999147D01*
X88262122Y-95842637D01*
X88168005Y-95701782D01*
X88048218Y-95581995D01*
X87907363Y-95487878D01*
X87750853Y-95423049D01*
X87584703Y-95390000D01*
X87415297Y-95390000D01*
X87249147Y-95423049D01*
X87092637Y-95487878D01*
X86951782Y-95581995D01*
X86831995Y-95701782D01*
X86737878Y-95842637D01*
X86673049Y-95999147D01*
X86640000Y-96165297D01*
X66665995Y-96165297D01*
X66638273Y-96098370D01*
X66522359Y-95924892D01*
X66374828Y-95777361D01*
X66201350Y-95661447D01*
X66008591Y-95581604D01*
X65803960Y-95540900D01*
X65595320Y-95540900D01*
X65390689Y-95581604D01*
X65197930Y-95661447D01*
X65024452Y-95777361D01*
X64876921Y-95924892D01*
X64761007Y-96098370D01*
X64681164Y-96291129D01*
X64640460Y-96495760D01*
X62085000Y-96495760D01*
X62085000Y-92878996D01*
X66530609Y-92878996D01*
X66625287Y-93142476D01*
X66913369Y-93282467D01*
X67223226Y-93363565D01*
X67542951Y-93382654D01*
X67860257Y-93339002D01*
X68162949Y-93234285D01*
X68334713Y-93142476D01*
X68342576Y-93120593D01*
X73069012Y-93120593D01*
X73204562Y-93418751D01*
X73550399Y-93592592D01*
X73923506Y-93695623D01*
X74309543Y-93723885D01*
X74693677Y-93676292D01*
X75061145Y-93554672D01*
X75315438Y-93418751D01*
X75450988Y-93120593D01*
X74260000Y-91929605D01*
X73069012Y-93120593D01*
X68342576Y-93120593D01*
X68429391Y-92878996D01*
X67480000Y-91929605D01*
X66530609Y-92878996D01*
X62085000Y-92878996D01*
X62085000Y-91812951D01*
X65847346Y-91812951D01*
X65890998Y-92130257D01*
X65995715Y-92432949D01*
X66087524Y-92604713D01*
X66351004Y-92699391D01*
X67300395Y-91750000D01*
X67659605Y-91750000D01*
X68608996Y-92699391D01*
X68872476Y-92604713D01*
X69012467Y-92316631D01*
X69093565Y-92006774D01*
X69105937Y-91799543D01*
X72286115Y-91799543D01*
X72333708Y-92183677D01*
X72455328Y-92551145D01*
X72591249Y-92805438D01*
X72889407Y-92940988D01*
X74080395Y-91750000D01*
X74439605Y-91750000D01*
X75630593Y-92940988D01*
X75928751Y-92805438D01*
X76102592Y-92459601D01*
X76205623Y-92086494D01*
X76233885Y-91700457D01*
X76215449Y-91551653D01*
X120607952Y-91551653D01*
X120763962Y-91867214D01*
X121138745Y-92058020D01*
X121543551Y-92172044D01*
X121962824Y-92204902D01*
X122380451Y-92155334D01*
X122780383Y-92025243D01*
X123076038Y-91867214D01*
X123232048Y-91551653D01*
X121920000Y-90239605D01*
X120607952Y-91551653D01*
X76215449Y-91551653D01*
X76186292Y-91316323D01*
X76064672Y-90948855D01*
X75928751Y-90694562D01*
X75630593Y-90559012D01*
X74439605Y-91750000D01*
X74080395Y-91750000D01*
X72889407Y-90559012D01*
X72591249Y-90694562D01*
X72417408Y-91040399D01*
X72314377Y-91413506D01*
X72286115Y-91799543D01*
X69105937Y-91799543D01*
X69112654Y-91687049D01*
X69069002Y-91369743D01*
X68964285Y-91067051D01*
X68872476Y-90895287D01*
X68608996Y-90800609D01*
X67659605Y-91750000D01*
X67300395Y-91750000D01*
X66351004Y-90800609D01*
X66087524Y-90895287D01*
X65947533Y-91183369D01*
X65866435Y-91493226D01*
X65847346Y-91812951D01*
X62085000Y-91812951D01*
X62085000Y-90621004D01*
X66530609Y-90621004D01*
X67480000Y-91570395D01*
X68429391Y-90621004D01*
X68342577Y-90379407D01*
X73069012Y-90379407D01*
X74260000Y-91570395D01*
X75450988Y-90379407D01*
X75325247Y-90102824D01*
X119775098Y-90102824D01*
X119824666Y-90520451D01*
X119954757Y-90920383D01*
X120112786Y-91216038D01*
X120428347Y-91372048D01*
X121740395Y-90060000D01*
X122099605Y-90060000D01*
X123411653Y-91372048D01*
X123727214Y-91216038D01*
X123918020Y-90841255D01*
X124032044Y-90436449D01*
X124064902Y-90017176D01*
X124015334Y-89599549D01*
X123885243Y-89199617D01*
X123727214Y-88903962D01*
X123411653Y-88747952D01*
X122099605Y-90060000D01*
X121740395Y-90060000D01*
X120428347Y-88747952D01*
X120112786Y-88903962D01*
X119921980Y-89278745D01*
X119807956Y-89683551D01*
X119775098Y-90102824D01*
X75325247Y-90102824D01*
X75315438Y-90081249D01*
X74969601Y-89907408D01*
X74596494Y-89804377D01*
X74210457Y-89776115D01*
X73826323Y-89823708D01*
X73458855Y-89945328D01*
X73204562Y-90081249D01*
X73069012Y-90379407D01*
X68342577Y-90379407D01*
X68334713Y-90357524D01*
X68046631Y-90217533D01*
X67736774Y-90136435D01*
X67417049Y-90117346D01*
X67099743Y-90160998D01*
X66797051Y-90265715D01*
X66625287Y-90357524D01*
X66530609Y-90621004D01*
X62085000Y-90621004D01*
X62085000Y-88568347D01*
X120607952Y-88568347D01*
X121920000Y-89880395D01*
X123232048Y-88568347D01*
X123076038Y-88252786D01*
X122701255Y-88061980D01*
X122296449Y-87947956D01*
X121877176Y-87915098D01*
X121459549Y-87964666D01*
X121059617Y-88094757D01*
X120763962Y-88252786D01*
X120607952Y-88568347D01*
X62085000Y-88568347D01*
X62085000Y-83366052D01*
X65340000Y-83366052D01*
X65340000Y-83633948D01*
X65392264Y-83896697D01*
X65494784Y-84144201D01*
X65643619Y-84366949D01*
X65833051Y-84556381D01*
X66055799Y-84705216D01*
X66303303Y-84807736D01*
X66566052Y-84860000D01*
X66833948Y-84860000D01*
X67096697Y-84807736D01*
X67344201Y-84705216D01*
X67566949Y-84556381D01*
X67756381Y-84366949D01*
X67905216Y-84144201D01*
X68007736Y-83896697D01*
X68060000Y-83633948D01*
X68060000Y-83366052D01*
X68007736Y-83103303D01*
X67905216Y-82855799D01*
X67756381Y-82633051D01*
X67566949Y-82443619D01*
X67524563Y-82415297D01*
X74140000Y-82415297D01*
X74140000Y-82584703D01*
X74173049Y-82750853D01*
X74224473Y-82875000D01*
X74173049Y-82999147D01*
X74140000Y-83165297D01*
X74140000Y-83334703D01*
X74173049Y-83500853D01*
X74237878Y-83657363D01*
X74331995Y-83798218D01*
X74451782Y-83918005D01*
X74592637Y-84012122D01*
X74749147Y-84076951D01*
X74915297Y-84110000D01*
X75084703Y-84110000D01*
X75250853Y-84076951D01*
X75407363Y-84012122D01*
X75548218Y-83918005D01*
X75668005Y-83798218D01*
X75762122Y-83657363D01*
X75826951Y-83500853D01*
X75860000Y-83334703D01*
X75860000Y-83165297D01*
X75826951Y-82999147D01*
X75775527Y-82875000D01*
X75826951Y-82750853D01*
X75860000Y-82584703D01*
X75860000Y-82415297D01*
X75826951Y-82249147D01*
X75762122Y-82092637D01*
X75668005Y-81951782D01*
X75548218Y-81831995D01*
X75407363Y-81737878D01*
X75250853Y-81673049D01*
X75084703Y-81640000D01*
X74915297Y-81640000D01*
X74749147Y-81673049D01*
X74592637Y-81737878D01*
X74451782Y-81831995D01*
X74331995Y-81951782D01*
X74237878Y-82092637D01*
X74173049Y-82249147D01*
X74140000Y-82415297D01*
X67524563Y-82415297D01*
X67344201Y-82294784D01*
X67096697Y-82192264D01*
X66833948Y-82140000D01*
X66566052Y-82140000D01*
X66303303Y-82192264D01*
X66055799Y-82294784D01*
X65833051Y-82443619D01*
X65643619Y-82633051D01*
X65494784Y-82855799D01*
X65392264Y-83103303D01*
X65340000Y-83366052D01*
X62085000Y-83366052D01*
X62085000Y-80415297D01*
X73140000Y-80415297D01*
X73140000Y-80584703D01*
X73173049Y-80750853D01*
X73237878Y-80907363D01*
X73331995Y-81048218D01*
X73451782Y-81168005D01*
X73592637Y-81262122D01*
X73749147Y-81326951D01*
X73915297Y-81360000D01*
X74084703Y-81360000D01*
X74250853Y-81326951D01*
X74407363Y-81262122D01*
X74548218Y-81168005D01*
X74668005Y-81048218D01*
X74756820Y-80915297D01*
X80640000Y-80915297D01*
X80640000Y-81084703D01*
X80673049Y-81250853D01*
X80737878Y-81407363D01*
X80799777Y-81500000D01*
X80737878Y-81592637D01*
X80673049Y-81749147D01*
X80640000Y-81915297D01*
X80640000Y-82084703D01*
X80673049Y-82250853D01*
X80737878Y-82407363D01*
X80831995Y-82548218D01*
X80951782Y-82668005D01*
X81092637Y-82762122D01*
X81249147Y-82826951D01*
X81415297Y-82860000D01*
X81584703Y-82860000D01*
X81750853Y-82826951D01*
X81907363Y-82762122D01*
X82048218Y-82668005D01*
X82168005Y-82548218D01*
X82262122Y-82407363D01*
X82326951Y-82250853D01*
X82360000Y-82084703D01*
X82360000Y-81915297D01*
X82326951Y-81749147D01*
X82262122Y-81592637D01*
X82200223Y-81500000D01*
X82262122Y-81407363D01*
X82326951Y-81250853D01*
X82360000Y-81084703D01*
X82360000Y-80915297D01*
X107390000Y-80915297D01*
X107390000Y-81084703D01*
X107423049Y-81250853D01*
X107487878Y-81407363D01*
X107581995Y-81548218D01*
X107701782Y-81668005D01*
X107842637Y-81762122D01*
X107999147Y-81826951D01*
X108165297Y-81860000D01*
X108334703Y-81860000D01*
X108500853Y-81826951D01*
X108581395Y-81793589D01*
X117865000Y-81793589D01*
X117865000Y-82066411D01*
X117918225Y-82333989D01*
X118022629Y-82586043D01*
X118174201Y-82812886D01*
X118306315Y-82945000D01*
X118174201Y-83077114D01*
X118022629Y-83303957D01*
X117918225Y-83556011D01*
X117865000Y-83823589D01*
X117865000Y-84096411D01*
X117918225Y-84363989D01*
X118022629Y-84616043D01*
X118174201Y-84842886D01*
X118367114Y-85035799D01*
X118593957Y-85187371D01*
X118696873Y-85230000D01*
X118593957Y-85272629D01*
X118367114Y-85424201D01*
X118174201Y-85617114D01*
X118022629Y-85843957D01*
X117918225Y-86096011D01*
X117865000Y-86363589D01*
X117865000Y-86636411D01*
X117918225Y-86903989D01*
X118022629Y-87156043D01*
X118174201Y-87382886D01*
X118367114Y-87575799D01*
X118593957Y-87727371D01*
X118846011Y-87831775D01*
X119113589Y-87885000D01*
X119386411Y-87885000D01*
X119653989Y-87831775D01*
X119906043Y-87727371D01*
X120132886Y-87575799D01*
X120325799Y-87382886D01*
X120477371Y-87156043D01*
X120581775Y-86903989D01*
X120635000Y-86636411D01*
X120635000Y-86363589D01*
X120581775Y-86096011D01*
X120477371Y-85843957D01*
X120325799Y-85617114D01*
X120132886Y-85424201D01*
X119906043Y-85272629D01*
X119803127Y-85230000D01*
X119906043Y-85187371D01*
X120132886Y-85035799D01*
X120325799Y-84842886D01*
X120477371Y-84616043D01*
X120581775Y-84363989D01*
X120635000Y-84096411D01*
X120635000Y-83823589D01*
X120581775Y-83556011D01*
X120477371Y-83303957D01*
X120325799Y-83077114D01*
X120193685Y-82945000D01*
X120325799Y-82812886D01*
X120477371Y-82586043D01*
X120581775Y-82333989D01*
X120635000Y-82066411D01*
X120635000Y-81793589D01*
X120581775Y-81526011D01*
X120477371Y-81273957D01*
X120325799Y-81047114D01*
X120132886Y-80854201D01*
X119906043Y-80702629D01*
X119806721Y-80661489D01*
X119848832Y-80646277D01*
X119961863Y-80585860D01*
X120027388Y-80346993D01*
X119250000Y-79569605D01*
X118472612Y-80346993D01*
X118538137Y-80585860D01*
X118696477Y-80660164D01*
X118593957Y-80702629D01*
X118367114Y-80854201D01*
X118174201Y-81047114D01*
X118022629Y-81273957D01*
X117918225Y-81526011D01*
X117865000Y-81793589D01*
X108581395Y-81793589D01*
X108657363Y-81762122D01*
X108798218Y-81668005D01*
X108918005Y-81548218D01*
X109012122Y-81407363D01*
X109076951Y-81250853D01*
X109110000Y-81084703D01*
X109110000Y-80915297D01*
X109076951Y-80749147D01*
X109012122Y-80592637D01*
X108918005Y-80451782D01*
X108798218Y-80331995D01*
X108657363Y-80237878D01*
X108500853Y-80173049D01*
X108334703Y-80140000D01*
X108165297Y-80140000D01*
X107999147Y-80173049D01*
X107842637Y-80237878D01*
X107701782Y-80331995D01*
X107581995Y-80451782D01*
X107487878Y-80592637D01*
X107423049Y-80749147D01*
X107390000Y-80915297D01*
X82360000Y-80915297D01*
X82326951Y-80749147D01*
X82262122Y-80592637D01*
X82168005Y-80451782D01*
X82048218Y-80331995D01*
X81907363Y-80237878D01*
X81750853Y-80173049D01*
X81584703Y-80140000D01*
X81415297Y-80140000D01*
X81249147Y-80173049D01*
X81092637Y-80237878D01*
X80951782Y-80331995D01*
X80831995Y-80451782D01*
X80737878Y-80592637D01*
X80673049Y-80749147D01*
X80640000Y-80915297D01*
X74756820Y-80915297D01*
X74762122Y-80907363D01*
X74826951Y-80750853D01*
X74860000Y-80584703D01*
X74860000Y-80415297D01*
X74826951Y-80249147D01*
X74762122Y-80092637D01*
X74668005Y-79951782D01*
X74548218Y-79831995D01*
X74407363Y-79737878D01*
X74250853Y-79673049D01*
X74084703Y-79640000D01*
X73915297Y-79640000D01*
X73749147Y-79673049D01*
X73592637Y-79737878D01*
X73451782Y-79831995D01*
X73331995Y-79951782D01*
X73237878Y-80092637D01*
X73173049Y-80249147D01*
X73140000Y-80415297D01*
X62085000Y-80415297D01*
X62085000Y-79415297D01*
X84463400Y-79415297D01*
X84463400Y-79584703D01*
X84496449Y-79750853D01*
X84561278Y-79907363D01*
X84655395Y-80048218D01*
X84775182Y-80168005D01*
X84916037Y-80262122D01*
X85072547Y-80326951D01*
X85238697Y-80360000D01*
X85408103Y-80360000D01*
X85574253Y-80326951D01*
X85650000Y-80295575D01*
X85725747Y-80326951D01*
X85891897Y-80360000D01*
X86061303Y-80360000D01*
X86227453Y-80326951D01*
X86383963Y-80262122D01*
X86524818Y-80168005D01*
X86644605Y-80048218D01*
X86738722Y-79907363D01*
X86803551Y-79750853D01*
X86836600Y-79584703D01*
X86836600Y-79415297D01*
X86803551Y-79249147D01*
X86738722Y-79092637D01*
X86644605Y-78951782D01*
X86524818Y-78831995D01*
X86383963Y-78737878D01*
X86227453Y-78673049D01*
X86188481Y-78665297D01*
X105890000Y-78665297D01*
X105890000Y-78834703D01*
X105923049Y-79000853D01*
X105987878Y-79157363D01*
X106081995Y-79298218D01*
X106201782Y-79418005D01*
X106342637Y-79512122D01*
X106499147Y-79576951D01*
X106665297Y-79610000D01*
X106834703Y-79610000D01*
X107000853Y-79576951D01*
X107157363Y-79512122D01*
X107231638Y-79462492D01*
X117860188Y-79462492D01*
X117901035Y-79732238D01*
X117993723Y-79988832D01*
X118054140Y-80101863D01*
X118293007Y-80167388D01*
X119070395Y-79390000D01*
X119429605Y-79390000D01*
X120206993Y-80167388D01*
X120445860Y-80101863D01*
X120561760Y-79854884D01*
X120627250Y-79590040D01*
X120639812Y-79317508D01*
X120598965Y-79047762D01*
X120506277Y-78791168D01*
X120445860Y-78678137D01*
X120206993Y-78612612D01*
X119429605Y-79390000D01*
X119070395Y-79390000D01*
X118293007Y-78612612D01*
X118054140Y-78678137D01*
X117938240Y-78925116D01*
X117872750Y-79189960D01*
X117860188Y-79462492D01*
X107231638Y-79462492D01*
X107298218Y-79418005D01*
X107418005Y-79298218D01*
X107512122Y-79157363D01*
X107576951Y-79000853D01*
X107610000Y-78834703D01*
X107610000Y-78665297D01*
X107576951Y-78499147D01*
X107549555Y-78433007D01*
X118472612Y-78433007D01*
X119250000Y-79210395D01*
X120027388Y-78433007D01*
X119961863Y-78194140D01*
X119714884Y-78078240D01*
X119450040Y-78012750D01*
X119177508Y-78000188D01*
X118907762Y-78041035D01*
X118651168Y-78133723D01*
X118538137Y-78194140D01*
X118472612Y-78433007D01*
X107549555Y-78433007D01*
X107512122Y-78342637D01*
X107418005Y-78201782D01*
X107298218Y-78081995D01*
X107157363Y-77987878D01*
X107000853Y-77923049D01*
X106834703Y-77890000D01*
X106665297Y-77890000D01*
X106499147Y-77923049D01*
X106342637Y-77987878D01*
X106201782Y-78081995D01*
X106081995Y-78201782D01*
X105987878Y-78342637D01*
X105923049Y-78499147D01*
X105890000Y-78665297D01*
X86188481Y-78665297D01*
X86061303Y-78640000D01*
X85891897Y-78640000D01*
X85725747Y-78673049D01*
X85650000Y-78704425D01*
X85574253Y-78673049D01*
X85408103Y-78640000D01*
X85238697Y-78640000D01*
X85072547Y-78673049D01*
X84916037Y-78737878D01*
X84775182Y-78831995D01*
X84655395Y-78951782D01*
X84561278Y-79092637D01*
X84496449Y-79249147D01*
X84463400Y-79415297D01*
X62085000Y-79415297D01*
X62085000Y-77915297D01*
X79390000Y-77915297D01*
X79390000Y-78084703D01*
X79423049Y-78250853D01*
X79487878Y-78407363D01*
X79581995Y-78548218D01*
X79701782Y-78668005D01*
X79842637Y-78762122D01*
X79999147Y-78826951D01*
X80165297Y-78860000D01*
X80334703Y-78860000D01*
X80500853Y-78826951D01*
X80657363Y-78762122D01*
X80798218Y-78668005D01*
X80918005Y-78548218D01*
X81012122Y-78407363D01*
X81076951Y-78250853D01*
X81110000Y-78084703D01*
X81110000Y-77915297D01*
X81076951Y-77749147D01*
X81012122Y-77592637D01*
X80918005Y-77451782D01*
X80798218Y-77331995D01*
X80657363Y-77237878D01*
X80500853Y-77173049D01*
X80334703Y-77140000D01*
X80165297Y-77140000D01*
X79999147Y-77173049D01*
X79842637Y-77237878D01*
X79701782Y-77331995D01*
X79581995Y-77451782D01*
X79487878Y-77592637D01*
X79423049Y-77749147D01*
X79390000Y-77915297D01*
X62085000Y-77915297D01*
X62085000Y-76378996D01*
X66530609Y-76378996D01*
X66625287Y-76642476D01*
X66913369Y-76782467D01*
X67223226Y-76863565D01*
X67542951Y-76882654D01*
X67860257Y-76839002D01*
X68162949Y-76734285D01*
X68334713Y-76642476D01*
X68342576Y-76620593D01*
X73069012Y-76620593D01*
X73204562Y-76918751D01*
X73550399Y-77092592D01*
X73923506Y-77195623D01*
X74309543Y-77223885D01*
X74693677Y-77176292D01*
X75061145Y-77054672D01*
X75315438Y-76918751D01*
X75450988Y-76620593D01*
X74260000Y-75429605D01*
X73069012Y-76620593D01*
X68342576Y-76620593D01*
X68429391Y-76378996D01*
X67480000Y-75429605D01*
X66530609Y-76378996D01*
X62085000Y-76378996D01*
X62085000Y-75312951D01*
X65847346Y-75312951D01*
X65890998Y-75630257D01*
X65995715Y-75932949D01*
X66087524Y-76104713D01*
X66351004Y-76199391D01*
X67300395Y-75250000D01*
X67659605Y-75250000D01*
X68608996Y-76199391D01*
X68872476Y-76104713D01*
X69012467Y-75816631D01*
X69093565Y-75506774D01*
X69105937Y-75299543D01*
X72286115Y-75299543D01*
X72333708Y-75683677D01*
X72455328Y-76051145D01*
X72591249Y-76305438D01*
X72889407Y-76440988D01*
X74080395Y-75250000D01*
X74439605Y-75250000D01*
X75630593Y-76440988D01*
X75797084Y-76365297D01*
X98940000Y-76365297D01*
X98940000Y-76534703D01*
X98973049Y-76700853D01*
X99037878Y-76857363D01*
X99131995Y-76998218D01*
X99251782Y-77118005D01*
X99392637Y-77212122D01*
X99549147Y-77276951D01*
X99715297Y-77310000D01*
X99884703Y-77310000D01*
X100050853Y-77276951D01*
X100207363Y-77212122D01*
X100348218Y-77118005D01*
X100468005Y-76998218D01*
X100562122Y-76857363D01*
X100626951Y-76700853D01*
X100660000Y-76534703D01*
X100660000Y-76365297D01*
X105590000Y-76365297D01*
X105590000Y-76534703D01*
X105623049Y-76700853D01*
X105687878Y-76857363D01*
X105781995Y-76998218D01*
X105901782Y-77118005D01*
X106042637Y-77212122D01*
X106199147Y-77276951D01*
X106365297Y-77310000D01*
X106534703Y-77310000D01*
X106700853Y-77276951D01*
X106857363Y-77212122D01*
X106927441Y-77165297D01*
X108640000Y-77165297D01*
X108640000Y-77334703D01*
X108673049Y-77500853D01*
X108737878Y-77657363D01*
X108831995Y-77798218D01*
X108951782Y-77918005D01*
X109092637Y-78012122D01*
X109249147Y-78076951D01*
X109415297Y-78110000D01*
X109584703Y-78110000D01*
X109750853Y-78076951D01*
X109907363Y-78012122D01*
X110048218Y-77918005D01*
X110134570Y-77831653D01*
X120607952Y-77831653D01*
X120763962Y-78147214D01*
X121138745Y-78338020D01*
X121543551Y-78452044D01*
X121962824Y-78484902D01*
X122380451Y-78435334D01*
X122780383Y-78305243D01*
X123076038Y-78147214D01*
X123232048Y-77831653D01*
X121920000Y-76519605D01*
X120607952Y-77831653D01*
X110134570Y-77831653D01*
X110168005Y-77798218D01*
X110262122Y-77657363D01*
X110326951Y-77500853D01*
X110360000Y-77334703D01*
X110360000Y-77165297D01*
X110326951Y-76999147D01*
X110262122Y-76842637D01*
X110168005Y-76701782D01*
X110048218Y-76581995D01*
X109907363Y-76487878D01*
X109750853Y-76423049D01*
X109584703Y-76390000D01*
X109415297Y-76390000D01*
X109249147Y-76423049D01*
X109092637Y-76487878D01*
X108951782Y-76581995D01*
X108831995Y-76701782D01*
X108737878Y-76842637D01*
X108673049Y-76999147D01*
X108640000Y-77165297D01*
X106927441Y-77165297D01*
X106998218Y-77118005D01*
X107118005Y-76998218D01*
X107212122Y-76857363D01*
X107276951Y-76700853D01*
X107310000Y-76534703D01*
X107310000Y-76382824D01*
X119775098Y-76382824D01*
X119824666Y-76800451D01*
X119954757Y-77200383D01*
X120112786Y-77496038D01*
X120428347Y-77652048D01*
X121740395Y-76340000D01*
X122099605Y-76340000D01*
X123411653Y-77652048D01*
X123727214Y-77496038D01*
X123918020Y-77121255D01*
X124032044Y-76716449D01*
X124064902Y-76297176D01*
X124015334Y-75879549D01*
X123885243Y-75479617D01*
X123727214Y-75183962D01*
X123411653Y-75027952D01*
X122099605Y-76340000D01*
X121740395Y-76340000D01*
X120428347Y-75027952D01*
X120112786Y-75183962D01*
X119921980Y-75558745D01*
X119807956Y-75963551D01*
X119775098Y-76382824D01*
X107310000Y-76382824D01*
X107310000Y-76365297D01*
X107276951Y-76199147D01*
X107212122Y-76042637D01*
X107118005Y-75901782D01*
X106998218Y-75781995D01*
X106857363Y-75687878D01*
X106700853Y-75623049D01*
X106534703Y-75590000D01*
X106365297Y-75590000D01*
X106199147Y-75623049D01*
X106042637Y-75687878D01*
X105901782Y-75781995D01*
X105781995Y-75901782D01*
X105687878Y-76042637D01*
X105623049Y-76199147D01*
X105590000Y-76365297D01*
X100660000Y-76365297D01*
X100626951Y-76199147D01*
X100562122Y-76042637D01*
X100468005Y-75901782D01*
X100348218Y-75781995D01*
X100207363Y-75687878D01*
X100050853Y-75623049D01*
X99884703Y-75590000D01*
X99715297Y-75590000D01*
X99549147Y-75623049D01*
X99392637Y-75687878D01*
X99251782Y-75781995D01*
X99131995Y-75901782D01*
X99037878Y-76042637D01*
X98973049Y-76199147D01*
X98940000Y-76365297D01*
X75797084Y-76365297D01*
X75928751Y-76305438D01*
X76102592Y-75959601D01*
X76205623Y-75586494D01*
X76233885Y-75200457D01*
X76186292Y-74816323D01*
X76064672Y-74448855D01*
X75928751Y-74194562D01*
X75630593Y-74059012D01*
X74439605Y-75250000D01*
X74080395Y-75250000D01*
X72889407Y-74059012D01*
X72591249Y-74194562D01*
X72417408Y-74540399D01*
X72314377Y-74913506D01*
X72286115Y-75299543D01*
X69105937Y-75299543D01*
X69112654Y-75187049D01*
X69069002Y-74869743D01*
X68964285Y-74567051D01*
X68872476Y-74395287D01*
X68608996Y-74300609D01*
X67659605Y-75250000D01*
X67300395Y-75250000D01*
X66351004Y-74300609D01*
X66087524Y-74395287D01*
X65947533Y-74683369D01*
X65866435Y-74993226D01*
X65847346Y-75312951D01*
X62085000Y-75312951D01*
X62085000Y-74121004D01*
X66530609Y-74121004D01*
X67480000Y-75070395D01*
X68429391Y-74121004D01*
X68342577Y-73879407D01*
X73069012Y-73879407D01*
X74260000Y-75070395D01*
X75450988Y-73879407D01*
X75315438Y-73581249D01*
X74969601Y-73407408D01*
X74596494Y-73304377D01*
X74210457Y-73276115D01*
X73826323Y-73323708D01*
X73458855Y-73445328D01*
X73204562Y-73581249D01*
X73069012Y-73879407D01*
X68342577Y-73879407D01*
X68334713Y-73857524D01*
X68046631Y-73717533D01*
X67736774Y-73636435D01*
X67417049Y-73617346D01*
X67099743Y-73660998D01*
X66797051Y-73765715D01*
X66625287Y-73857524D01*
X66530609Y-74121004D01*
X62085000Y-74121004D01*
X62085000Y-73165297D01*
X76890000Y-73165297D01*
X76890000Y-73334703D01*
X76923049Y-73500853D01*
X76987878Y-73657363D01*
X77081995Y-73798218D01*
X77201782Y-73918005D01*
X77342637Y-74012122D01*
X77499147Y-74076951D01*
X77665297Y-74110000D01*
X77834703Y-74110000D01*
X78000853Y-74076951D01*
X78157363Y-74012122D01*
X78298218Y-73918005D01*
X78418005Y-73798218D01*
X78512122Y-73657363D01*
X78576951Y-73500853D01*
X78606285Y-73353380D01*
X79898400Y-75076200D01*
X79916890Y-75096030D01*
X79937221Y-75110398D01*
X79959965Y-75120525D01*
X79984248Y-75126019D01*
X81984248Y-75376019D01*
X82000133Y-75377000D01*
X82024907Y-75374534D01*
X83071092Y-75165297D01*
X107640000Y-75165297D01*
X107640000Y-75334703D01*
X107673049Y-75500853D01*
X107737878Y-75657363D01*
X107831995Y-75798218D01*
X107951782Y-75918005D01*
X108092637Y-76012122D01*
X108249147Y-76076951D01*
X108415297Y-76110000D01*
X108584703Y-76110000D01*
X108750853Y-76076951D01*
X108907363Y-76012122D01*
X109048218Y-75918005D01*
X109168005Y-75798218D01*
X109262122Y-75657363D01*
X109326951Y-75500853D01*
X109360000Y-75334703D01*
X109360000Y-75165297D01*
X109890000Y-75165297D01*
X109890000Y-75334703D01*
X109923049Y-75500853D01*
X109987878Y-75657363D01*
X110081995Y-75798218D01*
X110201782Y-75918005D01*
X110342637Y-76012122D01*
X110499147Y-76076951D01*
X110665297Y-76110000D01*
X110834703Y-76110000D01*
X111000853Y-76076951D01*
X111157363Y-76012122D01*
X111298218Y-75918005D01*
X111418005Y-75798218D01*
X111512122Y-75657363D01*
X111576951Y-75500853D01*
X111610000Y-75334703D01*
X111610000Y-75165297D01*
X111576951Y-74999147D01*
X111514488Y-74848347D01*
X120607952Y-74848347D01*
X121920000Y-76160395D01*
X123232048Y-74848347D01*
X123076038Y-74532786D01*
X122701255Y-74341980D01*
X122296449Y-74227956D01*
X121877176Y-74195098D01*
X121459549Y-74244666D01*
X121059617Y-74374757D01*
X120763962Y-74532786D01*
X120607952Y-74848347D01*
X111514488Y-74848347D01*
X111512122Y-74842637D01*
X111418005Y-74701782D01*
X111298218Y-74581995D01*
X111157363Y-74487878D01*
X111000853Y-74423049D01*
X110834703Y-74390000D01*
X110665297Y-74390000D01*
X110499147Y-74423049D01*
X110342637Y-74487878D01*
X110201782Y-74581995D01*
X110081995Y-74701782D01*
X109987878Y-74842637D01*
X109923049Y-74999147D01*
X109890000Y-75165297D01*
X109360000Y-75165297D01*
X109326951Y-74999147D01*
X109262122Y-74842637D01*
X109168005Y-74701782D01*
X109048218Y-74581995D01*
X108907363Y-74487878D01*
X108750853Y-74423049D01*
X108584703Y-74390000D01*
X108415297Y-74390000D01*
X108249147Y-74423049D01*
X108092637Y-74487878D01*
X107951782Y-74581995D01*
X107831995Y-74701782D01*
X107737878Y-74842637D01*
X107673049Y-74999147D01*
X107640000Y-75165297D01*
X83071092Y-75165297D01*
X84524907Y-74874534D01*
X84550028Y-74866731D01*
X84571840Y-74854729D01*
X84590891Y-74838701D01*
X84606449Y-74819265D01*
X84617917Y-74797167D01*
X85117917Y-73547167D01*
X85125329Y-73520537D01*
X85126927Y-73495692D01*
X85123648Y-73471012D01*
X85115617Y-73447447D01*
X84967048Y-73120593D01*
X118299012Y-73120593D01*
X118434562Y-73418751D01*
X118780399Y-73592592D01*
X119153506Y-73695623D01*
X119539543Y-73723885D01*
X119923677Y-73676292D01*
X120291145Y-73554672D01*
X120545438Y-73418751D01*
X120680988Y-73120593D01*
X119490000Y-71929605D01*
X118299012Y-73120593D01*
X84967048Y-73120593D01*
X84366570Y-71799543D01*
X117516115Y-71799543D01*
X117563708Y-72183677D01*
X117685328Y-72551145D01*
X117821249Y-72805438D01*
X118119407Y-72940988D01*
X119310395Y-71750000D01*
X119669605Y-71750000D01*
X120860593Y-72940988D01*
X120996951Y-72878996D01*
X125320609Y-72878996D01*
X125415287Y-73142476D01*
X125703369Y-73282467D01*
X126013226Y-73363565D01*
X126332951Y-73382654D01*
X126650257Y-73339002D01*
X126952949Y-73234285D01*
X127124713Y-73142476D01*
X127219391Y-72878996D01*
X126270000Y-71929605D01*
X125320609Y-72878996D01*
X120996951Y-72878996D01*
X121158751Y-72805438D01*
X121332592Y-72459601D01*
X121435623Y-72086494D01*
X121455649Y-71812951D01*
X124637346Y-71812951D01*
X124680998Y-72130257D01*
X124785715Y-72432949D01*
X124877524Y-72604713D01*
X125141004Y-72699391D01*
X126090395Y-71750000D01*
X126449605Y-71750000D01*
X127398996Y-72699391D01*
X127662476Y-72604713D01*
X127802467Y-72316631D01*
X127883565Y-72006774D01*
X127902654Y-71687049D01*
X127859002Y-71369743D01*
X127754285Y-71067051D01*
X127662476Y-70895287D01*
X127398996Y-70800609D01*
X126449605Y-71750000D01*
X126090395Y-71750000D01*
X125141004Y-70800609D01*
X124877524Y-70895287D01*
X124737533Y-71183369D01*
X124656435Y-71493226D01*
X124637346Y-71812951D01*
X121455649Y-71812951D01*
X121463885Y-71700457D01*
X121416292Y-71316323D01*
X121294672Y-70948855D01*
X121158751Y-70694562D01*
X120996952Y-70621004D01*
X125320609Y-70621004D01*
X126270000Y-71570395D01*
X127219391Y-70621004D01*
X127124713Y-70357524D01*
X126836631Y-70217533D01*
X126526774Y-70136435D01*
X126207049Y-70117346D01*
X125889743Y-70160998D01*
X125587051Y-70265715D01*
X125415287Y-70357524D01*
X125320609Y-70621004D01*
X120996952Y-70621004D01*
X120860593Y-70559012D01*
X119669605Y-71750000D01*
X119310395Y-71750000D01*
X118119407Y-70559012D01*
X117821249Y-70694562D01*
X117647408Y-71040399D01*
X117544377Y-71413506D01*
X117516115Y-71799543D01*
X84366570Y-71799543D01*
X83865617Y-70697447D01*
X83856449Y-70680735D01*
X83840891Y-70661299D01*
X83821840Y-70645271D01*
X83800028Y-70633269D01*
X82124760Y-69915297D01*
X101890000Y-69915297D01*
X101890000Y-70084703D01*
X101923049Y-70250853D01*
X101987878Y-70407363D01*
X102081995Y-70548218D01*
X102201782Y-70668005D01*
X102342637Y-70762122D01*
X102499147Y-70826951D01*
X102665297Y-70860000D01*
X102834703Y-70860000D01*
X103000853Y-70826951D01*
X103157363Y-70762122D01*
X103298218Y-70668005D01*
X103418005Y-70548218D01*
X103512122Y-70407363D01*
X103523701Y-70379407D01*
X118299012Y-70379407D01*
X119490000Y-71570395D01*
X120680988Y-70379407D01*
X120545438Y-70081249D01*
X120199601Y-69907408D01*
X119826494Y-69804377D01*
X119440457Y-69776115D01*
X119056323Y-69823708D01*
X118688855Y-69945328D01*
X118434562Y-70081249D01*
X118299012Y-70379407D01*
X103523701Y-70379407D01*
X103576951Y-70250853D01*
X103610000Y-70084703D01*
X103610000Y-69915297D01*
X103576951Y-69749147D01*
X103512122Y-69592637D01*
X103418005Y-69451782D01*
X103298218Y-69331995D01*
X103157363Y-69237878D01*
X103000853Y-69173049D01*
X102834703Y-69140000D01*
X102665297Y-69140000D01*
X102499147Y-69173049D01*
X102342637Y-69237878D01*
X102201782Y-69331995D01*
X102081995Y-69451782D01*
X101987878Y-69592637D01*
X101923049Y-69749147D01*
X101890000Y-69915297D01*
X82124760Y-69915297D01*
X82050028Y-69883269D01*
X82035346Y-69878018D01*
X82010870Y-69873466D01*
X81985975Y-69873777D01*
X79735975Y-70123777D01*
X79705407Y-70131086D01*
X79683065Y-70142071D01*
X79663295Y-70157203D01*
X79646858Y-70175901D01*
X79634383Y-70197447D01*
X78464452Y-72771295D01*
X78418005Y-72701782D01*
X78298218Y-72581995D01*
X78157363Y-72487878D01*
X78000853Y-72423049D01*
X77834703Y-72390000D01*
X77665297Y-72390000D01*
X77499147Y-72423049D01*
X77342637Y-72487878D01*
X77201782Y-72581995D01*
X77081995Y-72701782D01*
X76987878Y-72842637D01*
X76923049Y-72999147D01*
X76890000Y-73165297D01*
X62085000Y-73165297D01*
X62085000Y-70878996D01*
X66530609Y-70878996D01*
X66625287Y-71142476D01*
X66913369Y-71282467D01*
X67223226Y-71363565D01*
X67542951Y-71382654D01*
X67860257Y-71339002D01*
X68162949Y-71234285D01*
X68334713Y-71142476D01*
X68342576Y-71120593D01*
X73069012Y-71120593D01*
X73204562Y-71418751D01*
X73550399Y-71592592D01*
X73923506Y-71695623D01*
X74309543Y-71723885D01*
X74693677Y-71676292D01*
X75061145Y-71554672D01*
X75315438Y-71418751D01*
X75450988Y-71120593D01*
X74260000Y-69929605D01*
X73069012Y-71120593D01*
X68342576Y-71120593D01*
X68429391Y-70878996D01*
X67480000Y-69929605D01*
X66530609Y-70878996D01*
X62085000Y-70878996D01*
X62085000Y-69812951D01*
X65847346Y-69812951D01*
X65890998Y-70130257D01*
X65995715Y-70432949D01*
X66087524Y-70604713D01*
X66351004Y-70699391D01*
X67300395Y-69750000D01*
X67659605Y-69750000D01*
X68608996Y-70699391D01*
X68872476Y-70604713D01*
X69012467Y-70316631D01*
X69093565Y-70006774D01*
X69105937Y-69799543D01*
X72286115Y-69799543D01*
X72333708Y-70183677D01*
X72455328Y-70551145D01*
X72591249Y-70805438D01*
X72889407Y-70940988D01*
X74080395Y-69750000D01*
X74439605Y-69750000D01*
X75630593Y-70940988D01*
X75928751Y-70805438D01*
X76102592Y-70459601D01*
X76205623Y-70086494D01*
X76233885Y-69700457D01*
X76186292Y-69316323D01*
X76064672Y-68948855D01*
X75928751Y-68694562D01*
X75630593Y-68559012D01*
X74439605Y-69750000D01*
X74080395Y-69750000D01*
X72889407Y-68559012D01*
X72591249Y-68694562D01*
X72417408Y-69040399D01*
X72314377Y-69413506D01*
X72286115Y-69799543D01*
X69105937Y-69799543D01*
X69112654Y-69687049D01*
X69069002Y-69369743D01*
X68964285Y-69067051D01*
X68872476Y-68895287D01*
X68608996Y-68800609D01*
X67659605Y-69750000D01*
X67300395Y-69750000D01*
X66351004Y-68800609D01*
X66087524Y-68895287D01*
X65947533Y-69183369D01*
X65866435Y-69493226D01*
X65847346Y-69812951D01*
X62085000Y-69812951D01*
X62085000Y-68621004D01*
X66530609Y-68621004D01*
X67480000Y-69570395D01*
X68429391Y-68621004D01*
X68342577Y-68379407D01*
X73069012Y-68379407D01*
X74260000Y-69570395D01*
X75450988Y-68379407D01*
X75315438Y-68081249D01*
X74969601Y-67907408D01*
X74596494Y-67804377D01*
X74210457Y-67776115D01*
X73826323Y-67823708D01*
X73458855Y-67945328D01*
X73204562Y-68081249D01*
X73069012Y-68379407D01*
X68342577Y-68379407D01*
X68334713Y-68357524D01*
X68046631Y-68217533D01*
X67736774Y-68136435D01*
X67417049Y-68117346D01*
X67099743Y-68160998D01*
X66797051Y-68265715D01*
X66625287Y-68357524D01*
X66530609Y-68621004D01*
X62085000Y-68621004D01*
X62085000Y-66915297D01*
X95640000Y-66915297D01*
X95640000Y-67084703D01*
X95673049Y-67250853D01*
X95737878Y-67407363D01*
X95831995Y-67548218D01*
X95951782Y-67668005D01*
X96092637Y-67762122D01*
X96249147Y-67826951D01*
X96415297Y-67860000D01*
X96584703Y-67860000D01*
X96750853Y-67826951D01*
X96907363Y-67762122D01*
X97048218Y-67668005D01*
X97168005Y-67548218D01*
X97262122Y-67407363D01*
X97326951Y-67250853D01*
X97360000Y-67084703D01*
X97360000Y-66915297D01*
X97326951Y-66749147D01*
X97262122Y-66592637D01*
X97168005Y-66451782D01*
X97131520Y-66415297D01*
X121140000Y-66415297D01*
X121140000Y-66584703D01*
X121173049Y-66750853D01*
X121237878Y-66907363D01*
X121331995Y-67048218D01*
X121451782Y-67168005D01*
X121592637Y-67262122D01*
X121749147Y-67326951D01*
X121915297Y-67360000D01*
X122084703Y-67360000D01*
X122250853Y-67326951D01*
X122407363Y-67262122D01*
X122548218Y-67168005D01*
X122668005Y-67048218D01*
X122762122Y-66907363D01*
X122826951Y-66750853D01*
X122860000Y-66584703D01*
X122860000Y-66415297D01*
X122826951Y-66249147D01*
X122762122Y-66092637D01*
X122668005Y-65951782D01*
X122548218Y-65831995D01*
X122407363Y-65737878D01*
X122250853Y-65673049D01*
X122084703Y-65640000D01*
X121915297Y-65640000D01*
X121749147Y-65673049D01*
X121592637Y-65737878D01*
X121451782Y-65831995D01*
X121331995Y-65951782D01*
X121237878Y-66092637D01*
X121173049Y-66249147D01*
X121140000Y-66415297D01*
X97131520Y-66415297D01*
X97048218Y-66331995D01*
X96907363Y-66237878D01*
X96750853Y-66173049D01*
X96584703Y-66140000D01*
X96415297Y-66140000D01*
X96249147Y-66173049D01*
X96092637Y-66237878D01*
X95951782Y-66331995D01*
X95831995Y-66451782D01*
X95737878Y-66592637D01*
X95673049Y-66749147D01*
X95640000Y-66915297D01*
X62085000Y-66915297D01*
X62085000Y-65915297D01*
X87390000Y-65915297D01*
X87390000Y-66084703D01*
X87423049Y-66250853D01*
X87487878Y-66407363D01*
X87581995Y-66548218D01*
X87701782Y-66668005D01*
X87842637Y-66762122D01*
X87999147Y-66826951D01*
X88165297Y-66860000D01*
X88334703Y-66860000D01*
X88500853Y-66826951D01*
X88657363Y-66762122D01*
X88798218Y-66668005D01*
X88918005Y-66548218D01*
X89012122Y-66407363D01*
X89076951Y-66250853D01*
X89110000Y-66084703D01*
X89110000Y-65915297D01*
X89076951Y-65749147D01*
X89012122Y-65592637D01*
X88918005Y-65451782D01*
X88798218Y-65331995D01*
X88657363Y-65237878D01*
X88500853Y-65173049D01*
X88334703Y-65140000D01*
X88165297Y-65140000D01*
X87999147Y-65173049D01*
X87842637Y-65237878D01*
X87701782Y-65331995D01*
X87581995Y-65451782D01*
X87487878Y-65592637D01*
X87423049Y-65749147D01*
X87390000Y-65915297D01*
X62085000Y-65915297D01*
X62085000Y-64915297D01*
X96140000Y-64915297D01*
X96140000Y-65084703D01*
X96173049Y-65250853D01*
X96237878Y-65407363D01*
X96331995Y-65548218D01*
X96451782Y-65668005D01*
X96592637Y-65762122D01*
X96749147Y-65826951D01*
X96915297Y-65860000D01*
X97084703Y-65860000D01*
X97250853Y-65826951D01*
X97407363Y-65762122D01*
X97548218Y-65668005D01*
X97668005Y-65548218D01*
X97762122Y-65407363D01*
X97826951Y-65250853D01*
X97860000Y-65084703D01*
X97860000Y-64915297D01*
X97826951Y-64749147D01*
X97762122Y-64592637D01*
X97668005Y-64451782D01*
X97548218Y-64331995D01*
X97407363Y-64237878D01*
X97250853Y-64173049D01*
X97084703Y-64140000D01*
X96915297Y-64140000D01*
X96749147Y-64173049D01*
X96592637Y-64237878D01*
X96451782Y-64331995D01*
X96331995Y-64451782D01*
X96237878Y-64592637D01*
X96173049Y-64749147D01*
X96140000Y-64915297D01*
X62085000Y-64915297D01*
X62085000Y-63915297D01*
X117890000Y-63915297D01*
X117890000Y-64084703D01*
X117923049Y-64250853D01*
X117987878Y-64407363D01*
X118081995Y-64548218D01*
X118201782Y-64668005D01*
X118342637Y-64762122D01*
X118499147Y-64826951D01*
X118665297Y-64860000D01*
X118718259Y-64860000D01*
X118737878Y-64907363D01*
X118831995Y-65048218D01*
X118951782Y-65168005D01*
X119092637Y-65262122D01*
X119249147Y-65326951D01*
X119415297Y-65360000D01*
X119584703Y-65360000D01*
X119750853Y-65326951D01*
X119907363Y-65262122D01*
X120048218Y-65168005D01*
X120168005Y-65048218D01*
X120262122Y-64907363D01*
X120326951Y-64750853D01*
X120360000Y-64584703D01*
X120360000Y-64415297D01*
X120326951Y-64249147D01*
X120262122Y-64092637D01*
X120168005Y-63951782D01*
X120048218Y-63831995D01*
X119907363Y-63737878D01*
X119750853Y-63673049D01*
X119584703Y-63640000D01*
X119531741Y-63640000D01*
X119512122Y-63592637D01*
X119418005Y-63451782D01*
X119332275Y-63366052D01*
X125690000Y-63366052D01*
X125690000Y-63633948D01*
X125742264Y-63896697D01*
X125844784Y-64144201D01*
X125993619Y-64366949D01*
X126183051Y-64556381D01*
X126405799Y-64705216D01*
X126653303Y-64807736D01*
X126916052Y-64860000D01*
X127183948Y-64860000D01*
X127446697Y-64807736D01*
X127694201Y-64705216D01*
X127916949Y-64556381D01*
X128106381Y-64366949D01*
X128255216Y-64144201D01*
X128357736Y-63896697D01*
X128410000Y-63633948D01*
X128410000Y-63366052D01*
X128357736Y-63103303D01*
X128255216Y-62855799D01*
X128106381Y-62633051D01*
X127916949Y-62443619D01*
X127694201Y-62294784D01*
X127446697Y-62192264D01*
X127183948Y-62140000D01*
X126916052Y-62140000D01*
X126653303Y-62192264D01*
X126405799Y-62294784D01*
X126183051Y-62443619D01*
X125993619Y-62633051D01*
X125844784Y-62855799D01*
X125742264Y-63103303D01*
X125690000Y-63366052D01*
X119332275Y-63366052D01*
X119298218Y-63331995D01*
X119157363Y-63237878D01*
X119000853Y-63173049D01*
X118834703Y-63140000D01*
X118665297Y-63140000D01*
X118499147Y-63173049D01*
X118342637Y-63237878D01*
X118201782Y-63331995D01*
X118081995Y-63451782D01*
X117987878Y-63592637D01*
X117923049Y-63749147D01*
X117890000Y-63915297D01*
X62085000Y-63915297D01*
X62085000Y-61366052D01*
X65340000Y-61366052D01*
X65340000Y-61633948D01*
X65392264Y-61896697D01*
X65494784Y-62144201D01*
X65643619Y-62366949D01*
X65833051Y-62556381D01*
X66055799Y-62705216D01*
X66303303Y-62807736D01*
X66566052Y-62860000D01*
X66833948Y-62860000D01*
X67096697Y-62807736D01*
X67344201Y-62705216D01*
X67566949Y-62556381D01*
X67756381Y-62366949D01*
X67891120Y-62165297D01*
X74140000Y-62165297D01*
X74140000Y-62334703D01*
X74173049Y-62500853D01*
X74237878Y-62657363D01*
X74331995Y-62798218D01*
X74451782Y-62918005D01*
X74592637Y-63012122D01*
X74749147Y-63076951D01*
X74915297Y-63110000D01*
X75084703Y-63110000D01*
X75250853Y-63076951D01*
X75407363Y-63012122D01*
X75548218Y-62918005D01*
X75668005Y-62798218D01*
X75762122Y-62657363D01*
X75826951Y-62500853D01*
X75860000Y-62334703D01*
X75860000Y-62165297D01*
X75826951Y-61999147D01*
X75762122Y-61842637D01*
X75668005Y-61701782D01*
X75548218Y-61581995D01*
X75407363Y-61487878D01*
X75250853Y-61423049D01*
X75084703Y-61390000D01*
X74915297Y-61390000D01*
X74749147Y-61423049D01*
X74592637Y-61487878D01*
X74451782Y-61581995D01*
X74331995Y-61701782D01*
X74237878Y-61842637D01*
X74173049Y-61999147D01*
X74140000Y-62165297D01*
X67891120Y-62165297D01*
X67905216Y-62144201D01*
X68007736Y-61896697D01*
X68060000Y-61633948D01*
X68060000Y-61366052D01*
X68007736Y-61103303D01*
X67905216Y-60855799D01*
X67756381Y-60633051D01*
X67566949Y-60443619D01*
X67524563Y-60415297D01*
X74140000Y-60415297D01*
X74140000Y-60584703D01*
X74173049Y-60750853D01*
X74237878Y-60907363D01*
X74331995Y-61048218D01*
X74451782Y-61168005D01*
X74592637Y-61262122D01*
X74749147Y-61326951D01*
X74915297Y-61360000D01*
X75084703Y-61360000D01*
X75250853Y-61326951D01*
X75407363Y-61262122D01*
X75548218Y-61168005D01*
X75668005Y-61048218D01*
X75762122Y-60907363D01*
X75826951Y-60750853D01*
X75860000Y-60584703D01*
X75860000Y-60415297D01*
X75826951Y-60249147D01*
X75762122Y-60092637D01*
X75668005Y-59951782D01*
X75548218Y-59831995D01*
X75407363Y-59737878D01*
X75250853Y-59673049D01*
X75084703Y-59640000D01*
X74915297Y-59640000D01*
X74749147Y-59673049D01*
X74592637Y-59737878D01*
X74451782Y-59831995D01*
X74331995Y-59951782D01*
X74237878Y-60092637D01*
X74173049Y-60249147D01*
X74140000Y-60415297D01*
X67524563Y-60415297D01*
X67344201Y-60294784D01*
X67096697Y-60192264D01*
X66833948Y-60140000D01*
X66566052Y-60140000D01*
X66303303Y-60192264D01*
X66055799Y-60294784D01*
X65833051Y-60443619D01*
X65643619Y-60633051D01*
X65494784Y-60855799D01*
X65392264Y-61103303D01*
X65340000Y-61366052D01*
X62085000Y-61366052D01*
X62085000Y-58915297D01*
X118640000Y-58915297D01*
X118640000Y-59084703D01*
X118673049Y-59250853D01*
X118737878Y-59407363D01*
X118831995Y-59548218D01*
X118951782Y-59668005D01*
X119092637Y-59762122D01*
X119249147Y-59826951D01*
X119415297Y-59860000D01*
X119584703Y-59860000D01*
X119750853Y-59826951D01*
X119907363Y-59762122D01*
X120048218Y-59668005D01*
X120168005Y-59548218D01*
X120262122Y-59407363D01*
X120326951Y-59250853D01*
X120360000Y-59084703D01*
X120360000Y-58915297D01*
X120640000Y-58915297D01*
X120640000Y-59084703D01*
X120673049Y-59250853D01*
X120737878Y-59407363D01*
X120831995Y-59548218D01*
X120951782Y-59668005D01*
X121092637Y-59762122D01*
X121249147Y-59826951D01*
X121415297Y-59860000D01*
X121584703Y-59860000D01*
X121750853Y-59826951D01*
X121907363Y-59762122D01*
X122048218Y-59668005D01*
X122168005Y-59548218D01*
X122262122Y-59407363D01*
X122326951Y-59250853D01*
X122360000Y-59084703D01*
X122360000Y-58915297D01*
X122326951Y-58749147D01*
X122262122Y-58592637D01*
X122168005Y-58451782D01*
X122048218Y-58331995D01*
X121907363Y-58237878D01*
X121750853Y-58173049D01*
X121584703Y-58140000D01*
X121415297Y-58140000D01*
X121249147Y-58173049D01*
X121092637Y-58237878D01*
X120951782Y-58331995D01*
X120831995Y-58451782D01*
X120737878Y-58592637D01*
X120673049Y-58749147D01*
X120640000Y-58915297D01*
X120360000Y-58915297D01*
X120326951Y-58749147D01*
X120262122Y-58592637D01*
X120168005Y-58451782D01*
X120048218Y-58331995D01*
X119907363Y-58237878D01*
X119750853Y-58173049D01*
X119584703Y-58140000D01*
X119415297Y-58140000D01*
X119249147Y-58173049D01*
X119092637Y-58237878D01*
X118951782Y-58331995D01*
X118831995Y-58451782D01*
X118737878Y-58592637D01*
X118673049Y-58749147D01*
X118640000Y-58915297D01*
X62085000Y-58915297D01*
X62085000Y-57665297D01*
X74140000Y-57665297D01*
X74140000Y-57834703D01*
X74173049Y-58000853D01*
X74237878Y-58157363D01*
X74331995Y-58298218D01*
X74451782Y-58418005D01*
X74592637Y-58512122D01*
X74749147Y-58576951D01*
X74915297Y-58610000D01*
X75084703Y-58610000D01*
X75250853Y-58576951D01*
X75407363Y-58512122D01*
X75548218Y-58418005D01*
X75668005Y-58298218D01*
X75762122Y-58157363D01*
X75826951Y-58000853D01*
X75860000Y-57834703D01*
X75860000Y-57665297D01*
X75826951Y-57499147D01*
X75762122Y-57342637D01*
X75668005Y-57201782D01*
X75548218Y-57081995D01*
X75407363Y-56987878D01*
X75250853Y-56923049D01*
X75211881Y-56915297D01*
X79890000Y-56915297D01*
X79890000Y-57084703D01*
X79923049Y-57250853D01*
X79987878Y-57407363D01*
X80081995Y-57548218D01*
X80201782Y-57668005D01*
X80342637Y-57762122D01*
X80499147Y-57826951D01*
X80665297Y-57860000D01*
X80834703Y-57860000D01*
X81000853Y-57826951D01*
X81157363Y-57762122D01*
X81298218Y-57668005D01*
X81375000Y-57591223D01*
X81451782Y-57668005D01*
X81592637Y-57762122D01*
X81749147Y-57826951D01*
X81915297Y-57860000D01*
X82084703Y-57860000D01*
X82250853Y-57826951D01*
X82407363Y-57762122D01*
X82548218Y-57668005D01*
X82668005Y-57548218D01*
X82762122Y-57407363D01*
X82826951Y-57250853D01*
X82860000Y-57084703D01*
X82860000Y-56915297D01*
X82826951Y-56749147D01*
X82773702Y-56620593D01*
X118299012Y-56620593D01*
X118434562Y-56918751D01*
X118780399Y-57092592D01*
X119153506Y-57195623D01*
X119539543Y-57223885D01*
X119923677Y-57176292D01*
X120291145Y-57054672D01*
X120545438Y-56918751D01*
X120680988Y-56620593D01*
X119490000Y-55429605D01*
X118299012Y-56620593D01*
X82773702Y-56620593D01*
X82762122Y-56592637D01*
X82668005Y-56451782D01*
X82548218Y-56331995D01*
X82407363Y-56237878D01*
X82250853Y-56173049D01*
X82084703Y-56140000D01*
X81915297Y-56140000D01*
X81749147Y-56173049D01*
X81592637Y-56237878D01*
X81451782Y-56331995D01*
X81375000Y-56408777D01*
X81298218Y-56331995D01*
X81157363Y-56237878D01*
X81000853Y-56173049D01*
X80834703Y-56140000D01*
X80665297Y-56140000D01*
X80499147Y-56173049D01*
X80342637Y-56237878D01*
X80201782Y-56331995D01*
X80081995Y-56451782D01*
X79987878Y-56592637D01*
X79923049Y-56749147D01*
X79890000Y-56915297D01*
X75211881Y-56915297D01*
X75084703Y-56890000D01*
X74915297Y-56890000D01*
X74749147Y-56923049D01*
X74592637Y-56987878D01*
X74451782Y-57081995D01*
X74331995Y-57201782D01*
X74237878Y-57342637D01*
X74173049Y-57499147D01*
X74140000Y-57665297D01*
X62085000Y-57665297D01*
X62085000Y-55349742D01*
X86204028Y-55349742D01*
X86204028Y-55519148D01*
X86237077Y-55685298D01*
X86301906Y-55841808D01*
X86396023Y-55982663D01*
X86515810Y-56102450D01*
X86656665Y-56196567D01*
X86813175Y-56261396D01*
X86979325Y-56294445D01*
X87148731Y-56294445D01*
X87314881Y-56261396D01*
X87390628Y-56230020D01*
X87466375Y-56261396D01*
X87632525Y-56294445D01*
X87801931Y-56294445D01*
X87968081Y-56261396D01*
X88124591Y-56196567D01*
X88265446Y-56102450D01*
X88385233Y-55982663D01*
X88479350Y-55841808D01*
X88544179Y-55685298D01*
X88577228Y-55519148D01*
X88577228Y-55349742D01*
X88570377Y-55315297D01*
X92540000Y-55315297D01*
X92540000Y-55484703D01*
X92573049Y-55650853D01*
X92637878Y-55807363D01*
X92731995Y-55948218D01*
X92851782Y-56068005D01*
X92992637Y-56162122D01*
X93149147Y-56226951D01*
X93315297Y-56260000D01*
X93484703Y-56260000D01*
X93650853Y-56226951D01*
X93807363Y-56162122D01*
X93948218Y-56068005D01*
X94068005Y-55948218D01*
X94162122Y-55807363D01*
X94226951Y-55650853D01*
X94260000Y-55484703D01*
X94260000Y-55315297D01*
X94256867Y-55299543D01*
X117516115Y-55299543D01*
X117563708Y-55683677D01*
X117685328Y-56051145D01*
X117821249Y-56305438D01*
X118119407Y-56440988D01*
X119310395Y-55250000D01*
X119669605Y-55250000D01*
X120860593Y-56440988D01*
X120996951Y-56378996D01*
X125320609Y-56378996D01*
X125415287Y-56642476D01*
X125703369Y-56782467D01*
X126013226Y-56863565D01*
X126332951Y-56882654D01*
X126650257Y-56839002D01*
X126952949Y-56734285D01*
X127124713Y-56642476D01*
X127219391Y-56378996D01*
X126270000Y-55429605D01*
X125320609Y-56378996D01*
X120996951Y-56378996D01*
X121158751Y-56305438D01*
X121332592Y-55959601D01*
X121435623Y-55586494D01*
X121455649Y-55312951D01*
X124637346Y-55312951D01*
X124680998Y-55630257D01*
X124785715Y-55932949D01*
X124877524Y-56104713D01*
X125141004Y-56199391D01*
X126090395Y-55250000D01*
X126449605Y-55250000D01*
X127398996Y-56199391D01*
X127662476Y-56104713D01*
X127802467Y-55816631D01*
X127883565Y-55506774D01*
X127902654Y-55187049D01*
X127859002Y-54869743D01*
X127754285Y-54567051D01*
X127662476Y-54395287D01*
X127398996Y-54300609D01*
X126449605Y-55250000D01*
X126090395Y-55250000D01*
X125141004Y-54300609D01*
X124877524Y-54395287D01*
X124737533Y-54683369D01*
X124656435Y-54993226D01*
X124637346Y-55312951D01*
X121455649Y-55312951D01*
X121463885Y-55200457D01*
X121416292Y-54816323D01*
X121294672Y-54448855D01*
X121158751Y-54194562D01*
X120996952Y-54121004D01*
X125320609Y-54121004D01*
X126270000Y-55070395D01*
X127219391Y-54121004D01*
X127124713Y-53857524D01*
X126836631Y-53717533D01*
X126526774Y-53636435D01*
X126207049Y-53617346D01*
X125889743Y-53660998D01*
X125587051Y-53765715D01*
X125415287Y-53857524D01*
X125320609Y-54121004D01*
X120996952Y-54121004D01*
X120860593Y-54059012D01*
X119669605Y-55250000D01*
X119310395Y-55250000D01*
X118119407Y-54059012D01*
X117821249Y-54194562D01*
X117647408Y-54540399D01*
X117544377Y-54913506D01*
X117516115Y-55299543D01*
X94256867Y-55299543D01*
X94226951Y-55149147D01*
X94162122Y-54992637D01*
X94068005Y-54851782D01*
X93948218Y-54731995D01*
X93807363Y-54637878D01*
X93650853Y-54573049D01*
X93484703Y-54540000D01*
X93315297Y-54540000D01*
X93149147Y-54573049D01*
X92992637Y-54637878D01*
X92851782Y-54731995D01*
X92731995Y-54851782D01*
X92637878Y-54992637D01*
X92573049Y-55149147D01*
X92540000Y-55315297D01*
X88570377Y-55315297D01*
X88544179Y-55183592D01*
X88496688Y-55068940D01*
X88625763Y-55068940D01*
X88791913Y-55035891D01*
X88948423Y-54971062D01*
X89089278Y-54876945D01*
X89209065Y-54757158D01*
X89303182Y-54616303D01*
X89321670Y-54571670D01*
X89366303Y-54553182D01*
X89507158Y-54459065D01*
X89626945Y-54339278D01*
X89721062Y-54198423D01*
X89785891Y-54041913D01*
X89811076Y-53915297D01*
X89813400Y-53915297D01*
X89813400Y-54084703D01*
X89846449Y-54250853D01*
X89911278Y-54407363D01*
X90005395Y-54548218D01*
X90125182Y-54668005D01*
X90266037Y-54762122D01*
X90422547Y-54826951D01*
X90588697Y-54860000D01*
X90758103Y-54860000D01*
X90924253Y-54826951D01*
X91000000Y-54795575D01*
X91075747Y-54826951D01*
X91241897Y-54860000D01*
X91411303Y-54860000D01*
X91577453Y-54826951D01*
X91733963Y-54762122D01*
X91874818Y-54668005D01*
X91994605Y-54548218D01*
X92088722Y-54407363D01*
X92153551Y-54250853D01*
X92186600Y-54084703D01*
X92186600Y-53915297D01*
X92153551Y-53749147D01*
X92088722Y-53592637D01*
X91994605Y-53451782D01*
X91874818Y-53331995D01*
X91733963Y-53237878D01*
X91577453Y-53173049D01*
X91538481Y-53165297D01*
X95140000Y-53165297D01*
X95140000Y-53334703D01*
X95173049Y-53500853D01*
X95237878Y-53657363D01*
X95331995Y-53798218D01*
X95451782Y-53918005D01*
X95592637Y-54012122D01*
X95749147Y-54076951D01*
X95915297Y-54110000D01*
X96084703Y-54110000D01*
X96250853Y-54076951D01*
X96407363Y-54012122D01*
X96548218Y-53918005D01*
X96586816Y-53879407D01*
X118299012Y-53879407D01*
X119490000Y-55070395D01*
X120680988Y-53879407D01*
X120545438Y-53581249D01*
X120199601Y-53407408D01*
X119826494Y-53304377D01*
X119440457Y-53276115D01*
X119056323Y-53323708D01*
X118688855Y-53445328D01*
X118434562Y-53581249D01*
X118299012Y-53879407D01*
X96586816Y-53879407D01*
X96668005Y-53798218D01*
X96762122Y-53657363D01*
X96804662Y-53554662D01*
X96907363Y-53512122D01*
X97048218Y-53418005D01*
X97168005Y-53298218D01*
X97262122Y-53157363D01*
X97326951Y-53000853D01*
X97360000Y-52834703D01*
X97360000Y-52665297D01*
X97326951Y-52499147D01*
X97262122Y-52342637D01*
X97168005Y-52201782D01*
X97048218Y-52081995D01*
X96907363Y-51987878D01*
X96750853Y-51923049D01*
X96584703Y-51890000D01*
X96415297Y-51890000D01*
X96249147Y-51923049D01*
X96092637Y-51987878D01*
X95951782Y-52081995D01*
X95831995Y-52201782D01*
X95737878Y-52342637D01*
X95695338Y-52445338D01*
X95592637Y-52487878D01*
X95451782Y-52581995D01*
X95331995Y-52701782D01*
X95237878Y-52842637D01*
X95173049Y-52999147D01*
X95140000Y-53165297D01*
X91538481Y-53165297D01*
X91411303Y-53140000D01*
X91241897Y-53140000D01*
X91075747Y-53173049D01*
X91000000Y-53204425D01*
X90924253Y-53173049D01*
X90758103Y-53140000D01*
X90588697Y-53140000D01*
X90422547Y-53173049D01*
X90266037Y-53237878D01*
X90125182Y-53331995D01*
X90005395Y-53451782D01*
X89911278Y-53592637D01*
X89846449Y-53749147D01*
X89813400Y-53915297D01*
X89811076Y-53915297D01*
X89818940Y-53875763D01*
X89818940Y-53706357D01*
X89785891Y-53540207D01*
X89721062Y-53383697D01*
X89626945Y-53242842D01*
X89507158Y-53123055D01*
X89366303Y-53028938D01*
X89209793Y-52964109D01*
X89043643Y-52931060D01*
X88874237Y-52931060D01*
X88708087Y-52964109D01*
X88551577Y-53028938D01*
X88410722Y-53123055D01*
X88290935Y-53242842D01*
X88196818Y-53383697D01*
X88178330Y-53428330D01*
X88133697Y-53446818D01*
X87992842Y-53540935D01*
X87873055Y-53660722D01*
X87778938Y-53801577D01*
X87714109Y-53958087D01*
X87681060Y-54124237D01*
X87681060Y-54293643D01*
X87714109Y-54459793D01*
X87761600Y-54574445D01*
X87632525Y-54574445D01*
X87466375Y-54607494D01*
X87390628Y-54638870D01*
X87314881Y-54607494D01*
X87148731Y-54574445D01*
X86979325Y-54574445D01*
X86813175Y-54607494D01*
X86656665Y-54672323D01*
X86515810Y-54766440D01*
X86396023Y-54886227D01*
X86301906Y-55027082D01*
X86237077Y-55183592D01*
X86204028Y-55349742D01*
X62085000Y-55349742D01*
X62085000Y-54378996D01*
X66530609Y-54378996D01*
X66625287Y-54642476D01*
X66913369Y-54782467D01*
X67223226Y-54863565D01*
X67542951Y-54882654D01*
X67860257Y-54839002D01*
X68162949Y-54734285D01*
X68334713Y-54642476D01*
X68342576Y-54620593D01*
X73069012Y-54620593D01*
X73204562Y-54918751D01*
X73550399Y-55092592D01*
X73923506Y-55195623D01*
X74309543Y-55223885D01*
X74693677Y-55176292D01*
X75061145Y-55054672D01*
X75315438Y-54918751D01*
X75450988Y-54620593D01*
X74260000Y-53429605D01*
X73069012Y-54620593D01*
X68342576Y-54620593D01*
X68429391Y-54378996D01*
X67480000Y-53429605D01*
X66530609Y-54378996D01*
X62085000Y-54378996D01*
X62085000Y-53312951D01*
X65847346Y-53312951D01*
X65890998Y-53630257D01*
X65995715Y-53932949D01*
X66087524Y-54104713D01*
X66351004Y-54199391D01*
X67300395Y-53250000D01*
X67659605Y-53250000D01*
X68608996Y-54199391D01*
X68872476Y-54104713D01*
X69012467Y-53816631D01*
X69093565Y-53506774D01*
X69105937Y-53299543D01*
X72286115Y-53299543D01*
X72333708Y-53683677D01*
X72455328Y-54051145D01*
X72591249Y-54305438D01*
X72889407Y-54440988D01*
X74080395Y-53250000D01*
X74439605Y-53250000D01*
X75630593Y-54440988D01*
X75928751Y-54305438D01*
X76102592Y-53959601D01*
X76205623Y-53586494D01*
X76233885Y-53200457D01*
X76186292Y-52816323D01*
X76064672Y-52448855D01*
X75928751Y-52194562D01*
X75630593Y-52059012D01*
X74439605Y-53250000D01*
X74080395Y-53250000D01*
X72889407Y-52059012D01*
X72591249Y-52194562D01*
X72417408Y-52540399D01*
X72314377Y-52913506D01*
X72286115Y-53299543D01*
X69105937Y-53299543D01*
X69112654Y-53187049D01*
X69069002Y-52869743D01*
X68964285Y-52567051D01*
X68872476Y-52395287D01*
X68608996Y-52300609D01*
X67659605Y-53250000D01*
X67300395Y-53250000D01*
X66351004Y-52300609D01*
X66087524Y-52395287D01*
X65947533Y-52683369D01*
X65866435Y-52993226D01*
X65847346Y-53312951D01*
X62085000Y-53312951D01*
X62085000Y-52121004D01*
X66530609Y-52121004D01*
X67480000Y-53070395D01*
X68429391Y-52121004D01*
X68342577Y-51879407D01*
X73069012Y-51879407D01*
X74260000Y-53070395D01*
X75415098Y-51915297D01*
X80213400Y-51915297D01*
X80213400Y-52084703D01*
X80246449Y-52250853D01*
X80311278Y-52407363D01*
X80405395Y-52548218D01*
X80525182Y-52668005D01*
X80666037Y-52762122D01*
X80822547Y-52826951D01*
X80988697Y-52860000D01*
X81158103Y-52860000D01*
X81324253Y-52826951D01*
X81400000Y-52795575D01*
X81475747Y-52826951D01*
X81641897Y-52860000D01*
X81811303Y-52860000D01*
X81977453Y-52826951D01*
X82133963Y-52762122D01*
X82274818Y-52668005D01*
X82394605Y-52548218D01*
X82488722Y-52407363D01*
X82553551Y-52250853D01*
X82586600Y-52084703D01*
X82586600Y-51915297D01*
X82553551Y-51749147D01*
X82488722Y-51592637D01*
X82394605Y-51451782D01*
X82274818Y-51331995D01*
X82133963Y-51237878D01*
X81977453Y-51173049D01*
X81938481Y-51165297D01*
X90844515Y-51165297D01*
X90844515Y-51334703D01*
X90877564Y-51500853D01*
X90942393Y-51657363D01*
X91036510Y-51798218D01*
X91156297Y-51918005D01*
X91297152Y-52012122D01*
X91453662Y-52076951D01*
X91619812Y-52110000D01*
X91789218Y-52110000D01*
X91955368Y-52076951D01*
X92000000Y-52058464D01*
X92044632Y-52076951D01*
X92210782Y-52110000D01*
X92380188Y-52110000D01*
X92546338Y-52076951D01*
X92702848Y-52012122D01*
X92843703Y-51918005D01*
X92963490Y-51798218D01*
X93057607Y-51657363D01*
X93122436Y-51500853D01*
X93155485Y-51334703D01*
X93155485Y-51165297D01*
X93149687Y-51136146D01*
X93213516Y-51162585D01*
X93379666Y-51195634D01*
X93549072Y-51195634D01*
X93715222Y-51162585D01*
X93871732Y-51097756D01*
X94012587Y-51003639D01*
X94132374Y-50883852D01*
X94226491Y-50742997D01*
X94291320Y-50586487D01*
X94324369Y-50420337D01*
X94324369Y-50250931D01*
X94291601Y-50086194D01*
X94326951Y-50000853D01*
X94360000Y-49834703D01*
X94360000Y-49665297D01*
X94326951Y-49499147D01*
X94262122Y-49342637D01*
X94168005Y-49201782D01*
X94048218Y-49081995D01*
X93907363Y-48987878D01*
X93750853Y-48923049D01*
X93584703Y-48890000D01*
X93415297Y-48890000D01*
X93249147Y-48923049D01*
X93092637Y-48987878D01*
X92951782Y-49081995D01*
X92831995Y-49201782D01*
X92737878Y-49342637D01*
X92673049Y-49499147D01*
X92640000Y-49665297D01*
X92640000Y-49834703D01*
X92672768Y-49999440D01*
X92637418Y-50084781D01*
X92604369Y-50250931D01*
X92604369Y-50420337D01*
X92610167Y-50449488D01*
X92546338Y-50423049D01*
X92380188Y-50390000D01*
X92210782Y-50390000D01*
X92044632Y-50423049D01*
X92000000Y-50441536D01*
X91955368Y-50423049D01*
X91789218Y-50390000D01*
X91619812Y-50390000D01*
X91453662Y-50423049D01*
X91297152Y-50487878D01*
X91156297Y-50581995D01*
X91036510Y-50701782D01*
X90942393Y-50842637D01*
X90877564Y-50999147D01*
X90844515Y-51165297D01*
X81938481Y-51165297D01*
X81811303Y-51140000D01*
X81641897Y-51140000D01*
X81475747Y-51173049D01*
X81400000Y-51204425D01*
X81324253Y-51173049D01*
X81158103Y-51140000D01*
X80988697Y-51140000D01*
X80822547Y-51173049D01*
X80666037Y-51237878D01*
X80525182Y-51331995D01*
X80405395Y-51451782D01*
X80311278Y-51592637D01*
X80246449Y-51749147D01*
X80213400Y-51915297D01*
X75415098Y-51915297D01*
X75450988Y-51879407D01*
X75315438Y-51581249D01*
X74969601Y-51407408D01*
X74596494Y-51304377D01*
X74210457Y-51276115D01*
X73826323Y-51323708D01*
X73458855Y-51445328D01*
X73204562Y-51581249D01*
X73069012Y-51879407D01*
X68342577Y-51879407D01*
X68334713Y-51857524D01*
X68046631Y-51717533D01*
X67736774Y-51636435D01*
X67417049Y-51617346D01*
X67099743Y-51660998D01*
X66797051Y-51765715D01*
X66625287Y-51857524D01*
X66530609Y-52121004D01*
X62085000Y-52121004D01*
X62085000Y-48295600D01*
X64640460Y-48295600D01*
X64640460Y-48504240D01*
X64681164Y-48708871D01*
X64761007Y-48901630D01*
X64876921Y-49075108D01*
X65024452Y-49222639D01*
X65197930Y-49338553D01*
X65390689Y-49418396D01*
X65595320Y-49459100D01*
X65803960Y-49459100D01*
X66008591Y-49418396D01*
X66201350Y-49338553D01*
X66374828Y-49222639D01*
X66522359Y-49075108D01*
X66638273Y-48901630D01*
X66718116Y-48708871D01*
X66758820Y-48504240D01*
X66758820Y-48295600D01*
X66718116Y-48090969D01*
X66638273Y-47898210D01*
X66522359Y-47724732D01*
X66374828Y-47577201D01*
X66201350Y-47461287D01*
X66008591Y-47381444D01*
X65803960Y-47340740D01*
X65595320Y-47340740D01*
X65390689Y-47381444D01*
X65197930Y-47461287D01*
X65024452Y-47577201D01*
X64876921Y-47724732D01*
X64761007Y-47898210D01*
X64681164Y-48090969D01*
X64640460Y-48295600D01*
X62085000Y-48295600D01*
X62085000Y-45795962D01*
X68640000Y-45795962D01*
X68640000Y-45965368D01*
X68673049Y-46131518D01*
X68691536Y-46176150D01*
X68673049Y-46220782D01*
X68640000Y-46386932D01*
X68640000Y-46556338D01*
X68673049Y-46722488D01*
X68737878Y-46878998D01*
X68831995Y-47019853D01*
X68951782Y-47139640D01*
X69092637Y-47233757D01*
X69249147Y-47298586D01*
X69415297Y-47331635D01*
X69584703Y-47331635D01*
X69750853Y-47298586D01*
X69907363Y-47233757D01*
X70048218Y-47139640D01*
X70168005Y-47019853D01*
X70262122Y-46878998D01*
X70326951Y-46722488D01*
X70360000Y-46556338D01*
X70360000Y-46386932D01*
X70326951Y-46220782D01*
X70308464Y-46176150D01*
X70326951Y-46131518D01*
X70360000Y-45965368D01*
X70360000Y-45795962D01*
X70326951Y-45629812D01*
X70262122Y-45473302D01*
X70168005Y-45332447D01*
X70048218Y-45212660D01*
X69907363Y-45118543D01*
X69750853Y-45053714D01*
X69584703Y-45020665D01*
X69415297Y-45020665D01*
X69249147Y-45053714D01*
X69092637Y-45118543D01*
X68951782Y-45212660D01*
X68831995Y-45332447D01*
X68737878Y-45473302D01*
X68673049Y-45629812D01*
X68640000Y-45795962D01*
X62085000Y-45795962D01*
X62085000Y-44495760D01*
X64640460Y-44495760D01*
X64640460Y-44704400D01*
X64681164Y-44909031D01*
X64761007Y-45101790D01*
X64876921Y-45275268D01*
X65024452Y-45422799D01*
X65197930Y-45538713D01*
X65390689Y-45618556D01*
X65595320Y-45659260D01*
X65803960Y-45659260D01*
X66008591Y-45618556D01*
X66201350Y-45538713D01*
X66374828Y-45422799D01*
X66522359Y-45275268D01*
X66638273Y-45101790D01*
X66718116Y-44909031D01*
X66758820Y-44704400D01*
X66758820Y-44495760D01*
X66718116Y-44291129D01*
X66638273Y-44098370D01*
X66522359Y-43924892D01*
X66374828Y-43777361D01*
X66201350Y-43661447D01*
X66008591Y-43581604D01*
X65803960Y-43540900D01*
X65595320Y-43540900D01*
X65390689Y-43581604D01*
X65197930Y-43661447D01*
X65024452Y-43777361D01*
X64876921Y-43924892D01*
X64761007Y-44098370D01*
X64681164Y-44291129D01*
X64640460Y-44495760D01*
X62085000Y-44495760D01*
X62085000Y-42533505D01*
X62113267Y-42245218D01*
X62187259Y-42000145D01*
X62307443Y-41774110D01*
X62469248Y-41575719D01*
X62666497Y-41412540D01*
X62891687Y-41290780D01*
X63136247Y-41215076D01*
X63422398Y-41185000D01*
X90148782Y-41185000D01*
X113694124Y-52113218D01*
M02*
