G04 #@! TF.GenerationSoftware,KiCad,Pcbnew,(5.1.2)-2*
G04 #@! TF.CreationDate,2020-12-08T23:46:53+13:00*
G04 #@! TF.ProjectId,DPSwitch,44505377-6974-4636-982e-6b696361645f,rev?*
G04 #@! TF.SameCoordinates,Original*
G04 #@! TF.FileFunction,Copper,L3,Inr*
G04 #@! TF.FilePolarity,Positive*
%FSLAX46Y46*%
G04 Gerber Fmt 4.6, Leading zero omitted, Abs format (unit mm)*
G04 Created by KiCad (PCBNEW (5.1.2)-2) date 2020-12-08 23:46:53*
%MOMM*%
%LPD*%
G04 APERTURE LIST*
%ADD10C,2.660000*%
%ADD11C,1.982000*%
%ADD12C,1.500000*%
%ADD13C,3.000000*%
%ADD14C,0.450000*%
%ADD15C,0.254000*%
G04 APERTURE END LIST*
D10*
X74260000Y-69750000D03*
D11*
X67480000Y-69750000D03*
X67480000Y-53250000D03*
D10*
X74260000Y-53250000D03*
D12*
X119250000Y-79390000D03*
X119250000Y-81930000D03*
X119250000Y-83960000D03*
X119250000Y-86500000D03*
D13*
X121920000Y-76340000D03*
X121920000Y-90060000D03*
D10*
X119490000Y-55250000D03*
D11*
X126270000Y-55250000D03*
X126270000Y-71750000D03*
D10*
X119490000Y-71750000D03*
X74260000Y-91750000D03*
D11*
X67480000Y-91750000D03*
X67480000Y-75250000D03*
D10*
X74260000Y-75250000D03*
D14*
X91500000Y-61750000D03*
X93500000Y-61750000D03*
X93500000Y-59250000D03*
X91500000Y-59250000D03*
X115400000Y-60000000D03*
X115400000Y-58500000D03*
X115400000Y-61500000D03*
X115400000Y-63000000D03*
X78400000Y-59500000D03*
X78400000Y-62000000D03*
X78400000Y-63500000D03*
X78400000Y-65000000D03*
X78400000Y-66500000D03*
X78400000Y-84000000D03*
X78400000Y-85500000D03*
X78400000Y-87000000D03*
X78400000Y-88500000D03*
X89250000Y-62250000D03*
X89250000Y-60750000D03*
X89250000Y-59250000D03*
X78400000Y-81500000D03*
X118400000Y-65500000D03*
X93400000Y-51500000D03*
X99386802Y-66013198D03*
X101400000Y-72500000D03*
X108000000Y-71100000D03*
X114900000Y-67000000D03*
X89750000Y-96000000D03*
X90750000Y-47250000D03*
X90750000Y-63750000D03*
X92250000Y-63750000D03*
X93750000Y-63750000D03*
X95750000Y-59250000D03*
X95750000Y-60750000D03*
X95750000Y-62250000D03*
X83600000Y-78000000D03*
X67400000Y-47800000D03*
X63500000Y-46500000D03*
X63500000Y-42817000D03*
X63500000Y-50183000D03*
X63500000Y-98500000D03*
X63500000Y-94817000D03*
X63500000Y-102183000D03*
X67500000Y-99750000D03*
X103250000Y-75250000D03*
X101700000Y-80800000D03*
X110000000Y-80250000D03*
X105250000Y-75750000D03*
X93400000Y-55400000D03*
X102750000Y-70000000D03*
X88250000Y-66000000D03*
X96500000Y-67000000D03*
X86250000Y-49000000D03*
X77750000Y-73250000D03*
X86000000Y-97750000D03*
X99800000Y-76450000D03*
X106450000Y-76450000D03*
X87064028Y-55434445D03*
X85976600Y-79500000D03*
X87717228Y-55434445D03*
X85323400Y-79500000D03*
X89204515Y-51250000D03*
X68791060Y-45041060D03*
X89795485Y-51250000D03*
X69208940Y-45458940D03*
X90650000Y-50295485D03*
X90673400Y-54000000D03*
X81073400Y-52000000D03*
X91326600Y-54000000D03*
X81726600Y-52000000D03*
X90650000Y-49704515D03*
X80250000Y-78000000D03*
X91704515Y-51250000D03*
X68650000Y-97880665D03*
X92295485Y-51250000D03*
X68650000Y-98471635D03*
X96000000Y-53250000D03*
X97000000Y-65000000D03*
X108500000Y-75250000D03*
X87500000Y-96250000D03*
X108250000Y-81000000D03*
X82750000Y-100750000D03*
X109500000Y-77250000D03*
X96500000Y-52750000D03*
X106750000Y-78750000D03*
D15*
G36*
X113694124Y-52113218D02*
G01*
X113736594Y-52135919D01*
X113787433Y-52151341D01*
X113837591Y-52168879D01*
X113851895Y-52170895D01*
X113865717Y-52175088D01*
X113918597Y-52180296D01*
X113971204Y-52187711D01*
X114019279Y-52185000D01*
X130366495Y-52185000D01*
X130654782Y-52213267D01*
X130899855Y-52287259D01*
X131125890Y-52407443D01*
X131324281Y-52569248D01*
X131487460Y-52766497D01*
X131609220Y-52991687D01*
X131684924Y-53236247D01*
X131715001Y-53522408D01*
X131715000Y-91466495D01*
X131686733Y-91754782D01*
X131612741Y-91999855D01*
X131492554Y-92225893D01*
X131330754Y-92424279D01*
X131133503Y-92587460D01*
X130908310Y-92709221D01*
X130663753Y-92784924D01*
X130377602Y-92815000D01*
X114018153Y-92815000D01*
X113968972Y-92812387D01*
X113917505Y-92819811D01*
X113865717Y-92824912D01*
X113850822Y-92829430D01*
X113835421Y-92831652D01*
X113786381Y-92848978D01*
X113736594Y-92864081D01*
X113693131Y-92887312D01*
X90347617Y-103815000D01*
X63433505Y-103815000D01*
X63145218Y-103786733D01*
X62900145Y-103712741D01*
X62674107Y-103592554D01*
X62475721Y-103430754D01*
X62312540Y-103233503D01*
X62190779Y-103008310D01*
X62115076Y-102763753D01*
X62085000Y-102477602D01*
X62085000Y-102098297D01*
X62640000Y-102098297D01*
X62640000Y-102267703D01*
X62673049Y-102433853D01*
X62737878Y-102590363D01*
X62831995Y-102731218D01*
X62951782Y-102851005D01*
X63092637Y-102945122D01*
X63249147Y-103009951D01*
X63415297Y-103043000D01*
X63584703Y-103043000D01*
X63750853Y-103009951D01*
X63907363Y-102945122D01*
X64048218Y-102851005D01*
X64168005Y-102731218D01*
X64262122Y-102590363D01*
X64326951Y-102433853D01*
X64360000Y-102267703D01*
X64360000Y-102098297D01*
X64326951Y-101932147D01*
X64262122Y-101775637D01*
X64168005Y-101634782D01*
X64048218Y-101514995D01*
X63907363Y-101420878D01*
X63750853Y-101356049D01*
X63584703Y-101323000D01*
X63415297Y-101323000D01*
X63249147Y-101356049D01*
X63092637Y-101420878D01*
X62951782Y-101514995D01*
X62831995Y-101634782D01*
X62737878Y-101775637D01*
X62673049Y-101932147D01*
X62640000Y-102098297D01*
X62085000Y-102098297D01*
X62085000Y-100295600D01*
X64640460Y-100295600D01*
X64640460Y-100504240D01*
X64681164Y-100708871D01*
X64761007Y-100901630D01*
X64876921Y-101075108D01*
X65024452Y-101222639D01*
X65197930Y-101338553D01*
X65390689Y-101418396D01*
X65595320Y-101459100D01*
X65803960Y-101459100D01*
X66008591Y-101418396D01*
X66201350Y-101338553D01*
X66374828Y-101222639D01*
X66522359Y-101075108D01*
X66638273Y-100901630D01*
X66718116Y-100708871D01*
X66726783Y-100665297D01*
X81890000Y-100665297D01*
X81890000Y-100834703D01*
X81923049Y-101000853D01*
X81987878Y-101157363D01*
X82081995Y-101298218D01*
X82201782Y-101418005D01*
X82342637Y-101512122D01*
X82499147Y-101576951D01*
X82665297Y-101610000D01*
X82834703Y-101610000D01*
X83000853Y-101576951D01*
X83157363Y-101512122D01*
X83298218Y-101418005D01*
X83418005Y-101298218D01*
X83512122Y-101157363D01*
X83576951Y-101000853D01*
X83610000Y-100834703D01*
X83610000Y-100665297D01*
X83576951Y-100499147D01*
X83512122Y-100342637D01*
X83418005Y-100201782D01*
X83298218Y-100081995D01*
X83157363Y-99987878D01*
X83000853Y-99923049D01*
X82834703Y-99890000D01*
X82665297Y-99890000D01*
X82499147Y-99923049D01*
X82342637Y-99987878D01*
X82201782Y-100081995D01*
X82081995Y-100201782D01*
X81987878Y-100342637D01*
X81923049Y-100499147D01*
X81890000Y-100665297D01*
X66726783Y-100665297D01*
X66758820Y-100504240D01*
X66758820Y-100295600D01*
X66725266Y-100126916D01*
X66737878Y-100157363D01*
X66831995Y-100298218D01*
X66951782Y-100418005D01*
X67092637Y-100512122D01*
X67249147Y-100576951D01*
X67415297Y-100610000D01*
X67584703Y-100610000D01*
X67750853Y-100576951D01*
X67907363Y-100512122D01*
X68048218Y-100418005D01*
X68168005Y-100298218D01*
X68262122Y-100157363D01*
X68326951Y-100000853D01*
X68360000Y-99834703D01*
X68360000Y-99665297D01*
X68326951Y-99499147D01*
X68262122Y-99342637D01*
X68168005Y-99201782D01*
X68114081Y-99147858D01*
X68242637Y-99233757D01*
X68399147Y-99298586D01*
X68565297Y-99331635D01*
X68734703Y-99331635D01*
X68900853Y-99298586D01*
X69057363Y-99233757D01*
X69198218Y-99139640D01*
X69318005Y-99019853D01*
X69412122Y-98878998D01*
X69476951Y-98722488D01*
X69510000Y-98556338D01*
X69510000Y-98386932D01*
X69476951Y-98220782D01*
X69458464Y-98176150D01*
X69476951Y-98131518D01*
X69510000Y-97965368D01*
X69510000Y-97795962D01*
X69484010Y-97665297D01*
X85140000Y-97665297D01*
X85140000Y-97834703D01*
X85173049Y-98000853D01*
X85237878Y-98157363D01*
X85331995Y-98298218D01*
X85451782Y-98418005D01*
X85592637Y-98512122D01*
X85749147Y-98576951D01*
X85915297Y-98610000D01*
X86084703Y-98610000D01*
X86250853Y-98576951D01*
X86407363Y-98512122D01*
X86548218Y-98418005D01*
X86668005Y-98298218D01*
X86762122Y-98157363D01*
X86826951Y-98000853D01*
X86860000Y-97834703D01*
X86860000Y-97665297D01*
X86826951Y-97499147D01*
X86762122Y-97342637D01*
X86668005Y-97201782D01*
X86548218Y-97081995D01*
X86407363Y-96987878D01*
X86250853Y-96923049D01*
X86084703Y-96890000D01*
X85915297Y-96890000D01*
X85749147Y-96923049D01*
X85592637Y-96987878D01*
X85451782Y-97081995D01*
X85331995Y-97201782D01*
X85237878Y-97342637D01*
X85173049Y-97499147D01*
X85140000Y-97665297D01*
X69484010Y-97665297D01*
X69476951Y-97629812D01*
X69412122Y-97473302D01*
X69318005Y-97332447D01*
X69198218Y-97212660D01*
X69057363Y-97118543D01*
X68900853Y-97053714D01*
X68734703Y-97020665D01*
X68565297Y-97020665D01*
X68399147Y-97053714D01*
X68242637Y-97118543D01*
X68101782Y-97212660D01*
X67981995Y-97332447D01*
X67887878Y-97473302D01*
X67823049Y-97629812D01*
X67790000Y-97795962D01*
X67790000Y-97965368D01*
X67823049Y-98131518D01*
X67841536Y-98176150D01*
X67823049Y-98220782D01*
X67790000Y-98386932D01*
X67790000Y-98556338D01*
X67823049Y-98722488D01*
X67887878Y-98878998D01*
X67981995Y-99019853D01*
X68035919Y-99073777D01*
X67907363Y-98987878D01*
X67750853Y-98923049D01*
X67584703Y-98890000D01*
X67415297Y-98890000D01*
X67249147Y-98923049D01*
X67092637Y-98987878D01*
X66951782Y-99081995D01*
X66831995Y-99201782D01*
X66737878Y-99342637D01*
X66673049Y-99499147D01*
X66640000Y-99665297D01*
X66640000Y-99834703D01*
X66665898Y-99964904D01*
X66638273Y-99898210D01*
X66522359Y-99724732D01*
X66374828Y-99577201D01*
X66201350Y-99461287D01*
X66008591Y-99381444D01*
X65803960Y-99340740D01*
X65595320Y-99340740D01*
X65390689Y-99381444D01*
X65197930Y-99461287D01*
X65024452Y-99577201D01*
X64876921Y-99724732D01*
X64761007Y-99898210D01*
X64681164Y-100090969D01*
X64640460Y-100295600D01*
X62085000Y-100295600D01*
X62085000Y-98415297D01*
X62640000Y-98415297D01*
X62640000Y-98584703D01*
X62673049Y-98750853D01*
X62737878Y-98907363D01*
X62831995Y-99048218D01*
X62951782Y-99168005D01*
X63092637Y-99262122D01*
X63249147Y-99326951D01*
X63415297Y-99360000D01*
X63584703Y-99360000D01*
X63750853Y-99326951D01*
X63907363Y-99262122D01*
X64048218Y-99168005D01*
X64168005Y-99048218D01*
X64262122Y-98907363D01*
X64326951Y-98750853D01*
X64360000Y-98584703D01*
X64360000Y-98415297D01*
X64326951Y-98249147D01*
X64262122Y-98092637D01*
X64168005Y-97951782D01*
X64048218Y-97831995D01*
X63907363Y-97737878D01*
X63750853Y-97673049D01*
X63584703Y-97640000D01*
X63415297Y-97640000D01*
X63249147Y-97673049D01*
X63092637Y-97737878D01*
X62951782Y-97831995D01*
X62831995Y-97951782D01*
X62737878Y-98092637D01*
X62673049Y-98249147D01*
X62640000Y-98415297D01*
X62085000Y-98415297D01*
X62085000Y-96495760D01*
X64640460Y-96495760D01*
X64640460Y-96704400D01*
X64681164Y-96909031D01*
X64761007Y-97101790D01*
X64876921Y-97275268D01*
X65024452Y-97422799D01*
X65197930Y-97538713D01*
X65390689Y-97618556D01*
X65595320Y-97659260D01*
X65803960Y-97659260D01*
X66008591Y-97618556D01*
X66201350Y-97538713D01*
X66374828Y-97422799D01*
X66522359Y-97275268D01*
X66638273Y-97101790D01*
X66718116Y-96909031D01*
X66758820Y-96704400D01*
X66758820Y-96495760D01*
X66718116Y-96291129D01*
X66665995Y-96165297D01*
X86640000Y-96165297D01*
X86640000Y-96334703D01*
X86673049Y-96500853D01*
X86737878Y-96657363D01*
X86831995Y-96798218D01*
X86951782Y-96918005D01*
X87092637Y-97012122D01*
X87249147Y-97076951D01*
X87415297Y-97110000D01*
X87584703Y-97110000D01*
X87750853Y-97076951D01*
X87907363Y-97012122D01*
X88048218Y-96918005D01*
X88168005Y-96798218D01*
X88262122Y-96657363D01*
X88326951Y-96500853D01*
X88360000Y-96334703D01*
X88360000Y-96165297D01*
X88326951Y-95999147D01*
X88292219Y-95915297D01*
X88890000Y-95915297D01*
X88890000Y-96084703D01*
X88923049Y-96250853D01*
X88987878Y-96407363D01*
X89081995Y-96548218D01*
X89201782Y-96668005D01*
X89342637Y-96762122D01*
X89499147Y-96826951D01*
X89665297Y-96860000D01*
X89834703Y-96860000D01*
X90000853Y-96826951D01*
X90157363Y-96762122D01*
X90298218Y-96668005D01*
X90418005Y-96548218D01*
X90512122Y-96407363D01*
X90576951Y-96250853D01*
X90610000Y-96084703D01*
X90610000Y-95915297D01*
X90576951Y-95749147D01*
X90512122Y-95592637D01*
X90418005Y-95451782D01*
X90298218Y-95331995D01*
X90157363Y-95237878D01*
X90000853Y-95173049D01*
X89834703Y-95140000D01*
X89665297Y-95140000D01*
X89499147Y-95173049D01*
X89342637Y-95237878D01*
X89201782Y-95331995D01*
X89081995Y-95451782D01*
X88987878Y-95592637D01*
X88923049Y-95749147D01*
X88890000Y-95915297D01*
X88292219Y-95915297D01*
X88262122Y-95842637D01*
X88168005Y-95701782D01*
X88048218Y-95581995D01*
X87907363Y-95487878D01*
X87750853Y-95423049D01*
X87584703Y-95390000D01*
X87415297Y-95390000D01*
X87249147Y-95423049D01*
X87092637Y-95487878D01*
X86951782Y-95581995D01*
X86831995Y-95701782D01*
X86737878Y-95842637D01*
X86673049Y-95999147D01*
X86640000Y-96165297D01*
X66665995Y-96165297D01*
X66638273Y-96098370D01*
X66522359Y-95924892D01*
X66374828Y-95777361D01*
X66201350Y-95661447D01*
X66008591Y-95581604D01*
X65803960Y-95540900D01*
X65595320Y-95540900D01*
X65390689Y-95581604D01*
X65197930Y-95661447D01*
X65024452Y-95777361D01*
X64876921Y-95924892D01*
X64761007Y-96098370D01*
X64681164Y-96291129D01*
X64640460Y-96495760D01*
X62085000Y-96495760D01*
X62085000Y-94732297D01*
X62640000Y-94732297D01*
X62640000Y-94901703D01*
X62673049Y-95067853D01*
X62737878Y-95224363D01*
X62831995Y-95365218D01*
X62951782Y-95485005D01*
X63092637Y-95579122D01*
X63249147Y-95643951D01*
X63415297Y-95677000D01*
X63584703Y-95677000D01*
X63750853Y-95643951D01*
X63907363Y-95579122D01*
X64048218Y-95485005D01*
X64168005Y-95365218D01*
X64262122Y-95224363D01*
X64326951Y-95067853D01*
X64360000Y-94901703D01*
X64360000Y-94732297D01*
X64326951Y-94566147D01*
X64262122Y-94409637D01*
X64168005Y-94268782D01*
X64048218Y-94148995D01*
X63907363Y-94054878D01*
X63750853Y-93990049D01*
X63584703Y-93957000D01*
X63415297Y-93957000D01*
X63249147Y-93990049D01*
X63092637Y-94054878D01*
X62951782Y-94148995D01*
X62831995Y-94268782D01*
X62737878Y-94409637D01*
X62673049Y-94566147D01*
X62640000Y-94732297D01*
X62085000Y-94732297D01*
X62085000Y-91589853D01*
X65854000Y-91589853D01*
X65854000Y-91910147D01*
X65916486Y-92224287D01*
X66039057Y-92520200D01*
X66217003Y-92786515D01*
X66443485Y-93012997D01*
X66709800Y-93190943D01*
X67005713Y-93313514D01*
X67319853Y-93376000D01*
X67640147Y-93376000D01*
X67954287Y-93313514D01*
X68250200Y-93190943D01*
X68516515Y-93012997D01*
X68742997Y-92786515D01*
X68920943Y-92520200D01*
X69043514Y-92224287D01*
X69106000Y-91910147D01*
X69106000Y-91589853D01*
X69099359Y-91556464D01*
X72295000Y-91556464D01*
X72295000Y-91943536D01*
X72370514Y-92323169D01*
X72518639Y-92680777D01*
X72733685Y-93002615D01*
X73007385Y-93276315D01*
X73329223Y-93491361D01*
X73686831Y-93639486D01*
X74066464Y-93715000D01*
X74453536Y-93715000D01*
X74833169Y-93639486D01*
X75190777Y-93491361D01*
X75512615Y-93276315D01*
X75786315Y-93002615D01*
X76001361Y-92680777D01*
X76149486Y-92323169D01*
X76225000Y-91943536D01*
X76225000Y-91556464D01*
X76149486Y-91176831D01*
X76001361Y-90819223D01*
X75786315Y-90497385D01*
X75512615Y-90223685D01*
X75190777Y-90008639D01*
X74833169Y-89860514D01*
X74778910Y-89849721D01*
X119785000Y-89849721D01*
X119785000Y-90270279D01*
X119867047Y-90682756D01*
X120027988Y-91071302D01*
X120261637Y-91420983D01*
X120559017Y-91718363D01*
X120908698Y-91952012D01*
X121297244Y-92112953D01*
X121709721Y-92195000D01*
X122130279Y-92195000D01*
X122542756Y-92112953D01*
X122931302Y-91952012D01*
X123280983Y-91718363D01*
X123578363Y-91420983D01*
X123812012Y-91071302D01*
X123972953Y-90682756D01*
X124055000Y-90270279D01*
X124055000Y-89849721D01*
X123972953Y-89437244D01*
X123812012Y-89048698D01*
X123578363Y-88699017D01*
X123280983Y-88401637D01*
X122931302Y-88167988D01*
X122542756Y-88007047D01*
X122130279Y-87925000D01*
X121709721Y-87925000D01*
X121297244Y-88007047D01*
X120908698Y-88167988D01*
X120559017Y-88401637D01*
X120261637Y-88699017D01*
X120027988Y-89048698D01*
X119867047Y-89437244D01*
X119785000Y-89849721D01*
X74778910Y-89849721D01*
X74453536Y-89785000D01*
X74066464Y-89785000D01*
X73686831Y-89860514D01*
X73329223Y-90008639D01*
X73007385Y-90223685D01*
X72733685Y-90497385D01*
X72518639Y-90819223D01*
X72370514Y-91176831D01*
X72295000Y-91556464D01*
X69099359Y-91556464D01*
X69043514Y-91275713D01*
X68920943Y-90979800D01*
X68742997Y-90713485D01*
X68516515Y-90487003D01*
X68250200Y-90309057D01*
X67954287Y-90186486D01*
X67640147Y-90124000D01*
X67319853Y-90124000D01*
X67005713Y-90186486D01*
X66709800Y-90309057D01*
X66443485Y-90487003D01*
X66217003Y-90713485D01*
X66039057Y-90979800D01*
X65916486Y-91275713D01*
X65854000Y-91589853D01*
X62085000Y-91589853D01*
X62085000Y-83366052D01*
X65340000Y-83366052D01*
X65340000Y-83633948D01*
X65392264Y-83896697D01*
X65494784Y-84144201D01*
X65643619Y-84366949D01*
X65833051Y-84556381D01*
X66055799Y-84705216D01*
X66303303Y-84807736D01*
X66566052Y-84860000D01*
X66833948Y-84860000D01*
X67096697Y-84807736D01*
X67344201Y-84705216D01*
X67566949Y-84556381D01*
X67756381Y-84366949D01*
X67905216Y-84144201D01*
X68000031Y-83915297D01*
X77540000Y-83915297D01*
X77540000Y-84084703D01*
X77573049Y-84250853D01*
X77637878Y-84407363D01*
X77731995Y-84548218D01*
X77851782Y-84668005D01*
X77974495Y-84750000D01*
X77851782Y-84831995D01*
X77731995Y-84951782D01*
X77637878Y-85092637D01*
X77573049Y-85249147D01*
X77540000Y-85415297D01*
X77540000Y-85584703D01*
X77573049Y-85750853D01*
X77637878Y-85907363D01*
X77731995Y-86048218D01*
X77851782Y-86168005D01*
X77974495Y-86250000D01*
X77851782Y-86331995D01*
X77731995Y-86451782D01*
X77637878Y-86592637D01*
X77573049Y-86749147D01*
X77540000Y-86915297D01*
X77540000Y-87084703D01*
X77573049Y-87250853D01*
X77637878Y-87407363D01*
X77731995Y-87548218D01*
X77851782Y-87668005D01*
X77974495Y-87750000D01*
X77851782Y-87831995D01*
X77731995Y-87951782D01*
X77637878Y-88092637D01*
X77573049Y-88249147D01*
X77540000Y-88415297D01*
X77540000Y-88584703D01*
X77573049Y-88750853D01*
X77637878Y-88907363D01*
X77731995Y-89048218D01*
X77851782Y-89168005D01*
X77992637Y-89262122D01*
X78149147Y-89326951D01*
X78315297Y-89360000D01*
X78484703Y-89360000D01*
X78650853Y-89326951D01*
X78807363Y-89262122D01*
X78948218Y-89168005D01*
X79068005Y-89048218D01*
X79162122Y-88907363D01*
X79226951Y-88750853D01*
X79260000Y-88584703D01*
X79260000Y-88415297D01*
X79226951Y-88249147D01*
X79162122Y-88092637D01*
X79068005Y-87951782D01*
X78948218Y-87831995D01*
X78825505Y-87750000D01*
X78948218Y-87668005D01*
X79068005Y-87548218D01*
X79162122Y-87407363D01*
X79226951Y-87250853D01*
X79260000Y-87084703D01*
X79260000Y-86915297D01*
X79226951Y-86749147D01*
X79162122Y-86592637D01*
X79068005Y-86451782D01*
X78948218Y-86331995D01*
X78825505Y-86250000D01*
X78948218Y-86168005D01*
X79068005Y-86048218D01*
X79162122Y-85907363D01*
X79226951Y-85750853D01*
X79260000Y-85584703D01*
X79260000Y-85415297D01*
X79226951Y-85249147D01*
X79162122Y-85092637D01*
X79068005Y-84951782D01*
X78948218Y-84831995D01*
X78825505Y-84750000D01*
X78948218Y-84668005D01*
X79068005Y-84548218D01*
X79162122Y-84407363D01*
X79226951Y-84250853D01*
X79260000Y-84084703D01*
X79260000Y-83915297D01*
X79226951Y-83749147D01*
X79162122Y-83592637D01*
X79068005Y-83451782D01*
X78948218Y-83331995D01*
X78807363Y-83237878D01*
X78650853Y-83173049D01*
X78484703Y-83140000D01*
X78315297Y-83140000D01*
X78149147Y-83173049D01*
X77992637Y-83237878D01*
X77851782Y-83331995D01*
X77731995Y-83451782D01*
X77637878Y-83592637D01*
X77573049Y-83749147D01*
X77540000Y-83915297D01*
X68000031Y-83915297D01*
X68007736Y-83896697D01*
X68060000Y-83633948D01*
X68060000Y-83366052D01*
X68007736Y-83103303D01*
X67905216Y-82855799D01*
X67756381Y-82633051D01*
X67566949Y-82443619D01*
X67344201Y-82294784D01*
X67096697Y-82192264D01*
X66833948Y-82140000D01*
X66566052Y-82140000D01*
X66303303Y-82192264D01*
X66055799Y-82294784D01*
X65833051Y-82443619D01*
X65643619Y-82633051D01*
X65494784Y-82855799D01*
X65392264Y-83103303D01*
X65340000Y-83366052D01*
X62085000Y-83366052D01*
X62085000Y-81415297D01*
X77540000Y-81415297D01*
X77540000Y-81584703D01*
X77573049Y-81750853D01*
X77637878Y-81907363D01*
X77731995Y-82048218D01*
X77851782Y-82168005D01*
X77992637Y-82262122D01*
X78149147Y-82326951D01*
X78315297Y-82360000D01*
X78484703Y-82360000D01*
X78650853Y-82326951D01*
X78807363Y-82262122D01*
X78948218Y-82168005D01*
X79068005Y-82048218D01*
X79162122Y-81907363D01*
X79226951Y-81750853D01*
X79260000Y-81584703D01*
X79260000Y-81415297D01*
X79226951Y-81249147D01*
X79162122Y-81092637D01*
X79068005Y-80951782D01*
X78948218Y-80831995D01*
X78807363Y-80737878D01*
X78752849Y-80715297D01*
X100840000Y-80715297D01*
X100840000Y-80884703D01*
X100873049Y-81050853D01*
X100937878Y-81207363D01*
X101031995Y-81348218D01*
X101151782Y-81468005D01*
X101292637Y-81562122D01*
X101449147Y-81626951D01*
X101615297Y-81660000D01*
X101784703Y-81660000D01*
X101950853Y-81626951D01*
X102107363Y-81562122D01*
X102248218Y-81468005D01*
X102368005Y-81348218D01*
X102462122Y-81207363D01*
X102526951Y-81050853D01*
X102553914Y-80915297D01*
X107390000Y-80915297D01*
X107390000Y-81084703D01*
X107423049Y-81250853D01*
X107487878Y-81407363D01*
X107581995Y-81548218D01*
X107701782Y-81668005D01*
X107842637Y-81762122D01*
X107999147Y-81826951D01*
X108165297Y-81860000D01*
X108334703Y-81860000D01*
X108500853Y-81826951D01*
X108657363Y-81762122D01*
X108798218Y-81668005D01*
X108918005Y-81548218D01*
X109012122Y-81407363D01*
X109076951Y-81250853D01*
X109110000Y-81084703D01*
X109110000Y-80915297D01*
X109076951Y-80749147D01*
X109012122Y-80592637D01*
X108918005Y-80451782D01*
X108798218Y-80331995D01*
X108657363Y-80237878D01*
X108500853Y-80173049D01*
X108461881Y-80165297D01*
X109140000Y-80165297D01*
X109140000Y-80334703D01*
X109173049Y-80500853D01*
X109237878Y-80657363D01*
X109331995Y-80798218D01*
X109451782Y-80918005D01*
X109592637Y-81012122D01*
X109749147Y-81076951D01*
X109915297Y-81110000D01*
X110084703Y-81110000D01*
X110250853Y-81076951D01*
X110407363Y-81012122D01*
X110548218Y-80918005D01*
X110668005Y-80798218D01*
X110762122Y-80657363D01*
X110826951Y-80500853D01*
X110860000Y-80334703D01*
X110860000Y-80165297D01*
X110826951Y-79999147D01*
X110762122Y-79842637D01*
X110668005Y-79701782D01*
X110548218Y-79581995D01*
X110407363Y-79487878D01*
X110250853Y-79423049D01*
X110084703Y-79390000D01*
X109915297Y-79390000D01*
X109749147Y-79423049D01*
X109592637Y-79487878D01*
X109451782Y-79581995D01*
X109331995Y-79701782D01*
X109237878Y-79842637D01*
X109173049Y-79999147D01*
X109140000Y-80165297D01*
X108461881Y-80165297D01*
X108334703Y-80140000D01*
X108165297Y-80140000D01*
X107999147Y-80173049D01*
X107842637Y-80237878D01*
X107701782Y-80331995D01*
X107581995Y-80451782D01*
X107487878Y-80592637D01*
X107423049Y-80749147D01*
X107390000Y-80915297D01*
X102553914Y-80915297D01*
X102560000Y-80884703D01*
X102560000Y-80715297D01*
X102526951Y-80549147D01*
X102462122Y-80392637D01*
X102368005Y-80251782D01*
X102248218Y-80131995D01*
X102107363Y-80037878D01*
X101950853Y-79973049D01*
X101784703Y-79940000D01*
X101615297Y-79940000D01*
X101449147Y-79973049D01*
X101292637Y-80037878D01*
X101151782Y-80131995D01*
X101031995Y-80251782D01*
X100937878Y-80392637D01*
X100873049Y-80549147D01*
X100840000Y-80715297D01*
X78752849Y-80715297D01*
X78650853Y-80673049D01*
X78484703Y-80640000D01*
X78315297Y-80640000D01*
X78149147Y-80673049D01*
X77992637Y-80737878D01*
X77851782Y-80831995D01*
X77731995Y-80951782D01*
X77637878Y-81092637D01*
X77573049Y-81249147D01*
X77540000Y-81415297D01*
X62085000Y-81415297D01*
X62085000Y-79415297D01*
X84463400Y-79415297D01*
X84463400Y-79584703D01*
X84496449Y-79750853D01*
X84561278Y-79907363D01*
X84655395Y-80048218D01*
X84775182Y-80168005D01*
X84916037Y-80262122D01*
X85072547Y-80326951D01*
X85238697Y-80360000D01*
X85408103Y-80360000D01*
X85574253Y-80326951D01*
X85650000Y-80295575D01*
X85725747Y-80326951D01*
X85891897Y-80360000D01*
X86061303Y-80360000D01*
X86227453Y-80326951D01*
X86383963Y-80262122D01*
X86524818Y-80168005D01*
X86644605Y-80048218D01*
X86738722Y-79907363D01*
X86803551Y-79750853D01*
X86836600Y-79584703D01*
X86836600Y-79415297D01*
X86803551Y-79249147D01*
X86738722Y-79092637D01*
X86644605Y-78951782D01*
X86524818Y-78831995D01*
X86383963Y-78737878D01*
X86227453Y-78673049D01*
X86188481Y-78665297D01*
X105890000Y-78665297D01*
X105890000Y-78834703D01*
X105923049Y-79000853D01*
X105987878Y-79157363D01*
X106081995Y-79298218D01*
X106201782Y-79418005D01*
X106342637Y-79512122D01*
X106499147Y-79576951D01*
X106665297Y-79610000D01*
X106834703Y-79610000D01*
X107000853Y-79576951D01*
X107157363Y-79512122D01*
X107298218Y-79418005D01*
X107418005Y-79298218D01*
X107447825Y-79253589D01*
X117865000Y-79253589D01*
X117865000Y-79526411D01*
X117918225Y-79793989D01*
X118022629Y-80046043D01*
X118174201Y-80272886D01*
X118367114Y-80465799D01*
X118593957Y-80617371D01*
X118696873Y-80660000D01*
X118593957Y-80702629D01*
X118367114Y-80854201D01*
X118174201Y-81047114D01*
X118022629Y-81273957D01*
X117918225Y-81526011D01*
X117865000Y-81793589D01*
X117865000Y-82066411D01*
X117918225Y-82333989D01*
X118022629Y-82586043D01*
X118174201Y-82812886D01*
X118306315Y-82945000D01*
X118174201Y-83077114D01*
X118022629Y-83303957D01*
X117918225Y-83556011D01*
X117865000Y-83823589D01*
X117865000Y-84096411D01*
X117918225Y-84363989D01*
X118022629Y-84616043D01*
X118174201Y-84842886D01*
X118367114Y-85035799D01*
X118593957Y-85187371D01*
X118696873Y-85230000D01*
X118593957Y-85272629D01*
X118367114Y-85424201D01*
X118174201Y-85617114D01*
X118022629Y-85843957D01*
X117918225Y-86096011D01*
X117865000Y-86363589D01*
X117865000Y-86636411D01*
X117918225Y-86903989D01*
X118022629Y-87156043D01*
X118174201Y-87382886D01*
X118367114Y-87575799D01*
X118593957Y-87727371D01*
X118846011Y-87831775D01*
X119113589Y-87885000D01*
X119386411Y-87885000D01*
X119653989Y-87831775D01*
X119906043Y-87727371D01*
X120132886Y-87575799D01*
X120325799Y-87382886D01*
X120477371Y-87156043D01*
X120581775Y-86903989D01*
X120635000Y-86636411D01*
X120635000Y-86363589D01*
X120581775Y-86096011D01*
X120477371Y-85843957D01*
X120325799Y-85617114D01*
X120132886Y-85424201D01*
X119906043Y-85272629D01*
X119803127Y-85230000D01*
X119906043Y-85187371D01*
X120132886Y-85035799D01*
X120325799Y-84842886D01*
X120477371Y-84616043D01*
X120581775Y-84363989D01*
X120635000Y-84096411D01*
X120635000Y-83823589D01*
X120581775Y-83556011D01*
X120477371Y-83303957D01*
X120325799Y-83077114D01*
X120193685Y-82945000D01*
X120325799Y-82812886D01*
X120477371Y-82586043D01*
X120581775Y-82333989D01*
X120635000Y-82066411D01*
X120635000Y-81793589D01*
X120581775Y-81526011D01*
X120477371Y-81273957D01*
X120325799Y-81047114D01*
X120132886Y-80854201D01*
X119906043Y-80702629D01*
X119803127Y-80660000D01*
X119906043Y-80617371D01*
X120132886Y-80465799D01*
X120325799Y-80272886D01*
X120477371Y-80046043D01*
X120581775Y-79793989D01*
X120635000Y-79526411D01*
X120635000Y-79253589D01*
X120581775Y-78986011D01*
X120477371Y-78733957D01*
X120325799Y-78507114D01*
X120132886Y-78314201D01*
X119906043Y-78162629D01*
X119653989Y-78058225D01*
X119386411Y-78005000D01*
X119113589Y-78005000D01*
X118846011Y-78058225D01*
X118593957Y-78162629D01*
X118367114Y-78314201D01*
X118174201Y-78507114D01*
X118022629Y-78733957D01*
X117918225Y-78986011D01*
X117865000Y-79253589D01*
X107447825Y-79253589D01*
X107512122Y-79157363D01*
X107576951Y-79000853D01*
X107610000Y-78834703D01*
X107610000Y-78665297D01*
X107576951Y-78499147D01*
X107512122Y-78342637D01*
X107418005Y-78201782D01*
X107298218Y-78081995D01*
X107157363Y-77987878D01*
X107000853Y-77923049D01*
X106834703Y-77890000D01*
X106665297Y-77890000D01*
X106499147Y-77923049D01*
X106342637Y-77987878D01*
X106201782Y-78081995D01*
X106081995Y-78201782D01*
X105987878Y-78342637D01*
X105923049Y-78499147D01*
X105890000Y-78665297D01*
X86188481Y-78665297D01*
X86061303Y-78640000D01*
X85891897Y-78640000D01*
X85725747Y-78673049D01*
X85650000Y-78704425D01*
X85574253Y-78673049D01*
X85408103Y-78640000D01*
X85238697Y-78640000D01*
X85072547Y-78673049D01*
X84916037Y-78737878D01*
X84775182Y-78831995D01*
X84655395Y-78951782D01*
X84561278Y-79092637D01*
X84496449Y-79249147D01*
X84463400Y-79415297D01*
X62085000Y-79415297D01*
X62085000Y-77915297D01*
X79390000Y-77915297D01*
X79390000Y-78084703D01*
X79423049Y-78250853D01*
X79487878Y-78407363D01*
X79581995Y-78548218D01*
X79701782Y-78668005D01*
X79842637Y-78762122D01*
X79999147Y-78826951D01*
X80165297Y-78860000D01*
X80334703Y-78860000D01*
X80500853Y-78826951D01*
X80657363Y-78762122D01*
X80798218Y-78668005D01*
X80918005Y-78548218D01*
X81012122Y-78407363D01*
X81076951Y-78250853D01*
X81110000Y-78084703D01*
X81110000Y-77915297D01*
X82740000Y-77915297D01*
X82740000Y-78084703D01*
X82773049Y-78250853D01*
X82837878Y-78407363D01*
X82931995Y-78548218D01*
X83051782Y-78668005D01*
X83192637Y-78762122D01*
X83349147Y-78826951D01*
X83515297Y-78860000D01*
X83684703Y-78860000D01*
X83850853Y-78826951D01*
X84007363Y-78762122D01*
X84148218Y-78668005D01*
X84268005Y-78548218D01*
X84362122Y-78407363D01*
X84426951Y-78250853D01*
X84460000Y-78084703D01*
X84460000Y-77915297D01*
X84426951Y-77749147D01*
X84362122Y-77592637D01*
X84268005Y-77451782D01*
X84148218Y-77331995D01*
X84007363Y-77237878D01*
X83850853Y-77173049D01*
X83684703Y-77140000D01*
X83515297Y-77140000D01*
X83349147Y-77173049D01*
X83192637Y-77237878D01*
X83051782Y-77331995D01*
X82931995Y-77451782D01*
X82837878Y-77592637D01*
X82773049Y-77749147D01*
X82740000Y-77915297D01*
X81110000Y-77915297D01*
X81076951Y-77749147D01*
X81012122Y-77592637D01*
X80918005Y-77451782D01*
X80798218Y-77331995D01*
X80657363Y-77237878D01*
X80500853Y-77173049D01*
X80334703Y-77140000D01*
X80165297Y-77140000D01*
X79999147Y-77173049D01*
X79842637Y-77237878D01*
X79701782Y-77331995D01*
X79581995Y-77451782D01*
X79487878Y-77592637D01*
X79423049Y-77749147D01*
X79390000Y-77915297D01*
X62085000Y-77915297D01*
X62085000Y-75089853D01*
X65854000Y-75089853D01*
X65854000Y-75410147D01*
X65916486Y-75724287D01*
X66039057Y-76020200D01*
X66217003Y-76286515D01*
X66443485Y-76512997D01*
X66709800Y-76690943D01*
X67005713Y-76813514D01*
X67319853Y-76876000D01*
X67640147Y-76876000D01*
X67954287Y-76813514D01*
X68250200Y-76690943D01*
X68516515Y-76512997D01*
X68742997Y-76286515D01*
X68920943Y-76020200D01*
X69043514Y-75724287D01*
X69106000Y-75410147D01*
X69106000Y-75089853D01*
X69099359Y-75056464D01*
X72295000Y-75056464D01*
X72295000Y-75443536D01*
X72370514Y-75823169D01*
X72518639Y-76180777D01*
X72733685Y-76502615D01*
X73007385Y-76776315D01*
X73329223Y-76991361D01*
X73686831Y-77139486D01*
X74066464Y-77215000D01*
X74453536Y-77215000D01*
X74833169Y-77139486D01*
X75190777Y-76991361D01*
X75512615Y-76776315D01*
X75786315Y-76502615D01*
X75878068Y-76365297D01*
X98940000Y-76365297D01*
X98940000Y-76534703D01*
X98973049Y-76700853D01*
X99037878Y-76857363D01*
X99131995Y-76998218D01*
X99251782Y-77118005D01*
X99392637Y-77212122D01*
X99549147Y-77276951D01*
X99715297Y-77310000D01*
X99884703Y-77310000D01*
X100050853Y-77276951D01*
X100207363Y-77212122D01*
X100348218Y-77118005D01*
X100468005Y-76998218D01*
X100562122Y-76857363D01*
X100626951Y-76700853D01*
X100660000Y-76534703D01*
X100660000Y-76365297D01*
X100626951Y-76199147D01*
X100562122Y-76042637D01*
X100468005Y-75901782D01*
X100348218Y-75781995D01*
X100207363Y-75687878D01*
X100050853Y-75623049D01*
X99884703Y-75590000D01*
X99715297Y-75590000D01*
X99549147Y-75623049D01*
X99392637Y-75687878D01*
X99251782Y-75781995D01*
X99131995Y-75901782D01*
X99037878Y-76042637D01*
X98973049Y-76199147D01*
X98940000Y-76365297D01*
X75878068Y-76365297D01*
X76001361Y-76180777D01*
X76149486Y-75823169D01*
X76225000Y-75443536D01*
X76225000Y-75056464D01*
X76149486Y-74676831D01*
X76001361Y-74319223D01*
X75786315Y-73997385D01*
X75512615Y-73723685D01*
X75190777Y-73508639D01*
X74833169Y-73360514D01*
X74453536Y-73285000D01*
X74066464Y-73285000D01*
X73686831Y-73360514D01*
X73329223Y-73508639D01*
X73007385Y-73723685D01*
X72733685Y-73997385D01*
X72518639Y-74319223D01*
X72370514Y-74676831D01*
X72295000Y-75056464D01*
X69099359Y-75056464D01*
X69043514Y-74775713D01*
X68920943Y-74479800D01*
X68742997Y-74213485D01*
X68516515Y-73987003D01*
X68250200Y-73809057D01*
X67954287Y-73686486D01*
X67640147Y-73624000D01*
X67319853Y-73624000D01*
X67005713Y-73686486D01*
X66709800Y-73809057D01*
X66443485Y-73987003D01*
X66217003Y-74213485D01*
X66039057Y-74479800D01*
X65916486Y-74775713D01*
X65854000Y-75089853D01*
X62085000Y-75089853D01*
X62085000Y-73165297D01*
X76890000Y-73165297D01*
X76890000Y-73334703D01*
X76923049Y-73500853D01*
X76987878Y-73657363D01*
X77081995Y-73798218D01*
X77201782Y-73918005D01*
X77342637Y-74012122D01*
X77499147Y-74076951D01*
X77665297Y-74110000D01*
X77834703Y-74110000D01*
X78000853Y-74076951D01*
X78157363Y-74012122D01*
X78298218Y-73918005D01*
X78418005Y-73798218D01*
X78512122Y-73657363D01*
X78576951Y-73500853D01*
X78606285Y-73353380D01*
X79898400Y-75076200D01*
X79916890Y-75096030D01*
X79937221Y-75110398D01*
X79959965Y-75120525D01*
X79984248Y-75126019D01*
X81984248Y-75376019D01*
X82000133Y-75377000D01*
X82024907Y-75374534D01*
X83071092Y-75165297D01*
X102390000Y-75165297D01*
X102390000Y-75334703D01*
X102423049Y-75500853D01*
X102487878Y-75657363D01*
X102581995Y-75798218D01*
X102701782Y-75918005D01*
X102842637Y-76012122D01*
X102999147Y-76076951D01*
X103165297Y-76110000D01*
X103334703Y-76110000D01*
X103500853Y-76076951D01*
X103657363Y-76012122D01*
X103798218Y-75918005D01*
X103918005Y-75798218D01*
X104006820Y-75665297D01*
X104390000Y-75665297D01*
X104390000Y-75834703D01*
X104423049Y-76000853D01*
X104487878Y-76157363D01*
X104581995Y-76298218D01*
X104701782Y-76418005D01*
X104842637Y-76512122D01*
X104999147Y-76576951D01*
X105165297Y-76610000D01*
X105334703Y-76610000D01*
X105500853Y-76576951D01*
X105590978Y-76539620D01*
X105623049Y-76700853D01*
X105687878Y-76857363D01*
X105781995Y-76998218D01*
X105901782Y-77118005D01*
X106042637Y-77212122D01*
X106199147Y-77276951D01*
X106365297Y-77310000D01*
X106534703Y-77310000D01*
X106700853Y-77276951D01*
X106857363Y-77212122D01*
X106927441Y-77165297D01*
X108640000Y-77165297D01*
X108640000Y-77334703D01*
X108673049Y-77500853D01*
X108737878Y-77657363D01*
X108831995Y-77798218D01*
X108951782Y-77918005D01*
X109092637Y-78012122D01*
X109249147Y-78076951D01*
X109415297Y-78110000D01*
X109584703Y-78110000D01*
X109750853Y-78076951D01*
X109907363Y-78012122D01*
X110048218Y-77918005D01*
X110168005Y-77798218D01*
X110262122Y-77657363D01*
X110326951Y-77500853D01*
X110360000Y-77334703D01*
X110360000Y-77165297D01*
X110326951Y-76999147D01*
X110262122Y-76842637D01*
X110168005Y-76701782D01*
X110048218Y-76581995D01*
X109907363Y-76487878D01*
X109750853Y-76423049D01*
X109584703Y-76390000D01*
X109415297Y-76390000D01*
X109249147Y-76423049D01*
X109092637Y-76487878D01*
X108951782Y-76581995D01*
X108831995Y-76701782D01*
X108737878Y-76842637D01*
X108673049Y-76999147D01*
X108640000Y-77165297D01*
X106927441Y-77165297D01*
X106998218Y-77118005D01*
X107118005Y-76998218D01*
X107212122Y-76857363D01*
X107276951Y-76700853D01*
X107310000Y-76534703D01*
X107310000Y-76365297D01*
X107276951Y-76199147D01*
X107248194Y-76129721D01*
X119785000Y-76129721D01*
X119785000Y-76550279D01*
X119867047Y-76962756D01*
X120027988Y-77351302D01*
X120261637Y-77700983D01*
X120559017Y-77998363D01*
X120908698Y-78232012D01*
X121297244Y-78392953D01*
X121709721Y-78475000D01*
X122130279Y-78475000D01*
X122542756Y-78392953D01*
X122931302Y-78232012D01*
X123280983Y-77998363D01*
X123578363Y-77700983D01*
X123812012Y-77351302D01*
X123972953Y-76962756D01*
X124055000Y-76550279D01*
X124055000Y-76129721D01*
X123972953Y-75717244D01*
X123812012Y-75328698D01*
X123578363Y-74979017D01*
X123280983Y-74681637D01*
X122931302Y-74447988D01*
X122542756Y-74287047D01*
X122130279Y-74205000D01*
X121709721Y-74205000D01*
X121297244Y-74287047D01*
X120908698Y-74447988D01*
X120559017Y-74681637D01*
X120261637Y-74979017D01*
X120027988Y-75328698D01*
X119867047Y-75717244D01*
X119785000Y-76129721D01*
X107248194Y-76129721D01*
X107212122Y-76042637D01*
X107118005Y-75901782D01*
X106998218Y-75781995D01*
X106857363Y-75687878D01*
X106700853Y-75623049D01*
X106534703Y-75590000D01*
X106365297Y-75590000D01*
X106199147Y-75623049D01*
X106109022Y-75660380D01*
X106076951Y-75499147D01*
X106012122Y-75342637D01*
X105918005Y-75201782D01*
X105881520Y-75165297D01*
X107640000Y-75165297D01*
X107640000Y-75334703D01*
X107673049Y-75500853D01*
X107737878Y-75657363D01*
X107831995Y-75798218D01*
X107951782Y-75918005D01*
X108092637Y-76012122D01*
X108249147Y-76076951D01*
X108415297Y-76110000D01*
X108584703Y-76110000D01*
X108750853Y-76076951D01*
X108907363Y-76012122D01*
X109048218Y-75918005D01*
X109168005Y-75798218D01*
X109262122Y-75657363D01*
X109326951Y-75500853D01*
X109360000Y-75334703D01*
X109360000Y-75165297D01*
X109326951Y-74999147D01*
X109262122Y-74842637D01*
X109168005Y-74701782D01*
X109048218Y-74581995D01*
X108907363Y-74487878D01*
X108750853Y-74423049D01*
X108584703Y-74390000D01*
X108415297Y-74390000D01*
X108249147Y-74423049D01*
X108092637Y-74487878D01*
X107951782Y-74581995D01*
X107831995Y-74701782D01*
X107737878Y-74842637D01*
X107673049Y-74999147D01*
X107640000Y-75165297D01*
X105881520Y-75165297D01*
X105798218Y-75081995D01*
X105657363Y-74987878D01*
X105500853Y-74923049D01*
X105334703Y-74890000D01*
X105165297Y-74890000D01*
X104999147Y-74923049D01*
X104842637Y-74987878D01*
X104701782Y-75081995D01*
X104581995Y-75201782D01*
X104487878Y-75342637D01*
X104423049Y-75499147D01*
X104390000Y-75665297D01*
X104006820Y-75665297D01*
X104012122Y-75657363D01*
X104076951Y-75500853D01*
X104110000Y-75334703D01*
X104110000Y-75165297D01*
X104076951Y-74999147D01*
X104012122Y-74842637D01*
X103918005Y-74701782D01*
X103798218Y-74581995D01*
X103657363Y-74487878D01*
X103500853Y-74423049D01*
X103334703Y-74390000D01*
X103165297Y-74390000D01*
X102999147Y-74423049D01*
X102842637Y-74487878D01*
X102701782Y-74581995D01*
X102581995Y-74701782D01*
X102487878Y-74842637D01*
X102423049Y-74999147D01*
X102390000Y-75165297D01*
X83071092Y-75165297D01*
X84524907Y-74874534D01*
X84550028Y-74866731D01*
X84571840Y-74854729D01*
X84590891Y-74838701D01*
X84606449Y-74819265D01*
X84617917Y-74797167D01*
X85117917Y-73547167D01*
X85125329Y-73520537D01*
X85126927Y-73495692D01*
X85123648Y-73471012D01*
X85115617Y-73447447D01*
X84646458Y-72415297D01*
X100540000Y-72415297D01*
X100540000Y-72584703D01*
X100573049Y-72750853D01*
X100637878Y-72907363D01*
X100731995Y-73048218D01*
X100851782Y-73168005D01*
X100992637Y-73262122D01*
X101149147Y-73326951D01*
X101315297Y-73360000D01*
X101484703Y-73360000D01*
X101650853Y-73326951D01*
X101807363Y-73262122D01*
X101948218Y-73168005D01*
X102068005Y-73048218D01*
X102162122Y-72907363D01*
X102226951Y-72750853D01*
X102260000Y-72584703D01*
X102260000Y-72415297D01*
X102226951Y-72249147D01*
X102162122Y-72092637D01*
X102068005Y-71951782D01*
X101948218Y-71831995D01*
X101807363Y-71737878D01*
X101650853Y-71673049D01*
X101484703Y-71640000D01*
X101315297Y-71640000D01*
X101149147Y-71673049D01*
X100992637Y-71737878D01*
X100851782Y-71831995D01*
X100731995Y-71951782D01*
X100637878Y-72092637D01*
X100573049Y-72249147D01*
X100540000Y-72415297D01*
X84646458Y-72415297D01*
X84010095Y-71015297D01*
X107140000Y-71015297D01*
X107140000Y-71184703D01*
X107173049Y-71350853D01*
X107237878Y-71507363D01*
X107331995Y-71648218D01*
X107451782Y-71768005D01*
X107592637Y-71862122D01*
X107749147Y-71926951D01*
X107915297Y-71960000D01*
X108084703Y-71960000D01*
X108250853Y-71926951D01*
X108407363Y-71862122D01*
X108548218Y-71768005D01*
X108668005Y-71648218D01*
X108729313Y-71556464D01*
X117525000Y-71556464D01*
X117525000Y-71943536D01*
X117600514Y-72323169D01*
X117748639Y-72680777D01*
X117963685Y-73002615D01*
X118237385Y-73276315D01*
X118559223Y-73491361D01*
X118916831Y-73639486D01*
X119296464Y-73715000D01*
X119683536Y-73715000D01*
X120063169Y-73639486D01*
X120420777Y-73491361D01*
X120742615Y-73276315D01*
X121016315Y-73002615D01*
X121231361Y-72680777D01*
X121379486Y-72323169D01*
X121455000Y-71943536D01*
X121455000Y-71589853D01*
X124644000Y-71589853D01*
X124644000Y-71910147D01*
X124706486Y-72224287D01*
X124829057Y-72520200D01*
X125007003Y-72786515D01*
X125233485Y-73012997D01*
X125499800Y-73190943D01*
X125795713Y-73313514D01*
X126109853Y-73376000D01*
X126430147Y-73376000D01*
X126744287Y-73313514D01*
X127040200Y-73190943D01*
X127306515Y-73012997D01*
X127532997Y-72786515D01*
X127710943Y-72520200D01*
X127833514Y-72224287D01*
X127896000Y-71910147D01*
X127896000Y-71589853D01*
X127833514Y-71275713D01*
X127710943Y-70979800D01*
X127532997Y-70713485D01*
X127306515Y-70487003D01*
X127040200Y-70309057D01*
X126744287Y-70186486D01*
X126430147Y-70124000D01*
X126109853Y-70124000D01*
X125795713Y-70186486D01*
X125499800Y-70309057D01*
X125233485Y-70487003D01*
X125007003Y-70713485D01*
X124829057Y-70979800D01*
X124706486Y-71275713D01*
X124644000Y-71589853D01*
X121455000Y-71589853D01*
X121455000Y-71556464D01*
X121379486Y-71176831D01*
X121231361Y-70819223D01*
X121016315Y-70497385D01*
X120742615Y-70223685D01*
X120420777Y-70008639D01*
X120063169Y-69860514D01*
X119683536Y-69785000D01*
X119296464Y-69785000D01*
X118916831Y-69860514D01*
X118559223Y-70008639D01*
X118237385Y-70223685D01*
X117963685Y-70497385D01*
X117748639Y-70819223D01*
X117600514Y-71176831D01*
X117525000Y-71556464D01*
X108729313Y-71556464D01*
X108762122Y-71507363D01*
X108826951Y-71350853D01*
X108860000Y-71184703D01*
X108860000Y-71015297D01*
X108826951Y-70849147D01*
X108762122Y-70692637D01*
X108668005Y-70551782D01*
X108548218Y-70431995D01*
X108407363Y-70337878D01*
X108250853Y-70273049D01*
X108084703Y-70240000D01*
X107915297Y-70240000D01*
X107749147Y-70273049D01*
X107592637Y-70337878D01*
X107451782Y-70431995D01*
X107331995Y-70551782D01*
X107237878Y-70692637D01*
X107173049Y-70849147D01*
X107140000Y-71015297D01*
X84010095Y-71015297D01*
X83865617Y-70697447D01*
X83856449Y-70680735D01*
X83840891Y-70661299D01*
X83821840Y-70645271D01*
X83800028Y-70633269D01*
X82124760Y-69915297D01*
X101890000Y-69915297D01*
X101890000Y-70084703D01*
X101923049Y-70250853D01*
X101987878Y-70407363D01*
X102081995Y-70548218D01*
X102201782Y-70668005D01*
X102342637Y-70762122D01*
X102499147Y-70826951D01*
X102665297Y-70860000D01*
X102834703Y-70860000D01*
X103000853Y-70826951D01*
X103157363Y-70762122D01*
X103298218Y-70668005D01*
X103418005Y-70548218D01*
X103512122Y-70407363D01*
X103576951Y-70250853D01*
X103610000Y-70084703D01*
X103610000Y-69915297D01*
X103576951Y-69749147D01*
X103512122Y-69592637D01*
X103418005Y-69451782D01*
X103298218Y-69331995D01*
X103157363Y-69237878D01*
X103000853Y-69173049D01*
X102834703Y-69140000D01*
X102665297Y-69140000D01*
X102499147Y-69173049D01*
X102342637Y-69237878D01*
X102201782Y-69331995D01*
X102081995Y-69451782D01*
X101987878Y-69592637D01*
X101923049Y-69749147D01*
X101890000Y-69915297D01*
X82124760Y-69915297D01*
X82050028Y-69883269D01*
X82035346Y-69878018D01*
X82010870Y-69873466D01*
X81985975Y-69873777D01*
X79735975Y-70123777D01*
X79705407Y-70131086D01*
X79683065Y-70142071D01*
X79663295Y-70157203D01*
X79646858Y-70175901D01*
X79634383Y-70197447D01*
X78464452Y-72771295D01*
X78418005Y-72701782D01*
X78298218Y-72581995D01*
X78157363Y-72487878D01*
X78000853Y-72423049D01*
X77834703Y-72390000D01*
X77665297Y-72390000D01*
X77499147Y-72423049D01*
X77342637Y-72487878D01*
X77201782Y-72581995D01*
X77081995Y-72701782D01*
X76987878Y-72842637D01*
X76923049Y-72999147D01*
X76890000Y-73165297D01*
X62085000Y-73165297D01*
X62085000Y-69589853D01*
X65854000Y-69589853D01*
X65854000Y-69910147D01*
X65916486Y-70224287D01*
X66039057Y-70520200D01*
X66217003Y-70786515D01*
X66443485Y-71012997D01*
X66709800Y-71190943D01*
X67005713Y-71313514D01*
X67319853Y-71376000D01*
X67640147Y-71376000D01*
X67954287Y-71313514D01*
X68250200Y-71190943D01*
X68516515Y-71012997D01*
X68742997Y-70786515D01*
X68920943Y-70520200D01*
X69043514Y-70224287D01*
X69106000Y-69910147D01*
X69106000Y-69589853D01*
X69099359Y-69556464D01*
X72295000Y-69556464D01*
X72295000Y-69943536D01*
X72370514Y-70323169D01*
X72518639Y-70680777D01*
X72733685Y-71002615D01*
X73007385Y-71276315D01*
X73329223Y-71491361D01*
X73686831Y-71639486D01*
X74066464Y-71715000D01*
X74453536Y-71715000D01*
X74833169Y-71639486D01*
X75190777Y-71491361D01*
X75512615Y-71276315D01*
X75786315Y-71002615D01*
X76001361Y-70680777D01*
X76149486Y-70323169D01*
X76225000Y-69943536D01*
X76225000Y-69556464D01*
X76149486Y-69176831D01*
X76001361Y-68819223D01*
X75786315Y-68497385D01*
X75512615Y-68223685D01*
X75190777Y-68008639D01*
X74833169Y-67860514D01*
X74453536Y-67785000D01*
X74066464Y-67785000D01*
X73686831Y-67860514D01*
X73329223Y-68008639D01*
X73007385Y-68223685D01*
X72733685Y-68497385D01*
X72518639Y-68819223D01*
X72370514Y-69176831D01*
X72295000Y-69556464D01*
X69099359Y-69556464D01*
X69043514Y-69275713D01*
X68920943Y-68979800D01*
X68742997Y-68713485D01*
X68516515Y-68487003D01*
X68250200Y-68309057D01*
X67954287Y-68186486D01*
X67640147Y-68124000D01*
X67319853Y-68124000D01*
X67005713Y-68186486D01*
X66709800Y-68309057D01*
X66443485Y-68487003D01*
X66217003Y-68713485D01*
X66039057Y-68979800D01*
X65916486Y-69275713D01*
X65854000Y-69589853D01*
X62085000Y-69589853D01*
X62085000Y-61366052D01*
X65340000Y-61366052D01*
X65340000Y-61633948D01*
X65392264Y-61896697D01*
X65494784Y-62144201D01*
X65643619Y-62366949D01*
X65833051Y-62556381D01*
X66055799Y-62705216D01*
X66303303Y-62807736D01*
X66566052Y-62860000D01*
X66833948Y-62860000D01*
X67096697Y-62807736D01*
X67344201Y-62705216D01*
X67566949Y-62556381D01*
X67756381Y-62366949D01*
X67905216Y-62144201D01*
X68000031Y-61915297D01*
X77540000Y-61915297D01*
X77540000Y-62084703D01*
X77573049Y-62250853D01*
X77637878Y-62407363D01*
X77731995Y-62548218D01*
X77851782Y-62668005D01*
X77974495Y-62750000D01*
X77851782Y-62831995D01*
X77731995Y-62951782D01*
X77637878Y-63092637D01*
X77573049Y-63249147D01*
X77540000Y-63415297D01*
X77540000Y-63584703D01*
X77573049Y-63750853D01*
X77637878Y-63907363D01*
X77731995Y-64048218D01*
X77851782Y-64168005D01*
X77974495Y-64250000D01*
X77851782Y-64331995D01*
X77731995Y-64451782D01*
X77637878Y-64592637D01*
X77573049Y-64749147D01*
X77540000Y-64915297D01*
X77540000Y-65084703D01*
X77573049Y-65250853D01*
X77637878Y-65407363D01*
X77731995Y-65548218D01*
X77851782Y-65668005D01*
X77974495Y-65750000D01*
X77851782Y-65831995D01*
X77731995Y-65951782D01*
X77637878Y-66092637D01*
X77573049Y-66249147D01*
X77540000Y-66415297D01*
X77540000Y-66584703D01*
X77573049Y-66750853D01*
X77637878Y-66907363D01*
X77731995Y-67048218D01*
X77851782Y-67168005D01*
X77992637Y-67262122D01*
X78149147Y-67326951D01*
X78315297Y-67360000D01*
X78484703Y-67360000D01*
X78650853Y-67326951D01*
X78807363Y-67262122D01*
X78948218Y-67168005D01*
X79068005Y-67048218D01*
X79156820Y-66915297D01*
X95640000Y-66915297D01*
X95640000Y-67084703D01*
X95673049Y-67250853D01*
X95737878Y-67407363D01*
X95831995Y-67548218D01*
X95951782Y-67668005D01*
X96092637Y-67762122D01*
X96249147Y-67826951D01*
X96415297Y-67860000D01*
X96584703Y-67860000D01*
X96750853Y-67826951D01*
X96907363Y-67762122D01*
X97048218Y-67668005D01*
X97168005Y-67548218D01*
X97262122Y-67407363D01*
X97326951Y-67250853D01*
X97360000Y-67084703D01*
X97360000Y-66915297D01*
X114040000Y-66915297D01*
X114040000Y-67084703D01*
X114073049Y-67250853D01*
X114137878Y-67407363D01*
X114231995Y-67548218D01*
X114351782Y-67668005D01*
X114492637Y-67762122D01*
X114649147Y-67826951D01*
X114815297Y-67860000D01*
X114984703Y-67860000D01*
X115150853Y-67826951D01*
X115307363Y-67762122D01*
X115448218Y-67668005D01*
X115568005Y-67548218D01*
X115662122Y-67407363D01*
X115726951Y-67250853D01*
X115760000Y-67084703D01*
X115760000Y-66915297D01*
X115726951Y-66749147D01*
X115662122Y-66592637D01*
X115568005Y-66451782D01*
X115448218Y-66331995D01*
X115307363Y-66237878D01*
X115150853Y-66173049D01*
X114984703Y-66140000D01*
X114815297Y-66140000D01*
X114649147Y-66173049D01*
X114492637Y-66237878D01*
X114351782Y-66331995D01*
X114231995Y-66451782D01*
X114137878Y-66592637D01*
X114073049Y-66749147D01*
X114040000Y-66915297D01*
X97360000Y-66915297D01*
X97326951Y-66749147D01*
X97262122Y-66592637D01*
X97168005Y-66451782D01*
X97048218Y-66331995D01*
X96907363Y-66237878D01*
X96750853Y-66173049D01*
X96584703Y-66140000D01*
X96415297Y-66140000D01*
X96249147Y-66173049D01*
X96092637Y-66237878D01*
X95951782Y-66331995D01*
X95831995Y-66451782D01*
X95737878Y-66592637D01*
X95673049Y-66749147D01*
X95640000Y-66915297D01*
X79156820Y-66915297D01*
X79162122Y-66907363D01*
X79226951Y-66750853D01*
X79260000Y-66584703D01*
X79260000Y-66415297D01*
X79226951Y-66249147D01*
X79162122Y-66092637D01*
X79068005Y-65951782D01*
X79031520Y-65915297D01*
X87390000Y-65915297D01*
X87390000Y-66084703D01*
X87423049Y-66250853D01*
X87487878Y-66407363D01*
X87581995Y-66548218D01*
X87701782Y-66668005D01*
X87842637Y-66762122D01*
X87999147Y-66826951D01*
X88165297Y-66860000D01*
X88334703Y-66860000D01*
X88500853Y-66826951D01*
X88657363Y-66762122D01*
X88798218Y-66668005D01*
X88918005Y-66548218D01*
X89012122Y-66407363D01*
X89076951Y-66250853D01*
X89110000Y-66084703D01*
X89110000Y-65928495D01*
X98526802Y-65928495D01*
X98526802Y-66097901D01*
X98559851Y-66264051D01*
X98624680Y-66420561D01*
X98718797Y-66561416D01*
X98838584Y-66681203D01*
X98979439Y-66775320D01*
X99135949Y-66840149D01*
X99302099Y-66873198D01*
X99471505Y-66873198D01*
X99637655Y-66840149D01*
X99794165Y-66775320D01*
X99935020Y-66681203D01*
X100054807Y-66561416D01*
X100148924Y-66420561D01*
X100213753Y-66264051D01*
X100246802Y-66097901D01*
X100246802Y-65928495D01*
X100213753Y-65762345D01*
X100148924Y-65605835D01*
X100054807Y-65464980D01*
X100005124Y-65415297D01*
X117540000Y-65415297D01*
X117540000Y-65584703D01*
X117573049Y-65750853D01*
X117637878Y-65907363D01*
X117731995Y-66048218D01*
X117851782Y-66168005D01*
X117992637Y-66262122D01*
X118149147Y-66326951D01*
X118315297Y-66360000D01*
X118484703Y-66360000D01*
X118650853Y-66326951D01*
X118807363Y-66262122D01*
X118948218Y-66168005D01*
X119068005Y-66048218D01*
X119162122Y-65907363D01*
X119226951Y-65750853D01*
X119260000Y-65584703D01*
X119260000Y-65415297D01*
X119226951Y-65249147D01*
X119162122Y-65092637D01*
X119068005Y-64951782D01*
X118948218Y-64831995D01*
X118807363Y-64737878D01*
X118650853Y-64673049D01*
X118484703Y-64640000D01*
X118315297Y-64640000D01*
X118149147Y-64673049D01*
X117992637Y-64737878D01*
X117851782Y-64831995D01*
X117731995Y-64951782D01*
X117637878Y-65092637D01*
X117573049Y-65249147D01*
X117540000Y-65415297D01*
X100005124Y-65415297D01*
X99935020Y-65345193D01*
X99794165Y-65251076D01*
X99637655Y-65186247D01*
X99471505Y-65153198D01*
X99302099Y-65153198D01*
X99135949Y-65186247D01*
X98979439Y-65251076D01*
X98838584Y-65345193D01*
X98718797Y-65464980D01*
X98624680Y-65605835D01*
X98559851Y-65762345D01*
X98526802Y-65928495D01*
X89110000Y-65928495D01*
X89110000Y-65915297D01*
X89076951Y-65749147D01*
X89012122Y-65592637D01*
X88918005Y-65451782D01*
X88798218Y-65331995D01*
X88657363Y-65237878D01*
X88500853Y-65173049D01*
X88334703Y-65140000D01*
X88165297Y-65140000D01*
X87999147Y-65173049D01*
X87842637Y-65237878D01*
X87701782Y-65331995D01*
X87581995Y-65451782D01*
X87487878Y-65592637D01*
X87423049Y-65749147D01*
X87390000Y-65915297D01*
X79031520Y-65915297D01*
X78948218Y-65831995D01*
X78825505Y-65750000D01*
X78948218Y-65668005D01*
X79068005Y-65548218D01*
X79162122Y-65407363D01*
X79226951Y-65250853D01*
X79260000Y-65084703D01*
X79260000Y-64915297D01*
X96140000Y-64915297D01*
X96140000Y-65084703D01*
X96173049Y-65250853D01*
X96237878Y-65407363D01*
X96331995Y-65548218D01*
X96451782Y-65668005D01*
X96592637Y-65762122D01*
X96749147Y-65826951D01*
X96915297Y-65860000D01*
X97084703Y-65860000D01*
X97250853Y-65826951D01*
X97407363Y-65762122D01*
X97548218Y-65668005D01*
X97668005Y-65548218D01*
X97762122Y-65407363D01*
X97826951Y-65250853D01*
X97860000Y-65084703D01*
X97860000Y-64915297D01*
X97826951Y-64749147D01*
X97762122Y-64592637D01*
X97668005Y-64451782D01*
X97548218Y-64331995D01*
X97407363Y-64237878D01*
X97250853Y-64173049D01*
X97084703Y-64140000D01*
X96915297Y-64140000D01*
X96749147Y-64173049D01*
X96592637Y-64237878D01*
X96451782Y-64331995D01*
X96331995Y-64451782D01*
X96237878Y-64592637D01*
X96173049Y-64749147D01*
X96140000Y-64915297D01*
X79260000Y-64915297D01*
X79226951Y-64749147D01*
X79162122Y-64592637D01*
X79068005Y-64451782D01*
X78948218Y-64331995D01*
X78825505Y-64250000D01*
X78948218Y-64168005D01*
X79068005Y-64048218D01*
X79162122Y-63907363D01*
X79226951Y-63750853D01*
X79243968Y-63665297D01*
X89890000Y-63665297D01*
X89890000Y-63834703D01*
X89923049Y-64000853D01*
X89987878Y-64157363D01*
X90081995Y-64298218D01*
X90201782Y-64418005D01*
X90342637Y-64512122D01*
X90499147Y-64576951D01*
X90665297Y-64610000D01*
X90834703Y-64610000D01*
X91000853Y-64576951D01*
X91157363Y-64512122D01*
X91298218Y-64418005D01*
X91418005Y-64298218D01*
X91500000Y-64175505D01*
X91581995Y-64298218D01*
X91701782Y-64418005D01*
X91842637Y-64512122D01*
X91999147Y-64576951D01*
X92165297Y-64610000D01*
X92334703Y-64610000D01*
X92500853Y-64576951D01*
X92657363Y-64512122D01*
X92798218Y-64418005D01*
X92918005Y-64298218D01*
X93000000Y-64175505D01*
X93081995Y-64298218D01*
X93201782Y-64418005D01*
X93342637Y-64512122D01*
X93499147Y-64576951D01*
X93665297Y-64610000D01*
X93834703Y-64610000D01*
X94000853Y-64576951D01*
X94157363Y-64512122D01*
X94298218Y-64418005D01*
X94418005Y-64298218D01*
X94512122Y-64157363D01*
X94576951Y-64000853D01*
X94610000Y-63834703D01*
X94610000Y-63665297D01*
X94576951Y-63499147D01*
X94512122Y-63342637D01*
X94418005Y-63201782D01*
X94298218Y-63081995D01*
X94157363Y-62987878D01*
X94000853Y-62923049D01*
X93834703Y-62890000D01*
X93665297Y-62890000D01*
X93499147Y-62923049D01*
X93342637Y-62987878D01*
X93201782Y-63081995D01*
X93081995Y-63201782D01*
X93000000Y-63324495D01*
X92918005Y-63201782D01*
X92798218Y-63081995D01*
X92657363Y-62987878D01*
X92500853Y-62923049D01*
X92334703Y-62890000D01*
X92165297Y-62890000D01*
X91999147Y-62923049D01*
X91842637Y-62987878D01*
X91701782Y-63081995D01*
X91581995Y-63201782D01*
X91500000Y-63324495D01*
X91418005Y-63201782D01*
X91298218Y-63081995D01*
X91157363Y-62987878D01*
X91000853Y-62923049D01*
X90834703Y-62890000D01*
X90665297Y-62890000D01*
X90499147Y-62923049D01*
X90342637Y-62987878D01*
X90201782Y-63081995D01*
X90081995Y-63201782D01*
X89987878Y-63342637D01*
X89923049Y-63499147D01*
X89890000Y-63665297D01*
X79243968Y-63665297D01*
X79260000Y-63584703D01*
X79260000Y-63415297D01*
X79226951Y-63249147D01*
X79162122Y-63092637D01*
X79068005Y-62951782D01*
X78948218Y-62831995D01*
X78825505Y-62750000D01*
X78948218Y-62668005D01*
X79068005Y-62548218D01*
X79162122Y-62407363D01*
X79226951Y-62250853D01*
X79260000Y-62084703D01*
X79260000Y-61915297D01*
X79226951Y-61749147D01*
X79162122Y-61592637D01*
X79068005Y-61451782D01*
X78948218Y-61331995D01*
X78807363Y-61237878D01*
X78650853Y-61173049D01*
X78484703Y-61140000D01*
X78315297Y-61140000D01*
X78149147Y-61173049D01*
X77992637Y-61237878D01*
X77851782Y-61331995D01*
X77731995Y-61451782D01*
X77637878Y-61592637D01*
X77573049Y-61749147D01*
X77540000Y-61915297D01*
X68000031Y-61915297D01*
X68007736Y-61896697D01*
X68060000Y-61633948D01*
X68060000Y-61366052D01*
X68007736Y-61103303D01*
X67905216Y-60855799D01*
X67756381Y-60633051D01*
X67566949Y-60443619D01*
X67344201Y-60294784D01*
X67096697Y-60192264D01*
X66833948Y-60140000D01*
X66566052Y-60140000D01*
X66303303Y-60192264D01*
X66055799Y-60294784D01*
X65833051Y-60443619D01*
X65643619Y-60633051D01*
X65494784Y-60855799D01*
X65392264Y-61103303D01*
X65340000Y-61366052D01*
X62085000Y-61366052D01*
X62085000Y-59415297D01*
X77540000Y-59415297D01*
X77540000Y-59584703D01*
X77573049Y-59750853D01*
X77637878Y-59907363D01*
X77731995Y-60048218D01*
X77851782Y-60168005D01*
X77992637Y-60262122D01*
X78149147Y-60326951D01*
X78315297Y-60360000D01*
X78484703Y-60360000D01*
X78650853Y-60326951D01*
X78807363Y-60262122D01*
X78948218Y-60168005D01*
X79068005Y-60048218D01*
X79162122Y-59907363D01*
X79226951Y-59750853D01*
X79260000Y-59584703D01*
X79260000Y-59415297D01*
X79226951Y-59249147D01*
X79192219Y-59165297D01*
X88390000Y-59165297D01*
X88390000Y-59334703D01*
X88423049Y-59500853D01*
X88487878Y-59657363D01*
X88581995Y-59798218D01*
X88701782Y-59918005D01*
X88824495Y-60000000D01*
X88701782Y-60081995D01*
X88581995Y-60201782D01*
X88487878Y-60342637D01*
X88423049Y-60499147D01*
X88390000Y-60665297D01*
X88390000Y-60834703D01*
X88423049Y-61000853D01*
X88487878Y-61157363D01*
X88581995Y-61298218D01*
X88701782Y-61418005D01*
X88824495Y-61500000D01*
X88701782Y-61581995D01*
X88581995Y-61701782D01*
X88487878Y-61842637D01*
X88423049Y-61999147D01*
X88390000Y-62165297D01*
X88390000Y-62334703D01*
X88423049Y-62500853D01*
X88487878Y-62657363D01*
X88581995Y-62798218D01*
X88701782Y-62918005D01*
X88842637Y-63012122D01*
X88999147Y-63076951D01*
X89165297Y-63110000D01*
X89334703Y-63110000D01*
X89500853Y-63076951D01*
X89657363Y-63012122D01*
X89798218Y-62918005D01*
X89918005Y-62798218D01*
X90012122Y-62657363D01*
X90076951Y-62500853D01*
X90110000Y-62334703D01*
X90110000Y-62165297D01*
X90076951Y-61999147D01*
X90012122Y-61842637D01*
X89918005Y-61701782D01*
X89881520Y-61665297D01*
X90640000Y-61665297D01*
X90640000Y-61834703D01*
X90673049Y-62000853D01*
X90737878Y-62157363D01*
X90831995Y-62298218D01*
X90951782Y-62418005D01*
X91092637Y-62512122D01*
X91249147Y-62576951D01*
X91415297Y-62610000D01*
X91584703Y-62610000D01*
X91750853Y-62576951D01*
X91907363Y-62512122D01*
X92048218Y-62418005D01*
X92168005Y-62298218D01*
X92262122Y-62157363D01*
X92326951Y-62000853D01*
X92360000Y-61834703D01*
X92360000Y-61665297D01*
X92640000Y-61665297D01*
X92640000Y-61834703D01*
X92673049Y-62000853D01*
X92737878Y-62157363D01*
X92831995Y-62298218D01*
X92951782Y-62418005D01*
X93092637Y-62512122D01*
X93249147Y-62576951D01*
X93415297Y-62610000D01*
X93584703Y-62610000D01*
X93750853Y-62576951D01*
X93907363Y-62512122D01*
X94048218Y-62418005D01*
X94168005Y-62298218D01*
X94262122Y-62157363D01*
X94326951Y-62000853D01*
X94360000Y-61834703D01*
X94360000Y-61665297D01*
X94326951Y-61499147D01*
X94262122Y-61342637D01*
X94168005Y-61201782D01*
X94048218Y-61081995D01*
X93907363Y-60987878D01*
X93750853Y-60923049D01*
X93584703Y-60890000D01*
X93415297Y-60890000D01*
X93249147Y-60923049D01*
X93092637Y-60987878D01*
X92951782Y-61081995D01*
X92831995Y-61201782D01*
X92737878Y-61342637D01*
X92673049Y-61499147D01*
X92640000Y-61665297D01*
X92360000Y-61665297D01*
X92326951Y-61499147D01*
X92262122Y-61342637D01*
X92168005Y-61201782D01*
X92048218Y-61081995D01*
X91907363Y-60987878D01*
X91750853Y-60923049D01*
X91584703Y-60890000D01*
X91415297Y-60890000D01*
X91249147Y-60923049D01*
X91092637Y-60987878D01*
X90951782Y-61081995D01*
X90831995Y-61201782D01*
X90737878Y-61342637D01*
X90673049Y-61499147D01*
X90640000Y-61665297D01*
X89881520Y-61665297D01*
X89798218Y-61581995D01*
X89675505Y-61500000D01*
X89798218Y-61418005D01*
X89918005Y-61298218D01*
X90012122Y-61157363D01*
X90076951Y-61000853D01*
X90110000Y-60834703D01*
X90110000Y-60665297D01*
X90076951Y-60499147D01*
X90012122Y-60342637D01*
X89918005Y-60201782D01*
X89798218Y-60081995D01*
X89675505Y-60000000D01*
X89798218Y-59918005D01*
X89918005Y-59798218D01*
X90012122Y-59657363D01*
X90076951Y-59500853D01*
X90110000Y-59334703D01*
X90110000Y-59165297D01*
X90640000Y-59165297D01*
X90640000Y-59334703D01*
X90673049Y-59500853D01*
X90737878Y-59657363D01*
X90831995Y-59798218D01*
X90951782Y-59918005D01*
X91092637Y-60012122D01*
X91249147Y-60076951D01*
X91415297Y-60110000D01*
X91584703Y-60110000D01*
X91750853Y-60076951D01*
X91907363Y-60012122D01*
X92048218Y-59918005D01*
X92168005Y-59798218D01*
X92262122Y-59657363D01*
X92326951Y-59500853D01*
X92360000Y-59334703D01*
X92360000Y-59165297D01*
X92640000Y-59165297D01*
X92640000Y-59334703D01*
X92673049Y-59500853D01*
X92737878Y-59657363D01*
X92831995Y-59798218D01*
X92951782Y-59918005D01*
X93092637Y-60012122D01*
X93249147Y-60076951D01*
X93415297Y-60110000D01*
X93584703Y-60110000D01*
X93750853Y-60076951D01*
X93907363Y-60012122D01*
X94048218Y-59918005D01*
X94168005Y-59798218D01*
X94262122Y-59657363D01*
X94326951Y-59500853D01*
X94360000Y-59334703D01*
X94360000Y-59165297D01*
X94890000Y-59165297D01*
X94890000Y-59334703D01*
X94923049Y-59500853D01*
X94987878Y-59657363D01*
X95081995Y-59798218D01*
X95201782Y-59918005D01*
X95324495Y-60000000D01*
X95201782Y-60081995D01*
X95081995Y-60201782D01*
X94987878Y-60342637D01*
X94923049Y-60499147D01*
X94890000Y-60665297D01*
X94890000Y-60834703D01*
X94923049Y-61000853D01*
X94987878Y-61157363D01*
X95081995Y-61298218D01*
X95201782Y-61418005D01*
X95324495Y-61500000D01*
X95201782Y-61581995D01*
X95081995Y-61701782D01*
X94987878Y-61842637D01*
X94923049Y-61999147D01*
X94890000Y-62165297D01*
X94890000Y-62334703D01*
X94923049Y-62500853D01*
X94987878Y-62657363D01*
X95081995Y-62798218D01*
X95201782Y-62918005D01*
X95342637Y-63012122D01*
X95499147Y-63076951D01*
X95665297Y-63110000D01*
X95834703Y-63110000D01*
X96000853Y-63076951D01*
X96157363Y-63012122D01*
X96298218Y-62918005D01*
X96418005Y-62798218D01*
X96512122Y-62657363D01*
X96576951Y-62500853D01*
X96610000Y-62334703D01*
X96610000Y-62165297D01*
X96576951Y-61999147D01*
X96512122Y-61842637D01*
X96418005Y-61701782D01*
X96298218Y-61581995D01*
X96175505Y-61500000D01*
X96298218Y-61418005D01*
X96418005Y-61298218D01*
X96512122Y-61157363D01*
X96576951Y-61000853D01*
X96610000Y-60834703D01*
X96610000Y-60665297D01*
X96576951Y-60499147D01*
X96512122Y-60342637D01*
X96418005Y-60201782D01*
X96298218Y-60081995D01*
X96175505Y-60000000D01*
X96298218Y-59918005D01*
X96418005Y-59798218D01*
X96512122Y-59657363D01*
X96576951Y-59500853D01*
X96610000Y-59334703D01*
X96610000Y-59165297D01*
X96576951Y-58999147D01*
X96512122Y-58842637D01*
X96418005Y-58701782D01*
X96298218Y-58581995D01*
X96157363Y-58487878D01*
X96000853Y-58423049D01*
X95961881Y-58415297D01*
X114540000Y-58415297D01*
X114540000Y-58584703D01*
X114573049Y-58750853D01*
X114637878Y-58907363D01*
X114731995Y-59048218D01*
X114851782Y-59168005D01*
X114974495Y-59250000D01*
X114851782Y-59331995D01*
X114731995Y-59451782D01*
X114637878Y-59592637D01*
X114573049Y-59749147D01*
X114540000Y-59915297D01*
X114540000Y-60084703D01*
X114573049Y-60250853D01*
X114637878Y-60407363D01*
X114731995Y-60548218D01*
X114851782Y-60668005D01*
X114974495Y-60750000D01*
X114851782Y-60831995D01*
X114731995Y-60951782D01*
X114637878Y-61092637D01*
X114573049Y-61249147D01*
X114540000Y-61415297D01*
X114540000Y-61584703D01*
X114573049Y-61750853D01*
X114637878Y-61907363D01*
X114731995Y-62048218D01*
X114851782Y-62168005D01*
X114974495Y-62250000D01*
X114851782Y-62331995D01*
X114731995Y-62451782D01*
X114637878Y-62592637D01*
X114573049Y-62749147D01*
X114540000Y-62915297D01*
X114540000Y-63084703D01*
X114573049Y-63250853D01*
X114637878Y-63407363D01*
X114731995Y-63548218D01*
X114851782Y-63668005D01*
X114992637Y-63762122D01*
X115149147Y-63826951D01*
X115315297Y-63860000D01*
X115484703Y-63860000D01*
X115650853Y-63826951D01*
X115807363Y-63762122D01*
X115948218Y-63668005D01*
X116068005Y-63548218D01*
X116162122Y-63407363D01*
X116179233Y-63366052D01*
X125690000Y-63366052D01*
X125690000Y-63633948D01*
X125742264Y-63896697D01*
X125844784Y-64144201D01*
X125993619Y-64366949D01*
X126183051Y-64556381D01*
X126405799Y-64705216D01*
X126653303Y-64807736D01*
X126916052Y-64860000D01*
X127183948Y-64860000D01*
X127446697Y-64807736D01*
X127694201Y-64705216D01*
X127916949Y-64556381D01*
X128106381Y-64366949D01*
X128255216Y-64144201D01*
X128357736Y-63896697D01*
X128410000Y-63633948D01*
X128410000Y-63366052D01*
X128357736Y-63103303D01*
X128255216Y-62855799D01*
X128106381Y-62633051D01*
X127916949Y-62443619D01*
X127694201Y-62294784D01*
X127446697Y-62192264D01*
X127183948Y-62140000D01*
X126916052Y-62140000D01*
X126653303Y-62192264D01*
X126405799Y-62294784D01*
X126183051Y-62443619D01*
X125993619Y-62633051D01*
X125844784Y-62855799D01*
X125742264Y-63103303D01*
X125690000Y-63366052D01*
X116179233Y-63366052D01*
X116226951Y-63250853D01*
X116260000Y-63084703D01*
X116260000Y-62915297D01*
X116226951Y-62749147D01*
X116162122Y-62592637D01*
X116068005Y-62451782D01*
X115948218Y-62331995D01*
X115825505Y-62250000D01*
X115948218Y-62168005D01*
X116068005Y-62048218D01*
X116162122Y-61907363D01*
X116226951Y-61750853D01*
X116260000Y-61584703D01*
X116260000Y-61415297D01*
X116226951Y-61249147D01*
X116162122Y-61092637D01*
X116068005Y-60951782D01*
X115948218Y-60831995D01*
X115825505Y-60750000D01*
X115948218Y-60668005D01*
X116068005Y-60548218D01*
X116162122Y-60407363D01*
X116226951Y-60250853D01*
X116260000Y-60084703D01*
X116260000Y-59915297D01*
X116226951Y-59749147D01*
X116162122Y-59592637D01*
X116068005Y-59451782D01*
X115948218Y-59331995D01*
X115825505Y-59250000D01*
X115948218Y-59168005D01*
X116068005Y-59048218D01*
X116162122Y-58907363D01*
X116226951Y-58750853D01*
X116260000Y-58584703D01*
X116260000Y-58415297D01*
X116226951Y-58249147D01*
X116162122Y-58092637D01*
X116068005Y-57951782D01*
X115948218Y-57831995D01*
X115807363Y-57737878D01*
X115650853Y-57673049D01*
X115484703Y-57640000D01*
X115315297Y-57640000D01*
X115149147Y-57673049D01*
X114992637Y-57737878D01*
X114851782Y-57831995D01*
X114731995Y-57951782D01*
X114637878Y-58092637D01*
X114573049Y-58249147D01*
X114540000Y-58415297D01*
X95961881Y-58415297D01*
X95834703Y-58390000D01*
X95665297Y-58390000D01*
X95499147Y-58423049D01*
X95342637Y-58487878D01*
X95201782Y-58581995D01*
X95081995Y-58701782D01*
X94987878Y-58842637D01*
X94923049Y-58999147D01*
X94890000Y-59165297D01*
X94360000Y-59165297D01*
X94326951Y-58999147D01*
X94262122Y-58842637D01*
X94168005Y-58701782D01*
X94048218Y-58581995D01*
X93907363Y-58487878D01*
X93750853Y-58423049D01*
X93584703Y-58390000D01*
X93415297Y-58390000D01*
X93249147Y-58423049D01*
X93092637Y-58487878D01*
X92951782Y-58581995D01*
X92831995Y-58701782D01*
X92737878Y-58842637D01*
X92673049Y-58999147D01*
X92640000Y-59165297D01*
X92360000Y-59165297D01*
X92326951Y-58999147D01*
X92262122Y-58842637D01*
X92168005Y-58701782D01*
X92048218Y-58581995D01*
X91907363Y-58487878D01*
X91750853Y-58423049D01*
X91584703Y-58390000D01*
X91415297Y-58390000D01*
X91249147Y-58423049D01*
X91092637Y-58487878D01*
X90951782Y-58581995D01*
X90831995Y-58701782D01*
X90737878Y-58842637D01*
X90673049Y-58999147D01*
X90640000Y-59165297D01*
X90110000Y-59165297D01*
X90076951Y-58999147D01*
X90012122Y-58842637D01*
X89918005Y-58701782D01*
X89798218Y-58581995D01*
X89657363Y-58487878D01*
X89500853Y-58423049D01*
X89334703Y-58390000D01*
X89165297Y-58390000D01*
X88999147Y-58423049D01*
X88842637Y-58487878D01*
X88701782Y-58581995D01*
X88581995Y-58701782D01*
X88487878Y-58842637D01*
X88423049Y-58999147D01*
X88390000Y-59165297D01*
X79192219Y-59165297D01*
X79162122Y-59092637D01*
X79068005Y-58951782D01*
X78948218Y-58831995D01*
X78807363Y-58737878D01*
X78650853Y-58673049D01*
X78484703Y-58640000D01*
X78315297Y-58640000D01*
X78149147Y-58673049D01*
X77992637Y-58737878D01*
X77851782Y-58831995D01*
X77731995Y-58951782D01*
X77637878Y-59092637D01*
X77573049Y-59249147D01*
X77540000Y-59415297D01*
X62085000Y-59415297D01*
X62085000Y-55349742D01*
X86204028Y-55349742D01*
X86204028Y-55519148D01*
X86237077Y-55685298D01*
X86301906Y-55841808D01*
X86396023Y-55982663D01*
X86515810Y-56102450D01*
X86656665Y-56196567D01*
X86813175Y-56261396D01*
X86979325Y-56294445D01*
X87148731Y-56294445D01*
X87314881Y-56261396D01*
X87390628Y-56230020D01*
X87466375Y-56261396D01*
X87632525Y-56294445D01*
X87801931Y-56294445D01*
X87968081Y-56261396D01*
X88124591Y-56196567D01*
X88265446Y-56102450D01*
X88385233Y-55982663D01*
X88479350Y-55841808D01*
X88544179Y-55685298D01*
X88577228Y-55519148D01*
X88577228Y-55349742D01*
X88570377Y-55315297D01*
X92540000Y-55315297D01*
X92540000Y-55484703D01*
X92573049Y-55650853D01*
X92637878Y-55807363D01*
X92731995Y-55948218D01*
X92851782Y-56068005D01*
X92992637Y-56162122D01*
X93149147Y-56226951D01*
X93315297Y-56260000D01*
X93484703Y-56260000D01*
X93650853Y-56226951D01*
X93807363Y-56162122D01*
X93948218Y-56068005D01*
X94068005Y-55948218D01*
X94162122Y-55807363D01*
X94226951Y-55650853D01*
X94260000Y-55484703D01*
X94260000Y-55315297D01*
X94226951Y-55149147D01*
X94188561Y-55056464D01*
X117525000Y-55056464D01*
X117525000Y-55443536D01*
X117600514Y-55823169D01*
X117748639Y-56180777D01*
X117963685Y-56502615D01*
X118237385Y-56776315D01*
X118559223Y-56991361D01*
X118916831Y-57139486D01*
X119296464Y-57215000D01*
X119683536Y-57215000D01*
X120063169Y-57139486D01*
X120420777Y-56991361D01*
X120742615Y-56776315D01*
X121016315Y-56502615D01*
X121231361Y-56180777D01*
X121379486Y-55823169D01*
X121455000Y-55443536D01*
X121455000Y-55089853D01*
X124644000Y-55089853D01*
X124644000Y-55410147D01*
X124706486Y-55724287D01*
X124829057Y-56020200D01*
X125007003Y-56286515D01*
X125233485Y-56512997D01*
X125499800Y-56690943D01*
X125795713Y-56813514D01*
X126109853Y-56876000D01*
X126430147Y-56876000D01*
X126744287Y-56813514D01*
X127040200Y-56690943D01*
X127306515Y-56512997D01*
X127532997Y-56286515D01*
X127710943Y-56020200D01*
X127833514Y-55724287D01*
X127896000Y-55410147D01*
X127896000Y-55089853D01*
X127833514Y-54775713D01*
X127710943Y-54479800D01*
X127532997Y-54213485D01*
X127306515Y-53987003D01*
X127040200Y-53809057D01*
X126744287Y-53686486D01*
X126430147Y-53624000D01*
X126109853Y-53624000D01*
X125795713Y-53686486D01*
X125499800Y-53809057D01*
X125233485Y-53987003D01*
X125007003Y-54213485D01*
X124829057Y-54479800D01*
X124706486Y-54775713D01*
X124644000Y-55089853D01*
X121455000Y-55089853D01*
X121455000Y-55056464D01*
X121379486Y-54676831D01*
X121231361Y-54319223D01*
X121016315Y-53997385D01*
X120742615Y-53723685D01*
X120420777Y-53508639D01*
X120063169Y-53360514D01*
X119683536Y-53285000D01*
X119296464Y-53285000D01*
X118916831Y-53360514D01*
X118559223Y-53508639D01*
X118237385Y-53723685D01*
X117963685Y-53997385D01*
X117748639Y-54319223D01*
X117600514Y-54676831D01*
X117525000Y-55056464D01*
X94188561Y-55056464D01*
X94162122Y-54992637D01*
X94068005Y-54851782D01*
X93948218Y-54731995D01*
X93807363Y-54637878D01*
X93650853Y-54573049D01*
X93484703Y-54540000D01*
X93315297Y-54540000D01*
X93149147Y-54573049D01*
X92992637Y-54637878D01*
X92851782Y-54731995D01*
X92731995Y-54851782D01*
X92637878Y-54992637D01*
X92573049Y-55149147D01*
X92540000Y-55315297D01*
X88570377Y-55315297D01*
X88544179Y-55183592D01*
X88479350Y-55027082D01*
X88385233Y-54886227D01*
X88265446Y-54766440D01*
X88124591Y-54672323D01*
X87968081Y-54607494D01*
X87801931Y-54574445D01*
X87632525Y-54574445D01*
X87466375Y-54607494D01*
X87390628Y-54638870D01*
X87314881Y-54607494D01*
X87148731Y-54574445D01*
X86979325Y-54574445D01*
X86813175Y-54607494D01*
X86656665Y-54672323D01*
X86515810Y-54766440D01*
X86396023Y-54886227D01*
X86301906Y-55027082D01*
X86237077Y-55183592D01*
X86204028Y-55349742D01*
X62085000Y-55349742D01*
X62085000Y-53089853D01*
X65854000Y-53089853D01*
X65854000Y-53410147D01*
X65916486Y-53724287D01*
X66039057Y-54020200D01*
X66217003Y-54286515D01*
X66443485Y-54512997D01*
X66709800Y-54690943D01*
X67005713Y-54813514D01*
X67319853Y-54876000D01*
X67640147Y-54876000D01*
X67954287Y-54813514D01*
X68250200Y-54690943D01*
X68516515Y-54512997D01*
X68742997Y-54286515D01*
X68920943Y-54020200D01*
X69043514Y-53724287D01*
X69106000Y-53410147D01*
X69106000Y-53089853D01*
X69099359Y-53056464D01*
X72295000Y-53056464D01*
X72295000Y-53443536D01*
X72370514Y-53823169D01*
X72518639Y-54180777D01*
X72733685Y-54502615D01*
X73007385Y-54776315D01*
X73329223Y-54991361D01*
X73686831Y-55139486D01*
X74066464Y-55215000D01*
X74453536Y-55215000D01*
X74833169Y-55139486D01*
X75190777Y-54991361D01*
X75512615Y-54776315D01*
X75786315Y-54502615D01*
X76001361Y-54180777D01*
X76111325Y-53915297D01*
X89813400Y-53915297D01*
X89813400Y-54084703D01*
X89846449Y-54250853D01*
X89911278Y-54407363D01*
X90005395Y-54548218D01*
X90125182Y-54668005D01*
X90266037Y-54762122D01*
X90422547Y-54826951D01*
X90588697Y-54860000D01*
X90758103Y-54860000D01*
X90924253Y-54826951D01*
X91000000Y-54795575D01*
X91075747Y-54826951D01*
X91241897Y-54860000D01*
X91411303Y-54860000D01*
X91577453Y-54826951D01*
X91733963Y-54762122D01*
X91874818Y-54668005D01*
X91994605Y-54548218D01*
X92088722Y-54407363D01*
X92153551Y-54250853D01*
X92186600Y-54084703D01*
X92186600Y-53915297D01*
X92153551Y-53749147D01*
X92088722Y-53592637D01*
X91994605Y-53451782D01*
X91874818Y-53331995D01*
X91733963Y-53237878D01*
X91577453Y-53173049D01*
X91538481Y-53165297D01*
X95140000Y-53165297D01*
X95140000Y-53334703D01*
X95173049Y-53500853D01*
X95237878Y-53657363D01*
X95331995Y-53798218D01*
X95451782Y-53918005D01*
X95592637Y-54012122D01*
X95749147Y-54076951D01*
X95915297Y-54110000D01*
X96084703Y-54110000D01*
X96250853Y-54076951D01*
X96407363Y-54012122D01*
X96548218Y-53918005D01*
X96668005Y-53798218D01*
X96762122Y-53657363D01*
X96804662Y-53554662D01*
X96907363Y-53512122D01*
X97048218Y-53418005D01*
X97168005Y-53298218D01*
X97262122Y-53157363D01*
X97326951Y-53000853D01*
X97360000Y-52834703D01*
X97360000Y-52665297D01*
X97326951Y-52499147D01*
X97262122Y-52342637D01*
X97168005Y-52201782D01*
X97048218Y-52081995D01*
X96907363Y-51987878D01*
X96750853Y-51923049D01*
X96584703Y-51890000D01*
X96415297Y-51890000D01*
X96249147Y-51923049D01*
X96092637Y-51987878D01*
X95951782Y-52081995D01*
X95831995Y-52201782D01*
X95737878Y-52342637D01*
X95695338Y-52445338D01*
X95592637Y-52487878D01*
X95451782Y-52581995D01*
X95331995Y-52701782D01*
X95237878Y-52842637D01*
X95173049Y-52999147D01*
X95140000Y-53165297D01*
X91538481Y-53165297D01*
X91411303Y-53140000D01*
X91241897Y-53140000D01*
X91075747Y-53173049D01*
X91000000Y-53204425D01*
X90924253Y-53173049D01*
X90758103Y-53140000D01*
X90588697Y-53140000D01*
X90422547Y-53173049D01*
X90266037Y-53237878D01*
X90125182Y-53331995D01*
X90005395Y-53451782D01*
X89911278Y-53592637D01*
X89846449Y-53749147D01*
X89813400Y-53915297D01*
X76111325Y-53915297D01*
X76149486Y-53823169D01*
X76225000Y-53443536D01*
X76225000Y-53056464D01*
X76149486Y-52676831D01*
X76001361Y-52319223D01*
X75786315Y-51997385D01*
X75704227Y-51915297D01*
X80213400Y-51915297D01*
X80213400Y-52084703D01*
X80246449Y-52250853D01*
X80311278Y-52407363D01*
X80405395Y-52548218D01*
X80525182Y-52668005D01*
X80666037Y-52762122D01*
X80822547Y-52826951D01*
X80988697Y-52860000D01*
X81158103Y-52860000D01*
X81324253Y-52826951D01*
X81400000Y-52795575D01*
X81475747Y-52826951D01*
X81641897Y-52860000D01*
X81811303Y-52860000D01*
X81977453Y-52826951D01*
X82133963Y-52762122D01*
X82274818Y-52668005D01*
X82394605Y-52548218D01*
X82488722Y-52407363D01*
X82553551Y-52250853D01*
X82586600Y-52084703D01*
X82586600Y-51915297D01*
X82553551Y-51749147D01*
X82488722Y-51592637D01*
X82394605Y-51451782D01*
X82274818Y-51331995D01*
X82133963Y-51237878D01*
X81977453Y-51173049D01*
X81938481Y-51165297D01*
X88344515Y-51165297D01*
X88344515Y-51334703D01*
X88377564Y-51500853D01*
X88442393Y-51657363D01*
X88536510Y-51798218D01*
X88656297Y-51918005D01*
X88797152Y-52012122D01*
X88953662Y-52076951D01*
X89119812Y-52110000D01*
X89289218Y-52110000D01*
X89455368Y-52076951D01*
X89500000Y-52058464D01*
X89544632Y-52076951D01*
X89710782Y-52110000D01*
X89880188Y-52110000D01*
X90046338Y-52076951D01*
X90202848Y-52012122D01*
X90343703Y-51918005D01*
X90463490Y-51798218D01*
X90557607Y-51657363D01*
X90622436Y-51500853D01*
X90655485Y-51334703D01*
X90655485Y-51165297D01*
X90653533Y-51155485D01*
X90734703Y-51155485D01*
X90851071Y-51132338D01*
X90844515Y-51165297D01*
X90844515Y-51334703D01*
X90877564Y-51500853D01*
X90942393Y-51657363D01*
X91036510Y-51798218D01*
X91156297Y-51918005D01*
X91297152Y-52012122D01*
X91453662Y-52076951D01*
X91619812Y-52110000D01*
X91789218Y-52110000D01*
X91955368Y-52076951D01*
X92000000Y-52058464D01*
X92044632Y-52076951D01*
X92210782Y-52110000D01*
X92380188Y-52110000D01*
X92546338Y-52076951D01*
X92702848Y-52012122D01*
X92706324Y-52009799D01*
X92731995Y-52048218D01*
X92851782Y-52168005D01*
X92992637Y-52262122D01*
X93149147Y-52326951D01*
X93315297Y-52360000D01*
X93484703Y-52360000D01*
X93650853Y-52326951D01*
X93807363Y-52262122D01*
X93948218Y-52168005D01*
X94068005Y-52048218D01*
X94162122Y-51907363D01*
X94226951Y-51750853D01*
X94260000Y-51584703D01*
X94260000Y-51415297D01*
X94226951Y-51249147D01*
X94162122Y-51092637D01*
X94068005Y-50951782D01*
X93948218Y-50831995D01*
X93807363Y-50737878D01*
X93650853Y-50673049D01*
X93484703Y-50640000D01*
X93315297Y-50640000D01*
X93149147Y-50673049D01*
X92992637Y-50737878D01*
X92989161Y-50740201D01*
X92963490Y-50701782D01*
X92843703Y-50581995D01*
X92702848Y-50487878D01*
X92546338Y-50423049D01*
X92380188Y-50390000D01*
X92210782Y-50390000D01*
X92044632Y-50423049D01*
X92000000Y-50441536D01*
X91955368Y-50423049D01*
X91789218Y-50390000D01*
X91619812Y-50390000D01*
X91503444Y-50413147D01*
X91510000Y-50380188D01*
X91510000Y-50210782D01*
X91476951Y-50044632D01*
X91458464Y-50000000D01*
X91476951Y-49955368D01*
X91510000Y-49789218D01*
X91510000Y-49619812D01*
X91476951Y-49453662D01*
X91412122Y-49297152D01*
X91318005Y-49156297D01*
X91198218Y-49036510D01*
X91057363Y-48942393D01*
X90900853Y-48877564D01*
X90734703Y-48844515D01*
X90565297Y-48844515D01*
X90399147Y-48877564D01*
X90242637Y-48942393D01*
X90101782Y-49036510D01*
X89981995Y-49156297D01*
X89887878Y-49297152D01*
X89823049Y-49453662D01*
X89790000Y-49619812D01*
X89790000Y-49789218D01*
X89823049Y-49955368D01*
X89841536Y-50000000D01*
X89823049Y-50044632D01*
X89790000Y-50210782D01*
X89790000Y-50380188D01*
X89791952Y-50390000D01*
X89710782Y-50390000D01*
X89544632Y-50423049D01*
X89500000Y-50441536D01*
X89455368Y-50423049D01*
X89289218Y-50390000D01*
X89119812Y-50390000D01*
X88953662Y-50423049D01*
X88797152Y-50487878D01*
X88656297Y-50581995D01*
X88536510Y-50701782D01*
X88442393Y-50842637D01*
X88377564Y-50999147D01*
X88344515Y-51165297D01*
X81938481Y-51165297D01*
X81811303Y-51140000D01*
X81641897Y-51140000D01*
X81475747Y-51173049D01*
X81400000Y-51204425D01*
X81324253Y-51173049D01*
X81158103Y-51140000D01*
X80988697Y-51140000D01*
X80822547Y-51173049D01*
X80666037Y-51237878D01*
X80525182Y-51331995D01*
X80405395Y-51451782D01*
X80311278Y-51592637D01*
X80246449Y-51749147D01*
X80213400Y-51915297D01*
X75704227Y-51915297D01*
X75512615Y-51723685D01*
X75190777Y-51508639D01*
X74833169Y-51360514D01*
X74453536Y-51285000D01*
X74066464Y-51285000D01*
X73686831Y-51360514D01*
X73329223Y-51508639D01*
X73007385Y-51723685D01*
X72733685Y-51997385D01*
X72518639Y-52319223D01*
X72370514Y-52676831D01*
X72295000Y-53056464D01*
X69099359Y-53056464D01*
X69043514Y-52775713D01*
X68920943Y-52479800D01*
X68742997Y-52213485D01*
X68516515Y-51987003D01*
X68250200Y-51809057D01*
X67954287Y-51686486D01*
X67640147Y-51624000D01*
X67319853Y-51624000D01*
X67005713Y-51686486D01*
X66709800Y-51809057D01*
X66443485Y-51987003D01*
X66217003Y-52213485D01*
X66039057Y-52479800D01*
X65916486Y-52775713D01*
X65854000Y-53089853D01*
X62085000Y-53089853D01*
X62085000Y-50098297D01*
X62640000Y-50098297D01*
X62640000Y-50267703D01*
X62673049Y-50433853D01*
X62737878Y-50590363D01*
X62831995Y-50731218D01*
X62951782Y-50851005D01*
X63092637Y-50945122D01*
X63249147Y-51009951D01*
X63415297Y-51043000D01*
X63584703Y-51043000D01*
X63750853Y-51009951D01*
X63907363Y-50945122D01*
X64048218Y-50851005D01*
X64168005Y-50731218D01*
X64262122Y-50590363D01*
X64326951Y-50433853D01*
X64360000Y-50267703D01*
X64360000Y-50098297D01*
X64326951Y-49932147D01*
X64262122Y-49775637D01*
X64168005Y-49634782D01*
X64048218Y-49514995D01*
X63907363Y-49420878D01*
X63750853Y-49356049D01*
X63584703Y-49323000D01*
X63415297Y-49323000D01*
X63249147Y-49356049D01*
X63092637Y-49420878D01*
X62951782Y-49514995D01*
X62831995Y-49634782D01*
X62737878Y-49775637D01*
X62673049Y-49932147D01*
X62640000Y-50098297D01*
X62085000Y-50098297D01*
X62085000Y-48295600D01*
X64640460Y-48295600D01*
X64640460Y-48504240D01*
X64681164Y-48708871D01*
X64761007Y-48901630D01*
X64876921Y-49075108D01*
X65024452Y-49222639D01*
X65197930Y-49338553D01*
X65390689Y-49418396D01*
X65595320Y-49459100D01*
X65803960Y-49459100D01*
X66008591Y-49418396D01*
X66201350Y-49338553D01*
X66374828Y-49222639D01*
X66522359Y-49075108D01*
X66629141Y-48915297D01*
X85390000Y-48915297D01*
X85390000Y-49084703D01*
X85423049Y-49250853D01*
X85487878Y-49407363D01*
X85581995Y-49548218D01*
X85701782Y-49668005D01*
X85842637Y-49762122D01*
X85999147Y-49826951D01*
X86165297Y-49860000D01*
X86334703Y-49860000D01*
X86500853Y-49826951D01*
X86657363Y-49762122D01*
X86798218Y-49668005D01*
X86918005Y-49548218D01*
X87012122Y-49407363D01*
X87076951Y-49250853D01*
X87110000Y-49084703D01*
X87110000Y-48915297D01*
X87076951Y-48749147D01*
X87012122Y-48592637D01*
X86918005Y-48451782D01*
X86798218Y-48331995D01*
X86657363Y-48237878D01*
X86500853Y-48173049D01*
X86334703Y-48140000D01*
X86165297Y-48140000D01*
X85999147Y-48173049D01*
X85842637Y-48237878D01*
X85701782Y-48331995D01*
X85581995Y-48451782D01*
X85487878Y-48592637D01*
X85423049Y-48749147D01*
X85390000Y-48915297D01*
X66629141Y-48915297D01*
X66638273Y-48901630D01*
X66718116Y-48708871D01*
X66758820Y-48504240D01*
X66758820Y-48375043D01*
X66851782Y-48468005D01*
X66992637Y-48562122D01*
X67149147Y-48626951D01*
X67315297Y-48660000D01*
X67484703Y-48660000D01*
X67650853Y-48626951D01*
X67807363Y-48562122D01*
X67948218Y-48468005D01*
X68068005Y-48348218D01*
X68162122Y-48207363D01*
X68226951Y-48050853D01*
X68260000Y-47884703D01*
X68260000Y-47715297D01*
X68226951Y-47549147D01*
X68162122Y-47392637D01*
X68068005Y-47251782D01*
X67981520Y-47165297D01*
X89890000Y-47165297D01*
X89890000Y-47334703D01*
X89923049Y-47500853D01*
X89987878Y-47657363D01*
X90081995Y-47798218D01*
X90201782Y-47918005D01*
X90342637Y-48012122D01*
X90499147Y-48076951D01*
X90665297Y-48110000D01*
X90834703Y-48110000D01*
X91000853Y-48076951D01*
X91157363Y-48012122D01*
X91298218Y-47918005D01*
X91418005Y-47798218D01*
X91512122Y-47657363D01*
X91576951Y-47500853D01*
X91610000Y-47334703D01*
X91610000Y-47165297D01*
X91576951Y-46999147D01*
X91512122Y-46842637D01*
X91418005Y-46701782D01*
X91298218Y-46581995D01*
X91157363Y-46487878D01*
X91000853Y-46423049D01*
X90834703Y-46390000D01*
X90665297Y-46390000D01*
X90499147Y-46423049D01*
X90342637Y-46487878D01*
X90201782Y-46581995D01*
X90081995Y-46701782D01*
X89987878Y-46842637D01*
X89923049Y-46999147D01*
X89890000Y-47165297D01*
X67981520Y-47165297D01*
X67948218Y-47131995D01*
X67807363Y-47037878D01*
X67650853Y-46973049D01*
X67484703Y-46940000D01*
X67315297Y-46940000D01*
X67149147Y-46973049D01*
X66992637Y-47037878D01*
X66851782Y-47131995D01*
X66731995Y-47251782D01*
X66637878Y-47392637D01*
X66573049Y-47549147D01*
X66540000Y-47715297D01*
X66540000Y-47751134D01*
X66522359Y-47724732D01*
X66374828Y-47577201D01*
X66201350Y-47461287D01*
X66008591Y-47381444D01*
X65803960Y-47340740D01*
X65595320Y-47340740D01*
X65390689Y-47381444D01*
X65197930Y-47461287D01*
X65024452Y-47577201D01*
X64876921Y-47724732D01*
X64761007Y-47898210D01*
X64681164Y-48090969D01*
X64640460Y-48295600D01*
X62085000Y-48295600D01*
X62085000Y-46415297D01*
X62640000Y-46415297D01*
X62640000Y-46584703D01*
X62673049Y-46750853D01*
X62737878Y-46907363D01*
X62831995Y-47048218D01*
X62951782Y-47168005D01*
X63092637Y-47262122D01*
X63249147Y-47326951D01*
X63415297Y-47360000D01*
X63584703Y-47360000D01*
X63750853Y-47326951D01*
X63907363Y-47262122D01*
X64048218Y-47168005D01*
X64168005Y-47048218D01*
X64262122Y-46907363D01*
X64326951Y-46750853D01*
X64360000Y-46584703D01*
X64360000Y-46415297D01*
X64326951Y-46249147D01*
X64262122Y-46092637D01*
X64168005Y-45951782D01*
X64048218Y-45831995D01*
X63907363Y-45737878D01*
X63750853Y-45673049D01*
X63584703Y-45640000D01*
X63415297Y-45640000D01*
X63249147Y-45673049D01*
X63092637Y-45737878D01*
X62951782Y-45831995D01*
X62831995Y-45951782D01*
X62737878Y-46092637D01*
X62673049Y-46249147D01*
X62640000Y-46415297D01*
X62085000Y-46415297D01*
X62085000Y-44495760D01*
X64640460Y-44495760D01*
X64640460Y-44704400D01*
X64681164Y-44909031D01*
X64761007Y-45101790D01*
X64876921Y-45275268D01*
X65024452Y-45422799D01*
X65197930Y-45538713D01*
X65390689Y-45618556D01*
X65595320Y-45659260D01*
X65803960Y-45659260D01*
X66008591Y-45618556D01*
X66201350Y-45538713D01*
X66374828Y-45422799D01*
X66522359Y-45275268D01*
X66638273Y-45101790D01*
X66698513Y-44956357D01*
X67931060Y-44956357D01*
X67931060Y-45125763D01*
X67964109Y-45291913D01*
X68028938Y-45448423D01*
X68123055Y-45589278D01*
X68242842Y-45709065D01*
X68383697Y-45803182D01*
X68428330Y-45821670D01*
X68446818Y-45866303D01*
X68540935Y-46007158D01*
X68660722Y-46126945D01*
X68801577Y-46221062D01*
X68958087Y-46285891D01*
X69124237Y-46318940D01*
X69293643Y-46318940D01*
X69459793Y-46285891D01*
X69616303Y-46221062D01*
X69757158Y-46126945D01*
X69876945Y-46007158D01*
X69971062Y-45866303D01*
X70035891Y-45709793D01*
X70068940Y-45543643D01*
X70068940Y-45374237D01*
X70035891Y-45208087D01*
X69971062Y-45051577D01*
X69876945Y-44910722D01*
X69757158Y-44790935D01*
X69616303Y-44696818D01*
X69571670Y-44678330D01*
X69553182Y-44633697D01*
X69459065Y-44492842D01*
X69339278Y-44373055D01*
X69198423Y-44278938D01*
X69041913Y-44214109D01*
X68875763Y-44181060D01*
X68706357Y-44181060D01*
X68540207Y-44214109D01*
X68383697Y-44278938D01*
X68242842Y-44373055D01*
X68123055Y-44492842D01*
X68028938Y-44633697D01*
X67964109Y-44790207D01*
X67931060Y-44956357D01*
X66698513Y-44956357D01*
X66718116Y-44909031D01*
X66758820Y-44704400D01*
X66758820Y-44495760D01*
X66718116Y-44291129D01*
X66638273Y-44098370D01*
X66522359Y-43924892D01*
X66374828Y-43777361D01*
X66201350Y-43661447D01*
X66008591Y-43581604D01*
X65803960Y-43540900D01*
X65595320Y-43540900D01*
X65390689Y-43581604D01*
X65197930Y-43661447D01*
X65024452Y-43777361D01*
X64876921Y-43924892D01*
X64761007Y-44098370D01*
X64681164Y-44291129D01*
X64640460Y-44495760D01*
X62085000Y-44495760D01*
X62085000Y-42732297D01*
X62640000Y-42732297D01*
X62640000Y-42901703D01*
X62673049Y-43067853D01*
X62737878Y-43224363D01*
X62831995Y-43365218D01*
X62951782Y-43485005D01*
X63092637Y-43579122D01*
X63249147Y-43643951D01*
X63415297Y-43677000D01*
X63584703Y-43677000D01*
X63750853Y-43643951D01*
X63907363Y-43579122D01*
X64048218Y-43485005D01*
X64168005Y-43365218D01*
X64262122Y-43224363D01*
X64326951Y-43067853D01*
X64360000Y-42901703D01*
X64360000Y-42732297D01*
X64326951Y-42566147D01*
X64262122Y-42409637D01*
X64168005Y-42268782D01*
X64048218Y-42148995D01*
X63907363Y-42054878D01*
X63750853Y-41990049D01*
X63584703Y-41957000D01*
X63415297Y-41957000D01*
X63249147Y-41990049D01*
X63092637Y-42054878D01*
X62951782Y-42148995D01*
X62831995Y-42268782D01*
X62737878Y-42409637D01*
X62673049Y-42566147D01*
X62640000Y-42732297D01*
X62085000Y-42732297D01*
X62085000Y-42533505D01*
X62113267Y-42245218D01*
X62187259Y-42000145D01*
X62307443Y-41774110D01*
X62469248Y-41575719D01*
X62666497Y-41412540D01*
X62891687Y-41290780D01*
X63136247Y-41215076D01*
X63422398Y-41185000D01*
X90148782Y-41185000D01*
X113694124Y-52113218D01*
X113694124Y-52113218D01*
G37*
X113694124Y-52113218D02*
X113736594Y-52135919D01*
X113787433Y-52151341D01*
X113837591Y-52168879D01*
X113851895Y-52170895D01*
X113865717Y-52175088D01*
X113918597Y-52180296D01*
X113971204Y-52187711D01*
X114019279Y-52185000D01*
X130366495Y-52185000D01*
X130654782Y-52213267D01*
X130899855Y-52287259D01*
X131125890Y-52407443D01*
X131324281Y-52569248D01*
X131487460Y-52766497D01*
X131609220Y-52991687D01*
X131684924Y-53236247D01*
X131715001Y-53522408D01*
X131715000Y-91466495D01*
X131686733Y-91754782D01*
X131612741Y-91999855D01*
X131492554Y-92225893D01*
X131330754Y-92424279D01*
X131133503Y-92587460D01*
X130908310Y-92709221D01*
X130663753Y-92784924D01*
X130377602Y-92815000D01*
X114018153Y-92815000D01*
X113968972Y-92812387D01*
X113917505Y-92819811D01*
X113865717Y-92824912D01*
X113850822Y-92829430D01*
X113835421Y-92831652D01*
X113786381Y-92848978D01*
X113736594Y-92864081D01*
X113693131Y-92887312D01*
X90347617Y-103815000D01*
X63433505Y-103815000D01*
X63145218Y-103786733D01*
X62900145Y-103712741D01*
X62674107Y-103592554D01*
X62475721Y-103430754D01*
X62312540Y-103233503D01*
X62190779Y-103008310D01*
X62115076Y-102763753D01*
X62085000Y-102477602D01*
X62085000Y-102098297D01*
X62640000Y-102098297D01*
X62640000Y-102267703D01*
X62673049Y-102433853D01*
X62737878Y-102590363D01*
X62831995Y-102731218D01*
X62951782Y-102851005D01*
X63092637Y-102945122D01*
X63249147Y-103009951D01*
X63415297Y-103043000D01*
X63584703Y-103043000D01*
X63750853Y-103009951D01*
X63907363Y-102945122D01*
X64048218Y-102851005D01*
X64168005Y-102731218D01*
X64262122Y-102590363D01*
X64326951Y-102433853D01*
X64360000Y-102267703D01*
X64360000Y-102098297D01*
X64326951Y-101932147D01*
X64262122Y-101775637D01*
X64168005Y-101634782D01*
X64048218Y-101514995D01*
X63907363Y-101420878D01*
X63750853Y-101356049D01*
X63584703Y-101323000D01*
X63415297Y-101323000D01*
X63249147Y-101356049D01*
X63092637Y-101420878D01*
X62951782Y-101514995D01*
X62831995Y-101634782D01*
X62737878Y-101775637D01*
X62673049Y-101932147D01*
X62640000Y-102098297D01*
X62085000Y-102098297D01*
X62085000Y-100295600D01*
X64640460Y-100295600D01*
X64640460Y-100504240D01*
X64681164Y-100708871D01*
X64761007Y-100901630D01*
X64876921Y-101075108D01*
X65024452Y-101222639D01*
X65197930Y-101338553D01*
X65390689Y-101418396D01*
X65595320Y-101459100D01*
X65803960Y-101459100D01*
X66008591Y-101418396D01*
X66201350Y-101338553D01*
X66374828Y-101222639D01*
X66522359Y-101075108D01*
X66638273Y-100901630D01*
X66718116Y-100708871D01*
X66726783Y-100665297D01*
X81890000Y-100665297D01*
X81890000Y-100834703D01*
X81923049Y-101000853D01*
X81987878Y-101157363D01*
X82081995Y-101298218D01*
X82201782Y-101418005D01*
X82342637Y-101512122D01*
X82499147Y-101576951D01*
X82665297Y-101610000D01*
X82834703Y-101610000D01*
X83000853Y-101576951D01*
X83157363Y-101512122D01*
X83298218Y-101418005D01*
X83418005Y-101298218D01*
X83512122Y-101157363D01*
X83576951Y-101000853D01*
X83610000Y-100834703D01*
X83610000Y-100665297D01*
X83576951Y-100499147D01*
X83512122Y-100342637D01*
X83418005Y-100201782D01*
X83298218Y-100081995D01*
X83157363Y-99987878D01*
X83000853Y-99923049D01*
X82834703Y-99890000D01*
X82665297Y-99890000D01*
X82499147Y-99923049D01*
X82342637Y-99987878D01*
X82201782Y-100081995D01*
X82081995Y-100201782D01*
X81987878Y-100342637D01*
X81923049Y-100499147D01*
X81890000Y-100665297D01*
X66726783Y-100665297D01*
X66758820Y-100504240D01*
X66758820Y-100295600D01*
X66725266Y-100126916D01*
X66737878Y-100157363D01*
X66831995Y-100298218D01*
X66951782Y-100418005D01*
X67092637Y-100512122D01*
X67249147Y-100576951D01*
X67415297Y-100610000D01*
X67584703Y-100610000D01*
X67750853Y-100576951D01*
X67907363Y-100512122D01*
X68048218Y-100418005D01*
X68168005Y-100298218D01*
X68262122Y-100157363D01*
X68326951Y-100000853D01*
X68360000Y-99834703D01*
X68360000Y-99665297D01*
X68326951Y-99499147D01*
X68262122Y-99342637D01*
X68168005Y-99201782D01*
X68114081Y-99147858D01*
X68242637Y-99233757D01*
X68399147Y-99298586D01*
X68565297Y-99331635D01*
X68734703Y-99331635D01*
X68900853Y-99298586D01*
X69057363Y-99233757D01*
X69198218Y-99139640D01*
X69318005Y-99019853D01*
X69412122Y-98878998D01*
X69476951Y-98722488D01*
X69510000Y-98556338D01*
X69510000Y-98386932D01*
X69476951Y-98220782D01*
X69458464Y-98176150D01*
X69476951Y-98131518D01*
X69510000Y-97965368D01*
X69510000Y-97795962D01*
X69484010Y-97665297D01*
X85140000Y-97665297D01*
X85140000Y-97834703D01*
X85173049Y-98000853D01*
X85237878Y-98157363D01*
X85331995Y-98298218D01*
X85451782Y-98418005D01*
X85592637Y-98512122D01*
X85749147Y-98576951D01*
X85915297Y-98610000D01*
X86084703Y-98610000D01*
X86250853Y-98576951D01*
X86407363Y-98512122D01*
X86548218Y-98418005D01*
X86668005Y-98298218D01*
X86762122Y-98157363D01*
X86826951Y-98000853D01*
X86860000Y-97834703D01*
X86860000Y-97665297D01*
X86826951Y-97499147D01*
X86762122Y-97342637D01*
X86668005Y-97201782D01*
X86548218Y-97081995D01*
X86407363Y-96987878D01*
X86250853Y-96923049D01*
X86084703Y-96890000D01*
X85915297Y-96890000D01*
X85749147Y-96923049D01*
X85592637Y-96987878D01*
X85451782Y-97081995D01*
X85331995Y-97201782D01*
X85237878Y-97342637D01*
X85173049Y-97499147D01*
X85140000Y-97665297D01*
X69484010Y-97665297D01*
X69476951Y-97629812D01*
X69412122Y-97473302D01*
X69318005Y-97332447D01*
X69198218Y-97212660D01*
X69057363Y-97118543D01*
X68900853Y-97053714D01*
X68734703Y-97020665D01*
X68565297Y-97020665D01*
X68399147Y-97053714D01*
X68242637Y-97118543D01*
X68101782Y-97212660D01*
X67981995Y-97332447D01*
X67887878Y-97473302D01*
X67823049Y-97629812D01*
X67790000Y-97795962D01*
X67790000Y-97965368D01*
X67823049Y-98131518D01*
X67841536Y-98176150D01*
X67823049Y-98220782D01*
X67790000Y-98386932D01*
X67790000Y-98556338D01*
X67823049Y-98722488D01*
X67887878Y-98878998D01*
X67981995Y-99019853D01*
X68035919Y-99073777D01*
X67907363Y-98987878D01*
X67750853Y-98923049D01*
X67584703Y-98890000D01*
X67415297Y-98890000D01*
X67249147Y-98923049D01*
X67092637Y-98987878D01*
X66951782Y-99081995D01*
X66831995Y-99201782D01*
X66737878Y-99342637D01*
X66673049Y-99499147D01*
X66640000Y-99665297D01*
X66640000Y-99834703D01*
X66665898Y-99964904D01*
X66638273Y-99898210D01*
X66522359Y-99724732D01*
X66374828Y-99577201D01*
X66201350Y-99461287D01*
X66008591Y-99381444D01*
X65803960Y-99340740D01*
X65595320Y-99340740D01*
X65390689Y-99381444D01*
X65197930Y-99461287D01*
X65024452Y-99577201D01*
X64876921Y-99724732D01*
X64761007Y-99898210D01*
X64681164Y-100090969D01*
X64640460Y-100295600D01*
X62085000Y-100295600D01*
X62085000Y-98415297D01*
X62640000Y-98415297D01*
X62640000Y-98584703D01*
X62673049Y-98750853D01*
X62737878Y-98907363D01*
X62831995Y-99048218D01*
X62951782Y-99168005D01*
X63092637Y-99262122D01*
X63249147Y-99326951D01*
X63415297Y-99360000D01*
X63584703Y-99360000D01*
X63750853Y-99326951D01*
X63907363Y-99262122D01*
X64048218Y-99168005D01*
X64168005Y-99048218D01*
X64262122Y-98907363D01*
X64326951Y-98750853D01*
X64360000Y-98584703D01*
X64360000Y-98415297D01*
X64326951Y-98249147D01*
X64262122Y-98092637D01*
X64168005Y-97951782D01*
X64048218Y-97831995D01*
X63907363Y-97737878D01*
X63750853Y-97673049D01*
X63584703Y-97640000D01*
X63415297Y-97640000D01*
X63249147Y-97673049D01*
X63092637Y-97737878D01*
X62951782Y-97831995D01*
X62831995Y-97951782D01*
X62737878Y-98092637D01*
X62673049Y-98249147D01*
X62640000Y-98415297D01*
X62085000Y-98415297D01*
X62085000Y-96495760D01*
X64640460Y-96495760D01*
X64640460Y-96704400D01*
X64681164Y-96909031D01*
X64761007Y-97101790D01*
X64876921Y-97275268D01*
X65024452Y-97422799D01*
X65197930Y-97538713D01*
X65390689Y-97618556D01*
X65595320Y-97659260D01*
X65803960Y-97659260D01*
X66008591Y-97618556D01*
X66201350Y-97538713D01*
X66374828Y-97422799D01*
X66522359Y-97275268D01*
X66638273Y-97101790D01*
X66718116Y-96909031D01*
X66758820Y-96704400D01*
X66758820Y-96495760D01*
X66718116Y-96291129D01*
X66665995Y-96165297D01*
X86640000Y-96165297D01*
X86640000Y-96334703D01*
X86673049Y-96500853D01*
X86737878Y-96657363D01*
X86831995Y-96798218D01*
X86951782Y-96918005D01*
X87092637Y-97012122D01*
X87249147Y-97076951D01*
X87415297Y-97110000D01*
X87584703Y-97110000D01*
X87750853Y-97076951D01*
X87907363Y-97012122D01*
X88048218Y-96918005D01*
X88168005Y-96798218D01*
X88262122Y-96657363D01*
X88326951Y-96500853D01*
X88360000Y-96334703D01*
X88360000Y-96165297D01*
X88326951Y-95999147D01*
X88292219Y-95915297D01*
X88890000Y-95915297D01*
X88890000Y-96084703D01*
X88923049Y-96250853D01*
X88987878Y-96407363D01*
X89081995Y-96548218D01*
X89201782Y-96668005D01*
X89342637Y-96762122D01*
X89499147Y-96826951D01*
X89665297Y-96860000D01*
X89834703Y-96860000D01*
X90000853Y-96826951D01*
X90157363Y-96762122D01*
X90298218Y-96668005D01*
X90418005Y-96548218D01*
X90512122Y-96407363D01*
X90576951Y-96250853D01*
X90610000Y-96084703D01*
X90610000Y-95915297D01*
X90576951Y-95749147D01*
X90512122Y-95592637D01*
X90418005Y-95451782D01*
X90298218Y-95331995D01*
X90157363Y-95237878D01*
X90000853Y-95173049D01*
X89834703Y-95140000D01*
X89665297Y-95140000D01*
X89499147Y-95173049D01*
X89342637Y-95237878D01*
X89201782Y-95331995D01*
X89081995Y-95451782D01*
X88987878Y-95592637D01*
X88923049Y-95749147D01*
X88890000Y-95915297D01*
X88292219Y-95915297D01*
X88262122Y-95842637D01*
X88168005Y-95701782D01*
X88048218Y-95581995D01*
X87907363Y-95487878D01*
X87750853Y-95423049D01*
X87584703Y-95390000D01*
X87415297Y-95390000D01*
X87249147Y-95423049D01*
X87092637Y-95487878D01*
X86951782Y-95581995D01*
X86831995Y-95701782D01*
X86737878Y-95842637D01*
X86673049Y-95999147D01*
X86640000Y-96165297D01*
X66665995Y-96165297D01*
X66638273Y-96098370D01*
X66522359Y-95924892D01*
X66374828Y-95777361D01*
X66201350Y-95661447D01*
X66008591Y-95581604D01*
X65803960Y-95540900D01*
X65595320Y-95540900D01*
X65390689Y-95581604D01*
X65197930Y-95661447D01*
X65024452Y-95777361D01*
X64876921Y-95924892D01*
X64761007Y-96098370D01*
X64681164Y-96291129D01*
X64640460Y-96495760D01*
X62085000Y-96495760D01*
X62085000Y-94732297D01*
X62640000Y-94732297D01*
X62640000Y-94901703D01*
X62673049Y-95067853D01*
X62737878Y-95224363D01*
X62831995Y-95365218D01*
X62951782Y-95485005D01*
X63092637Y-95579122D01*
X63249147Y-95643951D01*
X63415297Y-95677000D01*
X63584703Y-95677000D01*
X63750853Y-95643951D01*
X63907363Y-95579122D01*
X64048218Y-95485005D01*
X64168005Y-95365218D01*
X64262122Y-95224363D01*
X64326951Y-95067853D01*
X64360000Y-94901703D01*
X64360000Y-94732297D01*
X64326951Y-94566147D01*
X64262122Y-94409637D01*
X64168005Y-94268782D01*
X64048218Y-94148995D01*
X63907363Y-94054878D01*
X63750853Y-93990049D01*
X63584703Y-93957000D01*
X63415297Y-93957000D01*
X63249147Y-93990049D01*
X63092637Y-94054878D01*
X62951782Y-94148995D01*
X62831995Y-94268782D01*
X62737878Y-94409637D01*
X62673049Y-94566147D01*
X62640000Y-94732297D01*
X62085000Y-94732297D01*
X62085000Y-91589853D01*
X65854000Y-91589853D01*
X65854000Y-91910147D01*
X65916486Y-92224287D01*
X66039057Y-92520200D01*
X66217003Y-92786515D01*
X66443485Y-93012997D01*
X66709800Y-93190943D01*
X67005713Y-93313514D01*
X67319853Y-93376000D01*
X67640147Y-93376000D01*
X67954287Y-93313514D01*
X68250200Y-93190943D01*
X68516515Y-93012997D01*
X68742997Y-92786515D01*
X68920943Y-92520200D01*
X69043514Y-92224287D01*
X69106000Y-91910147D01*
X69106000Y-91589853D01*
X69099359Y-91556464D01*
X72295000Y-91556464D01*
X72295000Y-91943536D01*
X72370514Y-92323169D01*
X72518639Y-92680777D01*
X72733685Y-93002615D01*
X73007385Y-93276315D01*
X73329223Y-93491361D01*
X73686831Y-93639486D01*
X74066464Y-93715000D01*
X74453536Y-93715000D01*
X74833169Y-93639486D01*
X75190777Y-93491361D01*
X75512615Y-93276315D01*
X75786315Y-93002615D01*
X76001361Y-92680777D01*
X76149486Y-92323169D01*
X76225000Y-91943536D01*
X76225000Y-91556464D01*
X76149486Y-91176831D01*
X76001361Y-90819223D01*
X75786315Y-90497385D01*
X75512615Y-90223685D01*
X75190777Y-90008639D01*
X74833169Y-89860514D01*
X74778910Y-89849721D01*
X119785000Y-89849721D01*
X119785000Y-90270279D01*
X119867047Y-90682756D01*
X120027988Y-91071302D01*
X120261637Y-91420983D01*
X120559017Y-91718363D01*
X120908698Y-91952012D01*
X121297244Y-92112953D01*
X121709721Y-92195000D01*
X122130279Y-92195000D01*
X122542756Y-92112953D01*
X122931302Y-91952012D01*
X123280983Y-91718363D01*
X123578363Y-91420983D01*
X123812012Y-91071302D01*
X123972953Y-90682756D01*
X124055000Y-90270279D01*
X124055000Y-89849721D01*
X123972953Y-89437244D01*
X123812012Y-89048698D01*
X123578363Y-88699017D01*
X123280983Y-88401637D01*
X122931302Y-88167988D01*
X122542756Y-88007047D01*
X122130279Y-87925000D01*
X121709721Y-87925000D01*
X121297244Y-88007047D01*
X120908698Y-88167988D01*
X120559017Y-88401637D01*
X120261637Y-88699017D01*
X120027988Y-89048698D01*
X119867047Y-89437244D01*
X119785000Y-89849721D01*
X74778910Y-89849721D01*
X74453536Y-89785000D01*
X74066464Y-89785000D01*
X73686831Y-89860514D01*
X73329223Y-90008639D01*
X73007385Y-90223685D01*
X72733685Y-90497385D01*
X72518639Y-90819223D01*
X72370514Y-91176831D01*
X72295000Y-91556464D01*
X69099359Y-91556464D01*
X69043514Y-91275713D01*
X68920943Y-90979800D01*
X68742997Y-90713485D01*
X68516515Y-90487003D01*
X68250200Y-90309057D01*
X67954287Y-90186486D01*
X67640147Y-90124000D01*
X67319853Y-90124000D01*
X67005713Y-90186486D01*
X66709800Y-90309057D01*
X66443485Y-90487003D01*
X66217003Y-90713485D01*
X66039057Y-90979800D01*
X65916486Y-91275713D01*
X65854000Y-91589853D01*
X62085000Y-91589853D01*
X62085000Y-83366052D01*
X65340000Y-83366052D01*
X65340000Y-83633948D01*
X65392264Y-83896697D01*
X65494784Y-84144201D01*
X65643619Y-84366949D01*
X65833051Y-84556381D01*
X66055799Y-84705216D01*
X66303303Y-84807736D01*
X66566052Y-84860000D01*
X66833948Y-84860000D01*
X67096697Y-84807736D01*
X67344201Y-84705216D01*
X67566949Y-84556381D01*
X67756381Y-84366949D01*
X67905216Y-84144201D01*
X68000031Y-83915297D01*
X77540000Y-83915297D01*
X77540000Y-84084703D01*
X77573049Y-84250853D01*
X77637878Y-84407363D01*
X77731995Y-84548218D01*
X77851782Y-84668005D01*
X77974495Y-84750000D01*
X77851782Y-84831995D01*
X77731995Y-84951782D01*
X77637878Y-85092637D01*
X77573049Y-85249147D01*
X77540000Y-85415297D01*
X77540000Y-85584703D01*
X77573049Y-85750853D01*
X77637878Y-85907363D01*
X77731995Y-86048218D01*
X77851782Y-86168005D01*
X77974495Y-86250000D01*
X77851782Y-86331995D01*
X77731995Y-86451782D01*
X77637878Y-86592637D01*
X77573049Y-86749147D01*
X77540000Y-86915297D01*
X77540000Y-87084703D01*
X77573049Y-87250853D01*
X77637878Y-87407363D01*
X77731995Y-87548218D01*
X77851782Y-87668005D01*
X77974495Y-87750000D01*
X77851782Y-87831995D01*
X77731995Y-87951782D01*
X77637878Y-88092637D01*
X77573049Y-88249147D01*
X77540000Y-88415297D01*
X77540000Y-88584703D01*
X77573049Y-88750853D01*
X77637878Y-88907363D01*
X77731995Y-89048218D01*
X77851782Y-89168005D01*
X77992637Y-89262122D01*
X78149147Y-89326951D01*
X78315297Y-89360000D01*
X78484703Y-89360000D01*
X78650853Y-89326951D01*
X78807363Y-89262122D01*
X78948218Y-89168005D01*
X79068005Y-89048218D01*
X79162122Y-88907363D01*
X79226951Y-88750853D01*
X79260000Y-88584703D01*
X79260000Y-88415297D01*
X79226951Y-88249147D01*
X79162122Y-88092637D01*
X79068005Y-87951782D01*
X78948218Y-87831995D01*
X78825505Y-87750000D01*
X78948218Y-87668005D01*
X79068005Y-87548218D01*
X79162122Y-87407363D01*
X79226951Y-87250853D01*
X79260000Y-87084703D01*
X79260000Y-86915297D01*
X79226951Y-86749147D01*
X79162122Y-86592637D01*
X79068005Y-86451782D01*
X78948218Y-86331995D01*
X78825505Y-86250000D01*
X78948218Y-86168005D01*
X79068005Y-86048218D01*
X79162122Y-85907363D01*
X79226951Y-85750853D01*
X79260000Y-85584703D01*
X79260000Y-85415297D01*
X79226951Y-85249147D01*
X79162122Y-85092637D01*
X79068005Y-84951782D01*
X78948218Y-84831995D01*
X78825505Y-84750000D01*
X78948218Y-84668005D01*
X79068005Y-84548218D01*
X79162122Y-84407363D01*
X79226951Y-84250853D01*
X79260000Y-84084703D01*
X79260000Y-83915297D01*
X79226951Y-83749147D01*
X79162122Y-83592637D01*
X79068005Y-83451782D01*
X78948218Y-83331995D01*
X78807363Y-83237878D01*
X78650853Y-83173049D01*
X78484703Y-83140000D01*
X78315297Y-83140000D01*
X78149147Y-83173049D01*
X77992637Y-83237878D01*
X77851782Y-83331995D01*
X77731995Y-83451782D01*
X77637878Y-83592637D01*
X77573049Y-83749147D01*
X77540000Y-83915297D01*
X68000031Y-83915297D01*
X68007736Y-83896697D01*
X68060000Y-83633948D01*
X68060000Y-83366052D01*
X68007736Y-83103303D01*
X67905216Y-82855799D01*
X67756381Y-82633051D01*
X67566949Y-82443619D01*
X67344201Y-82294784D01*
X67096697Y-82192264D01*
X66833948Y-82140000D01*
X66566052Y-82140000D01*
X66303303Y-82192264D01*
X66055799Y-82294784D01*
X65833051Y-82443619D01*
X65643619Y-82633051D01*
X65494784Y-82855799D01*
X65392264Y-83103303D01*
X65340000Y-83366052D01*
X62085000Y-83366052D01*
X62085000Y-81415297D01*
X77540000Y-81415297D01*
X77540000Y-81584703D01*
X77573049Y-81750853D01*
X77637878Y-81907363D01*
X77731995Y-82048218D01*
X77851782Y-82168005D01*
X77992637Y-82262122D01*
X78149147Y-82326951D01*
X78315297Y-82360000D01*
X78484703Y-82360000D01*
X78650853Y-82326951D01*
X78807363Y-82262122D01*
X78948218Y-82168005D01*
X79068005Y-82048218D01*
X79162122Y-81907363D01*
X79226951Y-81750853D01*
X79260000Y-81584703D01*
X79260000Y-81415297D01*
X79226951Y-81249147D01*
X79162122Y-81092637D01*
X79068005Y-80951782D01*
X78948218Y-80831995D01*
X78807363Y-80737878D01*
X78752849Y-80715297D01*
X100840000Y-80715297D01*
X100840000Y-80884703D01*
X100873049Y-81050853D01*
X100937878Y-81207363D01*
X101031995Y-81348218D01*
X101151782Y-81468005D01*
X101292637Y-81562122D01*
X101449147Y-81626951D01*
X101615297Y-81660000D01*
X101784703Y-81660000D01*
X101950853Y-81626951D01*
X102107363Y-81562122D01*
X102248218Y-81468005D01*
X102368005Y-81348218D01*
X102462122Y-81207363D01*
X102526951Y-81050853D01*
X102553914Y-80915297D01*
X107390000Y-80915297D01*
X107390000Y-81084703D01*
X107423049Y-81250853D01*
X107487878Y-81407363D01*
X107581995Y-81548218D01*
X107701782Y-81668005D01*
X107842637Y-81762122D01*
X107999147Y-81826951D01*
X108165297Y-81860000D01*
X108334703Y-81860000D01*
X108500853Y-81826951D01*
X108657363Y-81762122D01*
X108798218Y-81668005D01*
X108918005Y-81548218D01*
X109012122Y-81407363D01*
X109076951Y-81250853D01*
X109110000Y-81084703D01*
X109110000Y-80915297D01*
X109076951Y-80749147D01*
X109012122Y-80592637D01*
X108918005Y-80451782D01*
X108798218Y-80331995D01*
X108657363Y-80237878D01*
X108500853Y-80173049D01*
X108461881Y-80165297D01*
X109140000Y-80165297D01*
X109140000Y-80334703D01*
X109173049Y-80500853D01*
X109237878Y-80657363D01*
X109331995Y-80798218D01*
X109451782Y-80918005D01*
X109592637Y-81012122D01*
X109749147Y-81076951D01*
X109915297Y-81110000D01*
X110084703Y-81110000D01*
X110250853Y-81076951D01*
X110407363Y-81012122D01*
X110548218Y-80918005D01*
X110668005Y-80798218D01*
X110762122Y-80657363D01*
X110826951Y-80500853D01*
X110860000Y-80334703D01*
X110860000Y-80165297D01*
X110826951Y-79999147D01*
X110762122Y-79842637D01*
X110668005Y-79701782D01*
X110548218Y-79581995D01*
X110407363Y-79487878D01*
X110250853Y-79423049D01*
X110084703Y-79390000D01*
X109915297Y-79390000D01*
X109749147Y-79423049D01*
X109592637Y-79487878D01*
X109451782Y-79581995D01*
X109331995Y-79701782D01*
X109237878Y-79842637D01*
X109173049Y-79999147D01*
X109140000Y-80165297D01*
X108461881Y-80165297D01*
X108334703Y-80140000D01*
X108165297Y-80140000D01*
X107999147Y-80173049D01*
X107842637Y-80237878D01*
X107701782Y-80331995D01*
X107581995Y-80451782D01*
X107487878Y-80592637D01*
X107423049Y-80749147D01*
X107390000Y-80915297D01*
X102553914Y-80915297D01*
X102560000Y-80884703D01*
X102560000Y-80715297D01*
X102526951Y-80549147D01*
X102462122Y-80392637D01*
X102368005Y-80251782D01*
X102248218Y-80131995D01*
X102107363Y-80037878D01*
X101950853Y-79973049D01*
X101784703Y-79940000D01*
X101615297Y-79940000D01*
X101449147Y-79973049D01*
X101292637Y-80037878D01*
X101151782Y-80131995D01*
X101031995Y-80251782D01*
X100937878Y-80392637D01*
X100873049Y-80549147D01*
X100840000Y-80715297D01*
X78752849Y-80715297D01*
X78650853Y-80673049D01*
X78484703Y-80640000D01*
X78315297Y-80640000D01*
X78149147Y-80673049D01*
X77992637Y-80737878D01*
X77851782Y-80831995D01*
X77731995Y-80951782D01*
X77637878Y-81092637D01*
X77573049Y-81249147D01*
X77540000Y-81415297D01*
X62085000Y-81415297D01*
X62085000Y-79415297D01*
X84463400Y-79415297D01*
X84463400Y-79584703D01*
X84496449Y-79750853D01*
X84561278Y-79907363D01*
X84655395Y-80048218D01*
X84775182Y-80168005D01*
X84916037Y-80262122D01*
X85072547Y-80326951D01*
X85238697Y-80360000D01*
X85408103Y-80360000D01*
X85574253Y-80326951D01*
X85650000Y-80295575D01*
X85725747Y-80326951D01*
X85891897Y-80360000D01*
X86061303Y-80360000D01*
X86227453Y-80326951D01*
X86383963Y-80262122D01*
X86524818Y-80168005D01*
X86644605Y-80048218D01*
X86738722Y-79907363D01*
X86803551Y-79750853D01*
X86836600Y-79584703D01*
X86836600Y-79415297D01*
X86803551Y-79249147D01*
X86738722Y-79092637D01*
X86644605Y-78951782D01*
X86524818Y-78831995D01*
X86383963Y-78737878D01*
X86227453Y-78673049D01*
X86188481Y-78665297D01*
X105890000Y-78665297D01*
X105890000Y-78834703D01*
X105923049Y-79000853D01*
X105987878Y-79157363D01*
X106081995Y-79298218D01*
X106201782Y-79418005D01*
X106342637Y-79512122D01*
X106499147Y-79576951D01*
X106665297Y-79610000D01*
X106834703Y-79610000D01*
X107000853Y-79576951D01*
X107157363Y-79512122D01*
X107298218Y-79418005D01*
X107418005Y-79298218D01*
X107447825Y-79253589D01*
X117865000Y-79253589D01*
X117865000Y-79526411D01*
X117918225Y-79793989D01*
X118022629Y-80046043D01*
X118174201Y-80272886D01*
X118367114Y-80465799D01*
X118593957Y-80617371D01*
X118696873Y-80660000D01*
X118593957Y-80702629D01*
X118367114Y-80854201D01*
X118174201Y-81047114D01*
X118022629Y-81273957D01*
X117918225Y-81526011D01*
X117865000Y-81793589D01*
X117865000Y-82066411D01*
X117918225Y-82333989D01*
X118022629Y-82586043D01*
X118174201Y-82812886D01*
X118306315Y-82945000D01*
X118174201Y-83077114D01*
X118022629Y-83303957D01*
X117918225Y-83556011D01*
X117865000Y-83823589D01*
X117865000Y-84096411D01*
X117918225Y-84363989D01*
X118022629Y-84616043D01*
X118174201Y-84842886D01*
X118367114Y-85035799D01*
X118593957Y-85187371D01*
X118696873Y-85230000D01*
X118593957Y-85272629D01*
X118367114Y-85424201D01*
X118174201Y-85617114D01*
X118022629Y-85843957D01*
X117918225Y-86096011D01*
X117865000Y-86363589D01*
X117865000Y-86636411D01*
X117918225Y-86903989D01*
X118022629Y-87156043D01*
X118174201Y-87382886D01*
X118367114Y-87575799D01*
X118593957Y-87727371D01*
X118846011Y-87831775D01*
X119113589Y-87885000D01*
X119386411Y-87885000D01*
X119653989Y-87831775D01*
X119906043Y-87727371D01*
X120132886Y-87575799D01*
X120325799Y-87382886D01*
X120477371Y-87156043D01*
X120581775Y-86903989D01*
X120635000Y-86636411D01*
X120635000Y-86363589D01*
X120581775Y-86096011D01*
X120477371Y-85843957D01*
X120325799Y-85617114D01*
X120132886Y-85424201D01*
X119906043Y-85272629D01*
X119803127Y-85230000D01*
X119906043Y-85187371D01*
X120132886Y-85035799D01*
X120325799Y-84842886D01*
X120477371Y-84616043D01*
X120581775Y-84363989D01*
X120635000Y-84096411D01*
X120635000Y-83823589D01*
X120581775Y-83556011D01*
X120477371Y-83303957D01*
X120325799Y-83077114D01*
X120193685Y-82945000D01*
X120325799Y-82812886D01*
X120477371Y-82586043D01*
X120581775Y-82333989D01*
X120635000Y-82066411D01*
X120635000Y-81793589D01*
X120581775Y-81526011D01*
X120477371Y-81273957D01*
X120325799Y-81047114D01*
X120132886Y-80854201D01*
X119906043Y-80702629D01*
X119803127Y-80660000D01*
X119906043Y-80617371D01*
X120132886Y-80465799D01*
X120325799Y-80272886D01*
X120477371Y-80046043D01*
X120581775Y-79793989D01*
X120635000Y-79526411D01*
X120635000Y-79253589D01*
X120581775Y-78986011D01*
X120477371Y-78733957D01*
X120325799Y-78507114D01*
X120132886Y-78314201D01*
X119906043Y-78162629D01*
X119653989Y-78058225D01*
X119386411Y-78005000D01*
X119113589Y-78005000D01*
X118846011Y-78058225D01*
X118593957Y-78162629D01*
X118367114Y-78314201D01*
X118174201Y-78507114D01*
X118022629Y-78733957D01*
X117918225Y-78986011D01*
X117865000Y-79253589D01*
X107447825Y-79253589D01*
X107512122Y-79157363D01*
X107576951Y-79000853D01*
X107610000Y-78834703D01*
X107610000Y-78665297D01*
X107576951Y-78499147D01*
X107512122Y-78342637D01*
X107418005Y-78201782D01*
X107298218Y-78081995D01*
X107157363Y-77987878D01*
X107000853Y-77923049D01*
X106834703Y-77890000D01*
X106665297Y-77890000D01*
X106499147Y-77923049D01*
X106342637Y-77987878D01*
X106201782Y-78081995D01*
X106081995Y-78201782D01*
X105987878Y-78342637D01*
X105923049Y-78499147D01*
X105890000Y-78665297D01*
X86188481Y-78665297D01*
X86061303Y-78640000D01*
X85891897Y-78640000D01*
X85725747Y-78673049D01*
X85650000Y-78704425D01*
X85574253Y-78673049D01*
X85408103Y-78640000D01*
X85238697Y-78640000D01*
X85072547Y-78673049D01*
X84916037Y-78737878D01*
X84775182Y-78831995D01*
X84655395Y-78951782D01*
X84561278Y-79092637D01*
X84496449Y-79249147D01*
X84463400Y-79415297D01*
X62085000Y-79415297D01*
X62085000Y-77915297D01*
X79390000Y-77915297D01*
X79390000Y-78084703D01*
X79423049Y-78250853D01*
X79487878Y-78407363D01*
X79581995Y-78548218D01*
X79701782Y-78668005D01*
X79842637Y-78762122D01*
X79999147Y-78826951D01*
X80165297Y-78860000D01*
X80334703Y-78860000D01*
X80500853Y-78826951D01*
X80657363Y-78762122D01*
X80798218Y-78668005D01*
X80918005Y-78548218D01*
X81012122Y-78407363D01*
X81076951Y-78250853D01*
X81110000Y-78084703D01*
X81110000Y-77915297D01*
X82740000Y-77915297D01*
X82740000Y-78084703D01*
X82773049Y-78250853D01*
X82837878Y-78407363D01*
X82931995Y-78548218D01*
X83051782Y-78668005D01*
X83192637Y-78762122D01*
X83349147Y-78826951D01*
X83515297Y-78860000D01*
X83684703Y-78860000D01*
X83850853Y-78826951D01*
X84007363Y-78762122D01*
X84148218Y-78668005D01*
X84268005Y-78548218D01*
X84362122Y-78407363D01*
X84426951Y-78250853D01*
X84460000Y-78084703D01*
X84460000Y-77915297D01*
X84426951Y-77749147D01*
X84362122Y-77592637D01*
X84268005Y-77451782D01*
X84148218Y-77331995D01*
X84007363Y-77237878D01*
X83850853Y-77173049D01*
X83684703Y-77140000D01*
X83515297Y-77140000D01*
X83349147Y-77173049D01*
X83192637Y-77237878D01*
X83051782Y-77331995D01*
X82931995Y-77451782D01*
X82837878Y-77592637D01*
X82773049Y-77749147D01*
X82740000Y-77915297D01*
X81110000Y-77915297D01*
X81076951Y-77749147D01*
X81012122Y-77592637D01*
X80918005Y-77451782D01*
X80798218Y-77331995D01*
X80657363Y-77237878D01*
X80500853Y-77173049D01*
X80334703Y-77140000D01*
X80165297Y-77140000D01*
X79999147Y-77173049D01*
X79842637Y-77237878D01*
X79701782Y-77331995D01*
X79581995Y-77451782D01*
X79487878Y-77592637D01*
X79423049Y-77749147D01*
X79390000Y-77915297D01*
X62085000Y-77915297D01*
X62085000Y-75089853D01*
X65854000Y-75089853D01*
X65854000Y-75410147D01*
X65916486Y-75724287D01*
X66039057Y-76020200D01*
X66217003Y-76286515D01*
X66443485Y-76512997D01*
X66709800Y-76690943D01*
X67005713Y-76813514D01*
X67319853Y-76876000D01*
X67640147Y-76876000D01*
X67954287Y-76813514D01*
X68250200Y-76690943D01*
X68516515Y-76512997D01*
X68742997Y-76286515D01*
X68920943Y-76020200D01*
X69043514Y-75724287D01*
X69106000Y-75410147D01*
X69106000Y-75089853D01*
X69099359Y-75056464D01*
X72295000Y-75056464D01*
X72295000Y-75443536D01*
X72370514Y-75823169D01*
X72518639Y-76180777D01*
X72733685Y-76502615D01*
X73007385Y-76776315D01*
X73329223Y-76991361D01*
X73686831Y-77139486D01*
X74066464Y-77215000D01*
X74453536Y-77215000D01*
X74833169Y-77139486D01*
X75190777Y-76991361D01*
X75512615Y-76776315D01*
X75786315Y-76502615D01*
X75878068Y-76365297D01*
X98940000Y-76365297D01*
X98940000Y-76534703D01*
X98973049Y-76700853D01*
X99037878Y-76857363D01*
X99131995Y-76998218D01*
X99251782Y-77118005D01*
X99392637Y-77212122D01*
X99549147Y-77276951D01*
X99715297Y-77310000D01*
X99884703Y-77310000D01*
X100050853Y-77276951D01*
X100207363Y-77212122D01*
X100348218Y-77118005D01*
X100468005Y-76998218D01*
X100562122Y-76857363D01*
X100626951Y-76700853D01*
X100660000Y-76534703D01*
X100660000Y-76365297D01*
X100626951Y-76199147D01*
X100562122Y-76042637D01*
X100468005Y-75901782D01*
X100348218Y-75781995D01*
X100207363Y-75687878D01*
X100050853Y-75623049D01*
X99884703Y-75590000D01*
X99715297Y-75590000D01*
X99549147Y-75623049D01*
X99392637Y-75687878D01*
X99251782Y-75781995D01*
X99131995Y-75901782D01*
X99037878Y-76042637D01*
X98973049Y-76199147D01*
X98940000Y-76365297D01*
X75878068Y-76365297D01*
X76001361Y-76180777D01*
X76149486Y-75823169D01*
X76225000Y-75443536D01*
X76225000Y-75056464D01*
X76149486Y-74676831D01*
X76001361Y-74319223D01*
X75786315Y-73997385D01*
X75512615Y-73723685D01*
X75190777Y-73508639D01*
X74833169Y-73360514D01*
X74453536Y-73285000D01*
X74066464Y-73285000D01*
X73686831Y-73360514D01*
X73329223Y-73508639D01*
X73007385Y-73723685D01*
X72733685Y-73997385D01*
X72518639Y-74319223D01*
X72370514Y-74676831D01*
X72295000Y-75056464D01*
X69099359Y-75056464D01*
X69043514Y-74775713D01*
X68920943Y-74479800D01*
X68742997Y-74213485D01*
X68516515Y-73987003D01*
X68250200Y-73809057D01*
X67954287Y-73686486D01*
X67640147Y-73624000D01*
X67319853Y-73624000D01*
X67005713Y-73686486D01*
X66709800Y-73809057D01*
X66443485Y-73987003D01*
X66217003Y-74213485D01*
X66039057Y-74479800D01*
X65916486Y-74775713D01*
X65854000Y-75089853D01*
X62085000Y-75089853D01*
X62085000Y-73165297D01*
X76890000Y-73165297D01*
X76890000Y-73334703D01*
X76923049Y-73500853D01*
X76987878Y-73657363D01*
X77081995Y-73798218D01*
X77201782Y-73918005D01*
X77342637Y-74012122D01*
X77499147Y-74076951D01*
X77665297Y-74110000D01*
X77834703Y-74110000D01*
X78000853Y-74076951D01*
X78157363Y-74012122D01*
X78298218Y-73918005D01*
X78418005Y-73798218D01*
X78512122Y-73657363D01*
X78576951Y-73500853D01*
X78606285Y-73353380D01*
X79898400Y-75076200D01*
X79916890Y-75096030D01*
X79937221Y-75110398D01*
X79959965Y-75120525D01*
X79984248Y-75126019D01*
X81984248Y-75376019D01*
X82000133Y-75377000D01*
X82024907Y-75374534D01*
X83071092Y-75165297D01*
X102390000Y-75165297D01*
X102390000Y-75334703D01*
X102423049Y-75500853D01*
X102487878Y-75657363D01*
X102581995Y-75798218D01*
X102701782Y-75918005D01*
X102842637Y-76012122D01*
X102999147Y-76076951D01*
X103165297Y-76110000D01*
X103334703Y-76110000D01*
X103500853Y-76076951D01*
X103657363Y-76012122D01*
X103798218Y-75918005D01*
X103918005Y-75798218D01*
X104006820Y-75665297D01*
X104390000Y-75665297D01*
X104390000Y-75834703D01*
X104423049Y-76000853D01*
X104487878Y-76157363D01*
X104581995Y-76298218D01*
X104701782Y-76418005D01*
X104842637Y-76512122D01*
X104999147Y-76576951D01*
X105165297Y-76610000D01*
X105334703Y-76610000D01*
X105500853Y-76576951D01*
X105590978Y-76539620D01*
X105623049Y-76700853D01*
X105687878Y-76857363D01*
X105781995Y-76998218D01*
X105901782Y-77118005D01*
X106042637Y-77212122D01*
X106199147Y-77276951D01*
X106365297Y-77310000D01*
X106534703Y-77310000D01*
X106700853Y-77276951D01*
X106857363Y-77212122D01*
X106927441Y-77165297D01*
X108640000Y-77165297D01*
X108640000Y-77334703D01*
X108673049Y-77500853D01*
X108737878Y-77657363D01*
X108831995Y-77798218D01*
X108951782Y-77918005D01*
X109092637Y-78012122D01*
X109249147Y-78076951D01*
X109415297Y-78110000D01*
X109584703Y-78110000D01*
X109750853Y-78076951D01*
X109907363Y-78012122D01*
X110048218Y-77918005D01*
X110168005Y-77798218D01*
X110262122Y-77657363D01*
X110326951Y-77500853D01*
X110360000Y-77334703D01*
X110360000Y-77165297D01*
X110326951Y-76999147D01*
X110262122Y-76842637D01*
X110168005Y-76701782D01*
X110048218Y-76581995D01*
X109907363Y-76487878D01*
X109750853Y-76423049D01*
X109584703Y-76390000D01*
X109415297Y-76390000D01*
X109249147Y-76423049D01*
X109092637Y-76487878D01*
X108951782Y-76581995D01*
X108831995Y-76701782D01*
X108737878Y-76842637D01*
X108673049Y-76999147D01*
X108640000Y-77165297D01*
X106927441Y-77165297D01*
X106998218Y-77118005D01*
X107118005Y-76998218D01*
X107212122Y-76857363D01*
X107276951Y-76700853D01*
X107310000Y-76534703D01*
X107310000Y-76365297D01*
X107276951Y-76199147D01*
X107248194Y-76129721D01*
X119785000Y-76129721D01*
X119785000Y-76550279D01*
X119867047Y-76962756D01*
X120027988Y-77351302D01*
X120261637Y-77700983D01*
X120559017Y-77998363D01*
X120908698Y-78232012D01*
X121297244Y-78392953D01*
X121709721Y-78475000D01*
X122130279Y-78475000D01*
X122542756Y-78392953D01*
X122931302Y-78232012D01*
X123280983Y-77998363D01*
X123578363Y-77700983D01*
X123812012Y-77351302D01*
X123972953Y-76962756D01*
X124055000Y-76550279D01*
X124055000Y-76129721D01*
X123972953Y-75717244D01*
X123812012Y-75328698D01*
X123578363Y-74979017D01*
X123280983Y-74681637D01*
X122931302Y-74447988D01*
X122542756Y-74287047D01*
X122130279Y-74205000D01*
X121709721Y-74205000D01*
X121297244Y-74287047D01*
X120908698Y-74447988D01*
X120559017Y-74681637D01*
X120261637Y-74979017D01*
X120027988Y-75328698D01*
X119867047Y-75717244D01*
X119785000Y-76129721D01*
X107248194Y-76129721D01*
X107212122Y-76042637D01*
X107118005Y-75901782D01*
X106998218Y-75781995D01*
X106857363Y-75687878D01*
X106700853Y-75623049D01*
X106534703Y-75590000D01*
X106365297Y-75590000D01*
X106199147Y-75623049D01*
X106109022Y-75660380D01*
X106076951Y-75499147D01*
X106012122Y-75342637D01*
X105918005Y-75201782D01*
X105881520Y-75165297D01*
X107640000Y-75165297D01*
X107640000Y-75334703D01*
X107673049Y-75500853D01*
X107737878Y-75657363D01*
X107831995Y-75798218D01*
X107951782Y-75918005D01*
X108092637Y-76012122D01*
X108249147Y-76076951D01*
X108415297Y-76110000D01*
X108584703Y-76110000D01*
X108750853Y-76076951D01*
X108907363Y-76012122D01*
X109048218Y-75918005D01*
X109168005Y-75798218D01*
X109262122Y-75657363D01*
X109326951Y-75500853D01*
X109360000Y-75334703D01*
X109360000Y-75165297D01*
X109326951Y-74999147D01*
X109262122Y-74842637D01*
X109168005Y-74701782D01*
X109048218Y-74581995D01*
X108907363Y-74487878D01*
X108750853Y-74423049D01*
X108584703Y-74390000D01*
X108415297Y-74390000D01*
X108249147Y-74423049D01*
X108092637Y-74487878D01*
X107951782Y-74581995D01*
X107831995Y-74701782D01*
X107737878Y-74842637D01*
X107673049Y-74999147D01*
X107640000Y-75165297D01*
X105881520Y-75165297D01*
X105798218Y-75081995D01*
X105657363Y-74987878D01*
X105500853Y-74923049D01*
X105334703Y-74890000D01*
X105165297Y-74890000D01*
X104999147Y-74923049D01*
X104842637Y-74987878D01*
X104701782Y-75081995D01*
X104581995Y-75201782D01*
X104487878Y-75342637D01*
X104423049Y-75499147D01*
X104390000Y-75665297D01*
X104006820Y-75665297D01*
X104012122Y-75657363D01*
X104076951Y-75500853D01*
X104110000Y-75334703D01*
X104110000Y-75165297D01*
X104076951Y-74999147D01*
X104012122Y-74842637D01*
X103918005Y-74701782D01*
X103798218Y-74581995D01*
X103657363Y-74487878D01*
X103500853Y-74423049D01*
X103334703Y-74390000D01*
X103165297Y-74390000D01*
X102999147Y-74423049D01*
X102842637Y-74487878D01*
X102701782Y-74581995D01*
X102581995Y-74701782D01*
X102487878Y-74842637D01*
X102423049Y-74999147D01*
X102390000Y-75165297D01*
X83071092Y-75165297D01*
X84524907Y-74874534D01*
X84550028Y-74866731D01*
X84571840Y-74854729D01*
X84590891Y-74838701D01*
X84606449Y-74819265D01*
X84617917Y-74797167D01*
X85117917Y-73547167D01*
X85125329Y-73520537D01*
X85126927Y-73495692D01*
X85123648Y-73471012D01*
X85115617Y-73447447D01*
X84646458Y-72415297D01*
X100540000Y-72415297D01*
X100540000Y-72584703D01*
X100573049Y-72750853D01*
X100637878Y-72907363D01*
X100731995Y-73048218D01*
X100851782Y-73168005D01*
X100992637Y-73262122D01*
X101149147Y-73326951D01*
X101315297Y-73360000D01*
X101484703Y-73360000D01*
X101650853Y-73326951D01*
X101807363Y-73262122D01*
X101948218Y-73168005D01*
X102068005Y-73048218D01*
X102162122Y-72907363D01*
X102226951Y-72750853D01*
X102260000Y-72584703D01*
X102260000Y-72415297D01*
X102226951Y-72249147D01*
X102162122Y-72092637D01*
X102068005Y-71951782D01*
X101948218Y-71831995D01*
X101807363Y-71737878D01*
X101650853Y-71673049D01*
X101484703Y-71640000D01*
X101315297Y-71640000D01*
X101149147Y-71673049D01*
X100992637Y-71737878D01*
X100851782Y-71831995D01*
X100731995Y-71951782D01*
X100637878Y-72092637D01*
X100573049Y-72249147D01*
X100540000Y-72415297D01*
X84646458Y-72415297D01*
X84010095Y-71015297D01*
X107140000Y-71015297D01*
X107140000Y-71184703D01*
X107173049Y-71350853D01*
X107237878Y-71507363D01*
X107331995Y-71648218D01*
X107451782Y-71768005D01*
X107592637Y-71862122D01*
X107749147Y-71926951D01*
X107915297Y-71960000D01*
X108084703Y-71960000D01*
X108250853Y-71926951D01*
X108407363Y-71862122D01*
X108548218Y-71768005D01*
X108668005Y-71648218D01*
X108729313Y-71556464D01*
X117525000Y-71556464D01*
X117525000Y-71943536D01*
X117600514Y-72323169D01*
X117748639Y-72680777D01*
X117963685Y-73002615D01*
X118237385Y-73276315D01*
X118559223Y-73491361D01*
X118916831Y-73639486D01*
X119296464Y-73715000D01*
X119683536Y-73715000D01*
X120063169Y-73639486D01*
X120420777Y-73491361D01*
X120742615Y-73276315D01*
X121016315Y-73002615D01*
X121231361Y-72680777D01*
X121379486Y-72323169D01*
X121455000Y-71943536D01*
X121455000Y-71589853D01*
X124644000Y-71589853D01*
X124644000Y-71910147D01*
X124706486Y-72224287D01*
X124829057Y-72520200D01*
X125007003Y-72786515D01*
X125233485Y-73012997D01*
X125499800Y-73190943D01*
X125795713Y-73313514D01*
X126109853Y-73376000D01*
X126430147Y-73376000D01*
X126744287Y-73313514D01*
X127040200Y-73190943D01*
X127306515Y-73012997D01*
X127532997Y-72786515D01*
X127710943Y-72520200D01*
X127833514Y-72224287D01*
X127896000Y-71910147D01*
X127896000Y-71589853D01*
X127833514Y-71275713D01*
X127710943Y-70979800D01*
X127532997Y-70713485D01*
X127306515Y-70487003D01*
X127040200Y-70309057D01*
X126744287Y-70186486D01*
X126430147Y-70124000D01*
X126109853Y-70124000D01*
X125795713Y-70186486D01*
X125499800Y-70309057D01*
X125233485Y-70487003D01*
X125007003Y-70713485D01*
X124829057Y-70979800D01*
X124706486Y-71275713D01*
X124644000Y-71589853D01*
X121455000Y-71589853D01*
X121455000Y-71556464D01*
X121379486Y-71176831D01*
X121231361Y-70819223D01*
X121016315Y-70497385D01*
X120742615Y-70223685D01*
X120420777Y-70008639D01*
X120063169Y-69860514D01*
X119683536Y-69785000D01*
X119296464Y-69785000D01*
X118916831Y-69860514D01*
X118559223Y-70008639D01*
X118237385Y-70223685D01*
X117963685Y-70497385D01*
X117748639Y-70819223D01*
X117600514Y-71176831D01*
X117525000Y-71556464D01*
X108729313Y-71556464D01*
X108762122Y-71507363D01*
X108826951Y-71350853D01*
X108860000Y-71184703D01*
X108860000Y-71015297D01*
X108826951Y-70849147D01*
X108762122Y-70692637D01*
X108668005Y-70551782D01*
X108548218Y-70431995D01*
X108407363Y-70337878D01*
X108250853Y-70273049D01*
X108084703Y-70240000D01*
X107915297Y-70240000D01*
X107749147Y-70273049D01*
X107592637Y-70337878D01*
X107451782Y-70431995D01*
X107331995Y-70551782D01*
X107237878Y-70692637D01*
X107173049Y-70849147D01*
X107140000Y-71015297D01*
X84010095Y-71015297D01*
X83865617Y-70697447D01*
X83856449Y-70680735D01*
X83840891Y-70661299D01*
X83821840Y-70645271D01*
X83800028Y-70633269D01*
X82124760Y-69915297D01*
X101890000Y-69915297D01*
X101890000Y-70084703D01*
X101923049Y-70250853D01*
X101987878Y-70407363D01*
X102081995Y-70548218D01*
X102201782Y-70668005D01*
X102342637Y-70762122D01*
X102499147Y-70826951D01*
X102665297Y-70860000D01*
X102834703Y-70860000D01*
X103000853Y-70826951D01*
X103157363Y-70762122D01*
X103298218Y-70668005D01*
X103418005Y-70548218D01*
X103512122Y-70407363D01*
X103576951Y-70250853D01*
X103610000Y-70084703D01*
X103610000Y-69915297D01*
X103576951Y-69749147D01*
X103512122Y-69592637D01*
X103418005Y-69451782D01*
X103298218Y-69331995D01*
X103157363Y-69237878D01*
X103000853Y-69173049D01*
X102834703Y-69140000D01*
X102665297Y-69140000D01*
X102499147Y-69173049D01*
X102342637Y-69237878D01*
X102201782Y-69331995D01*
X102081995Y-69451782D01*
X101987878Y-69592637D01*
X101923049Y-69749147D01*
X101890000Y-69915297D01*
X82124760Y-69915297D01*
X82050028Y-69883269D01*
X82035346Y-69878018D01*
X82010870Y-69873466D01*
X81985975Y-69873777D01*
X79735975Y-70123777D01*
X79705407Y-70131086D01*
X79683065Y-70142071D01*
X79663295Y-70157203D01*
X79646858Y-70175901D01*
X79634383Y-70197447D01*
X78464452Y-72771295D01*
X78418005Y-72701782D01*
X78298218Y-72581995D01*
X78157363Y-72487878D01*
X78000853Y-72423049D01*
X77834703Y-72390000D01*
X77665297Y-72390000D01*
X77499147Y-72423049D01*
X77342637Y-72487878D01*
X77201782Y-72581995D01*
X77081995Y-72701782D01*
X76987878Y-72842637D01*
X76923049Y-72999147D01*
X76890000Y-73165297D01*
X62085000Y-73165297D01*
X62085000Y-69589853D01*
X65854000Y-69589853D01*
X65854000Y-69910147D01*
X65916486Y-70224287D01*
X66039057Y-70520200D01*
X66217003Y-70786515D01*
X66443485Y-71012997D01*
X66709800Y-71190943D01*
X67005713Y-71313514D01*
X67319853Y-71376000D01*
X67640147Y-71376000D01*
X67954287Y-71313514D01*
X68250200Y-71190943D01*
X68516515Y-71012997D01*
X68742997Y-70786515D01*
X68920943Y-70520200D01*
X69043514Y-70224287D01*
X69106000Y-69910147D01*
X69106000Y-69589853D01*
X69099359Y-69556464D01*
X72295000Y-69556464D01*
X72295000Y-69943536D01*
X72370514Y-70323169D01*
X72518639Y-70680777D01*
X72733685Y-71002615D01*
X73007385Y-71276315D01*
X73329223Y-71491361D01*
X73686831Y-71639486D01*
X74066464Y-71715000D01*
X74453536Y-71715000D01*
X74833169Y-71639486D01*
X75190777Y-71491361D01*
X75512615Y-71276315D01*
X75786315Y-71002615D01*
X76001361Y-70680777D01*
X76149486Y-70323169D01*
X76225000Y-69943536D01*
X76225000Y-69556464D01*
X76149486Y-69176831D01*
X76001361Y-68819223D01*
X75786315Y-68497385D01*
X75512615Y-68223685D01*
X75190777Y-68008639D01*
X74833169Y-67860514D01*
X74453536Y-67785000D01*
X74066464Y-67785000D01*
X73686831Y-67860514D01*
X73329223Y-68008639D01*
X73007385Y-68223685D01*
X72733685Y-68497385D01*
X72518639Y-68819223D01*
X72370514Y-69176831D01*
X72295000Y-69556464D01*
X69099359Y-69556464D01*
X69043514Y-69275713D01*
X68920943Y-68979800D01*
X68742997Y-68713485D01*
X68516515Y-68487003D01*
X68250200Y-68309057D01*
X67954287Y-68186486D01*
X67640147Y-68124000D01*
X67319853Y-68124000D01*
X67005713Y-68186486D01*
X66709800Y-68309057D01*
X66443485Y-68487003D01*
X66217003Y-68713485D01*
X66039057Y-68979800D01*
X65916486Y-69275713D01*
X65854000Y-69589853D01*
X62085000Y-69589853D01*
X62085000Y-61366052D01*
X65340000Y-61366052D01*
X65340000Y-61633948D01*
X65392264Y-61896697D01*
X65494784Y-62144201D01*
X65643619Y-62366949D01*
X65833051Y-62556381D01*
X66055799Y-62705216D01*
X66303303Y-62807736D01*
X66566052Y-62860000D01*
X66833948Y-62860000D01*
X67096697Y-62807736D01*
X67344201Y-62705216D01*
X67566949Y-62556381D01*
X67756381Y-62366949D01*
X67905216Y-62144201D01*
X68000031Y-61915297D01*
X77540000Y-61915297D01*
X77540000Y-62084703D01*
X77573049Y-62250853D01*
X77637878Y-62407363D01*
X77731995Y-62548218D01*
X77851782Y-62668005D01*
X77974495Y-62750000D01*
X77851782Y-62831995D01*
X77731995Y-62951782D01*
X77637878Y-63092637D01*
X77573049Y-63249147D01*
X77540000Y-63415297D01*
X77540000Y-63584703D01*
X77573049Y-63750853D01*
X77637878Y-63907363D01*
X77731995Y-64048218D01*
X77851782Y-64168005D01*
X77974495Y-64250000D01*
X77851782Y-64331995D01*
X77731995Y-64451782D01*
X77637878Y-64592637D01*
X77573049Y-64749147D01*
X77540000Y-64915297D01*
X77540000Y-65084703D01*
X77573049Y-65250853D01*
X77637878Y-65407363D01*
X77731995Y-65548218D01*
X77851782Y-65668005D01*
X77974495Y-65750000D01*
X77851782Y-65831995D01*
X77731995Y-65951782D01*
X77637878Y-66092637D01*
X77573049Y-66249147D01*
X77540000Y-66415297D01*
X77540000Y-66584703D01*
X77573049Y-66750853D01*
X77637878Y-66907363D01*
X77731995Y-67048218D01*
X77851782Y-67168005D01*
X77992637Y-67262122D01*
X78149147Y-67326951D01*
X78315297Y-67360000D01*
X78484703Y-67360000D01*
X78650853Y-67326951D01*
X78807363Y-67262122D01*
X78948218Y-67168005D01*
X79068005Y-67048218D01*
X79156820Y-66915297D01*
X95640000Y-66915297D01*
X95640000Y-67084703D01*
X95673049Y-67250853D01*
X95737878Y-67407363D01*
X95831995Y-67548218D01*
X95951782Y-67668005D01*
X96092637Y-67762122D01*
X96249147Y-67826951D01*
X96415297Y-67860000D01*
X96584703Y-67860000D01*
X96750853Y-67826951D01*
X96907363Y-67762122D01*
X97048218Y-67668005D01*
X97168005Y-67548218D01*
X97262122Y-67407363D01*
X97326951Y-67250853D01*
X97360000Y-67084703D01*
X97360000Y-66915297D01*
X114040000Y-66915297D01*
X114040000Y-67084703D01*
X114073049Y-67250853D01*
X114137878Y-67407363D01*
X114231995Y-67548218D01*
X114351782Y-67668005D01*
X114492637Y-67762122D01*
X114649147Y-67826951D01*
X114815297Y-67860000D01*
X114984703Y-67860000D01*
X115150853Y-67826951D01*
X115307363Y-67762122D01*
X115448218Y-67668005D01*
X115568005Y-67548218D01*
X115662122Y-67407363D01*
X115726951Y-67250853D01*
X115760000Y-67084703D01*
X115760000Y-66915297D01*
X115726951Y-66749147D01*
X115662122Y-66592637D01*
X115568005Y-66451782D01*
X115448218Y-66331995D01*
X115307363Y-66237878D01*
X115150853Y-66173049D01*
X114984703Y-66140000D01*
X114815297Y-66140000D01*
X114649147Y-66173049D01*
X114492637Y-66237878D01*
X114351782Y-66331995D01*
X114231995Y-66451782D01*
X114137878Y-66592637D01*
X114073049Y-66749147D01*
X114040000Y-66915297D01*
X97360000Y-66915297D01*
X97326951Y-66749147D01*
X97262122Y-66592637D01*
X97168005Y-66451782D01*
X97048218Y-66331995D01*
X96907363Y-66237878D01*
X96750853Y-66173049D01*
X96584703Y-66140000D01*
X96415297Y-66140000D01*
X96249147Y-66173049D01*
X96092637Y-66237878D01*
X95951782Y-66331995D01*
X95831995Y-66451782D01*
X95737878Y-66592637D01*
X95673049Y-66749147D01*
X95640000Y-66915297D01*
X79156820Y-66915297D01*
X79162122Y-66907363D01*
X79226951Y-66750853D01*
X79260000Y-66584703D01*
X79260000Y-66415297D01*
X79226951Y-66249147D01*
X79162122Y-66092637D01*
X79068005Y-65951782D01*
X79031520Y-65915297D01*
X87390000Y-65915297D01*
X87390000Y-66084703D01*
X87423049Y-66250853D01*
X87487878Y-66407363D01*
X87581995Y-66548218D01*
X87701782Y-66668005D01*
X87842637Y-66762122D01*
X87999147Y-66826951D01*
X88165297Y-66860000D01*
X88334703Y-66860000D01*
X88500853Y-66826951D01*
X88657363Y-66762122D01*
X88798218Y-66668005D01*
X88918005Y-66548218D01*
X89012122Y-66407363D01*
X89076951Y-66250853D01*
X89110000Y-66084703D01*
X89110000Y-65928495D01*
X98526802Y-65928495D01*
X98526802Y-66097901D01*
X98559851Y-66264051D01*
X98624680Y-66420561D01*
X98718797Y-66561416D01*
X98838584Y-66681203D01*
X98979439Y-66775320D01*
X99135949Y-66840149D01*
X99302099Y-66873198D01*
X99471505Y-66873198D01*
X99637655Y-66840149D01*
X99794165Y-66775320D01*
X99935020Y-66681203D01*
X100054807Y-66561416D01*
X100148924Y-66420561D01*
X100213753Y-66264051D01*
X100246802Y-66097901D01*
X100246802Y-65928495D01*
X100213753Y-65762345D01*
X100148924Y-65605835D01*
X100054807Y-65464980D01*
X100005124Y-65415297D01*
X117540000Y-65415297D01*
X117540000Y-65584703D01*
X117573049Y-65750853D01*
X117637878Y-65907363D01*
X117731995Y-66048218D01*
X117851782Y-66168005D01*
X117992637Y-66262122D01*
X118149147Y-66326951D01*
X118315297Y-66360000D01*
X118484703Y-66360000D01*
X118650853Y-66326951D01*
X118807363Y-66262122D01*
X118948218Y-66168005D01*
X119068005Y-66048218D01*
X119162122Y-65907363D01*
X119226951Y-65750853D01*
X119260000Y-65584703D01*
X119260000Y-65415297D01*
X119226951Y-65249147D01*
X119162122Y-65092637D01*
X119068005Y-64951782D01*
X118948218Y-64831995D01*
X118807363Y-64737878D01*
X118650853Y-64673049D01*
X118484703Y-64640000D01*
X118315297Y-64640000D01*
X118149147Y-64673049D01*
X117992637Y-64737878D01*
X117851782Y-64831995D01*
X117731995Y-64951782D01*
X117637878Y-65092637D01*
X117573049Y-65249147D01*
X117540000Y-65415297D01*
X100005124Y-65415297D01*
X99935020Y-65345193D01*
X99794165Y-65251076D01*
X99637655Y-65186247D01*
X99471505Y-65153198D01*
X99302099Y-65153198D01*
X99135949Y-65186247D01*
X98979439Y-65251076D01*
X98838584Y-65345193D01*
X98718797Y-65464980D01*
X98624680Y-65605835D01*
X98559851Y-65762345D01*
X98526802Y-65928495D01*
X89110000Y-65928495D01*
X89110000Y-65915297D01*
X89076951Y-65749147D01*
X89012122Y-65592637D01*
X88918005Y-65451782D01*
X88798218Y-65331995D01*
X88657363Y-65237878D01*
X88500853Y-65173049D01*
X88334703Y-65140000D01*
X88165297Y-65140000D01*
X87999147Y-65173049D01*
X87842637Y-65237878D01*
X87701782Y-65331995D01*
X87581995Y-65451782D01*
X87487878Y-65592637D01*
X87423049Y-65749147D01*
X87390000Y-65915297D01*
X79031520Y-65915297D01*
X78948218Y-65831995D01*
X78825505Y-65750000D01*
X78948218Y-65668005D01*
X79068005Y-65548218D01*
X79162122Y-65407363D01*
X79226951Y-65250853D01*
X79260000Y-65084703D01*
X79260000Y-64915297D01*
X96140000Y-64915297D01*
X96140000Y-65084703D01*
X96173049Y-65250853D01*
X96237878Y-65407363D01*
X96331995Y-65548218D01*
X96451782Y-65668005D01*
X96592637Y-65762122D01*
X96749147Y-65826951D01*
X96915297Y-65860000D01*
X97084703Y-65860000D01*
X97250853Y-65826951D01*
X97407363Y-65762122D01*
X97548218Y-65668005D01*
X97668005Y-65548218D01*
X97762122Y-65407363D01*
X97826951Y-65250853D01*
X97860000Y-65084703D01*
X97860000Y-64915297D01*
X97826951Y-64749147D01*
X97762122Y-64592637D01*
X97668005Y-64451782D01*
X97548218Y-64331995D01*
X97407363Y-64237878D01*
X97250853Y-64173049D01*
X97084703Y-64140000D01*
X96915297Y-64140000D01*
X96749147Y-64173049D01*
X96592637Y-64237878D01*
X96451782Y-64331995D01*
X96331995Y-64451782D01*
X96237878Y-64592637D01*
X96173049Y-64749147D01*
X96140000Y-64915297D01*
X79260000Y-64915297D01*
X79226951Y-64749147D01*
X79162122Y-64592637D01*
X79068005Y-64451782D01*
X78948218Y-64331995D01*
X78825505Y-64250000D01*
X78948218Y-64168005D01*
X79068005Y-64048218D01*
X79162122Y-63907363D01*
X79226951Y-63750853D01*
X79243968Y-63665297D01*
X89890000Y-63665297D01*
X89890000Y-63834703D01*
X89923049Y-64000853D01*
X89987878Y-64157363D01*
X90081995Y-64298218D01*
X90201782Y-64418005D01*
X90342637Y-64512122D01*
X90499147Y-64576951D01*
X90665297Y-64610000D01*
X90834703Y-64610000D01*
X91000853Y-64576951D01*
X91157363Y-64512122D01*
X91298218Y-64418005D01*
X91418005Y-64298218D01*
X91500000Y-64175505D01*
X91581995Y-64298218D01*
X91701782Y-64418005D01*
X91842637Y-64512122D01*
X91999147Y-64576951D01*
X92165297Y-64610000D01*
X92334703Y-64610000D01*
X92500853Y-64576951D01*
X92657363Y-64512122D01*
X92798218Y-64418005D01*
X92918005Y-64298218D01*
X93000000Y-64175505D01*
X93081995Y-64298218D01*
X93201782Y-64418005D01*
X93342637Y-64512122D01*
X93499147Y-64576951D01*
X93665297Y-64610000D01*
X93834703Y-64610000D01*
X94000853Y-64576951D01*
X94157363Y-64512122D01*
X94298218Y-64418005D01*
X94418005Y-64298218D01*
X94512122Y-64157363D01*
X94576951Y-64000853D01*
X94610000Y-63834703D01*
X94610000Y-63665297D01*
X94576951Y-63499147D01*
X94512122Y-63342637D01*
X94418005Y-63201782D01*
X94298218Y-63081995D01*
X94157363Y-62987878D01*
X94000853Y-62923049D01*
X93834703Y-62890000D01*
X93665297Y-62890000D01*
X93499147Y-62923049D01*
X93342637Y-62987878D01*
X93201782Y-63081995D01*
X93081995Y-63201782D01*
X93000000Y-63324495D01*
X92918005Y-63201782D01*
X92798218Y-63081995D01*
X92657363Y-62987878D01*
X92500853Y-62923049D01*
X92334703Y-62890000D01*
X92165297Y-62890000D01*
X91999147Y-62923049D01*
X91842637Y-62987878D01*
X91701782Y-63081995D01*
X91581995Y-63201782D01*
X91500000Y-63324495D01*
X91418005Y-63201782D01*
X91298218Y-63081995D01*
X91157363Y-62987878D01*
X91000853Y-62923049D01*
X90834703Y-62890000D01*
X90665297Y-62890000D01*
X90499147Y-62923049D01*
X90342637Y-62987878D01*
X90201782Y-63081995D01*
X90081995Y-63201782D01*
X89987878Y-63342637D01*
X89923049Y-63499147D01*
X89890000Y-63665297D01*
X79243968Y-63665297D01*
X79260000Y-63584703D01*
X79260000Y-63415297D01*
X79226951Y-63249147D01*
X79162122Y-63092637D01*
X79068005Y-62951782D01*
X78948218Y-62831995D01*
X78825505Y-62750000D01*
X78948218Y-62668005D01*
X79068005Y-62548218D01*
X79162122Y-62407363D01*
X79226951Y-62250853D01*
X79260000Y-62084703D01*
X79260000Y-61915297D01*
X79226951Y-61749147D01*
X79162122Y-61592637D01*
X79068005Y-61451782D01*
X78948218Y-61331995D01*
X78807363Y-61237878D01*
X78650853Y-61173049D01*
X78484703Y-61140000D01*
X78315297Y-61140000D01*
X78149147Y-61173049D01*
X77992637Y-61237878D01*
X77851782Y-61331995D01*
X77731995Y-61451782D01*
X77637878Y-61592637D01*
X77573049Y-61749147D01*
X77540000Y-61915297D01*
X68000031Y-61915297D01*
X68007736Y-61896697D01*
X68060000Y-61633948D01*
X68060000Y-61366052D01*
X68007736Y-61103303D01*
X67905216Y-60855799D01*
X67756381Y-60633051D01*
X67566949Y-60443619D01*
X67344201Y-60294784D01*
X67096697Y-60192264D01*
X66833948Y-60140000D01*
X66566052Y-60140000D01*
X66303303Y-60192264D01*
X66055799Y-60294784D01*
X65833051Y-60443619D01*
X65643619Y-60633051D01*
X65494784Y-60855799D01*
X65392264Y-61103303D01*
X65340000Y-61366052D01*
X62085000Y-61366052D01*
X62085000Y-59415297D01*
X77540000Y-59415297D01*
X77540000Y-59584703D01*
X77573049Y-59750853D01*
X77637878Y-59907363D01*
X77731995Y-60048218D01*
X77851782Y-60168005D01*
X77992637Y-60262122D01*
X78149147Y-60326951D01*
X78315297Y-60360000D01*
X78484703Y-60360000D01*
X78650853Y-60326951D01*
X78807363Y-60262122D01*
X78948218Y-60168005D01*
X79068005Y-60048218D01*
X79162122Y-59907363D01*
X79226951Y-59750853D01*
X79260000Y-59584703D01*
X79260000Y-59415297D01*
X79226951Y-59249147D01*
X79192219Y-59165297D01*
X88390000Y-59165297D01*
X88390000Y-59334703D01*
X88423049Y-59500853D01*
X88487878Y-59657363D01*
X88581995Y-59798218D01*
X88701782Y-59918005D01*
X88824495Y-60000000D01*
X88701782Y-60081995D01*
X88581995Y-60201782D01*
X88487878Y-60342637D01*
X88423049Y-60499147D01*
X88390000Y-60665297D01*
X88390000Y-60834703D01*
X88423049Y-61000853D01*
X88487878Y-61157363D01*
X88581995Y-61298218D01*
X88701782Y-61418005D01*
X88824495Y-61500000D01*
X88701782Y-61581995D01*
X88581995Y-61701782D01*
X88487878Y-61842637D01*
X88423049Y-61999147D01*
X88390000Y-62165297D01*
X88390000Y-62334703D01*
X88423049Y-62500853D01*
X88487878Y-62657363D01*
X88581995Y-62798218D01*
X88701782Y-62918005D01*
X88842637Y-63012122D01*
X88999147Y-63076951D01*
X89165297Y-63110000D01*
X89334703Y-63110000D01*
X89500853Y-63076951D01*
X89657363Y-63012122D01*
X89798218Y-62918005D01*
X89918005Y-62798218D01*
X90012122Y-62657363D01*
X90076951Y-62500853D01*
X90110000Y-62334703D01*
X90110000Y-62165297D01*
X90076951Y-61999147D01*
X90012122Y-61842637D01*
X89918005Y-61701782D01*
X89881520Y-61665297D01*
X90640000Y-61665297D01*
X90640000Y-61834703D01*
X90673049Y-62000853D01*
X90737878Y-62157363D01*
X90831995Y-62298218D01*
X90951782Y-62418005D01*
X91092637Y-62512122D01*
X91249147Y-62576951D01*
X91415297Y-62610000D01*
X91584703Y-62610000D01*
X91750853Y-62576951D01*
X91907363Y-62512122D01*
X92048218Y-62418005D01*
X92168005Y-62298218D01*
X92262122Y-62157363D01*
X92326951Y-62000853D01*
X92360000Y-61834703D01*
X92360000Y-61665297D01*
X92640000Y-61665297D01*
X92640000Y-61834703D01*
X92673049Y-62000853D01*
X92737878Y-62157363D01*
X92831995Y-62298218D01*
X92951782Y-62418005D01*
X93092637Y-62512122D01*
X93249147Y-62576951D01*
X93415297Y-62610000D01*
X93584703Y-62610000D01*
X93750853Y-62576951D01*
X93907363Y-62512122D01*
X94048218Y-62418005D01*
X94168005Y-62298218D01*
X94262122Y-62157363D01*
X94326951Y-62000853D01*
X94360000Y-61834703D01*
X94360000Y-61665297D01*
X94326951Y-61499147D01*
X94262122Y-61342637D01*
X94168005Y-61201782D01*
X94048218Y-61081995D01*
X93907363Y-60987878D01*
X93750853Y-60923049D01*
X93584703Y-60890000D01*
X93415297Y-60890000D01*
X93249147Y-60923049D01*
X93092637Y-60987878D01*
X92951782Y-61081995D01*
X92831995Y-61201782D01*
X92737878Y-61342637D01*
X92673049Y-61499147D01*
X92640000Y-61665297D01*
X92360000Y-61665297D01*
X92326951Y-61499147D01*
X92262122Y-61342637D01*
X92168005Y-61201782D01*
X92048218Y-61081995D01*
X91907363Y-60987878D01*
X91750853Y-60923049D01*
X91584703Y-60890000D01*
X91415297Y-60890000D01*
X91249147Y-60923049D01*
X91092637Y-60987878D01*
X90951782Y-61081995D01*
X90831995Y-61201782D01*
X90737878Y-61342637D01*
X90673049Y-61499147D01*
X90640000Y-61665297D01*
X89881520Y-61665297D01*
X89798218Y-61581995D01*
X89675505Y-61500000D01*
X89798218Y-61418005D01*
X89918005Y-61298218D01*
X90012122Y-61157363D01*
X90076951Y-61000853D01*
X90110000Y-60834703D01*
X90110000Y-60665297D01*
X90076951Y-60499147D01*
X90012122Y-60342637D01*
X89918005Y-60201782D01*
X89798218Y-60081995D01*
X89675505Y-60000000D01*
X89798218Y-59918005D01*
X89918005Y-59798218D01*
X90012122Y-59657363D01*
X90076951Y-59500853D01*
X90110000Y-59334703D01*
X90110000Y-59165297D01*
X90640000Y-59165297D01*
X90640000Y-59334703D01*
X90673049Y-59500853D01*
X90737878Y-59657363D01*
X90831995Y-59798218D01*
X90951782Y-59918005D01*
X91092637Y-60012122D01*
X91249147Y-60076951D01*
X91415297Y-60110000D01*
X91584703Y-60110000D01*
X91750853Y-60076951D01*
X91907363Y-60012122D01*
X92048218Y-59918005D01*
X92168005Y-59798218D01*
X92262122Y-59657363D01*
X92326951Y-59500853D01*
X92360000Y-59334703D01*
X92360000Y-59165297D01*
X92640000Y-59165297D01*
X92640000Y-59334703D01*
X92673049Y-59500853D01*
X92737878Y-59657363D01*
X92831995Y-59798218D01*
X92951782Y-59918005D01*
X93092637Y-60012122D01*
X93249147Y-60076951D01*
X93415297Y-60110000D01*
X93584703Y-60110000D01*
X93750853Y-60076951D01*
X93907363Y-60012122D01*
X94048218Y-59918005D01*
X94168005Y-59798218D01*
X94262122Y-59657363D01*
X94326951Y-59500853D01*
X94360000Y-59334703D01*
X94360000Y-59165297D01*
X94890000Y-59165297D01*
X94890000Y-59334703D01*
X94923049Y-59500853D01*
X94987878Y-59657363D01*
X95081995Y-59798218D01*
X95201782Y-59918005D01*
X95324495Y-60000000D01*
X95201782Y-60081995D01*
X95081995Y-60201782D01*
X94987878Y-60342637D01*
X94923049Y-60499147D01*
X94890000Y-60665297D01*
X94890000Y-60834703D01*
X94923049Y-61000853D01*
X94987878Y-61157363D01*
X95081995Y-61298218D01*
X95201782Y-61418005D01*
X95324495Y-61500000D01*
X95201782Y-61581995D01*
X95081995Y-61701782D01*
X94987878Y-61842637D01*
X94923049Y-61999147D01*
X94890000Y-62165297D01*
X94890000Y-62334703D01*
X94923049Y-62500853D01*
X94987878Y-62657363D01*
X95081995Y-62798218D01*
X95201782Y-62918005D01*
X95342637Y-63012122D01*
X95499147Y-63076951D01*
X95665297Y-63110000D01*
X95834703Y-63110000D01*
X96000853Y-63076951D01*
X96157363Y-63012122D01*
X96298218Y-62918005D01*
X96418005Y-62798218D01*
X96512122Y-62657363D01*
X96576951Y-62500853D01*
X96610000Y-62334703D01*
X96610000Y-62165297D01*
X96576951Y-61999147D01*
X96512122Y-61842637D01*
X96418005Y-61701782D01*
X96298218Y-61581995D01*
X96175505Y-61500000D01*
X96298218Y-61418005D01*
X96418005Y-61298218D01*
X96512122Y-61157363D01*
X96576951Y-61000853D01*
X96610000Y-60834703D01*
X96610000Y-60665297D01*
X96576951Y-60499147D01*
X96512122Y-60342637D01*
X96418005Y-60201782D01*
X96298218Y-60081995D01*
X96175505Y-60000000D01*
X96298218Y-59918005D01*
X96418005Y-59798218D01*
X96512122Y-59657363D01*
X96576951Y-59500853D01*
X96610000Y-59334703D01*
X96610000Y-59165297D01*
X96576951Y-58999147D01*
X96512122Y-58842637D01*
X96418005Y-58701782D01*
X96298218Y-58581995D01*
X96157363Y-58487878D01*
X96000853Y-58423049D01*
X95961881Y-58415297D01*
X114540000Y-58415297D01*
X114540000Y-58584703D01*
X114573049Y-58750853D01*
X114637878Y-58907363D01*
X114731995Y-59048218D01*
X114851782Y-59168005D01*
X114974495Y-59250000D01*
X114851782Y-59331995D01*
X114731995Y-59451782D01*
X114637878Y-59592637D01*
X114573049Y-59749147D01*
X114540000Y-59915297D01*
X114540000Y-60084703D01*
X114573049Y-60250853D01*
X114637878Y-60407363D01*
X114731995Y-60548218D01*
X114851782Y-60668005D01*
X114974495Y-60750000D01*
X114851782Y-60831995D01*
X114731995Y-60951782D01*
X114637878Y-61092637D01*
X114573049Y-61249147D01*
X114540000Y-61415297D01*
X114540000Y-61584703D01*
X114573049Y-61750853D01*
X114637878Y-61907363D01*
X114731995Y-62048218D01*
X114851782Y-62168005D01*
X114974495Y-62250000D01*
X114851782Y-62331995D01*
X114731995Y-62451782D01*
X114637878Y-62592637D01*
X114573049Y-62749147D01*
X114540000Y-62915297D01*
X114540000Y-63084703D01*
X114573049Y-63250853D01*
X114637878Y-63407363D01*
X114731995Y-63548218D01*
X114851782Y-63668005D01*
X114992637Y-63762122D01*
X115149147Y-63826951D01*
X115315297Y-63860000D01*
X115484703Y-63860000D01*
X115650853Y-63826951D01*
X115807363Y-63762122D01*
X115948218Y-63668005D01*
X116068005Y-63548218D01*
X116162122Y-63407363D01*
X116179233Y-63366052D01*
X125690000Y-63366052D01*
X125690000Y-63633948D01*
X125742264Y-63896697D01*
X125844784Y-64144201D01*
X125993619Y-64366949D01*
X126183051Y-64556381D01*
X126405799Y-64705216D01*
X126653303Y-64807736D01*
X126916052Y-64860000D01*
X127183948Y-64860000D01*
X127446697Y-64807736D01*
X127694201Y-64705216D01*
X127916949Y-64556381D01*
X128106381Y-64366949D01*
X128255216Y-64144201D01*
X128357736Y-63896697D01*
X128410000Y-63633948D01*
X128410000Y-63366052D01*
X128357736Y-63103303D01*
X128255216Y-62855799D01*
X128106381Y-62633051D01*
X127916949Y-62443619D01*
X127694201Y-62294784D01*
X127446697Y-62192264D01*
X127183948Y-62140000D01*
X126916052Y-62140000D01*
X126653303Y-62192264D01*
X126405799Y-62294784D01*
X126183051Y-62443619D01*
X125993619Y-62633051D01*
X125844784Y-62855799D01*
X125742264Y-63103303D01*
X125690000Y-63366052D01*
X116179233Y-63366052D01*
X116226951Y-63250853D01*
X116260000Y-63084703D01*
X116260000Y-62915297D01*
X116226951Y-62749147D01*
X116162122Y-62592637D01*
X116068005Y-62451782D01*
X115948218Y-62331995D01*
X115825505Y-62250000D01*
X115948218Y-62168005D01*
X116068005Y-62048218D01*
X116162122Y-61907363D01*
X116226951Y-61750853D01*
X116260000Y-61584703D01*
X116260000Y-61415297D01*
X116226951Y-61249147D01*
X116162122Y-61092637D01*
X116068005Y-60951782D01*
X115948218Y-60831995D01*
X115825505Y-60750000D01*
X115948218Y-60668005D01*
X116068005Y-60548218D01*
X116162122Y-60407363D01*
X116226951Y-60250853D01*
X116260000Y-60084703D01*
X116260000Y-59915297D01*
X116226951Y-59749147D01*
X116162122Y-59592637D01*
X116068005Y-59451782D01*
X115948218Y-59331995D01*
X115825505Y-59250000D01*
X115948218Y-59168005D01*
X116068005Y-59048218D01*
X116162122Y-58907363D01*
X116226951Y-58750853D01*
X116260000Y-58584703D01*
X116260000Y-58415297D01*
X116226951Y-58249147D01*
X116162122Y-58092637D01*
X116068005Y-57951782D01*
X115948218Y-57831995D01*
X115807363Y-57737878D01*
X115650853Y-57673049D01*
X115484703Y-57640000D01*
X115315297Y-57640000D01*
X115149147Y-57673049D01*
X114992637Y-57737878D01*
X114851782Y-57831995D01*
X114731995Y-57951782D01*
X114637878Y-58092637D01*
X114573049Y-58249147D01*
X114540000Y-58415297D01*
X95961881Y-58415297D01*
X95834703Y-58390000D01*
X95665297Y-58390000D01*
X95499147Y-58423049D01*
X95342637Y-58487878D01*
X95201782Y-58581995D01*
X95081995Y-58701782D01*
X94987878Y-58842637D01*
X94923049Y-58999147D01*
X94890000Y-59165297D01*
X94360000Y-59165297D01*
X94326951Y-58999147D01*
X94262122Y-58842637D01*
X94168005Y-58701782D01*
X94048218Y-58581995D01*
X93907363Y-58487878D01*
X93750853Y-58423049D01*
X93584703Y-58390000D01*
X93415297Y-58390000D01*
X93249147Y-58423049D01*
X93092637Y-58487878D01*
X92951782Y-58581995D01*
X92831995Y-58701782D01*
X92737878Y-58842637D01*
X92673049Y-58999147D01*
X92640000Y-59165297D01*
X92360000Y-59165297D01*
X92326951Y-58999147D01*
X92262122Y-58842637D01*
X92168005Y-58701782D01*
X92048218Y-58581995D01*
X91907363Y-58487878D01*
X91750853Y-58423049D01*
X91584703Y-58390000D01*
X91415297Y-58390000D01*
X91249147Y-58423049D01*
X91092637Y-58487878D01*
X90951782Y-58581995D01*
X90831995Y-58701782D01*
X90737878Y-58842637D01*
X90673049Y-58999147D01*
X90640000Y-59165297D01*
X90110000Y-59165297D01*
X90076951Y-58999147D01*
X90012122Y-58842637D01*
X89918005Y-58701782D01*
X89798218Y-58581995D01*
X89657363Y-58487878D01*
X89500853Y-58423049D01*
X89334703Y-58390000D01*
X89165297Y-58390000D01*
X88999147Y-58423049D01*
X88842637Y-58487878D01*
X88701782Y-58581995D01*
X88581995Y-58701782D01*
X88487878Y-58842637D01*
X88423049Y-58999147D01*
X88390000Y-59165297D01*
X79192219Y-59165297D01*
X79162122Y-59092637D01*
X79068005Y-58951782D01*
X78948218Y-58831995D01*
X78807363Y-58737878D01*
X78650853Y-58673049D01*
X78484703Y-58640000D01*
X78315297Y-58640000D01*
X78149147Y-58673049D01*
X77992637Y-58737878D01*
X77851782Y-58831995D01*
X77731995Y-58951782D01*
X77637878Y-59092637D01*
X77573049Y-59249147D01*
X77540000Y-59415297D01*
X62085000Y-59415297D01*
X62085000Y-55349742D01*
X86204028Y-55349742D01*
X86204028Y-55519148D01*
X86237077Y-55685298D01*
X86301906Y-55841808D01*
X86396023Y-55982663D01*
X86515810Y-56102450D01*
X86656665Y-56196567D01*
X86813175Y-56261396D01*
X86979325Y-56294445D01*
X87148731Y-56294445D01*
X87314881Y-56261396D01*
X87390628Y-56230020D01*
X87466375Y-56261396D01*
X87632525Y-56294445D01*
X87801931Y-56294445D01*
X87968081Y-56261396D01*
X88124591Y-56196567D01*
X88265446Y-56102450D01*
X88385233Y-55982663D01*
X88479350Y-55841808D01*
X88544179Y-55685298D01*
X88577228Y-55519148D01*
X88577228Y-55349742D01*
X88570377Y-55315297D01*
X92540000Y-55315297D01*
X92540000Y-55484703D01*
X92573049Y-55650853D01*
X92637878Y-55807363D01*
X92731995Y-55948218D01*
X92851782Y-56068005D01*
X92992637Y-56162122D01*
X93149147Y-56226951D01*
X93315297Y-56260000D01*
X93484703Y-56260000D01*
X93650853Y-56226951D01*
X93807363Y-56162122D01*
X93948218Y-56068005D01*
X94068005Y-55948218D01*
X94162122Y-55807363D01*
X94226951Y-55650853D01*
X94260000Y-55484703D01*
X94260000Y-55315297D01*
X94226951Y-55149147D01*
X94188561Y-55056464D01*
X117525000Y-55056464D01*
X117525000Y-55443536D01*
X117600514Y-55823169D01*
X117748639Y-56180777D01*
X117963685Y-56502615D01*
X118237385Y-56776315D01*
X118559223Y-56991361D01*
X118916831Y-57139486D01*
X119296464Y-57215000D01*
X119683536Y-57215000D01*
X120063169Y-57139486D01*
X120420777Y-56991361D01*
X120742615Y-56776315D01*
X121016315Y-56502615D01*
X121231361Y-56180777D01*
X121379486Y-55823169D01*
X121455000Y-55443536D01*
X121455000Y-55089853D01*
X124644000Y-55089853D01*
X124644000Y-55410147D01*
X124706486Y-55724287D01*
X124829057Y-56020200D01*
X125007003Y-56286515D01*
X125233485Y-56512997D01*
X125499800Y-56690943D01*
X125795713Y-56813514D01*
X126109853Y-56876000D01*
X126430147Y-56876000D01*
X126744287Y-56813514D01*
X127040200Y-56690943D01*
X127306515Y-56512997D01*
X127532997Y-56286515D01*
X127710943Y-56020200D01*
X127833514Y-55724287D01*
X127896000Y-55410147D01*
X127896000Y-55089853D01*
X127833514Y-54775713D01*
X127710943Y-54479800D01*
X127532997Y-54213485D01*
X127306515Y-53987003D01*
X127040200Y-53809057D01*
X126744287Y-53686486D01*
X126430147Y-53624000D01*
X126109853Y-53624000D01*
X125795713Y-53686486D01*
X125499800Y-53809057D01*
X125233485Y-53987003D01*
X125007003Y-54213485D01*
X124829057Y-54479800D01*
X124706486Y-54775713D01*
X124644000Y-55089853D01*
X121455000Y-55089853D01*
X121455000Y-55056464D01*
X121379486Y-54676831D01*
X121231361Y-54319223D01*
X121016315Y-53997385D01*
X120742615Y-53723685D01*
X120420777Y-53508639D01*
X120063169Y-53360514D01*
X119683536Y-53285000D01*
X119296464Y-53285000D01*
X118916831Y-53360514D01*
X118559223Y-53508639D01*
X118237385Y-53723685D01*
X117963685Y-53997385D01*
X117748639Y-54319223D01*
X117600514Y-54676831D01*
X117525000Y-55056464D01*
X94188561Y-55056464D01*
X94162122Y-54992637D01*
X94068005Y-54851782D01*
X93948218Y-54731995D01*
X93807363Y-54637878D01*
X93650853Y-54573049D01*
X93484703Y-54540000D01*
X93315297Y-54540000D01*
X93149147Y-54573049D01*
X92992637Y-54637878D01*
X92851782Y-54731995D01*
X92731995Y-54851782D01*
X92637878Y-54992637D01*
X92573049Y-55149147D01*
X92540000Y-55315297D01*
X88570377Y-55315297D01*
X88544179Y-55183592D01*
X88479350Y-55027082D01*
X88385233Y-54886227D01*
X88265446Y-54766440D01*
X88124591Y-54672323D01*
X87968081Y-54607494D01*
X87801931Y-54574445D01*
X87632525Y-54574445D01*
X87466375Y-54607494D01*
X87390628Y-54638870D01*
X87314881Y-54607494D01*
X87148731Y-54574445D01*
X86979325Y-54574445D01*
X86813175Y-54607494D01*
X86656665Y-54672323D01*
X86515810Y-54766440D01*
X86396023Y-54886227D01*
X86301906Y-55027082D01*
X86237077Y-55183592D01*
X86204028Y-55349742D01*
X62085000Y-55349742D01*
X62085000Y-53089853D01*
X65854000Y-53089853D01*
X65854000Y-53410147D01*
X65916486Y-53724287D01*
X66039057Y-54020200D01*
X66217003Y-54286515D01*
X66443485Y-54512997D01*
X66709800Y-54690943D01*
X67005713Y-54813514D01*
X67319853Y-54876000D01*
X67640147Y-54876000D01*
X67954287Y-54813514D01*
X68250200Y-54690943D01*
X68516515Y-54512997D01*
X68742997Y-54286515D01*
X68920943Y-54020200D01*
X69043514Y-53724287D01*
X69106000Y-53410147D01*
X69106000Y-53089853D01*
X69099359Y-53056464D01*
X72295000Y-53056464D01*
X72295000Y-53443536D01*
X72370514Y-53823169D01*
X72518639Y-54180777D01*
X72733685Y-54502615D01*
X73007385Y-54776315D01*
X73329223Y-54991361D01*
X73686831Y-55139486D01*
X74066464Y-55215000D01*
X74453536Y-55215000D01*
X74833169Y-55139486D01*
X75190777Y-54991361D01*
X75512615Y-54776315D01*
X75786315Y-54502615D01*
X76001361Y-54180777D01*
X76111325Y-53915297D01*
X89813400Y-53915297D01*
X89813400Y-54084703D01*
X89846449Y-54250853D01*
X89911278Y-54407363D01*
X90005395Y-54548218D01*
X90125182Y-54668005D01*
X90266037Y-54762122D01*
X90422547Y-54826951D01*
X90588697Y-54860000D01*
X90758103Y-54860000D01*
X90924253Y-54826951D01*
X91000000Y-54795575D01*
X91075747Y-54826951D01*
X91241897Y-54860000D01*
X91411303Y-54860000D01*
X91577453Y-54826951D01*
X91733963Y-54762122D01*
X91874818Y-54668005D01*
X91994605Y-54548218D01*
X92088722Y-54407363D01*
X92153551Y-54250853D01*
X92186600Y-54084703D01*
X92186600Y-53915297D01*
X92153551Y-53749147D01*
X92088722Y-53592637D01*
X91994605Y-53451782D01*
X91874818Y-53331995D01*
X91733963Y-53237878D01*
X91577453Y-53173049D01*
X91538481Y-53165297D01*
X95140000Y-53165297D01*
X95140000Y-53334703D01*
X95173049Y-53500853D01*
X95237878Y-53657363D01*
X95331995Y-53798218D01*
X95451782Y-53918005D01*
X95592637Y-54012122D01*
X95749147Y-54076951D01*
X95915297Y-54110000D01*
X96084703Y-54110000D01*
X96250853Y-54076951D01*
X96407363Y-54012122D01*
X96548218Y-53918005D01*
X96668005Y-53798218D01*
X96762122Y-53657363D01*
X96804662Y-53554662D01*
X96907363Y-53512122D01*
X97048218Y-53418005D01*
X97168005Y-53298218D01*
X97262122Y-53157363D01*
X97326951Y-53000853D01*
X97360000Y-52834703D01*
X97360000Y-52665297D01*
X97326951Y-52499147D01*
X97262122Y-52342637D01*
X97168005Y-52201782D01*
X97048218Y-52081995D01*
X96907363Y-51987878D01*
X96750853Y-51923049D01*
X96584703Y-51890000D01*
X96415297Y-51890000D01*
X96249147Y-51923049D01*
X96092637Y-51987878D01*
X95951782Y-52081995D01*
X95831995Y-52201782D01*
X95737878Y-52342637D01*
X95695338Y-52445338D01*
X95592637Y-52487878D01*
X95451782Y-52581995D01*
X95331995Y-52701782D01*
X95237878Y-52842637D01*
X95173049Y-52999147D01*
X95140000Y-53165297D01*
X91538481Y-53165297D01*
X91411303Y-53140000D01*
X91241897Y-53140000D01*
X91075747Y-53173049D01*
X91000000Y-53204425D01*
X90924253Y-53173049D01*
X90758103Y-53140000D01*
X90588697Y-53140000D01*
X90422547Y-53173049D01*
X90266037Y-53237878D01*
X90125182Y-53331995D01*
X90005395Y-53451782D01*
X89911278Y-53592637D01*
X89846449Y-53749147D01*
X89813400Y-53915297D01*
X76111325Y-53915297D01*
X76149486Y-53823169D01*
X76225000Y-53443536D01*
X76225000Y-53056464D01*
X76149486Y-52676831D01*
X76001361Y-52319223D01*
X75786315Y-51997385D01*
X75704227Y-51915297D01*
X80213400Y-51915297D01*
X80213400Y-52084703D01*
X80246449Y-52250853D01*
X80311278Y-52407363D01*
X80405395Y-52548218D01*
X80525182Y-52668005D01*
X80666037Y-52762122D01*
X80822547Y-52826951D01*
X80988697Y-52860000D01*
X81158103Y-52860000D01*
X81324253Y-52826951D01*
X81400000Y-52795575D01*
X81475747Y-52826951D01*
X81641897Y-52860000D01*
X81811303Y-52860000D01*
X81977453Y-52826951D01*
X82133963Y-52762122D01*
X82274818Y-52668005D01*
X82394605Y-52548218D01*
X82488722Y-52407363D01*
X82553551Y-52250853D01*
X82586600Y-52084703D01*
X82586600Y-51915297D01*
X82553551Y-51749147D01*
X82488722Y-51592637D01*
X82394605Y-51451782D01*
X82274818Y-51331995D01*
X82133963Y-51237878D01*
X81977453Y-51173049D01*
X81938481Y-51165297D01*
X88344515Y-51165297D01*
X88344515Y-51334703D01*
X88377564Y-51500853D01*
X88442393Y-51657363D01*
X88536510Y-51798218D01*
X88656297Y-51918005D01*
X88797152Y-52012122D01*
X88953662Y-52076951D01*
X89119812Y-52110000D01*
X89289218Y-52110000D01*
X89455368Y-52076951D01*
X89500000Y-52058464D01*
X89544632Y-52076951D01*
X89710782Y-52110000D01*
X89880188Y-52110000D01*
X90046338Y-52076951D01*
X90202848Y-52012122D01*
X90343703Y-51918005D01*
X90463490Y-51798218D01*
X90557607Y-51657363D01*
X90622436Y-51500853D01*
X90655485Y-51334703D01*
X90655485Y-51165297D01*
X90653533Y-51155485D01*
X90734703Y-51155485D01*
X90851071Y-51132338D01*
X90844515Y-51165297D01*
X90844515Y-51334703D01*
X90877564Y-51500853D01*
X90942393Y-51657363D01*
X91036510Y-51798218D01*
X91156297Y-51918005D01*
X91297152Y-52012122D01*
X91453662Y-52076951D01*
X91619812Y-52110000D01*
X91789218Y-52110000D01*
X91955368Y-52076951D01*
X92000000Y-52058464D01*
X92044632Y-52076951D01*
X92210782Y-52110000D01*
X92380188Y-52110000D01*
X92546338Y-52076951D01*
X92702848Y-52012122D01*
X92706324Y-52009799D01*
X92731995Y-52048218D01*
X92851782Y-52168005D01*
X92992637Y-52262122D01*
X93149147Y-52326951D01*
X93315297Y-52360000D01*
X93484703Y-52360000D01*
X93650853Y-52326951D01*
X93807363Y-52262122D01*
X93948218Y-52168005D01*
X94068005Y-52048218D01*
X94162122Y-51907363D01*
X94226951Y-51750853D01*
X94260000Y-51584703D01*
X94260000Y-51415297D01*
X94226951Y-51249147D01*
X94162122Y-51092637D01*
X94068005Y-50951782D01*
X93948218Y-50831995D01*
X93807363Y-50737878D01*
X93650853Y-50673049D01*
X93484703Y-50640000D01*
X93315297Y-50640000D01*
X93149147Y-50673049D01*
X92992637Y-50737878D01*
X92989161Y-50740201D01*
X92963490Y-50701782D01*
X92843703Y-50581995D01*
X92702848Y-50487878D01*
X92546338Y-50423049D01*
X92380188Y-50390000D01*
X92210782Y-50390000D01*
X92044632Y-50423049D01*
X92000000Y-50441536D01*
X91955368Y-50423049D01*
X91789218Y-50390000D01*
X91619812Y-50390000D01*
X91503444Y-50413147D01*
X91510000Y-50380188D01*
X91510000Y-50210782D01*
X91476951Y-50044632D01*
X91458464Y-50000000D01*
X91476951Y-49955368D01*
X91510000Y-49789218D01*
X91510000Y-49619812D01*
X91476951Y-49453662D01*
X91412122Y-49297152D01*
X91318005Y-49156297D01*
X91198218Y-49036510D01*
X91057363Y-48942393D01*
X90900853Y-48877564D01*
X90734703Y-48844515D01*
X90565297Y-48844515D01*
X90399147Y-48877564D01*
X90242637Y-48942393D01*
X90101782Y-49036510D01*
X89981995Y-49156297D01*
X89887878Y-49297152D01*
X89823049Y-49453662D01*
X89790000Y-49619812D01*
X89790000Y-49789218D01*
X89823049Y-49955368D01*
X89841536Y-50000000D01*
X89823049Y-50044632D01*
X89790000Y-50210782D01*
X89790000Y-50380188D01*
X89791952Y-50390000D01*
X89710782Y-50390000D01*
X89544632Y-50423049D01*
X89500000Y-50441536D01*
X89455368Y-50423049D01*
X89289218Y-50390000D01*
X89119812Y-50390000D01*
X88953662Y-50423049D01*
X88797152Y-50487878D01*
X88656297Y-50581995D01*
X88536510Y-50701782D01*
X88442393Y-50842637D01*
X88377564Y-50999147D01*
X88344515Y-51165297D01*
X81938481Y-51165297D01*
X81811303Y-51140000D01*
X81641897Y-51140000D01*
X81475747Y-51173049D01*
X81400000Y-51204425D01*
X81324253Y-51173049D01*
X81158103Y-51140000D01*
X80988697Y-51140000D01*
X80822547Y-51173049D01*
X80666037Y-51237878D01*
X80525182Y-51331995D01*
X80405395Y-51451782D01*
X80311278Y-51592637D01*
X80246449Y-51749147D01*
X80213400Y-51915297D01*
X75704227Y-51915297D01*
X75512615Y-51723685D01*
X75190777Y-51508639D01*
X74833169Y-51360514D01*
X74453536Y-51285000D01*
X74066464Y-51285000D01*
X73686831Y-51360514D01*
X73329223Y-51508639D01*
X73007385Y-51723685D01*
X72733685Y-51997385D01*
X72518639Y-52319223D01*
X72370514Y-52676831D01*
X72295000Y-53056464D01*
X69099359Y-53056464D01*
X69043514Y-52775713D01*
X68920943Y-52479800D01*
X68742997Y-52213485D01*
X68516515Y-51987003D01*
X68250200Y-51809057D01*
X67954287Y-51686486D01*
X67640147Y-51624000D01*
X67319853Y-51624000D01*
X67005713Y-51686486D01*
X66709800Y-51809057D01*
X66443485Y-51987003D01*
X66217003Y-52213485D01*
X66039057Y-52479800D01*
X65916486Y-52775713D01*
X65854000Y-53089853D01*
X62085000Y-53089853D01*
X62085000Y-50098297D01*
X62640000Y-50098297D01*
X62640000Y-50267703D01*
X62673049Y-50433853D01*
X62737878Y-50590363D01*
X62831995Y-50731218D01*
X62951782Y-50851005D01*
X63092637Y-50945122D01*
X63249147Y-51009951D01*
X63415297Y-51043000D01*
X63584703Y-51043000D01*
X63750853Y-51009951D01*
X63907363Y-50945122D01*
X64048218Y-50851005D01*
X64168005Y-50731218D01*
X64262122Y-50590363D01*
X64326951Y-50433853D01*
X64360000Y-50267703D01*
X64360000Y-50098297D01*
X64326951Y-49932147D01*
X64262122Y-49775637D01*
X64168005Y-49634782D01*
X64048218Y-49514995D01*
X63907363Y-49420878D01*
X63750853Y-49356049D01*
X63584703Y-49323000D01*
X63415297Y-49323000D01*
X63249147Y-49356049D01*
X63092637Y-49420878D01*
X62951782Y-49514995D01*
X62831995Y-49634782D01*
X62737878Y-49775637D01*
X62673049Y-49932147D01*
X62640000Y-50098297D01*
X62085000Y-50098297D01*
X62085000Y-48295600D01*
X64640460Y-48295600D01*
X64640460Y-48504240D01*
X64681164Y-48708871D01*
X64761007Y-48901630D01*
X64876921Y-49075108D01*
X65024452Y-49222639D01*
X65197930Y-49338553D01*
X65390689Y-49418396D01*
X65595320Y-49459100D01*
X65803960Y-49459100D01*
X66008591Y-49418396D01*
X66201350Y-49338553D01*
X66374828Y-49222639D01*
X66522359Y-49075108D01*
X66629141Y-48915297D01*
X85390000Y-48915297D01*
X85390000Y-49084703D01*
X85423049Y-49250853D01*
X85487878Y-49407363D01*
X85581995Y-49548218D01*
X85701782Y-49668005D01*
X85842637Y-49762122D01*
X85999147Y-49826951D01*
X86165297Y-49860000D01*
X86334703Y-49860000D01*
X86500853Y-49826951D01*
X86657363Y-49762122D01*
X86798218Y-49668005D01*
X86918005Y-49548218D01*
X87012122Y-49407363D01*
X87076951Y-49250853D01*
X87110000Y-49084703D01*
X87110000Y-48915297D01*
X87076951Y-48749147D01*
X87012122Y-48592637D01*
X86918005Y-48451782D01*
X86798218Y-48331995D01*
X86657363Y-48237878D01*
X86500853Y-48173049D01*
X86334703Y-48140000D01*
X86165297Y-48140000D01*
X85999147Y-48173049D01*
X85842637Y-48237878D01*
X85701782Y-48331995D01*
X85581995Y-48451782D01*
X85487878Y-48592637D01*
X85423049Y-48749147D01*
X85390000Y-48915297D01*
X66629141Y-48915297D01*
X66638273Y-48901630D01*
X66718116Y-48708871D01*
X66758820Y-48504240D01*
X66758820Y-48375043D01*
X66851782Y-48468005D01*
X66992637Y-48562122D01*
X67149147Y-48626951D01*
X67315297Y-48660000D01*
X67484703Y-48660000D01*
X67650853Y-48626951D01*
X67807363Y-48562122D01*
X67948218Y-48468005D01*
X68068005Y-48348218D01*
X68162122Y-48207363D01*
X68226951Y-48050853D01*
X68260000Y-47884703D01*
X68260000Y-47715297D01*
X68226951Y-47549147D01*
X68162122Y-47392637D01*
X68068005Y-47251782D01*
X67981520Y-47165297D01*
X89890000Y-47165297D01*
X89890000Y-47334703D01*
X89923049Y-47500853D01*
X89987878Y-47657363D01*
X90081995Y-47798218D01*
X90201782Y-47918005D01*
X90342637Y-48012122D01*
X90499147Y-48076951D01*
X90665297Y-48110000D01*
X90834703Y-48110000D01*
X91000853Y-48076951D01*
X91157363Y-48012122D01*
X91298218Y-47918005D01*
X91418005Y-47798218D01*
X91512122Y-47657363D01*
X91576951Y-47500853D01*
X91610000Y-47334703D01*
X91610000Y-47165297D01*
X91576951Y-46999147D01*
X91512122Y-46842637D01*
X91418005Y-46701782D01*
X91298218Y-46581995D01*
X91157363Y-46487878D01*
X91000853Y-46423049D01*
X90834703Y-46390000D01*
X90665297Y-46390000D01*
X90499147Y-46423049D01*
X90342637Y-46487878D01*
X90201782Y-46581995D01*
X90081995Y-46701782D01*
X89987878Y-46842637D01*
X89923049Y-46999147D01*
X89890000Y-47165297D01*
X67981520Y-47165297D01*
X67948218Y-47131995D01*
X67807363Y-47037878D01*
X67650853Y-46973049D01*
X67484703Y-46940000D01*
X67315297Y-46940000D01*
X67149147Y-46973049D01*
X66992637Y-47037878D01*
X66851782Y-47131995D01*
X66731995Y-47251782D01*
X66637878Y-47392637D01*
X66573049Y-47549147D01*
X66540000Y-47715297D01*
X66540000Y-47751134D01*
X66522359Y-47724732D01*
X66374828Y-47577201D01*
X66201350Y-47461287D01*
X66008591Y-47381444D01*
X65803960Y-47340740D01*
X65595320Y-47340740D01*
X65390689Y-47381444D01*
X65197930Y-47461287D01*
X65024452Y-47577201D01*
X64876921Y-47724732D01*
X64761007Y-47898210D01*
X64681164Y-48090969D01*
X64640460Y-48295600D01*
X62085000Y-48295600D01*
X62085000Y-46415297D01*
X62640000Y-46415297D01*
X62640000Y-46584703D01*
X62673049Y-46750853D01*
X62737878Y-46907363D01*
X62831995Y-47048218D01*
X62951782Y-47168005D01*
X63092637Y-47262122D01*
X63249147Y-47326951D01*
X63415297Y-47360000D01*
X63584703Y-47360000D01*
X63750853Y-47326951D01*
X63907363Y-47262122D01*
X64048218Y-47168005D01*
X64168005Y-47048218D01*
X64262122Y-46907363D01*
X64326951Y-46750853D01*
X64360000Y-46584703D01*
X64360000Y-46415297D01*
X64326951Y-46249147D01*
X64262122Y-46092637D01*
X64168005Y-45951782D01*
X64048218Y-45831995D01*
X63907363Y-45737878D01*
X63750853Y-45673049D01*
X63584703Y-45640000D01*
X63415297Y-45640000D01*
X63249147Y-45673049D01*
X63092637Y-45737878D01*
X62951782Y-45831995D01*
X62831995Y-45951782D01*
X62737878Y-46092637D01*
X62673049Y-46249147D01*
X62640000Y-46415297D01*
X62085000Y-46415297D01*
X62085000Y-44495760D01*
X64640460Y-44495760D01*
X64640460Y-44704400D01*
X64681164Y-44909031D01*
X64761007Y-45101790D01*
X64876921Y-45275268D01*
X65024452Y-45422799D01*
X65197930Y-45538713D01*
X65390689Y-45618556D01*
X65595320Y-45659260D01*
X65803960Y-45659260D01*
X66008591Y-45618556D01*
X66201350Y-45538713D01*
X66374828Y-45422799D01*
X66522359Y-45275268D01*
X66638273Y-45101790D01*
X66698513Y-44956357D01*
X67931060Y-44956357D01*
X67931060Y-45125763D01*
X67964109Y-45291913D01*
X68028938Y-45448423D01*
X68123055Y-45589278D01*
X68242842Y-45709065D01*
X68383697Y-45803182D01*
X68428330Y-45821670D01*
X68446818Y-45866303D01*
X68540935Y-46007158D01*
X68660722Y-46126945D01*
X68801577Y-46221062D01*
X68958087Y-46285891D01*
X69124237Y-46318940D01*
X69293643Y-46318940D01*
X69459793Y-46285891D01*
X69616303Y-46221062D01*
X69757158Y-46126945D01*
X69876945Y-46007158D01*
X69971062Y-45866303D01*
X70035891Y-45709793D01*
X70068940Y-45543643D01*
X70068940Y-45374237D01*
X70035891Y-45208087D01*
X69971062Y-45051577D01*
X69876945Y-44910722D01*
X69757158Y-44790935D01*
X69616303Y-44696818D01*
X69571670Y-44678330D01*
X69553182Y-44633697D01*
X69459065Y-44492842D01*
X69339278Y-44373055D01*
X69198423Y-44278938D01*
X69041913Y-44214109D01*
X68875763Y-44181060D01*
X68706357Y-44181060D01*
X68540207Y-44214109D01*
X68383697Y-44278938D01*
X68242842Y-44373055D01*
X68123055Y-44492842D01*
X68028938Y-44633697D01*
X67964109Y-44790207D01*
X67931060Y-44956357D01*
X66698513Y-44956357D01*
X66718116Y-44909031D01*
X66758820Y-44704400D01*
X66758820Y-44495760D01*
X66718116Y-44291129D01*
X66638273Y-44098370D01*
X66522359Y-43924892D01*
X66374828Y-43777361D01*
X66201350Y-43661447D01*
X66008591Y-43581604D01*
X65803960Y-43540900D01*
X65595320Y-43540900D01*
X65390689Y-43581604D01*
X65197930Y-43661447D01*
X65024452Y-43777361D01*
X64876921Y-43924892D01*
X64761007Y-44098370D01*
X64681164Y-44291129D01*
X64640460Y-44495760D01*
X62085000Y-44495760D01*
X62085000Y-42732297D01*
X62640000Y-42732297D01*
X62640000Y-42901703D01*
X62673049Y-43067853D01*
X62737878Y-43224363D01*
X62831995Y-43365218D01*
X62951782Y-43485005D01*
X63092637Y-43579122D01*
X63249147Y-43643951D01*
X63415297Y-43677000D01*
X63584703Y-43677000D01*
X63750853Y-43643951D01*
X63907363Y-43579122D01*
X64048218Y-43485005D01*
X64168005Y-43365218D01*
X64262122Y-43224363D01*
X64326951Y-43067853D01*
X64360000Y-42901703D01*
X64360000Y-42732297D01*
X64326951Y-42566147D01*
X64262122Y-42409637D01*
X64168005Y-42268782D01*
X64048218Y-42148995D01*
X63907363Y-42054878D01*
X63750853Y-41990049D01*
X63584703Y-41957000D01*
X63415297Y-41957000D01*
X63249147Y-41990049D01*
X63092637Y-42054878D01*
X62951782Y-42148995D01*
X62831995Y-42268782D01*
X62737878Y-42409637D01*
X62673049Y-42566147D01*
X62640000Y-42732297D01*
X62085000Y-42732297D01*
X62085000Y-42533505D01*
X62113267Y-42245218D01*
X62187259Y-42000145D01*
X62307443Y-41774110D01*
X62469248Y-41575719D01*
X62666497Y-41412540D01*
X62891687Y-41290780D01*
X63136247Y-41215076D01*
X63422398Y-41185000D01*
X90148782Y-41185000D01*
X113694124Y-52113218D01*
M02*
