G04 #@! TF.GenerationSoftware,KiCad,Pcbnew,(5.1.2)-2*
G04 #@! TF.CreationDate,2021-01-19T20:41:26+13:00*
G04 #@! TF.ProjectId,DPSwitch,44505377-6974-4636-982e-6b696361645f,rev?*
G04 #@! TF.SameCoordinates,Original*
G04 #@! TF.FileFunction,Legend,Top*
G04 #@! TF.FilePolarity,Positive*
%FSLAX46Y46*%
G04 Gerber Fmt 4.6, Leading zero omitted, Abs format (unit mm)*
G04 Created by KiCad (PCBNEW (5.1.2)-2) date 2021-01-19 20:41:26*
%MOMM*%
%LPD*%
G04 APERTURE LIST*
%ADD10C,0.150000*%
%ADD11C,0.100000*%
%ADD12C,0.010000*%
%ADD13C,0.120000*%
%ADD14C,0.200000*%
%ADD15C,0.304800*%
%ADD16C,0.066040*%
%ADD17R,1.002000X1.302000*%
%ADD18R,1.302000X1.002000*%
%ADD19R,0.352000X0.852000*%
%ADD20R,1.602000X1.352000*%
%ADD21C,1.552000*%
%ADD22C,2.762000*%
%ADD23C,2.084000*%
%ADD24R,2.502000X0.382000*%
%ADD25R,0.902000X1.002000*%
%ADD26R,1.302000X0.852000*%
%ADD27C,1.051560*%
%ADD28R,1.651000X0.601980*%
%ADD29R,1.701800X2.702560*%
%ADD30R,1.701800X2.001520*%
%ADD31R,1.227000X1.402000*%
%ADD32O,0.342000X0.702000*%
%ADD33O,0.702000X0.342000*%
%ADD34R,1.652000X1.402000*%
%ADD35C,1.602000*%
%ADD36C,3.102000*%
%ADD37R,0.852000X1.302000*%
G04 APERTURE END LIST*
D10*
X96331071Y-87452380D02*
X96664404Y-88452380D01*
X96997738Y-87452380D01*
X97331071Y-88452380D02*
X97331071Y-87785714D01*
X97331071Y-87452380D02*
X97283452Y-87500000D01*
X97331071Y-87547619D01*
X97378690Y-87500000D01*
X97331071Y-87452380D01*
X97331071Y-87547619D01*
X97759642Y-88404761D02*
X97854880Y-88452380D01*
X98045357Y-88452380D01*
X98140595Y-88404761D01*
X98188214Y-88309523D01*
X98188214Y-88261904D01*
X98140595Y-88166666D01*
X98045357Y-88119047D01*
X97902500Y-88119047D01*
X97807261Y-88071428D01*
X97759642Y-87976190D01*
X97759642Y-87928571D01*
X97807261Y-87833333D01*
X97902500Y-87785714D01*
X98045357Y-87785714D01*
X98140595Y-87833333D01*
X99045357Y-88404761D02*
X98950119Y-88452380D01*
X98759642Y-88452380D01*
X98664404Y-88404761D01*
X98616785Y-88357142D01*
X98569166Y-88261904D01*
X98569166Y-87976190D01*
X98616785Y-87880952D01*
X98664404Y-87833333D01*
X98759642Y-87785714D01*
X98950119Y-87785714D01*
X99045357Y-87833333D01*
X99331071Y-87452380D02*
X99902500Y-87452380D01*
X99616785Y-88452380D02*
X99616785Y-87452380D01*
X100235833Y-88452380D02*
X100235833Y-87785714D01*
X100235833Y-87976190D02*
X100283452Y-87880952D01*
X100331071Y-87833333D01*
X100426309Y-87785714D01*
X100521547Y-87785714D01*
X100997738Y-88452380D02*
X100902500Y-88404761D01*
X100854880Y-88357142D01*
X100807261Y-88261904D01*
X100807261Y-87976190D01*
X100854880Y-87880952D01*
X100902500Y-87833333D01*
X100997738Y-87785714D01*
X101140595Y-87785714D01*
X101235833Y-87833333D01*
X101283452Y-87880952D01*
X101331071Y-87976190D01*
X101331071Y-88261904D01*
X101283452Y-88357142D01*
X101235833Y-88404761D01*
X101140595Y-88452380D01*
X100997738Y-88452380D01*
X101759642Y-87785714D02*
X101759642Y-88452380D01*
X101759642Y-87880952D02*
X101807261Y-87833333D01*
X101902500Y-87785714D01*
X102045357Y-87785714D01*
X102140595Y-87833333D01*
X102188214Y-87928571D01*
X102188214Y-88452380D01*
X102664404Y-88452380D02*
X102664404Y-87785714D01*
X102664404Y-87452380D02*
X102616785Y-87500000D01*
X102664404Y-87547619D01*
X102712023Y-87500000D01*
X102664404Y-87452380D01*
X102664404Y-87547619D01*
X103569166Y-88404761D02*
X103473928Y-88452380D01*
X103283452Y-88452380D01*
X103188214Y-88404761D01*
X103140595Y-88357142D01*
X103092976Y-88261904D01*
X103092976Y-87976190D01*
X103140595Y-87880952D01*
X103188214Y-87833333D01*
X103283452Y-87785714D01*
X103473928Y-87785714D01*
X103569166Y-87833333D01*
X103950119Y-88404761D02*
X104045357Y-88452380D01*
X104235833Y-88452380D01*
X104331071Y-88404761D01*
X104378690Y-88309523D01*
X104378690Y-88261904D01*
X104331071Y-88166666D01*
X104235833Y-88119047D01*
X104092976Y-88119047D01*
X103997738Y-88071428D01*
X103950119Y-87976190D01*
X103950119Y-87928571D01*
X103997738Y-87833333D01*
X104092976Y-87785714D01*
X104235833Y-87785714D01*
X104331071Y-87833333D01*
X105807261Y-88785714D02*
X105807261Y-87357142D01*
X107283452Y-87785714D02*
X107283452Y-88642857D01*
X107235833Y-88738095D01*
X107140595Y-88785714D01*
X107092976Y-88785714D01*
X107283452Y-87452380D02*
X107235833Y-87500000D01*
X107283452Y-87547619D01*
X107331071Y-87500000D01*
X107283452Y-87452380D01*
X107283452Y-87547619D01*
X108188214Y-88452380D02*
X108188214Y-87928571D01*
X108140595Y-87833333D01*
X108045357Y-87785714D01*
X107854880Y-87785714D01*
X107759642Y-87833333D01*
X108188214Y-88404761D02*
X108092976Y-88452380D01*
X107854880Y-88452380D01*
X107759642Y-88404761D01*
X107712023Y-88309523D01*
X107712023Y-88214285D01*
X107759642Y-88119047D01*
X107854880Y-88071428D01*
X108092976Y-88071428D01*
X108188214Y-88023809D01*
X108664404Y-88452380D02*
X108664404Y-87785714D01*
X108664404Y-87976190D02*
X108712023Y-87880952D01*
X108759642Y-87833333D01*
X108854880Y-87785714D01*
X108950119Y-87785714D01*
X109664404Y-88404761D02*
X109569166Y-88452380D01*
X109378690Y-88452380D01*
X109283452Y-88404761D01*
X109235833Y-88309523D01*
X109235833Y-87928571D01*
X109283452Y-87833333D01*
X109378690Y-87785714D01*
X109569166Y-87785714D01*
X109664404Y-87833333D01*
X109712023Y-87928571D01*
X109712023Y-88023809D01*
X109235833Y-88119047D01*
X110569166Y-88452380D02*
X110569166Y-87452380D01*
X110569166Y-88404761D02*
X110473928Y-88452380D01*
X110283452Y-88452380D01*
X110188214Y-88404761D01*
X110140595Y-88357142D01*
X110092976Y-88261904D01*
X110092976Y-87976190D01*
X110140595Y-87880952D01*
X110188214Y-87833333D01*
X110283452Y-87785714D01*
X110473928Y-87785714D01*
X110569166Y-87833333D01*
X111045357Y-88357142D02*
X111092976Y-88404761D01*
X111045357Y-88452380D01*
X110997738Y-88404761D01*
X111045357Y-88357142D01*
X111045357Y-88452380D01*
X111950119Y-87785714D02*
X111950119Y-88595238D01*
X111902500Y-88690476D01*
X111854880Y-88738095D01*
X111759642Y-88785714D01*
X111616785Y-88785714D01*
X111521547Y-88738095D01*
X111950119Y-88404761D02*
X111854880Y-88452380D01*
X111664404Y-88452380D01*
X111569166Y-88404761D01*
X111521547Y-88357142D01*
X111473928Y-88261904D01*
X111473928Y-87976190D01*
X111521547Y-87880952D01*
X111569166Y-87833333D01*
X111664404Y-87785714D01*
X111854880Y-87785714D01*
X111950119Y-87833333D01*
X112807261Y-88404761D02*
X112712023Y-88452380D01*
X112521547Y-88452380D01*
X112426309Y-88404761D01*
X112378690Y-88309523D01*
X112378690Y-87928571D01*
X112426309Y-87833333D01*
X112521547Y-87785714D01*
X112712023Y-87785714D01*
X112807261Y-87833333D01*
X112854880Y-87928571D01*
X112854880Y-88023809D01*
X112378690Y-88119047D01*
X113664404Y-88404761D02*
X113569166Y-88452380D01*
X113378690Y-88452380D01*
X113283452Y-88404761D01*
X113235833Y-88309523D01*
X113235833Y-87928571D01*
X113283452Y-87833333D01*
X113378690Y-87785714D01*
X113569166Y-87785714D01*
X113664404Y-87833333D01*
X113712023Y-87928571D01*
X113712023Y-88023809D01*
X113235833Y-88119047D01*
X114140595Y-88452380D02*
X114140595Y-87452380D01*
X114235833Y-88071428D02*
X114521547Y-88452380D01*
X114521547Y-87785714D02*
X114140595Y-88166666D01*
X114950119Y-88357142D02*
X114997738Y-88404761D01*
X114950119Y-88452380D01*
X114902500Y-88404761D01*
X114950119Y-88357142D01*
X114950119Y-88452380D01*
X115426309Y-87785714D02*
X115426309Y-88452380D01*
X115426309Y-87880952D02*
X115473928Y-87833333D01*
X115569166Y-87785714D01*
X115712023Y-87785714D01*
X115807261Y-87833333D01*
X115854880Y-87928571D01*
X115854880Y-88452380D01*
X116235833Y-87785714D02*
X116759642Y-87785714D01*
X116235833Y-88452380D01*
X116759642Y-88452380D01*
X99426309Y-85452380D02*
X99426309Y-84452380D01*
X99664404Y-84452380D01*
X99807261Y-84500000D01*
X99902500Y-84595238D01*
X99950119Y-84690476D01*
X99997738Y-84880952D01*
X99997738Y-85023809D01*
X99950119Y-85214285D01*
X99902500Y-85309523D01*
X99807261Y-85404761D01*
X99664404Y-85452380D01*
X99426309Y-85452380D01*
X100426309Y-85452380D02*
X100426309Y-84785714D01*
X100426309Y-84452380D02*
X100378690Y-84500000D01*
X100426309Y-84547619D01*
X100473928Y-84500000D01*
X100426309Y-84452380D01*
X100426309Y-84547619D01*
X100854880Y-85404761D02*
X100950119Y-85452380D01*
X101140595Y-85452380D01*
X101235833Y-85404761D01*
X101283452Y-85309523D01*
X101283452Y-85261904D01*
X101235833Y-85166666D01*
X101140595Y-85119047D01*
X100997738Y-85119047D01*
X100902500Y-85071428D01*
X100854880Y-84976190D01*
X100854880Y-84928571D01*
X100902500Y-84833333D01*
X100997738Y-84785714D01*
X101140595Y-84785714D01*
X101235833Y-84833333D01*
X101712023Y-84785714D02*
X101712023Y-85785714D01*
X101712023Y-84833333D02*
X101807261Y-84785714D01*
X101997738Y-84785714D01*
X102092976Y-84833333D01*
X102140595Y-84880952D01*
X102188214Y-84976190D01*
X102188214Y-85261904D01*
X102140595Y-85357142D01*
X102092976Y-85404761D01*
X101997738Y-85452380D01*
X101807261Y-85452380D01*
X101712023Y-85404761D01*
X102759642Y-85452380D02*
X102664404Y-85404761D01*
X102616785Y-85309523D01*
X102616785Y-84452380D01*
X103569166Y-85452380D02*
X103569166Y-84928571D01*
X103521547Y-84833333D01*
X103426309Y-84785714D01*
X103235833Y-84785714D01*
X103140595Y-84833333D01*
X103569166Y-85404761D02*
X103473928Y-85452380D01*
X103235833Y-85452380D01*
X103140595Y-85404761D01*
X103092976Y-85309523D01*
X103092976Y-85214285D01*
X103140595Y-85119047D01*
X103235833Y-85071428D01*
X103473928Y-85071428D01*
X103569166Y-85023809D01*
X103950119Y-84785714D02*
X104188214Y-85452380D01*
X104426309Y-84785714D02*
X104188214Y-85452380D01*
X104092976Y-85690476D01*
X104045357Y-85738095D01*
X103950119Y-85785714D01*
X104807261Y-85452380D02*
X104807261Y-84452380D01*
X105188214Y-84452380D01*
X105283452Y-84500000D01*
X105331071Y-84547619D01*
X105378690Y-84642857D01*
X105378690Y-84785714D01*
X105331071Y-84880952D01*
X105283452Y-84928571D01*
X105188214Y-84976190D01*
X104807261Y-84976190D01*
X105950119Y-85452380D02*
X105854880Y-85404761D01*
X105807261Y-85357142D01*
X105759642Y-85261904D01*
X105759642Y-84976190D01*
X105807261Y-84880952D01*
X105854880Y-84833333D01*
X105950119Y-84785714D01*
X106092976Y-84785714D01*
X106188214Y-84833333D01*
X106235833Y-84880952D01*
X106283452Y-84976190D01*
X106283452Y-85261904D01*
X106235833Y-85357142D01*
X106188214Y-85404761D01*
X106092976Y-85452380D01*
X105950119Y-85452380D01*
X106712023Y-85452380D02*
X106712023Y-84785714D01*
X106712023Y-84976190D02*
X106759642Y-84880952D01*
X106807261Y-84833333D01*
X106902500Y-84785714D01*
X106997738Y-84785714D01*
X107188214Y-84785714D02*
X107569166Y-84785714D01*
X107331071Y-84452380D02*
X107331071Y-85309523D01*
X107378690Y-85404761D01*
X107473928Y-85452380D01*
X107569166Y-85452380D01*
X108616785Y-85404761D02*
X108759642Y-85452380D01*
X108997738Y-85452380D01*
X109092976Y-85404761D01*
X109140595Y-85357142D01*
X109188214Y-85261904D01*
X109188214Y-85166666D01*
X109140595Y-85071428D01*
X109092976Y-85023809D01*
X108997738Y-84976190D01*
X108807261Y-84928571D01*
X108712023Y-84880952D01*
X108664404Y-84833333D01*
X108616785Y-84738095D01*
X108616785Y-84642857D01*
X108664404Y-84547619D01*
X108712023Y-84500000D01*
X108807261Y-84452380D01*
X109045357Y-84452380D01*
X109188214Y-84500000D01*
X109521547Y-84785714D02*
X109712023Y-85452380D01*
X109902500Y-84976190D01*
X110092976Y-85452380D01*
X110283452Y-84785714D01*
X110664404Y-85452380D02*
X110664404Y-84785714D01*
X110664404Y-84452380D02*
X110616785Y-84500000D01*
X110664404Y-84547619D01*
X110712023Y-84500000D01*
X110664404Y-84452380D01*
X110664404Y-84547619D01*
X110997738Y-84785714D02*
X111378690Y-84785714D01*
X111140595Y-84452380D02*
X111140595Y-85309523D01*
X111188214Y-85404761D01*
X111283452Y-85452380D01*
X111378690Y-85452380D01*
X112140595Y-85404761D02*
X112045357Y-85452380D01*
X111854880Y-85452380D01*
X111759642Y-85404761D01*
X111712023Y-85357142D01*
X111664404Y-85261904D01*
X111664404Y-84976190D01*
X111712023Y-84880952D01*
X111759642Y-84833333D01*
X111854880Y-84785714D01*
X112045357Y-84785714D01*
X112140595Y-84833333D01*
X112569166Y-85452380D02*
X112569166Y-84452380D01*
X112997738Y-85452380D02*
X112997738Y-84928571D01*
X112950119Y-84833333D01*
X112854880Y-84785714D01*
X112712023Y-84785714D01*
X112616785Y-84833333D01*
X112569166Y-84880952D01*
X114521547Y-85833333D02*
X114473928Y-85785714D01*
X114378690Y-85642857D01*
X114331071Y-85547619D01*
X114283452Y-85404761D01*
X114235833Y-85166666D01*
X114235833Y-84976190D01*
X114283452Y-84738095D01*
X114331071Y-84595238D01*
X114378690Y-84500000D01*
X114473928Y-84357142D01*
X114521547Y-84309523D01*
X114902500Y-85452380D02*
X114902500Y-84785714D01*
X114902500Y-84976190D02*
X114950119Y-84880952D01*
X114997738Y-84833333D01*
X115092976Y-84785714D01*
X115188214Y-84785714D01*
X115473928Y-84547619D02*
X115521547Y-84500000D01*
X115616785Y-84452380D01*
X115854880Y-84452380D01*
X115950119Y-84500000D01*
X115997738Y-84547619D01*
X116045357Y-84642857D01*
X116045357Y-84738095D01*
X115997738Y-84880952D01*
X115426309Y-85452380D01*
X116045357Y-85452380D01*
X116378690Y-85833333D02*
X116426309Y-85785714D01*
X116521547Y-85642857D01*
X116569166Y-85547619D01*
X116616785Y-85404761D01*
X116664404Y-85166666D01*
X116664404Y-84976190D01*
X116616785Y-84738095D01*
X116569166Y-84595238D01*
X116521547Y-84500000D01*
X116426309Y-84357142D01*
X116378690Y-84309523D01*
D11*
G36*
X90500000Y-104500000D02*
G01*
X74500000Y-104500000D01*
X74500000Y-94000000D01*
X90500000Y-94000000D01*
X90500000Y-104500000D01*
G37*
X90500000Y-104500000D02*
X74500000Y-104500000D01*
X74500000Y-94000000D01*
X90500000Y-94000000D01*
X90500000Y-104500000D01*
G36*
X90500000Y-51000000D02*
G01*
X74500000Y-51000000D01*
X74500000Y-40500000D01*
X90500000Y-40500000D01*
X90500000Y-51000000D01*
G37*
X90500000Y-51000000D02*
X74500000Y-51000000D01*
X74500000Y-40500000D01*
X90500000Y-40500000D01*
X90500000Y-51000000D01*
D10*
X129452380Y-68119047D02*
X130166666Y-68119047D01*
X130309523Y-68166666D01*
X130404761Y-68261904D01*
X130452380Y-68404761D01*
X130452380Y-68500000D01*
X130452380Y-67166666D02*
X130452380Y-67642857D01*
X129452380Y-67642857D01*
X130357142Y-66261904D02*
X130404761Y-66309523D01*
X130452380Y-66452380D01*
X130452380Y-66547619D01*
X130404761Y-66690476D01*
X130309523Y-66785714D01*
X130214285Y-66833333D01*
X130023809Y-66880952D01*
X129880952Y-66880952D01*
X129690476Y-66833333D01*
X129595238Y-66785714D01*
X129500000Y-66690476D01*
X129452380Y-66547619D01*
X129452380Y-66452380D01*
X129500000Y-66309523D01*
X129547619Y-66261904D01*
X129452380Y-65547619D02*
X130166666Y-65547619D01*
X130309523Y-65595238D01*
X130404761Y-65690476D01*
X130452380Y-65833333D01*
X130452380Y-65928571D01*
X130452380Y-64595238D02*
X130452380Y-65071428D01*
X129452380Y-65071428D01*
X130357142Y-63690476D02*
X130404761Y-63738095D01*
X130452380Y-63880952D01*
X130452380Y-63976190D01*
X130404761Y-64119047D01*
X130309523Y-64214285D01*
X130214285Y-64261904D01*
X130023809Y-64309523D01*
X129880952Y-64309523D01*
X129690476Y-64261904D01*
X129595238Y-64214285D01*
X129500000Y-64119047D01*
X129452380Y-63976190D01*
X129452380Y-63880952D01*
X129500000Y-63738095D01*
X129547619Y-63690476D01*
X129452380Y-62976190D02*
X130166666Y-62976190D01*
X130309523Y-63023809D01*
X130404761Y-63119047D01*
X130452380Y-63261904D01*
X130452380Y-63357142D01*
X130452380Y-62023809D02*
X130452380Y-62500000D01*
X129452380Y-62500000D01*
X130357142Y-61119047D02*
X130404761Y-61166666D01*
X130452380Y-61309523D01*
X130452380Y-61404761D01*
X130404761Y-61547619D01*
X130309523Y-61642857D01*
X130214285Y-61690476D01*
X130023809Y-61738095D01*
X129880952Y-61738095D01*
X129690476Y-61690476D01*
X129595238Y-61642857D01*
X129500000Y-61547619D01*
X129452380Y-61404761D01*
X129452380Y-61309523D01*
X129500000Y-61166666D01*
X129547619Y-61119047D01*
X129452380Y-60404761D02*
X130166666Y-60404761D01*
X130309523Y-60452380D01*
X130404761Y-60547619D01*
X130452380Y-60690476D01*
X130452380Y-60785714D01*
X130452380Y-59452380D02*
X130452380Y-59928571D01*
X129452380Y-59928571D01*
X130357142Y-58547619D02*
X130404761Y-58595238D01*
X130452380Y-58738095D01*
X130452380Y-58833333D01*
X130404761Y-58976190D01*
X130309523Y-59071428D01*
X130214285Y-59119047D01*
X130023809Y-59166666D01*
X129880952Y-59166666D01*
X129690476Y-59119047D01*
X129595238Y-59071428D01*
X129500000Y-58976190D01*
X129452380Y-58833333D01*
X129452380Y-58738095D01*
X129500000Y-58595238D01*
X129547619Y-58547619D01*
D12*
G36*
X97591241Y-94969184D02*
G01*
X97617753Y-94982282D01*
X97650447Y-95005106D01*
X97674275Y-95029996D01*
X97690594Y-95061249D01*
X97700760Y-95103166D01*
X97706128Y-95160044D01*
X97708056Y-95236184D01*
X97708169Y-95268917D01*
X97707839Y-95340656D01*
X97706473Y-95391927D01*
X97703500Y-95427404D01*
X97698351Y-95451763D01*
X97690457Y-95469680D01*
X97682243Y-95481902D01*
X97629813Y-95533905D01*
X97568070Y-95565184D01*
X97501464Y-95574592D01*
X97434442Y-95560980D01*
X97413208Y-95551354D01*
X97362376Y-95524859D01*
X97362376Y-95940052D01*
X97399475Y-95920868D01*
X97448357Y-95906025D01*
X97508439Y-95902222D01*
X97568436Y-95909243D01*
X97613744Y-95925013D01*
X97651325Y-95955047D01*
X97683436Y-95998024D01*
X97685850Y-96002436D01*
X97696033Y-96023221D01*
X97703470Y-96044170D01*
X97708589Y-96069548D01*
X97711819Y-96103618D01*
X97713587Y-96150641D01*
X97714323Y-96214882D01*
X97714456Y-96287176D01*
X97714456Y-96517822D01*
X97576139Y-96517822D01*
X97576139Y-96092533D01*
X97537451Y-96059979D01*
X97497262Y-96033940D01*
X97459203Y-96029205D01*
X97420934Y-96041389D01*
X97400538Y-96053320D01*
X97385358Y-96070313D01*
X97374562Y-96095995D01*
X97367317Y-96133991D01*
X97362792Y-96187926D01*
X97360156Y-96261425D01*
X97359228Y-96310347D01*
X97356089Y-96511535D01*
X97290074Y-96515336D01*
X97224060Y-96519136D01*
X97224060Y-95270650D01*
X97362376Y-95270650D01*
X97365903Y-95340254D01*
X97377785Y-95388569D01*
X97399980Y-95418631D01*
X97434441Y-95433471D01*
X97469258Y-95436436D01*
X97508671Y-95433028D01*
X97534829Y-95419617D01*
X97551186Y-95401896D01*
X97564063Y-95382835D01*
X97571728Y-95361601D01*
X97575139Y-95331849D01*
X97575251Y-95287236D01*
X97574103Y-95249880D01*
X97571468Y-95193604D01*
X97567544Y-95156658D01*
X97560937Y-95133223D01*
X97550251Y-95117480D01*
X97540167Y-95108380D01*
X97498030Y-95088537D01*
X97448160Y-95085332D01*
X97419524Y-95092168D01*
X97391172Y-95116464D01*
X97372391Y-95163728D01*
X97363288Y-95233624D01*
X97362376Y-95270650D01*
X97224060Y-95270650D01*
X97224060Y-94958614D01*
X97293218Y-94958614D01*
X97334740Y-94960256D01*
X97356162Y-94966087D01*
X97362374Y-94977461D01*
X97362376Y-94977798D01*
X97365258Y-94988938D01*
X97377970Y-94987673D01*
X97403243Y-94975433D01*
X97462131Y-94956707D01*
X97528385Y-94954739D01*
X97591241Y-94969184D01*
X97591241Y-94969184D01*
G37*
X97591241Y-94969184D02*
X97617753Y-94982282D01*
X97650447Y-95005106D01*
X97674275Y-95029996D01*
X97690594Y-95061249D01*
X97700760Y-95103166D01*
X97706128Y-95160044D01*
X97708056Y-95236184D01*
X97708169Y-95268917D01*
X97707839Y-95340656D01*
X97706473Y-95391927D01*
X97703500Y-95427404D01*
X97698351Y-95451763D01*
X97690457Y-95469680D01*
X97682243Y-95481902D01*
X97629813Y-95533905D01*
X97568070Y-95565184D01*
X97501464Y-95574592D01*
X97434442Y-95560980D01*
X97413208Y-95551354D01*
X97362376Y-95524859D01*
X97362376Y-95940052D01*
X97399475Y-95920868D01*
X97448357Y-95906025D01*
X97508439Y-95902222D01*
X97568436Y-95909243D01*
X97613744Y-95925013D01*
X97651325Y-95955047D01*
X97683436Y-95998024D01*
X97685850Y-96002436D01*
X97696033Y-96023221D01*
X97703470Y-96044170D01*
X97708589Y-96069548D01*
X97711819Y-96103618D01*
X97713587Y-96150641D01*
X97714323Y-96214882D01*
X97714456Y-96287176D01*
X97714456Y-96517822D01*
X97576139Y-96517822D01*
X97576139Y-96092533D01*
X97537451Y-96059979D01*
X97497262Y-96033940D01*
X97459203Y-96029205D01*
X97420934Y-96041389D01*
X97400538Y-96053320D01*
X97385358Y-96070313D01*
X97374562Y-96095995D01*
X97367317Y-96133991D01*
X97362792Y-96187926D01*
X97360156Y-96261425D01*
X97359228Y-96310347D01*
X97356089Y-96511535D01*
X97290074Y-96515336D01*
X97224060Y-96519136D01*
X97224060Y-95270650D01*
X97362376Y-95270650D01*
X97365903Y-95340254D01*
X97377785Y-95388569D01*
X97399980Y-95418631D01*
X97434441Y-95433471D01*
X97469258Y-95436436D01*
X97508671Y-95433028D01*
X97534829Y-95419617D01*
X97551186Y-95401896D01*
X97564063Y-95382835D01*
X97571728Y-95361601D01*
X97575139Y-95331849D01*
X97575251Y-95287236D01*
X97574103Y-95249880D01*
X97571468Y-95193604D01*
X97567544Y-95156658D01*
X97560937Y-95133223D01*
X97550251Y-95117480D01*
X97540167Y-95108380D01*
X97498030Y-95088537D01*
X97448160Y-95085332D01*
X97419524Y-95092168D01*
X97391172Y-95116464D01*
X97372391Y-95163728D01*
X97363288Y-95233624D01*
X97362376Y-95270650D01*
X97224060Y-95270650D01*
X97224060Y-94958614D01*
X97293218Y-94958614D01*
X97334740Y-94960256D01*
X97356162Y-94966087D01*
X97362374Y-94977461D01*
X97362376Y-94977798D01*
X97365258Y-94988938D01*
X97377970Y-94987673D01*
X97403243Y-94975433D01*
X97462131Y-94956707D01*
X97528385Y-94954739D01*
X97591241Y-94969184D01*
G36*
X98115790Y-95906555D02*
G01*
X98174945Y-95922339D01*
X98219977Y-95950948D01*
X98251754Y-95988419D01*
X98261634Y-96004411D01*
X98268927Y-96021163D01*
X98274026Y-96042592D01*
X98277321Y-96072616D01*
X98279203Y-96115154D01*
X98280063Y-96174122D01*
X98280293Y-96253440D01*
X98280297Y-96274484D01*
X98280297Y-96517822D01*
X98219941Y-96517822D01*
X98181443Y-96515126D01*
X98152977Y-96508295D01*
X98145845Y-96504083D01*
X98126348Y-96496813D01*
X98106434Y-96504083D01*
X98073647Y-96513160D01*
X98026022Y-96516813D01*
X97973236Y-96515228D01*
X97924964Y-96508589D01*
X97896782Y-96500072D01*
X97842247Y-96465063D01*
X97808165Y-96416479D01*
X97792843Y-96351882D01*
X97792701Y-96350223D01*
X97794045Y-96321566D01*
X97915644Y-96321566D01*
X97926274Y-96354161D01*
X97943590Y-96372505D01*
X97978348Y-96386379D01*
X98024227Y-96391917D01*
X98071012Y-96389191D01*
X98108486Y-96378274D01*
X98118985Y-96371269D01*
X98137332Y-96338904D01*
X98141980Y-96302111D01*
X98141980Y-96253763D01*
X98072418Y-96253763D01*
X98006333Y-96258850D01*
X97956236Y-96273263D01*
X97925071Y-96295729D01*
X97915644Y-96321566D01*
X97794045Y-96321566D01*
X97796013Y-96279647D01*
X97819290Y-96223845D01*
X97863052Y-96181647D01*
X97869101Y-96177808D01*
X97895093Y-96165309D01*
X97927265Y-96157740D01*
X97972240Y-96154061D01*
X98025669Y-96153216D01*
X98141980Y-96153169D01*
X98141980Y-96104411D01*
X98137047Y-96066581D01*
X98124457Y-96041236D01*
X98122983Y-96039887D01*
X98094966Y-96028800D01*
X98052674Y-96024503D01*
X98005936Y-96026615D01*
X97964582Y-96034756D01*
X97940043Y-96046965D01*
X97926747Y-96056746D01*
X97912706Y-96058613D01*
X97893329Y-96050600D01*
X97864024Y-96030739D01*
X97820197Y-95997063D01*
X97816175Y-95993909D01*
X97818236Y-95982236D01*
X97835432Y-95962822D01*
X97861567Y-95941248D01*
X97890448Y-95923096D01*
X97899522Y-95918809D01*
X97932620Y-95910256D01*
X97981120Y-95904155D01*
X98035305Y-95901708D01*
X98037839Y-95901703D01*
X98115790Y-95906555D01*
X98115790Y-95906555D01*
G37*
X98115790Y-95906555D02*
X98174945Y-95922339D01*
X98219977Y-95950948D01*
X98251754Y-95988419D01*
X98261634Y-96004411D01*
X98268927Y-96021163D01*
X98274026Y-96042592D01*
X98277321Y-96072616D01*
X98279203Y-96115154D01*
X98280063Y-96174122D01*
X98280293Y-96253440D01*
X98280297Y-96274484D01*
X98280297Y-96517822D01*
X98219941Y-96517822D01*
X98181443Y-96515126D01*
X98152977Y-96508295D01*
X98145845Y-96504083D01*
X98126348Y-96496813D01*
X98106434Y-96504083D01*
X98073647Y-96513160D01*
X98026022Y-96516813D01*
X97973236Y-96515228D01*
X97924964Y-96508589D01*
X97896782Y-96500072D01*
X97842247Y-96465063D01*
X97808165Y-96416479D01*
X97792843Y-96351882D01*
X97792701Y-96350223D01*
X97794045Y-96321566D01*
X97915644Y-96321566D01*
X97926274Y-96354161D01*
X97943590Y-96372505D01*
X97978348Y-96386379D01*
X98024227Y-96391917D01*
X98071012Y-96389191D01*
X98108486Y-96378274D01*
X98118985Y-96371269D01*
X98137332Y-96338904D01*
X98141980Y-96302111D01*
X98141980Y-96253763D01*
X98072418Y-96253763D01*
X98006333Y-96258850D01*
X97956236Y-96273263D01*
X97925071Y-96295729D01*
X97915644Y-96321566D01*
X97794045Y-96321566D01*
X97796013Y-96279647D01*
X97819290Y-96223845D01*
X97863052Y-96181647D01*
X97869101Y-96177808D01*
X97895093Y-96165309D01*
X97927265Y-96157740D01*
X97972240Y-96154061D01*
X98025669Y-96153216D01*
X98141980Y-96153169D01*
X98141980Y-96104411D01*
X98137047Y-96066581D01*
X98124457Y-96041236D01*
X98122983Y-96039887D01*
X98094966Y-96028800D01*
X98052674Y-96024503D01*
X98005936Y-96026615D01*
X97964582Y-96034756D01*
X97940043Y-96046965D01*
X97926747Y-96056746D01*
X97912706Y-96058613D01*
X97893329Y-96050600D01*
X97864024Y-96030739D01*
X97820197Y-95997063D01*
X97816175Y-95993909D01*
X97818236Y-95982236D01*
X97835432Y-95962822D01*
X97861567Y-95941248D01*
X97890448Y-95923096D01*
X97899522Y-95918809D01*
X97932620Y-95910256D01*
X97981120Y-95904155D01*
X98035305Y-95901708D01*
X98037839Y-95901703D01*
X98115790Y-95906555D01*
G36*
X98506644Y-95903020D02*
G01*
X98525461Y-95908660D01*
X98531527Y-95921053D01*
X98531782Y-95926647D01*
X98532871Y-95942230D01*
X98540368Y-95944676D01*
X98560619Y-95933993D01*
X98572649Y-95926694D01*
X98610600Y-95911063D01*
X98655928Y-95903334D01*
X98703456Y-95902740D01*
X98748005Y-95908513D01*
X98784398Y-95919884D01*
X98807457Y-95936088D01*
X98812004Y-95956355D01*
X98809709Y-95961843D01*
X98792980Y-95984626D01*
X98767037Y-96012647D01*
X98762345Y-96017177D01*
X98737617Y-96038005D01*
X98716282Y-96044735D01*
X98686445Y-96040038D01*
X98674492Y-96036917D01*
X98637295Y-96029421D01*
X98611141Y-96032792D01*
X98589054Y-96044681D01*
X98568822Y-96060635D01*
X98553921Y-96080700D01*
X98543566Y-96108702D01*
X98536971Y-96148467D01*
X98533351Y-96203823D01*
X98531922Y-96278594D01*
X98531782Y-96323740D01*
X98531782Y-96517822D01*
X98406040Y-96517822D01*
X98406040Y-95901683D01*
X98468911Y-95901683D01*
X98506644Y-95903020D01*
X98506644Y-95903020D01*
G37*
X98506644Y-95903020D02*
X98525461Y-95908660D01*
X98531527Y-95921053D01*
X98531782Y-95926647D01*
X98532871Y-95942230D01*
X98540368Y-95944676D01*
X98560619Y-95933993D01*
X98572649Y-95926694D01*
X98610600Y-95911063D01*
X98655928Y-95903334D01*
X98703456Y-95902740D01*
X98748005Y-95908513D01*
X98784398Y-95919884D01*
X98807457Y-95936088D01*
X98812004Y-95956355D01*
X98809709Y-95961843D01*
X98792980Y-95984626D01*
X98767037Y-96012647D01*
X98762345Y-96017177D01*
X98737617Y-96038005D01*
X98716282Y-96044735D01*
X98686445Y-96040038D01*
X98674492Y-96036917D01*
X98637295Y-96029421D01*
X98611141Y-96032792D01*
X98589054Y-96044681D01*
X98568822Y-96060635D01*
X98553921Y-96080700D01*
X98543566Y-96108702D01*
X98536971Y-96148467D01*
X98533351Y-96203823D01*
X98531922Y-96278594D01*
X98531782Y-96323740D01*
X98531782Y-96517822D01*
X98406040Y-96517822D01*
X98406040Y-95901683D01*
X98468911Y-95901683D01*
X98506644Y-95903020D01*
G36*
X99298812Y-96517822D02*
G01*
X99229654Y-96517822D01*
X99189512Y-96516645D01*
X99168606Y-96511772D01*
X99161078Y-96501186D01*
X99160495Y-96494029D01*
X99159226Y-96479676D01*
X99151221Y-96476923D01*
X99130185Y-96485771D01*
X99113827Y-96494029D01*
X99051023Y-96513597D01*
X98982752Y-96514729D01*
X98927248Y-96500135D01*
X98875562Y-96464877D01*
X98836162Y-96412835D01*
X98814587Y-96351450D01*
X98814038Y-96348018D01*
X98810833Y-96310571D01*
X98809239Y-96256813D01*
X98809367Y-96216155D01*
X98946721Y-96216155D01*
X98949903Y-96270194D01*
X98957141Y-96314735D01*
X98966940Y-96339888D01*
X99004011Y-96374260D01*
X99048026Y-96386582D01*
X99093416Y-96376618D01*
X99132203Y-96346895D01*
X99146892Y-96326905D01*
X99155481Y-96303050D01*
X99159504Y-96268230D01*
X99160495Y-96215930D01*
X99158722Y-96164139D01*
X99154037Y-96118634D01*
X99147397Y-96088181D01*
X99146290Y-96085452D01*
X99119509Y-96053000D01*
X99080421Y-96035183D01*
X99036685Y-96032306D01*
X98995962Y-96044674D01*
X98965913Y-96072593D01*
X98962796Y-96078148D01*
X98953039Y-96112022D01*
X98947723Y-96160728D01*
X98946721Y-96216155D01*
X98809367Y-96216155D01*
X98809432Y-96195540D01*
X98810336Y-96162563D01*
X98816486Y-96080981D01*
X98829267Y-96019730D01*
X98850529Y-95974449D01*
X98882122Y-95940779D01*
X98912793Y-95921014D01*
X98955646Y-95907120D01*
X99008944Y-95902354D01*
X99063520Y-95906236D01*
X99110208Y-95918282D01*
X99134876Y-95932693D01*
X99160495Y-95955878D01*
X99160495Y-95662773D01*
X99298812Y-95662773D01*
X99298812Y-96517822D01*
X99298812Y-96517822D01*
G37*
X99298812Y-96517822D02*
X99229654Y-96517822D01*
X99189512Y-96516645D01*
X99168606Y-96511772D01*
X99161078Y-96501186D01*
X99160495Y-96494029D01*
X99159226Y-96479676D01*
X99151221Y-96476923D01*
X99130185Y-96485771D01*
X99113827Y-96494029D01*
X99051023Y-96513597D01*
X98982752Y-96514729D01*
X98927248Y-96500135D01*
X98875562Y-96464877D01*
X98836162Y-96412835D01*
X98814587Y-96351450D01*
X98814038Y-96348018D01*
X98810833Y-96310571D01*
X98809239Y-96256813D01*
X98809367Y-96216155D01*
X98946721Y-96216155D01*
X98949903Y-96270194D01*
X98957141Y-96314735D01*
X98966940Y-96339888D01*
X99004011Y-96374260D01*
X99048026Y-96386582D01*
X99093416Y-96376618D01*
X99132203Y-96346895D01*
X99146892Y-96326905D01*
X99155481Y-96303050D01*
X99159504Y-96268230D01*
X99160495Y-96215930D01*
X99158722Y-96164139D01*
X99154037Y-96118634D01*
X99147397Y-96088181D01*
X99146290Y-96085452D01*
X99119509Y-96053000D01*
X99080421Y-96035183D01*
X99036685Y-96032306D01*
X98995962Y-96044674D01*
X98965913Y-96072593D01*
X98962796Y-96078148D01*
X98953039Y-96112022D01*
X98947723Y-96160728D01*
X98946721Y-96216155D01*
X98809367Y-96216155D01*
X98809432Y-96195540D01*
X98810336Y-96162563D01*
X98816486Y-96080981D01*
X98829267Y-96019730D01*
X98850529Y-95974449D01*
X98882122Y-95940779D01*
X98912793Y-95921014D01*
X98955646Y-95907120D01*
X99008944Y-95902354D01*
X99063520Y-95906236D01*
X99110208Y-95918282D01*
X99134876Y-95932693D01*
X99160495Y-95955878D01*
X99160495Y-95662773D01*
X99298812Y-95662773D01*
X99298812Y-96517822D01*
G36*
X99781524Y-95904237D02*
G01*
X99831255Y-95907971D01*
X99961291Y-96297773D01*
X99981678Y-96228614D01*
X99993946Y-96185874D01*
X100010085Y-96128115D01*
X100027512Y-96064625D01*
X100036726Y-96030570D01*
X100071388Y-95901683D01*
X100214391Y-95901683D01*
X100171646Y-96036857D01*
X100150596Y-96103342D01*
X100125167Y-96183539D01*
X100098610Y-96267193D01*
X100074902Y-96341782D01*
X100020902Y-96511535D01*
X99962598Y-96515328D01*
X99904295Y-96519122D01*
X99872679Y-96414734D01*
X99853182Y-96349889D01*
X99831904Y-96278400D01*
X99813308Y-96215263D01*
X99812574Y-96212750D01*
X99798684Y-96169969D01*
X99786429Y-96140779D01*
X99777846Y-96129741D01*
X99776082Y-96131018D01*
X99769891Y-96148130D01*
X99758128Y-96184787D01*
X99742225Y-96236378D01*
X99723614Y-96298294D01*
X99713543Y-96332352D01*
X99659007Y-96517822D01*
X99543264Y-96517822D01*
X99450737Y-96225471D01*
X99424744Y-96143462D01*
X99401066Y-96068987D01*
X99380820Y-96005544D01*
X99365126Y-95956632D01*
X99355102Y-95925749D01*
X99352055Y-95916726D01*
X99354467Y-95907487D01*
X99373408Y-95903441D01*
X99412823Y-95903846D01*
X99418993Y-95904152D01*
X99492086Y-95907971D01*
X99539957Y-96084010D01*
X99557553Y-96148211D01*
X99573277Y-96204649D01*
X99585746Y-96248422D01*
X99593574Y-96274630D01*
X99595020Y-96278903D01*
X99601014Y-96273990D01*
X99613101Y-96248532D01*
X99629893Y-96205997D01*
X99650003Y-96149850D01*
X99667003Y-96099130D01*
X99731794Y-95900504D01*
X99781524Y-95904237D01*
X99781524Y-95904237D01*
G37*
X99781524Y-95904237D02*
X99831255Y-95907971D01*
X99961291Y-96297773D01*
X99981678Y-96228614D01*
X99993946Y-96185874D01*
X100010085Y-96128115D01*
X100027512Y-96064625D01*
X100036726Y-96030570D01*
X100071388Y-95901683D01*
X100214391Y-95901683D01*
X100171646Y-96036857D01*
X100150596Y-96103342D01*
X100125167Y-96183539D01*
X100098610Y-96267193D01*
X100074902Y-96341782D01*
X100020902Y-96511535D01*
X99962598Y-96515328D01*
X99904295Y-96519122D01*
X99872679Y-96414734D01*
X99853182Y-96349889D01*
X99831904Y-96278400D01*
X99813308Y-96215263D01*
X99812574Y-96212750D01*
X99798684Y-96169969D01*
X99786429Y-96140779D01*
X99777846Y-96129741D01*
X99776082Y-96131018D01*
X99769891Y-96148130D01*
X99758128Y-96184787D01*
X99742225Y-96236378D01*
X99723614Y-96298294D01*
X99713543Y-96332352D01*
X99659007Y-96517822D01*
X99543264Y-96517822D01*
X99450737Y-96225471D01*
X99424744Y-96143462D01*
X99401066Y-96068987D01*
X99380820Y-96005544D01*
X99365126Y-95956632D01*
X99355102Y-95925749D01*
X99352055Y-95916726D01*
X99354467Y-95907487D01*
X99373408Y-95903441D01*
X99412823Y-95903846D01*
X99418993Y-95904152D01*
X99492086Y-95907971D01*
X99539957Y-96084010D01*
X99557553Y-96148211D01*
X99573277Y-96204649D01*
X99585746Y-96248422D01*
X99593574Y-96274630D01*
X99595020Y-96278903D01*
X99601014Y-96273990D01*
X99613101Y-96248532D01*
X99629893Y-96205997D01*
X99650003Y-96149850D01*
X99667003Y-96099130D01*
X99731794Y-95900504D01*
X99781524Y-95904237D01*
G36*
X100538411Y-95905417D02*
G01*
X100591411Y-95918290D01*
X100606731Y-95925110D01*
X100636428Y-95942974D01*
X100659220Y-95963093D01*
X100676083Y-95988962D01*
X100687998Y-96024073D01*
X100695942Y-96071920D01*
X100700894Y-96135996D01*
X100703831Y-96219794D01*
X100704947Y-96275768D01*
X100709052Y-96517822D01*
X100638932Y-96517822D01*
X100596393Y-96516038D01*
X100574476Y-96509942D01*
X100568812Y-96499706D01*
X100565821Y-96488637D01*
X100552451Y-96490754D01*
X100534233Y-96499629D01*
X100488624Y-96513233D01*
X100430007Y-96516899D01*
X100368354Y-96510903D01*
X100313638Y-96495521D01*
X100308730Y-96493386D01*
X100258723Y-96458255D01*
X100225756Y-96409419D01*
X100210587Y-96352333D01*
X100211746Y-96331824D01*
X100335508Y-96331824D01*
X100346413Y-96359425D01*
X100378745Y-96379204D01*
X100430910Y-96389819D01*
X100458787Y-96391228D01*
X100505247Y-96387620D01*
X100536129Y-96373597D01*
X100543664Y-96366931D01*
X100564076Y-96330666D01*
X100568812Y-96297773D01*
X100568812Y-96253763D01*
X100507513Y-96253763D01*
X100436256Y-96257395D01*
X100386276Y-96268818D01*
X100354696Y-96288824D01*
X100347626Y-96297743D01*
X100335508Y-96331824D01*
X100211746Y-96331824D01*
X100213971Y-96292456D01*
X100236663Y-96235244D01*
X100267624Y-96196580D01*
X100286376Y-96179864D01*
X100304733Y-96168878D01*
X100328619Y-96162180D01*
X100363957Y-96158326D01*
X100416669Y-96155873D01*
X100437577Y-96155168D01*
X100568812Y-96150879D01*
X100568620Y-96111158D01*
X100563537Y-96069405D01*
X100545162Y-96044158D01*
X100508039Y-96028030D01*
X100507043Y-96027742D01*
X100454410Y-96021400D01*
X100402906Y-96029684D01*
X100364630Y-96049827D01*
X100349272Y-96059773D01*
X100332730Y-96058397D01*
X100307275Y-96043987D01*
X100292328Y-96033817D01*
X100263091Y-96012088D01*
X100244980Y-95995800D01*
X100242074Y-95991137D01*
X100254040Y-95967005D01*
X100289396Y-95938185D01*
X100304753Y-95928461D01*
X100348901Y-95911714D01*
X100408398Y-95902227D01*
X100474487Y-95900095D01*
X100538411Y-95905417D01*
X100538411Y-95905417D01*
G37*
X100538411Y-95905417D02*
X100591411Y-95918290D01*
X100606731Y-95925110D01*
X100636428Y-95942974D01*
X100659220Y-95963093D01*
X100676083Y-95988962D01*
X100687998Y-96024073D01*
X100695942Y-96071920D01*
X100700894Y-96135996D01*
X100703831Y-96219794D01*
X100704947Y-96275768D01*
X100709052Y-96517822D01*
X100638932Y-96517822D01*
X100596393Y-96516038D01*
X100574476Y-96509942D01*
X100568812Y-96499706D01*
X100565821Y-96488637D01*
X100552451Y-96490754D01*
X100534233Y-96499629D01*
X100488624Y-96513233D01*
X100430007Y-96516899D01*
X100368354Y-96510903D01*
X100313638Y-96495521D01*
X100308730Y-96493386D01*
X100258723Y-96458255D01*
X100225756Y-96409419D01*
X100210587Y-96352333D01*
X100211746Y-96331824D01*
X100335508Y-96331824D01*
X100346413Y-96359425D01*
X100378745Y-96379204D01*
X100430910Y-96389819D01*
X100458787Y-96391228D01*
X100505247Y-96387620D01*
X100536129Y-96373597D01*
X100543664Y-96366931D01*
X100564076Y-96330666D01*
X100568812Y-96297773D01*
X100568812Y-96253763D01*
X100507513Y-96253763D01*
X100436256Y-96257395D01*
X100386276Y-96268818D01*
X100354696Y-96288824D01*
X100347626Y-96297743D01*
X100335508Y-96331824D01*
X100211746Y-96331824D01*
X100213971Y-96292456D01*
X100236663Y-96235244D01*
X100267624Y-96196580D01*
X100286376Y-96179864D01*
X100304733Y-96168878D01*
X100328619Y-96162180D01*
X100363957Y-96158326D01*
X100416669Y-96155873D01*
X100437577Y-96155168D01*
X100568812Y-96150879D01*
X100568620Y-96111158D01*
X100563537Y-96069405D01*
X100545162Y-96044158D01*
X100508039Y-96028030D01*
X100507043Y-96027742D01*
X100454410Y-96021400D01*
X100402906Y-96029684D01*
X100364630Y-96049827D01*
X100349272Y-96059773D01*
X100332730Y-96058397D01*
X100307275Y-96043987D01*
X100292328Y-96033817D01*
X100263091Y-96012088D01*
X100244980Y-95995800D01*
X100242074Y-95991137D01*
X100254040Y-95967005D01*
X100289396Y-95938185D01*
X100304753Y-95928461D01*
X100348901Y-95911714D01*
X100408398Y-95902227D01*
X100474487Y-95900095D01*
X100538411Y-95905417D01*
G36*
X101135255Y-95901486D02*
G01*
X101183595Y-95911015D01*
X101211114Y-95925125D01*
X101240064Y-95948568D01*
X101198876Y-96000571D01*
X101173482Y-96032064D01*
X101156238Y-96047428D01*
X101139102Y-96049776D01*
X101114027Y-96042217D01*
X101102257Y-96037941D01*
X101054270Y-96031631D01*
X101010324Y-96045156D01*
X100978060Y-96075710D01*
X100972819Y-96085452D01*
X100967112Y-96111258D01*
X100962706Y-96158817D01*
X100959811Y-96224758D01*
X100958631Y-96305710D01*
X100958614Y-96317226D01*
X100958614Y-96517822D01*
X100820297Y-96517822D01*
X100820297Y-95901683D01*
X100889456Y-95901683D01*
X100929333Y-95902725D01*
X100950107Y-95907358D01*
X100957789Y-95917849D01*
X100958614Y-95927745D01*
X100958614Y-95953806D01*
X100991745Y-95927745D01*
X101029735Y-95909965D01*
X101080770Y-95901174D01*
X101135255Y-95901486D01*
X101135255Y-95901486D01*
G37*
X101135255Y-95901486D02*
X101183595Y-95911015D01*
X101211114Y-95925125D01*
X101240064Y-95948568D01*
X101198876Y-96000571D01*
X101173482Y-96032064D01*
X101156238Y-96047428D01*
X101139102Y-96049776D01*
X101114027Y-96042217D01*
X101102257Y-96037941D01*
X101054270Y-96031631D01*
X101010324Y-96045156D01*
X100978060Y-96075710D01*
X100972819Y-96085452D01*
X100967112Y-96111258D01*
X100962706Y-96158817D01*
X100959811Y-96224758D01*
X100958631Y-96305710D01*
X100958614Y-96317226D01*
X100958614Y-96517822D01*
X100820297Y-96517822D01*
X100820297Y-95901683D01*
X100889456Y-95901683D01*
X100929333Y-95902725D01*
X100950107Y-95907358D01*
X100957789Y-95917849D01*
X100958614Y-95927745D01*
X100958614Y-95953806D01*
X100991745Y-95927745D01*
X101029735Y-95909965D01*
X101080770Y-95901174D01*
X101135255Y-95901486D01*
G36*
X101532581Y-95904970D02*
G01*
X101592685Y-95920597D01*
X101643021Y-95952848D01*
X101667393Y-95976940D01*
X101707345Y-96033895D01*
X101730242Y-96099965D01*
X101738108Y-96181182D01*
X101738148Y-96187748D01*
X101738218Y-96253763D01*
X101358264Y-96253763D01*
X101366363Y-96288342D01*
X101380987Y-96319659D01*
X101406581Y-96352291D01*
X101411935Y-96357500D01*
X101457943Y-96385694D01*
X101510410Y-96390475D01*
X101570803Y-96371926D01*
X101581040Y-96366931D01*
X101612439Y-96351745D01*
X101633470Y-96343094D01*
X101637139Y-96342293D01*
X101649948Y-96350063D01*
X101674378Y-96369072D01*
X101686779Y-96379460D01*
X101712476Y-96403321D01*
X101720915Y-96419077D01*
X101715058Y-96433571D01*
X101711928Y-96437534D01*
X101690725Y-96454879D01*
X101655738Y-96475959D01*
X101631337Y-96488265D01*
X101562072Y-96509946D01*
X101485388Y-96516971D01*
X101412765Y-96508647D01*
X101392426Y-96502686D01*
X101329476Y-96468952D01*
X101282815Y-96417045D01*
X101252173Y-96346459D01*
X101237282Y-96256692D01*
X101235647Y-96209753D01*
X101240421Y-96141413D01*
X101360990Y-96141413D01*
X101372652Y-96146465D01*
X101403998Y-96150429D01*
X101449571Y-96152768D01*
X101480446Y-96153169D01*
X101535981Y-96152783D01*
X101571033Y-96150975D01*
X101590262Y-96146773D01*
X101598330Y-96139203D01*
X101599901Y-96128218D01*
X101589121Y-96094381D01*
X101561980Y-96060940D01*
X101526277Y-96035272D01*
X101490560Y-96024772D01*
X101442048Y-96034086D01*
X101400053Y-96061013D01*
X101370936Y-96099827D01*
X101360990Y-96141413D01*
X101240421Y-96141413D01*
X101242599Y-96110236D01*
X101264055Y-96030949D01*
X101300470Y-95971263D01*
X101352297Y-95930549D01*
X101419990Y-95908179D01*
X101456662Y-95903871D01*
X101532581Y-95904970D01*
X101532581Y-95904970D01*
G37*
X101532581Y-95904970D02*
X101592685Y-95920597D01*
X101643021Y-95952848D01*
X101667393Y-95976940D01*
X101707345Y-96033895D01*
X101730242Y-96099965D01*
X101738108Y-96181182D01*
X101738148Y-96187748D01*
X101738218Y-96253763D01*
X101358264Y-96253763D01*
X101366363Y-96288342D01*
X101380987Y-96319659D01*
X101406581Y-96352291D01*
X101411935Y-96357500D01*
X101457943Y-96385694D01*
X101510410Y-96390475D01*
X101570803Y-96371926D01*
X101581040Y-96366931D01*
X101612439Y-96351745D01*
X101633470Y-96343094D01*
X101637139Y-96342293D01*
X101649948Y-96350063D01*
X101674378Y-96369072D01*
X101686779Y-96379460D01*
X101712476Y-96403321D01*
X101720915Y-96419077D01*
X101715058Y-96433571D01*
X101711928Y-96437534D01*
X101690725Y-96454879D01*
X101655738Y-96475959D01*
X101631337Y-96488265D01*
X101562072Y-96509946D01*
X101485388Y-96516971D01*
X101412765Y-96508647D01*
X101392426Y-96502686D01*
X101329476Y-96468952D01*
X101282815Y-96417045D01*
X101252173Y-96346459D01*
X101237282Y-96256692D01*
X101235647Y-96209753D01*
X101240421Y-96141413D01*
X101360990Y-96141413D01*
X101372652Y-96146465D01*
X101403998Y-96150429D01*
X101449571Y-96152768D01*
X101480446Y-96153169D01*
X101535981Y-96152783D01*
X101571033Y-96150975D01*
X101590262Y-96146773D01*
X101598330Y-96139203D01*
X101599901Y-96128218D01*
X101589121Y-96094381D01*
X101561980Y-96060940D01*
X101526277Y-96035272D01*
X101490560Y-96024772D01*
X101442048Y-96034086D01*
X101400053Y-96061013D01*
X101370936Y-96099827D01*
X101360990Y-96141413D01*
X101240421Y-96141413D01*
X101242599Y-96110236D01*
X101264055Y-96030949D01*
X101300470Y-95971263D01*
X101352297Y-95930549D01*
X101419990Y-95908179D01*
X101456662Y-95903871D01*
X101532581Y-95904970D01*
G36*
X96961739Y-94965148D02*
G01*
X97027521Y-94994231D01*
X97077460Y-95042793D01*
X97111626Y-95110908D01*
X97130093Y-95198651D01*
X97131417Y-95212351D01*
X97132454Y-95308939D01*
X97119007Y-95393602D01*
X97091892Y-95462221D01*
X97077373Y-95484294D01*
X97026799Y-95531011D01*
X96962391Y-95561268D01*
X96890334Y-95573824D01*
X96816815Y-95567439D01*
X96760928Y-95547772D01*
X96712868Y-95514629D01*
X96673588Y-95471175D01*
X96672908Y-95470158D01*
X96656956Y-95443338D01*
X96646590Y-95416368D01*
X96640312Y-95382332D01*
X96636627Y-95334310D01*
X96635003Y-95294931D01*
X96634328Y-95259219D01*
X96760045Y-95259219D01*
X96761274Y-95294770D01*
X96765734Y-95342094D01*
X96773603Y-95372465D01*
X96787793Y-95394072D01*
X96801083Y-95406694D01*
X96848198Y-95433122D01*
X96897495Y-95436653D01*
X96943407Y-95417639D01*
X96966362Y-95396331D01*
X96982904Y-95374859D01*
X96992579Y-95354313D01*
X96996826Y-95327574D01*
X96997080Y-95287523D01*
X96995772Y-95250638D01*
X96992957Y-95197947D01*
X96988495Y-95163772D01*
X96980452Y-95141480D01*
X96966897Y-95124442D01*
X96956155Y-95114703D01*
X96911223Y-95089123D01*
X96862751Y-95087847D01*
X96822106Y-95102999D01*
X96787433Y-95134642D01*
X96766776Y-95186620D01*
X96760045Y-95259219D01*
X96634328Y-95259219D01*
X96633521Y-95216621D01*
X96636052Y-95158056D01*
X96643638Y-95114007D01*
X96657319Y-95079248D01*
X96678135Y-95048551D01*
X96685853Y-95039436D01*
X96734111Y-94994021D01*
X96785872Y-94967493D01*
X96849172Y-94956379D01*
X96880039Y-94955471D01*
X96961739Y-94965148D01*
X96961739Y-94965148D01*
G37*
X96961739Y-94965148D02*
X97027521Y-94994231D01*
X97077460Y-95042793D01*
X97111626Y-95110908D01*
X97130093Y-95198651D01*
X97131417Y-95212351D01*
X97132454Y-95308939D01*
X97119007Y-95393602D01*
X97091892Y-95462221D01*
X97077373Y-95484294D01*
X97026799Y-95531011D01*
X96962391Y-95561268D01*
X96890334Y-95573824D01*
X96816815Y-95567439D01*
X96760928Y-95547772D01*
X96712868Y-95514629D01*
X96673588Y-95471175D01*
X96672908Y-95470158D01*
X96656956Y-95443338D01*
X96646590Y-95416368D01*
X96640312Y-95382332D01*
X96636627Y-95334310D01*
X96635003Y-95294931D01*
X96634328Y-95259219D01*
X96760045Y-95259219D01*
X96761274Y-95294770D01*
X96765734Y-95342094D01*
X96773603Y-95372465D01*
X96787793Y-95394072D01*
X96801083Y-95406694D01*
X96848198Y-95433122D01*
X96897495Y-95436653D01*
X96943407Y-95417639D01*
X96966362Y-95396331D01*
X96982904Y-95374859D01*
X96992579Y-95354313D01*
X96996826Y-95327574D01*
X96997080Y-95287523D01*
X96995772Y-95250638D01*
X96992957Y-95197947D01*
X96988495Y-95163772D01*
X96980452Y-95141480D01*
X96966897Y-95124442D01*
X96956155Y-95114703D01*
X96911223Y-95089123D01*
X96862751Y-95087847D01*
X96822106Y-95102999D01*
X96787433Y-95134642D01*
X96766776Y-95186620D01*
X96760045Y-95259219D01*
X96634328Y-95259219D01*
X96633521Y-95216621D01*
X96636052Y-95158056D01*
X96643638Y-95114007D01*
X96657319Y-95079248D01*
X96678135Y-95048551D01*
X96685853Y-95039436D01*
X96734111Y-94994021D01*
X96785872Y-94967493D01*
X96849172Y-94956379D01*
X96880039Y-94955471D01*
X96961739Y-94965148D01*
G36*
X98143301Y-94972614D02*
G01*
X98155832Y-94978514D01*
X98199201Y-95010283D01*
X98240210Y-95056646D01*
X98270832Y-95107696D01*
X98279541Y-95131166D01*
X98287488Y-95173091D01*
X98292226Y-95223757D01*
X98292801Y-95244679D01*
X98292871Y-95310693D01*
X97912917Y-95310693D01*
X97921017Y-95345273D01*
X97940896Y-95386170D01*
X97975653Y-95421514D01*
X98017002Y-95444282D01*
X98043351Y-95449010D01*
X98079084Y-95443273D01*
X98121718Y-95428882D01*
X98136201Y-95422262D01*
X98189760Y-95395513D01*
X98235467Y-95430376D01*
X98261842Y-95453955D01*
X98275876Y-95473417D01*
X98276586Y-95479129D01*
X98264049Y-95492973D01*
X98236572Y-95514012D01*
X98211634Y-95530425D01*
X98144336Y-95559930D01*
X98068890Y-95573284D01*
X97994112Y-95569812D01*
X97934505Y-95551663D01*
X97873059Y-95512784D01*
X97829392Y-95461595D01*
X97802074Y-95395367D01*
X97789678Y-95311371D01*
X97788579Y-95272936D01*
X97792978Y-95184861D01*
X97793518Y-95182299D01*
X97919418Y-95182299D01*
X97922885Y-95190558D01*
X97937137Y-95195113D01*
X97966530Y-95197065D01*
X98015425Y-95197517D01*
X98034252Y-95197525D01*
X98091533Y-95196843D01*
X98127859Y-95194364D01*
X98147396Y-95189443D01*
X98154310Y-95181434D01*
X98154555Y-95178862D01*
X98146664Y-95158423D01*
X98126915Y-95129789D01*
X98118425Y-95119763D01*
X98086906Y-95091408D01*
X98054051Y-95080259D01*
X98036349Y-95079327D01*
X97988461Y-95090981D01*
X97948301Y-95122285D01*
X97922827Y-95167752D01*
X97922375Y-95169233D01*
X97919418Y-95182299D01*
X97793518Y-95182299D01*
X97807608Y-95115510D01*
X97833962Y-95060025D01*
X97866193Y-95020639D01*
X97925783Y-94977931D01*
X97995832Y-94955109D01*
X98070339Y-94953046D01*
X98143301Y-94972614D01*
X98143301Y-94972614D01*
G37*
X98143301Y-94972614D02*
X98155832Y-94978514D01*
X98199201Y-95010283D01*
X98240210Y-95056646D01*
X98270832Y-95107696D01*
X98279541Y-95131166D01*
X98287488Y-95173091D01*
X98292226Y-95223757D01*
X98292801Y-95244679D01*
X98292871Y-95310693D01*
X97912917Y-95310693D01*
X97921017Y-95345273D01*
X97940896Y-95386170D01*
X97975653Y-95421514D01*
X98017002Y-95444282D01*
X98043351Y-95449010D01*
X98079084Y-95443273D01*
X98121718Y-95428882D01*
X98136201Y-95422262D01*
X98189760Y-95395513D01*
X98235467Y-95430376D01*
X98261842Y-95453955D01*
X98275876Y-95473417D01*
X98276586Y-95479129D01*
X98264049Y-95492973D01*
X98236572Y-95514012D01*
X98211634Y-95530425D01*
X98144336Y-95559930D01*
X98068890Y-95573284D01*
X97994112Y-95569812D01*
X97934505Y-95551663D01*
X97873059Y-95512784D01*
X97829392Y-95461595D01*
X97802074Y-95395367D01*
X97789678Y-95311371D01*
X97788579Y-95272936D01*
X97792978Y-95184861D01*
X97793518Y-95182299D01*
X97919418Y-95182299D01*
X97922885Y-95190558D01*
X97937137Y-95195113D01*
X97966530Y-95197065D01*
X98015425Y-95197517D01*
X98034252Y-95197525D01*
X98091533Y-95196843D01*
X98127859Y-95194364D01*
X98147396Y-95189443D01*
X98154310Y-95181434D01*
X98154555Y-95178862D01*
X98146664Y-95158423D01*
X98126915Y-95129789D01*
X98118425Y-95119763D01*
X98086906Y-95091408D01*
X98054051Y-95080259D01*
X98036349Y-95079327D01*
X97988461Y-95090981D01*
X97948301Y-95122285D01*
X97922827Y-95167752D01*
X97922375Y-95169233D01*
X97919418Y-95182299D01*
X97793518Y-95182299D01*
X97807608Y-95115510D01*
X97833962Y-95060025D01*
X97866193Y-95020639D01*
X97925783Y-94977931D01*
X97995832Y-94955109D01*
X98070339Y-94953046D01*
X98143301Y-94972614D01*
G36*
X99514017Y-94956452D02*
G01*
X99561634Y-94965482D01*
X99611034Y-94984370D01*
X99616312Y-94986777D01*
X99653774Y-95006476D01*
X99679717Y-95024781D01*
X99688103Y-95036508D01*
X99680117Y-95055632D01*
X99660720Y-95083850D01*
X99652110Y-95094384D01*
X99616628Y-95135847D01*
X99570885Y-95108858D01*
X99527350Y-95090878D01*
X99477050Y-95081267D01*
X99428812Y-95080660D01*
X99391467Y-95089691D01*
X99382505Y-95095327D01*
X99365437Y-95121171D01*
X99363363Y-95150941D01*
X99376134Y-95174197D01*
X99383688Y-95178708D01*
X99406325Y-95184309D01*
X99446115Y-95190892D01*
X99495166Y-95197183D01*
X99504215Y-95198170D01*
X99582996Y-95211798D01*
X99640136Y-95234946D01*
X99678030Y-95269752D01*
X99699079Y-95318354D01*
X99705635Y-95377718D01*
X99696577Y-95445198D01*
X99667164Y-95498188D01*
X99617278Y-95536783D01*
X99546800Y-95561081D01*
X99468565Y-95570667D01*
X99404766Y-95570552D01*
X99353016Y-95561845D01*
X99317673Y-95549825D01*
X99273017Y-95528880D01*
X99231747Y-95504574D01*
X99217079Y-95493876D01*
X99179357Y-95463084D01*
X99224852Y-95417049D01*
X99270347Y-95371013D01*
X99322072Y-95405243D01*
X99373952Y-95430952D01*
X99429351Y-95444399D01*
X99482605Y-95445818D01*
X99528049Y-95435443D01*
X99560016Y-95413507D01*
X99570338Y-95394998D01*
X99568789Y-95365314D01*
X99543140Y-95342615D01*
X99493460Y-95326940D01*
X99439031Y-95319695D01*
X99355264Y-95305873D01*
X99293033Y-95279796D01*
X99251507Y-95240699D01*
X99229853Y-95187820D01*
X99226853Y-95125126D01*
X99241671Y-95059642D01*
X99275454Y-95010144D01*
X99328505Y-94976408D01*
X99401126Y-94958207D01*
X99454928Y-94954639D01*
X99514017Y-94956452D01*
X99514017Y-94956452D01*
G37*
X99514017Y-94956452D02*
X99561634Y-94965482D01*
X99611034Y-94984370D01*
X99616312Y-94986777D01*
X99653774Y-95006476D01*
X99679717Y-95024781D01*
X99688103Y-95036508D01*
X99680117Y-95055632D01*
X99660720Y-95083850D01*
X99652110Y-95094384D01*
X99616628Y-95135847D01*
X99570885Y-95108858D01*
X99527350Y-95090878D01*
X99477050Y-95081267D01*
X99428812Y-95080660D01*
X99391467Y-95089691D01*
X99382505Y-95095327D01*
X99365437Y-95121171D01*
X99363363Y-95150941D01*
X99376134Y-95174197D01*
X99383688Y-95178708D01*
X99406325Y-95184309D01*
X99446115Y-95190892D01*
X99495166Y-95197183D01*
X99504215Y-95198170D01*
X99582996Y-95211798D01*
X99640136Y-95234946D01*
X99678030Y-95269752D01*
X99699079Y-95318354D01*
X99705635Y-95377718D01*
X99696577Y-95445198D01*
X99667164Y-95498188D01*
X99617278Y-95536783D01*
X99546800Y-95561081D01*
X99468565Y-95570667D01*
X99404766Y-95570552D01*
X99353016Y-95561845D01*
X99317673Y-95549825D01*
X99273017Y-95528880D01*
X99231747Y-95504574D01*
X99217079Y-95493876D01*
X99179357Y-95463084D01*
X99224852Y-95417049D01*
X99270347Y-95371013D01*
X99322072Y-95405243D01*
X99373952Y-95430952D01*
X99429351Y-95444399D01*
X99482605Y-95445818D01*
X99528049Y-95435443D01*
X99560016Y-95413507D01*
X99570338Y-95394998D01*
X99568789Y-95365314D01*
X99543140Y-95342615D01*
X99493460Y-95326940D01*
X99439031Y-95319695D01*
X99355264Y-95305873D01*
X99293033Y-95279796D01*
X99251507Y-95240699D01*
X99229853Y-95187820D01*
X99226853Y-95125126D01*
X99241671Y-95059642D01*
X99275454Y-95010144D01*
X99328505Y-94976408D01*
X99401126Y-94958207D01*
X99454928Y-94954639D01*
X99514017Y-94956452D01*
G36*
X100110762Y-94966055D02*
G01*
X100174363Y-95000692D01*
X100224123Y-95055372D01*
X100247568Y-95099842D01*
X100257634Y-95139121D01*
X100264156Y-95195116D01*
X100266951Y-95259621D01*
X100265836Y-95324429D01*
X100260626Y-95381334D01*
X100254541Y-95411727D01*
X100234014Y-95453306D01*
X100198463Y-95497468D01*
X100155619Y-95536087D01*
X100113211Y-95561034D01*
X100112177Y-95561430D01*
X100059553Y-95572331D01*
X99997188Y-95572601D01*
X99937924Y-95562676D01*
X99915040Y-95554722D01*
X99856102Y-95521300D01*
X99813890Y-95477511D01*
X99786156Y-95419538D01*
X99770651Y-95343565D01*
X99767143Y-95303771D01*
X99767590Y-95253766D01*
X99902376Y-95253766D01*
X99906917Y-95326732D01*
X99919986Y-95382334D01*
X99940756Y-95417861D01*
X99955552Y-95428020D01*
X99993464Y-95435104D01*
X100038527Y-95433007D01*
X100077487Y-95422812D01*
X100087704Y-95417204D01*
X100114659Y-95384538D01*
X100132451Y-95334545D01*
X100140024Y-95273705D01*
X100136325Y-95208497D01*
X100128057Y-95169253D01*
X100104320Y-95123805D01*
X100066849Y-95095396D01*
X100021720Y-95085573D01*
X99975011Y-95095887D01*
X99939132Y-95121112D01*
X99920277Y-95141925D01*
X99909272Y-95162439D01*
X99904026Y-95190203D01*
X99902449Y-95232762D01*
X99902376Y-95253766D01*
X99767590Y-95253766D01*
X99768094Y-95197580D01*
X99785388Y-95110501D01*
X99819029Y-95042530D01*
X99869018Y-94993664D01*
X99935356Y-94963899D01*
X99949601Y-94960448D01*
X100035210Y-94952345D01*
X100110762Y-94966055D01*
X100110762Y-94966055D01*
G37*
X100110762Y-94966055D02*
X100174363Y-95000692D01*
X100224123Y-95055372D01*
X100247568Y-95099842D01*
X100257634Y-95139121D01*
X100264156Y-95195116D01*
X100266951Y-95259621D01*
X100265836Y-95324429D01*
X100260626Y-95381334D01*
X100254541Y-95411727D01*
X100234014Y-95453306D01*
X100198463Y-95497468D01*
X100155619Y-95536087D01*
X100113211Y-95561034D01*
X100112177Y-95561430D01*
X100059553Y-95572331D01*
X99997188Y-95572601D01*
X99937924Y-95562676D01*
X99915040Y-95554722D01*
X99856102Y-95521300D01*
X99813890Y-95477511D01*
X99786156Y-95419538D01*
X99770651Y-95343565D01*
X99767143Y-95303771D01*
X99767590Y-95253766D01*
X99902376Y-95253766D01*
X99906917Y-95326732D01*
X99919986Y-95382334D01*
X99940756Y-95417861D01*
X99955552Y-95428020D01*
X99993464Y-95435104D01*
X100038527Y-95433007D01*
X100077487Y-95422812D01*
X100087704Y-95417204D01*
X100114659Y-95384538D01*
X100132451Y-95334545D01*
X100140024Y-95273705D01*
X100136325Y-95208497D01*
X100128057Y-95169253D01*
X100104320Y-95123805D01*
X100066849Y-95095396D01*
X100021720Y-95085573D01*
X99975011Y-95095887D01*
X99939132Y-95121112D01*
X99920277Y-95141925D01*
X99909272Y-95162439D01*
X99904026Y-95190203D01*
X99902449Y-95232762D01*
X99902376Y-95253766D01*
X99767590Y-95253766D01*
X99768094Y-95197580D01*
X99785388Y-95110501D01*
X99819029Y-95042530D01*
X99869018Y-94993664D01*
X99935356Y-94963899D01*
X99949601Y-94960448D01*
X100035210Y-94952345D01*
X100110762Y-94966055D01*
G36*
X100493367Y-95154342D02*
G01*
X100494555Y-95246563D01*
X100498897Y-95316610D01*
X100507558Y-95367381D01*
X100521704Y-95401772D01*
X100542500Y-95422679D01*
X100571110Y-95433000D01*
X100606535Y-95435636D01*
X100643636Y-95432682D01*
X100671818Y-95421889D01*
X100692243Y-95400360D01*
X100706079Y-95365199D01*
X100714491Y-95313510D01*
X100718643Y-95242394D01*
X100719703Y-95154342D01*
X100719703Y-94958614D01*
X100858020Y-94958614D01*
X100858020Y-95562179D01*
X100788862Y-95562179D01*
X100747170Y-95560489D01*
X100725701Y-95554556D01*
X100719703Y-95543293D01*
X100716091Y-95533261D01*
X100701714Y-95535383D01*
X100672736Y-95549580D01*
X100606319Y-95571480D01*
X100535875Y-95569928D01*
X100468377Y-95546147D01*
X100436233Y-95527362D01*
X100411715Y-95507022D01*
X100393804Y-95481573D01*
X100381479Y-95447458D01*
X100373723Y-95401121D01*
X100369516Y-95339007D01*
X100367840Y-95257561D01*
X100367624Y-95194578D01*
X100367624Y-94958614D01*
X100493367Y-94958614D01*
X100493367Y-95154342D01*
X100493367Y-95154342D01*
G37*
X100493367Y-95154342D02*
X100494555Y-95246563D01*
X100498897Y-95316610D01*
X100507558Y-95367381D01*
X100521704Y-95401772D01*
X100542500Y-95422679D01*
X100571110Y-95433000D01*
X100606535Y-95435636D01*
X100643636Y-95432682D01*
X100671818Y-95421889D01*
X100692243Y-95400360D01*
X100706079Y-95365199D01*
X100714491Y-95313510D01*
X100718643Y-95242394D01*
X100719703Y-95154342D01*
X100719703Y-94958614D01*
X100858020Y-94958614D01*
X100858020Y-95562179D01*
X100788862Y-95562179D01*
X100747170Y-95560489D01*
X100725701Y-95554556D01*
X100719703Y-95543293D01*
X100716091Y-95533261D01*
X100701714Y-95535383D01*
X100672736Y-95549580D01*
X100606319Y-95571480D01*
X100535875Y-95569928D01*
X100468377Y-95546147D01*
X100436233Y-95527362D01*
X100411715Y-95507022D01*
X100393804Y-95481573D01*
X100381479Y-95447458D01*
X100373723Y-95401121D01*
X100369516Y-95339007D01*
X100367840Y-95257561D01*
X100367624Y-95194578D01*
X100367624Y-94958614D01*
X100493367Y-94958614D01*
X100493367Y-95154342D01*
G36*
X101717226Y-94963880D02*
G01*
X101790080Y-94994830D01*
X101813027Y-95009895D01*
X101842354Y-95033048D01*
X101860764Y-95051253D01*
X101863961Y-95057183D01*
X101854935Y-95070340D01*
X101831837Y-95092667D01*
X101813344Y-95108250D01*
X101762728Y-95148926D01*
X101722760Y-95115295D01*
X101691874Y-95093584D01*
X101661759Y-95086090D01*
X101627292Y-95087920D01*
X101572561Y-95101528D01*
X101534886Y-95129772D01*
X101511991Y-95175433D01*
X101501597Y-95241289D01*
X101501595Y-95241331D01*
X101502494Y-95314939D01*
X101516463Y-95368946D01*
X101544328Y-95405716D01*
X101563325Y-95418168D01*
X101613776Y-95433673D01*
X101667663Y-95433683D01*
X101714546Y-95418638D01*
X101725644Y-95411287D01*
X101753476Y-95392511D01*
X101775236Y-95389434D01*
X101798704Y-95403409D01*
X101824649Y-95428510D01*
X101865716Y-95470880D01*
X101820121Y-95508464D01*
X101749674Y-95550882D01*
X101670233Y-95571785D01*
X101587215Y-95570272D01*
X101532694Y-95556411D01*
X101468970Y-95522135D01*
X101418005Y-95468212D01*
X101394851Y-95430149D01*
X101376099Y-95375536D01*
X101366715Y-95306369D01*
X101366643Y-95231407D01*
X101375824Y-95159409D01*
X101394199Y-95099137D01*
X101397093Y-95092958D01*
X101439952Y-95032351D01*
X101497979Y-94988224D01*
X101566591Y-94961493D01*
X101641201Y-94953073D01*
X101717226Y-94963880D01*
X101717226Y-94963880D01*
G37*
X101717226Y-94963880D02*
X101790080Y-94994830D01*
X101813027Y-95009895D01*
X101842354Y-95033048D01*
X101860764Y-95051253D01*
X101863961Y-95057183D01*
X101854935Y-95070340D01*
X101831837Y-95092667D01*
X101813344Y-95108250D01*
X101762728Y-95148926D01*
X101722760Y-95115295D01*
X101691874Y-95093584D01*
X101661759Y-95086090D01*
X101627292Y-95087920D01*
X101572561Y-95101528D01*
X101534886Y-95129772D01*
X101511991Y-95175433D01*
X101501597Y-95241289D01*
X101501595Y-95241331D01*
X101502494Y-95314939D01*
X101516463Y-95368946D01*
X101544328Y-95405716D01*
X101563325Y-95418168D01*
X101613776Y-95433673D01*
X101667663Y-95433683D01*
X101714546Y-95418638D01*
X101725644Y-95411287D01*
X101753476Y-95392511D01*
X101775236Y-95389434D01*
X101798704Y-95403409D01*
X101824649Y-95428510D01*
X101865716Y-95470880D01*
X101820121Y-95508464D01*
X101749674Y-95550882D01*
X101670233Y-95571785D01*
X101587215Y-95570272D01*
X101532694Y-95556411D01*
X101468970Y-95522135D01*
X101418005Y-95468212D01*
X101394851Y-95430149D01*
X101376099Y-95375536D01*
X101366715Y-95306369D01*
X101366643Y-95231407D01*
X101375824Y-95159409D01*
X101394199Y-95099137D01*
X101397093Y-95092958D01*
X101439952Y-95032351D01*
X101497979Y-94988224D01*
X101566591Y-94961493D01*
X101641201Y-94953073D01*
X101717226Y-94963880D01*
G36*
X102177898Y-94956457D02*
G01*
X102210096Y-94964279D01*
X102271825Y-94992921D01*
X102324610Y-95036667D01*
X102361141Y-95089117D01*
X102366160Y-95100893D01*
X102373045Y-95131740D01*
X102377864Y-95177371D01*
X102379505Y-95223492D01*
X102379505Y-95310693D01*
X102197178Y-95310693D01*
X102121979Y-95310978D01*
X102069003Y-95312704D01*
X102035325Y-95317181D01*
X102018020Y-95325720D01*
X102014163Y-95339630D01*
X102020829Y-95360222D01*
X102032770Y-95384315D01*
X102066080Y-95424525D01*
X102112368Y-95444558D01*
X102168944Y-95443905D01*
X102233031Y-95422101D01*
X102288417Y-95395193D01*
X102334375Y-95431532D01*
X102380333Y-95467872D01*
X102337096Y-95507819D01*
X102279374Y-95545563D01*
X102208386Y-95568320D01*
X102132029Y-95574688D01*
X102058199Y-95563268D01*
X102046287Y-95559393D01*
X101981399Y-95525506D01*
X101933130Y-95474986D01*
X101900465Y-95406325D01*
X101882385Y-95318014D01*
X101882175Y-95316121D01*
X101880556Y-95219878D01*
X101887100Y-95185542D01*
X102014852Y-95185542D01*
X102026584Y-95190822D01*
X102058438Y-95194867D01*
X102105397Y-95197176D01*
X102135154Y-95197525D01*
X102190648Y-95197306D01*
X102225346Y-95195916D01*
X102243601Y-95192251D01*
X102249766Y-95185210D01*
X102248195Y-95173690D01*
X102246878Y-95169233D01*
X102224382Y-95127355D01*
X102189003Y-95093604D01*
X102157780Y-95078773D01*
X102116301Y-95079668D01*
X102074269Y-95098164D01*
X102039012Y-95128786D01*
X102017854Y-95166062D01*
X102014852Y-95185542D01*
X101887100Y-95185542D01*
X101896690Y-95135229D01*
X101928698Y-95064191D01*
X101974701Y-95008779D01*
X102032821Y-94971009D01*
X102101180Y-94952896D01*
X102177898Y-94956457D01*
X102177898Y-94956457D01*
G37*
X102177898Y-94956457D02*
X102210096Y-94964279D01*
X102271825Y-94992921D01*
X102324610Y-95036667D01*
X102361141Y-95089117D01*
X102366160Y-95100893D01*
X102373045Y-95131740D01*
X102377864Y-95177371D01*
X102379505Y-95223492D01*
X102379505Y-95310693D01*
X102197178Y-95310693D01*
X102121979Y-95310978D01*
X102069003Y-95312704D01*
X102035325Y-95317181D01*
X102018020Y-95325720D01*
X102014163Y-95339630D01*
X102020829Y-95360222D01*
X102032770Y-95384315D01*
X102066080Y-95424525D01*
X102112368Y-95444558D01*
X102168944Y-95443905D01*
X102233031Y-95422101D01*
X102288417Y-95395193D01*
X102334375Y-95431532D01*
X102380333Y-95467872D01*
X102337096Y-95507819D01*
X102279374Y-95545563D01*
X102208386Y-95568320D01*
X102132029Y-95574688D01*
X102058199Y-95563268D01*
X102046287Y-95559393D01*
X101981399Y-95525506D01*
X101933130Y-95474986D01*
X101900465Y-95406325D01*
X101882385Y-95318014D01*
X101882175Y-95316121D01*
X101880556Y-95219878D01*
X101887100Y-95185542D01*
X102014852Y-95185542D01*
X102026584Y-95190822D01*
X102058438Y-95194867D01*
X102105397Y-95197176D01*
X102135154Y-95197525D01*
X102190648Y-95197306D01*
X102225346Y-95195916D01*
X102243601Y-95192251D01*
X102249766Y-95185210D01*
X102248195Y-95173690D01*
X102246878Y-95169233D01*
X102224382Y-95127355D01*
X102189003Y-95093604D01*
X102157780Y-95078773D01*
X102116301Y-95079668D01*
X102074269Y-95098164D01*
X102039012Y-95128786D01*
X102017854Y-95166062D01*
X102014852Y-95185542D01*
X101887100Y-95185542D01*
X101896690Y-95135229D01*
X101928698Y-95064191D01*
X101974701Y-95008779D01*
X102032821Y-94971009D01*
X102101180Y-94952896D01*
X102177898Y-94956457D01*
G36*
X98745988Y-94969002D02*
G01*
X98777283Y-94983950D01*
X98807591Y-95005541D01*
X98830682Y-95030391D01*
X98847500Y-95062087D01*
X98858994Y-95104214D01*
X98866109Y-95160358D01*
X98869793Y-95234106D01*
X98870992Y-95329044D01*
X98871011Y-95338985D01*
X98871287Y-95562179D01*
X98732970Y-95562179D01*
X98732970Y-95356418D01*
X98732872Y-95280189D01*
X98732191Y-95224939D01*
X98730349Y-95186501D01*
X98726767Y-95160706D01*
X98720868Y-95143384D01*
X98712073Y-95130368D01*
X98699820Y-95117507D01*
X98656953Y-95089873D01*
X98610157Y-95084745D01*
X98565576Y-95102217D01*
X98550072Y-95115221D01*
X98538690Y-95127447D01*
X98530519Y-95140540D01*
X98525026Y-95158615D01*
X98521680Y-95185787D01*
X98519949Y-95226170D01*
X98519303Y-95283879D01*
X98519208Y-95354132D01*
X98519208Y-95562179D01*
X98380891Y-95562179D01*
X98380891Y-94958614D01*
X98450050Y-94958614D01*
X98491572Y-94960256D01*
X98512994Y-94966087D01*
X98519205Y-94977461D01*
X98519208Y-94977798D01*
X98522090Y-94988938D01*
X98534801Y-94987674D01*
X98560074Y-94975434D01*
X98617395Y-94957424D01*
X98682963Y-94955421D01*
X98745988Y-94969002D01*
X98745988Y-94969002D01*
G37*
X98745988Y-94969002D02*
X98777283Y-94983950D01*
X98807591Y-95005541D01*
X98830682Y-95030391D01*
X98847500Y-95062087D01*
X98858994Y-95104214D01*
X98866109Y-95160358D01*
X98869793Y-95234106D01*
X98870992Y-95329044D01*
X98871011Y-95338985D01*
X98871287Y-95562179D01*
X98732970Y-95562179D01*
X98732970Y-95356418D01*
X98732872Y-95280189D01*
X98732191Y-95224939D01*
X98730349Y-95186501D01*
X98726767Y-95160706D01*
X98720868Y-95143384D01*
X98712073Y-95130368D01*
X98699820Y-95117507D01*
X98656953Y-95089873D01*
X98610157Y-95084745D01*
X98565576Y-95102217D01*
X98550072Y-95115221D01*
X98538690Y-95127447D01*
X98530519Y-95140540D01*
X98525026Y-95158615D01*
X98521680Y-95185787D01*
X98519949Y-95226170D01*
X98519303Y-95283879D01*
X98519208Y-95354132D01*
X98519208Y-95562179D01*
X98380891Y-95562179D01*
X98380891Y-94958614D01*
X98450050Y-94958614D01*
X98491572Y-94960256D01*
X98512994Y-94966087D01*
X98519205Y-94977461D01*
X98519208Y-94977798D01*
X98522090Y-94988938D01*
X98534801Y-94987674D01*
X98560074Y-94975434D01*
X98617395Y-94957424D01*
X98682963Y-94955421D01*
X98745988Y-94969002D01*
G36*
X101299460Y-94958030D02*
G01*
X101342711Y-94971245D01*
X101370558Y-94987941D01*
X101379629Y-95001145D01*
X101377132Y-95016797D01*
X101360931Y-95041385D01*
X101347232Y-95058800D01*
X101318992Y-95090283D01*
X101297775Y-95103529D01*
X101279688Y-95102664D01*
X101226035Y-95089010D01*
X101186630Y-95089630D01*
X101154632Y-95105104D01*
X101143890Y-95114161D01*
X101109505Y-95146027D01*
X101109505Y-95562179D01*
X100971188Y-95562179D01*
X100971188Y-94958614D01*
X101040347Y-94958614D01*
X101081869Y-94960256D01*
X101103291Y-94966087D01*
X101109502Y-94977461D01*
X101109505Y-94977798D01*
X101112439Y-94989713D01*
X101125704Y-94988159D01*
X101144084Y-94979563D01*
X101182046Y-94963568D01*
X101212872Y-94953945D01*
X101252536Y-94951478D01*
X101299460Y-94958030D01*
X101299460Y-94958030D01*
G37*
X101299460Y-94958030D02*
X101342711Y-94971245D01*
X101370558Y-94987941D01*
X101379629Y-95001145D01*
X101377132Y-95016797D01*
X101360931Y-95041385D01*
X101347232Y-95058800D01*
X101318992Y-95090283D01*
X101297775Y-95103529D01*
X101279688Y-95102664D01*
X101226035Y-95089010D01*
X101186630Y-95089630D01*
X101154632Y-95105104D01*
X101143890Y-95114161D01*
X101109505Y-95146027D01*
X101109505Y-95562179D01*
X100971188Y-95562179D01*
X100971188Y-94958614D01*
X101040347Y-94958614D01*
X101081869Y-94960256D01*
X101103291Y-94966087D01*
X101109502Y-94977461D01*
X101109505Y-94977798D01*
X101112439Y-94989713D01*
X101125704Y-94988159D01*
X101144084Y-94979563D01*
X101182046Y-94963568D01*
X101212872Y-94953945D01*
X101252536Y-94951478D01*
X101299460Y-94958030D01*
G36*
X99876964Y-90790018D02*
G01*
X99933812Y-91091570D01*
X100353338Y-91264512D01*
X100604984Y-91093395D01*
X100675458Y-91045750D01*
X100739163Y-91003210D01*
X100793126Y-90967715D01*
X100834373Y-90941210D01*
X100859934Y-90925636D01*
X100866895Y-90922278D01*
X100879435Y-90930914D01*
X100906231Y-90954792D01*
X100944280Y-90990859D01*
X100990579Y-91036067D01*
X101042123Y-91087364D01*
X101095909Y-91141701D01*
X101148935Y-91196028D01*
X101198195Y-91247295D01*
X101240687Y-91292451D01*
X101273407Y-91328446D01*
X101293351Y-91352230D01*
X101298119Y-91360190D01*
X101291257Y-91374865D01*
X101272020Y-91407014D01*
X101242430Y-91453492D01*
X101204510Y-91511156D01*
X101160282Y-91576860D01*
X101134654Y-91614336D01*
X101087941Y-91682768D01*
X101046432Y-91744520D01*
X101012140Y-91796519D01*
X100987080Y-91835692D01*
X100973264Y-91858965D01*
X100971188Y-91863855D01*
X100975895Y-91877755D01*
X100988723Y-91910150D01*
X101007738Y-91956485D01*
X101031003Y-92012206D01*
X101056584Y-92072758D01*
X101082545Y-92133586D01*
X101106950Y-92190136D01*
X101127863Y-92237852D01*
X101143349Y-92272181D01*
X101151472Y-92288568D01*
X101151952Y-92289212D01*
X101164707Y-92292341D01*
X101198677Y-92299321D01*
X101250340Y-92309467D01*
X101316176Y-92322092D01*
X101392664Y-92336509D01*
X101437290Y-92344823D01*
X101519021Y-92360384D01*
X101592843Y-92375192D01*
X101655021Y-92388436D01*
X101701822Y-92399305D01*
X101729509Y-92406989D01*
X101735074Y-92409427D01*
X101740526Y-92425930D01*
X101744924Y-92463200D01*
X101748272Y-92516880D01*
X101750574Y-92582612D01*
X101751832Y-92656037D01*
X101752048Y-92732796D01*
X101751227Y-92808532D01*
X101749371Y-92878886D01*
X101746482Y-92939500D01*
X101742565Y-92986016D01*
X101737622Y-93014075D01*
X101734657Y-93019916D01*
X101716934Y-93026917D01*
X101679381Y-93036927D01*
X101626964Y-93048769D01*
X101564652Y-93061267D01*
X101542900Y-93065310D01*
X101438024Y-93084520D01*
X101355180Y-93099991D01*
X101291630Y-93112337D01*
X101244637Y-93122173D01*
X101211463Y-93130114D01*
X101189371Y-93136776D01*
X101175624Y-93142773D01*
X101167484Y-93148719D01*
X101166345Y-93149894D01*
X101154977Y-93168826D01*
X101137635Y-93205669D01*
X101116050Y-93255913D01*
X101091954Y-93315046D01*
X101067079Y-93378556D01*
X101043157Y-93441932D01*
X101021919Y-93500662D01*
X101005097Y-93550235D01*
X100994422Y-93586139D01*
X100991627Y-93603862D01*
X100991860Y-93604483D01*
X101001331Y-93618970D01*
X101022818Y-93650844D01*
X101054063Y-93696789D01*
X101092807Y-93753485D01*
X101136793Y-93817617D01*
X101149319Y-93835842D01*
X101193984Y-93901914D01*
X101233288Y-93962200D01*
X101265088Y-94013235D01*
X101287245Y-94051560D01*
X101297617Y-94073711D01*
X101298119Y-94076432D01*
X101289405Y-94090736D01*
X101265325Y-94119072D01*
X101228976Y-94158396D01*
X101183453Y-94205661D01*
X101131852Y-94257823D01*
X101077267Y-94311835D01*
X101022794Y-94364653D01*
X100971529Y-94413231D01*
X100926567Y-94454523D01*
X100891004Y-94485485D01*
X100867935Y-94503070D01*
X100861554Y-94505941D01*
X100846699Y-94499178D01*
X100816286Y-94480939D01*
X100775268Y-94454297D01*
X100743709Y-94432852D01*
X100686525Y-94393503D01*
X100618806Y-94347171D01*
X100550880Y-94300913D01*
X100514361Y-94276155D01*
X100390752Y-94192547D01*
X100286991Y-94248650D01*
X100239720Y-94273228D01*
X100199523Y-94292331D01*
X100172326Y-94303227D01*
X100165402Y-94304743D01*
X100157077Y-94293549D01*
X100140654Y-94261917D01*
X100117357Y-94212765D01*
X100088414Y-94149010D01*
X100055050Y-94073571D01*
X100018491Y-93989364D01*
X99979964Y-93899308D01*
X99940694Y-93806321D01*
X99901908Y-93713320D01*
X99864830Y-93623223D01*
X99830689Y-93538948D01*
X99800708Y-93463413D01*
X99776116Y-93399534D01*
X99758136Y-93350231D01*
X99747997Y-93318421D01*
X99746366Y-93307496D01*
X99759291Y-93293561D01*
X99787589Y-93270940D01*
X99825346Y-93244333D01*
X99828515Y-93242228D01*
X99926100Y-93164114D01*
X100004786Y-93072982D01*
X100063891Y-92971745D01*
X100102732Y-92863318D01*
X100120628Y-92750614D01*
X100116897Y-92636548D01*
X100090857Y-92524034D01*
X100041825Y-92415985D01*
X100027400Y-92392345D01*
X99952369Y-92296887D01*
X99863730Y-92220232D01*
X99764549Y-92162780D01*
X99657895Y-92124929D01*
X99546836Y-92107078D01*
X99434439Y-92109625D01*
X99323773Y-92132970D01*
X99217906Y-92177510D01*
X99119905Y-92243645D01*
X99089590Y-92270487D01*
X99012438Y-92354512D01*
X98956218Y-92442966D01*
X98917653Y-92542115D01*
X98896174Y-92640303D01*
X98890872Y-92750697D01*
X98908552Y-92861640D01*
X98947419Y-92969381D01*
X99005677Y-93070169D01*
X99081531Y-93160256D01*
X99173183Y-93235892D01*
X99185228Y-93243864D01*
X99223389Y-93269974D01*
X99252399Y-93292595D01*
X99266268Y-93307039D01*
X99266469Y-93307496D01*
X99263492Y-93323121D01*
X99251689Y-93358582D01*
X99232286Y-93410962D01*
X99206512Y-93477345D01*
X99175591Y-93554814D01*
X99140751Y-93640450D01*
X99103217Y-93731337D01*
X99064217Y-93824559D01*
X99024977Y-93917197D01*
X98986724Y-94006335D01*
X98950683Y-94089055D01*
X98918083Y-94162441D01*
X98890148Y-94223575D01*
X98868105Y-94269541D01*
X98853182Y-94297421D01*
X98847172Y-94304743D01*
X98828809Y-94299041D01*
X98794448Y-94283749D01*
X98750016Y-94261599D01*
X98725583Y-94248650D01*
X98621822Y-94192547D01*
X98498213Y-94276155D01*
X98435114Y-94318987D01*
X98366030Y-94366122D01*
X98301293Y-94410503D01*
X98268866Y-94432852D01*
X98223259Y-94463477D01*
X98184640Y-94487747D01*
X98158048Y-94502587D01*
X98149410Y-94505724D01*
X98136839Y-94497261D01*
X98109016Y-94473636D01*
X98068639Y-94437302D01*
X98018405Y-94390711D01*
X97961012Y-94336317D01*
X97924714Y-94301392D01*
X97861210Y-94238996D01*
X97806327Y-94183188D01*
X97762286Y-94136354D01*
X97731305Y-94100882D01*
X97715602Y-94079161D01*
X97714095Y-94074752D01*
X97721086Y-94057985D01*
X97740406Y-94024082D01*
X97769909Y-93976476D01*
X97807455Y-93918599D01*
X97850900Y-93853884D01*
X97863255Y-93835842D01*
X97908273Y-93770267D01*
X97948660Y-93711228D01*
X97982160Y-93662042D01*
X98006514Y-93626028D01*
X98019464Y-93606502D01*
X98020715Y-93604483D01*
X98018844Y-93588922D01*
X98008913Y-93554709D01*
X97992653Y-93506355D01*
X97971795Y-93448371D01*
X97948073Y-93385270D01*
X97923216Y-93321563D01*
X97898958Y-93261761D01*
X97877029Y-93210376D01*
X97859162Y-93171919D01*
X97847087Y-93150902D01*
X97846229Y-93149894D01*
X97838846Y-93143888D01*
X97826375Y-93137948D01*
X97806080Y-93131460D01*
X97775222Y-93123809D01*
X97731066Y-93114380D01*
X97670874Y-93102559D01*
X97591907Y-93087729D01*
X97491430Y-93069277D01*
X97469675Y-93065310D01*
X97405198Y-93052853D01*
X97348989Y-93040666D01*
X97306013Y-93029926D01*
X97281240Y-93021809D01*
X97277918Y-93019916D01*
X97272444Y-93003138D01*
X97267994Y-92965645D01*
X97264572Y-92911794D01*
X97262181Y-92845944D01*
X97260823Y-92772453D01*
X97260501Y-92695680D01*
X97261219Y-92619983D01*
X97262979Y-92549720D01*
X97265784Y-92489250D01*
X97269638Y-92442930D01*
X97274543Y-92415119D01*
X97277500Y-92409427D01*
X97293963Y-92403686D01*
X97331449Y-92394345D01*
X97386225Y-92382215D01*
X97454555Y-92368107D01*
X97532706Y-92352830D01*
X97575284Y-92344823D01*
X97656071Y-92329721D01*
X97728113Y-92316040D01*
X97787889Y-92304467D01*
X97831879Y-92295687D01*
X97856561Y-92290387D01*
X97860623Y-92289212D01*
X97867489Y-92275965D01*
X97882002Y-92244057D01*
X97902229Y-92198047D01*
X97926234Y-92142492D01*
X97952082Y-92081953D01*
X97977840Y-92020986D01*
X98001573Y-91964151D01*
X98021346Y-91916006D01*
X98035224Y-91881110D01*
X98041274Y-91864021D01*
X98041386Y-91863274D01*
X98034528Y-91849793D01*
X98015302Y-91818770D01*
X97985728Y-91773289D01*
X97947827Y-91716432D01*
X97903620Y-91651283D01*
X97877921Y-91613862D01*
X97831093Y-91545247D01*
X97789501Y-91482952D01*
X97755175Y-91430129D01*
X97730143Y-91389927D01*
X97716435Y-91365500D01*
X97714456Y-91360024D01*
X97722966Y-91347278D01*
X97746493Y-91320063D01*
X97782032Y-91281428D01*
X97826577Y-91234423D01*
X97877123Y-91182095D01*
X97930664Y-91127495D01*
X97984195Y-91073670D01*
X98034711Y-91023670D01*
X98079206Y-90980543D01*
X98114675Y-90947339D01*
X98138113Y-90927106D01*
X98145954Y-90922278D01*
X98158720Y-90929067D01*
X98189256Y-90948142D01*
X98234590Y-90977561D01*
X98291756Y-91015381D01*
X98357784Y-91059661D01*
X98407590Y-91093395D01*
X98659236Y-91264512D01*
X98868999Y-91178041D01*
X99078763Y-91091570D01*
X99135611Y-90790018D01*
X99192460Y-90488466D01*
X99820115Y-90488466D01*
X99876964Y-90790018D01*
X99876964Y-90790018D01*
G37*
X99876964Y-90790018D02*
X99933812Y-91091570D01*
X100353338Y-91264512D01*
X100604984Y-91093395D01*
X100675458Y-91045750D01*
X100739163Y-91003210D01*
X100793126Y-90967715D01*
X100834373Y-90941210D01*
X100859934Y-90925636D01*
X100866895Y-90922278D01*
X100879435Y-90930914D01*
X100906231Y-90954792D01*
X100944280Y-90990859D01*
X100990579Y-91036067D01*
X101042123Y-91087364D01*
X101095909Y-91141701D01*
X101148935Y-91196028D01*
X101198195Y-91247295D01*
X101240687Y-91292451D01*
X101273407Y-91328446D01*
X101293351Y-91352230D01*
X101298119Y-91360190D01*
X101291257Y-91374865D01*
X101272020Y-91407014D01*
X101242430Y-91453492D01*
X101204510Y-91511156D01*
X101160282Y-91576860D01*
X101134654Y-91614336D01*
X101087941Y-91682768D01*
X101046432Y-91744520D01*
X101012140Y-91796519D01*
X100987080Y-91835692D01*
X100973264Y-91858965D01*
X100971188Y-91863855D01*
X100975895Y-91877755D01*
X100988723Y-91910150D01*
X101007738Y-91956485D01*
X101031003Y-92012206D01*
X101056584Y-92072758D01*
X101082545Y-92133586D01*
X101106950Y-92190136D01*
X101127863Y-92237852D01*
X101143349Y-92272181D01*
X101151472Y-92288568D01*
X101151952Y-92289212D01*
X101164707Y-92292341D01*
X101198677Y-92299321D01*
X101250340Y-92309467D01*
X101316176Y-92322092D01*
X101392664Y-92336509D01*
X101437290Y-92344823D01*
X101519021Y-92360384D01*
X101592843Y-92375192D01*
X101655021Y-92388436D01*
X101701822Y-92399305D01*
X101729509Y-92406989D01*
X101735074Y-92409427D01*
X101740526Y-92425930D01*
X101744924Y-92463200D01*
X101748272Y-92516880D01*
X101750574Y-92582612D01*
X101751832Y-92656037D01*
X101752048Y-92732796D01*
X101751227Y-92808532D01*
X101749371Y-92878886D01*
X101746482Y-92939500D01*
X101742565Y-92986016D01*
X101737622Y-93014075D01*
X101734657Y-93019916D01*
X101716934Y-93026917D01*
X101679381Y-93036927D01*
X101626964Y-93048769D01*
X101564652Y-93061267D01*
X101542900Y-93065310D01*
X101438024Y-93084520D01*
X101355180Y-93099991D01*
X101291630Y-93112337D01*
X101244637Y-93122173D01*
X101211463Y-93130114D01*
X101189371Y-93136776D01*
X101175624Y-93142773D01*
X101167484Y-93148719D01*
X101166345Y-93149894D01*
X101154977Y-93168826D01*
X101137635Y-93205669D01*
X101116050Y-93255913D01*
X101091954Y-93315046D01*
X101067079Y-93378556D01*
X101043157Y-93441932D01*
X101021919Y-93500662D01*
X101005097Y-93550235D01*
X100994422Y-93586139D01*
X100991627Y-93603862D01*
X100991860Y-93604483D01*
X101001331Y-93618970D01*
X101022818Y-93650844D01*
X101054063Y-93696789D01*
X101092807Y-93753485D01*
X101136793Y-93817617D01*
X101149319Y-93835842D01*
X101193984Y-93901914D01*
X101233288Y-93962200D01*
X101265088Y-94013235D01*
X101287245Y-94051560D01*
X101297617Y-94073711D01*
X101298119Y-94076432D01*
X101289405Y-94090736D01*
X101265325Y-94119072D01*
X101228976Y-94158396D01*
X101183453Y-94205661D01*
X101131852Y-94257823D01*
X101077267Y-94311835D01*
X101022794Y-94364653D01*
X100971529Y-94413231D01*
X100926567Y-94454523D01*
X100891004Y-94485485D01*
X100867935Y-94503070D01*
X100861554Y-94505941D01*
X100846699Y-94499178D01*
X100816286Y-94480939D01*
X100775268Y-94454297D01*
X100743709Y-94432852D01*
X100686525Y-94393503D01*
X100618806Y-94347171D01*
X100550880Y-94300913D01*
X100514361Y-94276155D01*
X100390752Y-94192547D01*
X100286991Y-94248650D01*
X100239720Y-94273228D01*
X100199523Y-94292331D01*
X100172326Y-94303227D01*
X100165402Y-94304743D01*
X100157077Y-94293549D01*
X100140654Y-94261917D01*
X100117357Y-94212765D01*
X100088414Y-94149010D01*
X100055050Y-94073571D01*
X100018491Y-93989364D01*
X99979964Y-93899308D01*
X99940694Y-93806321D01*
X99901908Y-93713320D01*
X99864830Y-93623223D01*
X99830689Y-93538948D01*
X99800708Y-93463413D01*
X99776116Y-93399534D01*
X99758136Y-93350231D01*
X99747997Y-93318421D01*
X99746366Y-93307496D01*
X99759291Y-93293561D01*
X99787589Y-93270940D01*
X99825346Y-93244333D01*
X99828515Y-93242228D01*
X99926100Y-93164114D01*
X100004786Y-93072982D01*
X100063891Y-92971745D01*
X100102732Y-92863318D01*
X100120628Y-92750614D01*
X100116897Y-92636548D01*
X100090857Y-92524034D01*
X100041825Y-92415985D01*
X100027400Y-92392345D01*
X99952369Y-92296887D01*
X99863730Y-92220232D01*
X99764549Y-92162780D01*
X99657895Y-92124929D01*
X99546836Y-92107078D01*
X99434439Y-92109625D01*
X99323773Y-92132970D01*
X99217906Y-92177510D01*
X99119905Y-92243645D01*
X99089590Y-92270487D01*
X99012438Y-92354512D01*
X98956218Y-92442966D01*
X98917653Y-92542115D01*
X98896174Y-92640303D01*
X98890872Y-92750697D01*
X98908552Y-92861640D01*
X98947419Y-92969381D01*
X99005677Y-93070169D01*
X99081531Y-93160256D01*
X99173183Y-93235892D01*
X99185228Y-93243864D01*
X99223389Y-93269974D01*
X99252399Y-93292595D01*
X99266268Y-93307039D01*
X99266469Y-93307496D01*
X99263492Y-93323121D01*
X99251689Y-93358582D01*
X99232286Y-93410962D01*
X99206512Y-93477345D01*
X99175591Y-93554814D01*
X99140751Y-93640450D01*
X99103217Y-93731337D01*
X99064217Y-93824559D01*
X99024977Y-93917197D01*
X98986724Y-94006335D01*
X98950683Y-94089055D01*
X98918083Y-94162441D01*
X98890148Y-94223575D01*
X98868105Y-94269541D01*
X98853182Y-94297421D01*
X98847172Y-94304743D01*
X98828809Y-94299041D01*
X98794448Y-94283749D01*
X98750016Y-94261599D01*
X98725583Y-94248650D01*
X98621822Y-94192547D01*
X98498213Y-94276155D01*
X98435114Y-94318987D01*
X98366030Y-94366122D01*
X98301293Y-94410503D01*
X98268866Y-94432852D01*
X98223259Y-94463477D01*
X98184640Y-94487747D01*
X98158048Y-94502587D01*
X98149410Y-94505724D01*
X98136839Y-94497261D01*
X98109016Y-94473636D01*
X98068639Y-94437302D01*
X98018405Y-94390711D01*
X97961012Y-94336317D01*
X97924714Y-94301392D01*
X97861210Y-94238996D01*
X97806327Y-94183188D01*
X97762286Y-94136354D01*
X97731305Y-94100882D01*
X97715602Y-94079161D01*
X97714095Y-94074752D01*
X97721086Y-94057985D01*
X97740406Y-94024082D01*
X97769909Y-93976476D01*
X97807455Y-93918599D01*
X97850900Y-93853884D01*
X97863255Y-93835842D01*
X97908273Y-93770267D01*
X97948660Y-93711228D01*
X97982160Y-93662042D01*
X98006514Y-93626028D01*
X98019464Y-93606502D01*
X98020715Y-93604483D01*
X98018844Y-93588922D01*
X98008913Y-93554709D01*
X97992653Y-93506355D01*
X97971795Y-93448371D01*
X97948073Y-93385270D01*
X97923216Y-93321563D01*
X97898958Y-93261761D01*
X97877029Y-93210376D01*
X97859162Y-93171919D01*
X97847087Y-93150902D01*
X97846229Y-93149894D01*
X97838846Y-93143888D01*
X97826375Y-93137948D01*
X97806080Y-93131460D01*
X97775222Y-93123809D01*
X97731066Y-93114380D01*
X97670874Y-93102559D01*
X97591907Y-93087729D01*
X97491430Y-93069277D01*
X97469675Y-93065310D01*
X97405198Y-93052853D01*
X97348989Y-93040666D01*
X97306013Y-93029926D01*
X97281240Y-93021809D01*
X97277918Y-93019916D01*
X97272444Y-93003138D01*
X97267994Y-92965645D01*
X97264572Y-92911794D01*
X97262181Y-92845944D01*
X97260823Y-92772453D01*
X97260501Y-92695680D01*
X97261219Y-92619983D01*
X97262979Y-92549720D01*
X97265784Y-92489250D01*
X97269638Y-92442930D01*
X97274543Y-92415119D01*
X97277500Y-92409427D01*
X97293963Y-92403686D01*
X97331449Y-92394345D01*
X97386225Y-92382215D01*
X97454555Y-92368107D01*
X97532706Y-92352830D01*
X97575284Y-92344823D01*
X97656071Y-92329721D01*
X97728113Y-92316040D01*
X97787889Y-92304467D01*
X97831879Y-92295687D01*
X97856561Y-92290387D01*
X97860623Y-92289212D01*
X97867489Y-92275965D01*
X97882002Y-92244057D01*
X97902229Y-92198047D01*
X97926234Y-92142492D01*
X97952082Y-92081953D01*
X97977840Y-92020986D01*
X98001573Y-91964151D01*
X98021346Y-91916006D01*
X98035224Y-91881110D01*
X98041274Y-91864021D01*
X98041386Y-91863274D01*
X98034528Y-91849793D01*
X98015302Y-91818770D01*
X97985728Y-91773289D01*
X97947827Y-91716432D01*
X97903620Y-91651283D01*
X97877921Y-91613862D01*
X97831093Y-91545247D01*
X97789501Y-91482952D01*
X97755175Y-91430129D01*
X97730143Y-91389927D01*
X97716435Y-91365500D01*
X97714456Y-91360024D01*
X97722966Y-91347278D01*
X97746493Y-91320063D01*
X97782032Y-91281428D01*
X97826577Y-91234423D01*
X97877123Y-91182095D01*
X97930664Y-91127495D01*
X97984195Y-91073670D01*
X98034711Y-91023670D01*
X98079206Y-90980543D01*
X98114675Y-90947339D01*
X98138113Y-90927106D01*
X98145954Y-90922278D01*
X98158720Y-90929067D01*
X98189256Y-90948142D01*
X98234590Y-90977561D01*
X98291756Y-91015381D01*
X98357784Y-91059661D01*
X98407590Y-91093395D01*
X98659236Y-91264512D01*
X98868999Y-91178041D01*
X99078763Y-91091570D01*
X99135611Y-90790018D01*
X99192460Y-90488466D01*
X99820115Y-90488466D01*
X99876964Y-90790018D01*
D13*
X112820000Y-78250000D02*
X112820000Y-77250000D01*
X114180000Y-77250000D02*
X114180000Y-78250000D01*
X104500000Y-52820000D02*
X105500000Y-52820000D01*
X105500000Y-54180000D02*
X104500000Y-54180000D01*
X85000000Y-52070000D02*
X86000000Y-52070000D01*
X86000000Y-53430000D02*
X85000000Y-53430000D01*
X85000000Y-50070000D02*
X86000000Y-50070000D01*
X86000000Y-51430000D02*
X85000000Y-51430000D01*
X70500000Y-101000000D02*
X70500000Y-97100000D01*
X72500000Y-101000000D02*
X72500000Y-97100000D01*
X70500000Y-101000000D02*
X72500000Y-101000000D01*
X109450000Y-79300000D02*
X109250000Y-79300000D01*
X107150000Y-79300000D02*
X107150000Y-79700000D01*
X107050000Y-79300000D02*
X107150000Y-79300000D01*
X107050000Y-76700000D02*
X107050000Y-79300000D01*
X107250000Y-76700000D02*
X107050000Y-76700000D01*
X109450000Y-76700000D02*
X109250000Y-76700000D01*
X109450000Y-79300000D02*
X109450000Y-76700000D01*
X86850000Y-100300000D02*
X87950000Y-100300000D01*
X87950000Y-100300000D02*
X87950000Y-97700000D01*
X86850000Y-100300000D02*
X86850000Y-97700000D01*
X87950000Y-44700000D02*
X86850000Y-44700000D01*
X86850000Y-44700000D02*
X86850000Y-47300000D01*
X87950000Y-44700000D02*
X87950000Y-47300000D01*
X100250000Y-76100000D02*
X101250000Y-76100000D01*
X101250000Y-74400000D02*
X100250000Y-74400000D01*
X70500000Y-47500000D02*
X72500000Y-47500000D01*
X72500000Y-47500000D02*
X72500000Y-43600000D01*
X70500000Y-47500000D02*
X70500000Y-43600000D01*
D14*
X78500000Y-67100000D02*
G75*
G02X78500000Y-66900000I0J100000D01*
G01*
X78500000Y-66900000D02*
G75*
G02X78500000Y-67100000I0J-100000D01*
G01*
X78500000Y-66900000D02*
X78500000Y-66900000D01*
X78500000Y-67100000D02*
X78500000Y-67100000D01*
D11*
X76400000Y-69950000D02*
X76400000Y-67100000D01*
X76400000Y-53050000D02*
X76400000Y-56500000D01*
X62400000Y-69950000D02*
X65400000Y-69950000D01*
X62400000Y-53050000D02*
X62400000Y-69950000D01*
X65400000Y-53050000D02*
X62400000Y-53050000D01*
D13*
X99170000Y-79260000D02*
X100100000Y-79260000D01*
X102330000Y-79260000D02*
X101400000Y-79260000D01*
X102330000Y-79260000D02*
X102330000Y-77100000D01*
X99170000Y-79260000D02*
X99170000Y-77800000D01*
X82000000Y-77320000D02*
X83000000Y-77320000D01*
X83000000Y-78680000D02*
X82000000Y-78680000D01*
X101100000Y-82350000D02*
X100400000Y-82350000D01*
X100400000Y-81150000D02*
X101100000Y-81150000D01*
X90430000Y-98000000D02*
X90430000Y-99000000D01*
X89070000Y-99000000D02*
X89070000Y-98000000D01*
X90180000Y-46000000D02*
X90180000Y-47000000D01*
X88820000Y-47000000D02*
X88820000Y-46000000D01*
X111930000Y-77250000D02*
X111930000Y-78250000D01*
X110570000Y-78250000D02*
X110570000Y-77250000D01*
X104570000Y-78250000D02*
X104570000Y-77250000D01*
X105930000Y-77250000D02*
X105930000Y-78250000D01*
D15*
X62501780Y-102497960D02*
X61501020Y-102497960D01*
X62501780Y-94502040D02*
X61501020Y-94502040D01*
X66499740Y-102497960D02*
X66499740Y-101499740D01*
X65498980Y-102497960D02*
X66499740Y-102497960D01*
X66499740Y-94502040D02*
X66499740Y-95500260D01*
X65498980Y-94507120D02*
X65498980Y-94502040D01*
X66479420Y-94507120D02*
X65498980Y-94507120D01*
D16*
X62651640Y-99848740D02*
X62651640Y-97151260D01*
X62651640Y-97151260D02*
X64348360Y-97151260D01*
X64348360Y-99848740D02*
X64348360Y-97151260D01*
X62651640Y-99848740D02*
X64348360Y-99848740D01*
X62651640Y-103183760D02*
X62651640Y-101182240D01*
X62651640Y-101182240D02*
X64348360Y-101182240D01*
X64348360Y-103183760D02*
X64348360Y-101182240D01*
X62651640Y-103183760D02*
X64348360Y-103183760D01*
X62651640Y-95817760D02*
X62651640Y-93816240D01*
X62651640Y-93816240D02*
X64348360Y-93816240D01*
X64348360Y-95817760D02*
X64348360Y-93816240D01*
X62651640Y-95817760D02*
X64348360Y-95817760D01*
X62750700Y-103082160D02*
X62750700Y-101283840D01*
X62750700Y-101283840D02*
X64249300Y-101283840D01*
X64249300Y-103082160D02*
X64249300Y-101283840D01*
X62750700Y-103082160D02*
X64249300Y-103082160D01*
X63152020Y-99249300D02*
X63152020Y-97750700D01*
X63152020Y-97750700D02*
X63847980Y-97750700D01*
X63847980Y-99249300D02*
X63847980Y-97750700D01*
X63152020Y-99249300D02*
X63847980Y-99249300D01*
X62750700Y-95716160D02*
X62750700Y-93917840D01*
X62750700Y-93917840D02*
X64249300Y-93917840D01*
X64249300Y-95716160D02*
X64249300Y-93917840D01*
X62750700Y-95716160D02*
X64249300Y-95716160D01*
D15*
X62501780Y-50497960D02*
X61501020Y-50497960D01*
X62501780Y-42502040D02*
X61501020Y-42502040D01*
X66499740Y-50497960D02*
X66499740Y-49499740D01*
X65498980Y-50497960D02*
X66499740Y-50497960D01*
X66499740Y-42502040D02*
X66499740Y-43500260D01*
X65498980Y-42507120D02*
X65498980Y-42502040D01*
X66479420Y-42507120D02*
X65498980Y-42507120D01*
D16*
X62651640Y-47848740D02*
X62651640Y-45151260D01*
X62651640Y-45151260D02*
X64348360Y-45151260D01*
X64348360Y-47848740D02*
X64348360Y-45151260D01*
X62651640Y-47848740D02*
X64348360Y-47848740D01*
X62651640Y-51183760D02*
X62651640Y-49182240D01*
X62651640Y-49182240D02*
X64348360Y-49182240D01*
X64348360Y-51183760D02*
X64348360Y-49182240D01*
X62651640Y-51183760D02*
X64348360Y-51183760D01*
X62651640Y-43817760D02*
X62651640Y-41816240D01*
X62651640Y-41816240D02*
X64348360Y-41816240D01*
X64348360Y-43817760D02*
X64348360Y-41816240D01*
X62651640Y-43817760D02*
X64348360Y-43817760D01*
X62750700Y-51082160D02*
X62750700Y-49283840D01*
X62750700Y-49283840D02*
X64249300Y-49283840D01*
X64249300Y-51082160D02*
X64249300Y-49283840D01*
X62750700Y-51082160D02*
X64249300Y-51082160D01*
X63152020Y-47249300D02*
X63152020Y-45750700D01*
X63152020Y-45750700D02*
X63847980Y-45750700D01*
X63847980Y-47249300D02*
X63847980Y-45750700D01*
X63152020Y-47249300D02*
X63847980Y-47249300D01*
X62750700Y-43716160D02*
X62750700Y-41917840D01*
X62750700Y-41917840D02*
X64249300Y-41917840D01*
X64249300Y-43716160D02*
X64249300Y-41917840D01*
X62750700Y-43716160D02*
X64249300Y-43716160D01*
D13*
X96250000Y-64550000D02*
X96700000Y-64550000D01*
X96550000Y-56450000D02*
X96550000Y-56750000D01*
X96250000Y-56450000D02*
X96550000Y-56450000D01*
X88450000Y-56450000D02*
X88450000Y-56750000D01*
X88750000Y-56450000D02*
X88450000Y-56450000D01*
X88450000Y-64550000D02*
X88450000Y-64250000D01*
X88750000Y-64550000D02*
X88450000Y-64550000D01*
X77070000Y-49730000D02*
X77070000Y-49700000D01*
X77070000Y-43270000D02*
X77070000Y-43300000D01*
X83530000Y-43270000D02*
X83530000Y-43300000D01*
X83530000Y-49700000D02*
X83530000Y-49730000D01*
X77070000Y-47800000D02*
X77070000Y-45200000D01*
X83530000Y-49730000D02*
X77070000Y-49730000D01*
X83530000Y-47800000D02*
X83530000Y-45200000D01*
X83530000Y-43270000D02*
X77070000Y-43270000D01*
X83630000Y-95270000D02*
X83630000Y-95300000D01*
X83630000Y-101730000D02*
X83630000Y-101700000D01*
X77170000Y-101730000D02*
X77170000Y-101700000D01*
X77170000Y-95300000D02*
X77170000Y-95270000D01*
X83630000Y-97200000D02*
X83630000Y-99800000D01*
X77170000Y-95270000D02*
X83630000Y-95270000D01*
X77170000Y-97200000D02*
X77170000Y-99800000D01*
X77170000Y-101730000D02*
X83630000Y-101730000D01*
X108820000Y-70500000D02*
X108820000Y-69500000D01*
X110180000Y-69500000D02*
X110180000Y-70500000D01*
X105820000Y-70500000D02*
X105820000Y-69500000D01*
X107180000Y-69500000D02*
X107180000Y-70500000D01*
X103320000Y-70500000D02*
X103320000Y-69500000D01*
X104680000Y-69500000D02*
X104680000Y-70500000D01*
X112680000Y-69500000D02*
X112680000Y-70500000D01*
X111320000Y-70500000D02*
X111320000Y-69500000D01*
X98220000Y-70500000D02*
X98220000Y-69500000D01*
X99580000Y-69500000D02*
X99580000Y-70500000D01*
X102080000Y-69500000D02*
X102080000Y-70500000D01*
X100720000Y-70500000D02*
X100720000Y-69500000D01*
X118110000Y-75450000D02*
X120440000Y-75450000D01*
X118110000Y-90440000D02*
X120230000Y-90440000D01*
X118110000Y-75450000D02*
X118110000Y-90440000D01*
X132200000Y-75450000D02*
X132200000Y-90440000D01*
X123400000Y-75450000D02*
X132200000Y-75450000D01*
X123600000Y-90440000D02*
X132200000Y-90440000D01*
X107350000Y-64100000D02*
X106650000Y-64100000D01*
X106650000Y-62900000D02*
X107350000Y-62900000D01*
X102350000Y-62600000D02*
X101650000Y-62600000D01*
X101650000Y-61400000D02*
X102350000Y-61400000D01*
X107350000Y-61100000D02*
X106650000Y-61100000D01*
X106650000Y-59900000D02*
X107350000Y-59900000D01*
X102350000Y-59600000D02*
X101650000Y-59600000D01*
X101650000Y-58400000D02*
X102350000Y-58400000D01*
X102350000Y-58600000D02*
X101650000Y-58600000D01*
X101650000Y-57400000D02*
X102350000Y-57400000D01*
X107350000Y-63100000D02*
X106650000Y-63100000D01*
X106650000Y-61900000D02*
X107350000Y-61900000D01*
X102350000Y-61600000D02*
X101650000Y-61600000D01*
X101650000Y-60400000D02*
X102350000Y-60400000D01*
X107350000Y-60100000D02*
X106650000Y-60100000D01*
X106650000Y-58900000D02*
X107350000Y-58900000D01*
X97850000Y-66600000D02*
X97150000Y-66600000D01*
X97150000Y-65400000D02*
X97850000Y-65400000D01*
X94000000Y-53200000D02*
X94000000Y-53900000D01*
X92800000Y-53900000D02*
X92800000Y-53200000D01*
X81500000Y-55800000D02*
X81500000Y-56500000D01*
X80300000Y-56500000D02*
X80300000Y-55800000D01*
X82850000Y-81600000D02*
X82150000Y-81600000D01*
X82150000Y-80400000D02*
X82850000Y-80400000D01*
X82500000Y-55800000D02*
X82500000Y-56500000D01*
X81300000Y-56500000D02*
X81300000Y-55800000D01*
X82850000Y-82600000D02*
X82150000Y-82600000D01*
X82150000Y-81400000D02*
X82850000Y-81400000D01*
D14*
X115250000Y-57900000D02*
G75*
G02X115250000Y-58100000I0J-100000D01*
G01*
X115250000Y-58100000D02*
G75*
G02X115250000Y-57900000I0J100000D01*
G01*
X115250000Y-58100000D02*
X115250000Y-58100000D01*
X115250000Y-57900000D02*
X115250000Y-57900000D01*
D11*
X117350000Y-55050000D02*
X117350000Y-57900000D01*
X117350000Y-71950000D02*
X117350000Y-68500000D01*
X131350000Y-55050000D02*
X128350000Y-55050000D01*
X131350000Y-71950000D02*
X131350000Y-55050000D01*
X128350000Y-71950000D02*
X131350000Y-71950000D01*
D14*
X78500000Y-89100000D02*
G75*
G02X78500000Y-88900000I0J100000D01*
G01*
X78500000Y-88900000D02*
G75*
G02X78500000Y-89100000I0J-100000D01*
G01*
X78500000Y-88900000D02*
X78500000Y-88900000D01*
X78500000Y-89100000D02*
X78500000Y-89100000D01*
D11*
X76400000Y-91950000D02*
X76400000Y-89100000D01*
X76400000Y-75050000D02*
X76400000Y-78500000D01*
X62400000Y-91950000D02*
X65400000Y-91950000D01*
X62400000Y-75050000D02*
X62400000Y-91950000D01*
X65400000Y-75050000D02*
X62400000Y-75050000D01*
D10*
X115402380Y-78392857D02*
X114926190Y-78726190D01*
X115402380Y-78964285D02*
X114402380Y-78964285D01*
X114402380Y-78583333D01*
X114450000Y-78488095D01*
X114497619Y-78440476D01*
X114592857Y-78392857D01*
X114735714Y-78392857D01*
X114830952Y-78440476D01*
X114878571Y-78488095D01*
X114926190Y-78583333D01*
X114926190Y-78964285D01*
X115402380Y-77440476D02*
X115402380Y-78011904D01*
X115402380Y-77726190D02*
X114402380Y-77726190D01*
X114545238Y-77821428D01*
X114640476Y-77916666D01*
X114688095Y-78011904D01*
X114402380Y-76535714D02*
X114402380Y-77011904D01*
X114878571Y-77059523D01*
X114830952Y-77011904D01*
X114783333Y-76916666D01*
X114783333Y-76678571D01*
X114830952Y-76583333D01*
X114878571Y-76535714D01*
X114973809Y-76488095D01*
X115211904Y-76488095D01*
X115307142Y-76535714D01*
X115354761Y-76583333D01*
X115402380Y-76678571D01*
X115402380Y-76916666D01*
X115354761Y-77011904D01*
X115307142Y-77059523D01*
X104357142Y-55402380D02*
X104023809Y-54926190D01*
X103785714Y-55402380D02*
X103785714Y-54402380D01*
X104166666Y-54402380D01*
X104261904Y-54450000D01*
X104309523Y-54497619D01*
X104357142Y-54592857D01*
X104357142Y-54735714D01*
X104309523Y-54830952D01*
X104261904Y-54878571D01*
X104166666Y-54926190D01*
X103785714Y-54926190D01*
X105309523Y-55402380D02*
X104738095Y-55402380D01*
X105023809Y-55402380D02*
X105023809Y-54402380D01*
X104928571Y-54545238D01*
X104833333Y-54640476D01*
X104738095Y-54688095D01*
X106166666Y-54735714D02*
X106166666Y-55402380D01*
X105928571Y-54354761D02*
X105690476Y-55069047D01*
X106309523Y-55069047D01*
X84857142Y-54652380D02*
X84523809Y-54176190D01*
X84285714Y-54652380D02*
X84285714Y-53652380D01*
X84666666Y-53652380D01*
X84761904Y-53700000D01*
X84809523Y-53747619D01*
X84857142Y-53842857D01*
X84857142Y-53985714D01*
X84809523Y-54080952D01*
X84761904Y-54128571D01*
X84666666Y-54176190D01*
X84285714Y-54176190D01*
X85809523Y-54652380D02*
X85238095Y-54652380D01*
X85523809Y-54652380D02*
X85523809Y-53652380D01*
X85428571Y-53795238D01*
X85333333Y-53890476D01*
X85238095Y-53938095D01*
X86142857Y-53652380D02*
X86761904Y-53652380D01*
X86428571Y-54033333D01*
X86571428Y-54033333D01*
X86666666Y-54080952D01*
X86714285Y-54128571D01*
X86761904Y-54223809D01*
X86761904Y-54461904D01*
X86714285Y-54557142D01*
X86666666Y-54604761D01*
X86571428Y-54652380D01*
X86285714Y-54652380D01*
X86190476Y-54604761D01*
X86142857Y-54557142D01*
X84857142Y-52652380D02*
X84523809Y-52176190D01*
X84285714Y-52652380D02*
X84285714Y-51652380D01*
X84666666Y-51652380D01*
X84761904Y-51700000D01*
X84809523Y-51747619D01*
X84857142Y-51842857D01*
X84857142Y-51985714D01*
X84809523Y-52080952D01*
X84761904Y-52128571D01*
X84666666Y-52176190D01*
X84285714Y-52176190D01*
X85809523Y-52652380D02*
X85238095Y-52652380D01*
X85523809Y-52652380D02*
X85523809Y-51652380D01*
X85428571Y-51795238D01*
X85333333Y-51890476D01*
X85238095Y-51938095D01*
X86190476Y-51747619D02*
X86238095Y-51700000D01*
X86333333Y-51652380D01*
X86571428Y-51652380D01*
X86666666Y-51700000D01*
X86714285Y-51747619D01*
X86761904Y-51842857D01*
X86761904Y-51938095D01*
X86714285Y-52080952D01*
X86142857Y-52652380D01*
X86761904Y-52652380D01*
%LPC*%
D11*
G36*
X79670000Y-70596000D02*
G01*
X79846000Y-70423000D01*
X80025000Y-70320000D01*
X80222000Y-70278000D01*
X80379000Y-70283000D01*
X80541000Y-70340000D01*
X80704000Y-70437000D01*
X80833000Y-70568000D01*
X80929000Y-70736000D01*
X80994000Y-70944000D01*
X81029000Y-71194000D01*
X81064000Y-71419000D01*
X81140000Y-71589000D01*
X81277000Y-71746000D01*
X81461000Y-71944000D01*
X81549000Y-72117000D01*
X81573000Y-72328000D01*
X81557000Y-72486000D01*
X81493000Y-72658000D01*
X81401000Y-72825000D01*
X81271000Y-72951000D01*
X81117000Y-73052000D01*
X80955000Y-73096000D01*
X80752000Y-73094000D01*
X80537000Y-73082000D01*
X80377000Y-73102000D01*
X80230000Y-73167000D01*
X80056000Y-73287000D01*
X79862000Y-73412000D01*
X79672000Y-73491000D01*
X79485000Y-73525000D01*
X79302000Y-73514000D01*
X79123000Y-73457000D01*
X78974000Y-73374000D01*
X78867000Y-73258000D01*
X78780000Y-73101000D01*
X78732000Y-72922000D01*
X78727000Y-72734000D01*
X78752000Y-72583000D01*
X78803000Y-72434000D01*
X78888000Y-72269000D01*
X79015000Y-72071000D01*
X79136000Y-71887000D01*
X79227000Y-71727000D01*
X79298000Y-71570000D01*
X79360000Y-71395000D01*
X79422000Y-71181000D01*
X79504000Y-70901000D01*
X79578000Y-70726000D01*
X79670000Y-70596000D01*
X79670000Y-70596000D01*
G37*
G36*
X81368000Y-70428000D02*
G01*
X81485000Y-70354000D01*
X81604000Y-70305000D01*
X81798000Y-70277000D01*
X82011000Y-70277000D01*
X82227000Y-70306000D01*
X82428000Y-70359000D01*
X82600000Y-70436000D01*
X82771000Y-70557000D01*
X82940000Y-70714000D01*
X83089000Y-70884000D01*
X83198000Y-71047000D01*
X83248000Y-71179000D01*
X83227000Y-71333000D01*
X83131000Y-71481000D01*
X82969000Y-71614000D01*
X82749000Y-71721000D01*
X82530000Y-71785000D01*
X82316000Y-71808000D01*
X82101000Y-71790000D01*
X81880000Y-71731000D01*
X81646000Y-71630000D01*
X81433000Y-71511000D01*
X81316000Y-71395000D01*
X81216000Y-71228000D01*
X81164000Y-71044000D01*
X81159000Y-70851000D01*
X81203000Y-70656000D01*
X81264000Y-70529000D01*
X81368000Y-70428000D01*
X81368000Y-70428000D01*
G37*
G36*
X79912000Y-73587000D02*
G01*
X80072000Y-73454000D01*
X80248000Y-73376000D01*
X80442000Y-73353000D01*
X80655000Y-73383000D01*
X80890000Y-73468000D01*
X81092000Y-73576000D01*
X81264000Y-73703000D01*
X81406000Y-73850000D01*
X81522000Y-74021000D01*
X81613000Y-74216000D01*
X81676000Y-74444000D01*
X81685000Y-74648000D01*
X81642000Y-74816000D01*
X81548000Y-74938000D01*
X81402000Y-74997000D01*
X81182000Y-75024000D01*
X80926000Y-75020000D01*
X80675000Y-74986000D01*
X80466000Y-74921000D01*
X80315000Y-74835000D01*
X80160000Y-74716000D01*
X80013000Y-74575000D01*
X79887000Y-74426000D01*
X79794000Y-74281000D01*
X79744000Y-74118000D01*
X79735000Y-73938000D01*
X79771000Y-73784000D01*
X79830000Y-73687000D01*
X79912000Y-73587000D01*
X79912000Y-73587000D01*
G37*
G36*
X82485000Y-72011000D02*
G01*
X82635000Y-71898000D01*
X82811000Y-71826000D01*
X83003000Y-71797000D01*
X83202000Y-71813000D01*
X83395000Y-71874000D01*
X83531000Y-71947000D01*
X83648000Y-72043000D01*
X83775000Y-72191000D01*
X83939000Y-72417000D01*
X84108000Y-72678000D01*
X84208000Y-72880000D01*
X84246000Y-73047000D01*
X84232000Y-73201000D01*
X84162000Y-73350000D01*
X84038000Y-73444000D01*
X83861000Y-73482000D01*
X83632000Y-73465000D01*
X83351000Y-73392000D01*
X83137000Y-73310000D01*
X82939000Y-73212000D01*
X82761000Y-73101000D01*
X82609000Y-72980000D01*
X82485000Y-72852000D01*
X82396000Y-72721000D01*
X82339000Y-72543000D01*
X82337000Y-72347000D01*
X82387000Y-72160000D01*
X82485000Y-72011000D01*
X82485000Y-72011000D01*
G37*
G36*
X81808000Y-73494000D02*
G01*
X81976000Y-73353000D01*
X82195000Y-73283000D01*
X82379000Y-73275000D01*
X82588000Y-73302000D01*
X82812000Y-73363000D01*
X83043000Y-73456000D01*
X83274000Y-73578000D01*
X83510000Y-73738000D01*
X83671000Y-73893000D01*
X83757000Y-74044000D01*
X83770000Y-74192000D01*
X83707000Y-74360000D01*
X83576000Y-74487000D01*
X83369000Y-74579000D01*
X83078000Y-74640000D01*
X82768000Y-74675000D01*
X82512000Y-74681000D01*
X82302000Y-74657000D01*
X82128000Y-74600000D01*
X81983000Y-74509000D01*
X81855000Y-74382000D01*
X81737000Y-74202000D01*
X81674000Y-74016000D01*
X81664000Y-73831000D01*
X81709000Y-73655000D01*
X81808000Y-73494000D01*
X81808000Y-73494000D01*
G37*
G36*
X83494000Y-71082000D02*
G01*
X83615000Y-71191000D01*
X83753000Y-71376000D01*
X83843000Y-71553000D01*
X83835000Y-71698000D01*
X83689000Y-71675000D01*
X83473000Y-71611000D01*
X83340000Y-71552000D01*
X83363000Y-71409000D01*
X83418000Y-71196000D01*
X83494000Y-71082000D01*
X83494000Y-71082000D01*
G37*
G36*
X81659000Y-75061000D02*
G01*
X81778000Y-74886000D01*
X81880000Y-74773000D01*
X82018000Y-74841000D01*
X82211000Y-74968000D01*
X82318000Y-75060000D01*
X82247000Y-75132000D01*
X82042000Y-75191000D01*
X81801000Y-75219000D01*
X81621000Y-75197000D01*
X81659000Y-75061000D01*
X81659000Y-75061000D01*
G37*
G36*
X84285000Y-73410000D02*
G01*
X84378000Y-73236000D01*
X84421000Y-73155000D01*
X84540000Y-73292000D01*
X84652000Y-73489000D01*
X84742000Y-73710000D01*
X84766000Y-73843000D01*
X84697000Y-73869000D01*
X84466000Y-73755000D01*
X84238000Y-73619000D01*
X84190000Y-73528000D01*
X84285000Y-73410000D01*
X84285000Y-73410000D01*
G37*
G36*
X83981000Y-74081000D02*
G01*
X84093000Y-74114000D01*
X84295000Y-74189000D01*
X84518000Y-74285000D01*
X84542000Y-74337000D01*
X84425000Y-74410000D01*
X84201000Y-74488000D01*
X83974000Y-74535000D01*
X83792000Y-74535000D01*
X83824000Y-74452000D01*
X83899000Y-74251000D01*
X83981000Y-74081000D01*
X83981000Y-74081000D01*
G37*
D17*
X113500000Y-76650000D03*
X113500000Y-78850000D03*
D18*
X106100000Y-53500000D03*
X103900000Y-53500000D03*
X86600000Y-52750000D03*
X84400000Y-52750000D03*
X86600000Y-50750000D03*
X84400000Y-50750000D03*
X71500000Y-97100000D03*
X71500000Y-100400000D03*
D19*
X107500000Y-79550000D03*
X108000000Y-79550000D03*
X108500000Y-79550000D03*
X109000000Y-79550000D03*
X109000000Y-76450000D03*
X108500000Y-76450000D03*
X108000000Y-76450000D03*
X107500000Y-76450000D03*
D17*
X87400000Y-99600000D03*
X87400000Y-97400000D03*
X87400000Y-45400000D03*
X87400000Y-47600000D03*
D20*
X102000000Y-75250000D03*
X99500000Y-75250000D03*
D18*
X71500000Y-46900000D03*
X71500000Y-43600000D03*
D21*
X66700000Y-61500000D03*
D22*
X74260000Y-69750000D03*
D23*
X67480000Y-69750000D03*
X67480000Y-53250000D03*
D22*
X74260000Y-53250000D03*
D24*
X76860000Y-57500000D03*
X76860000Y-58000000D03*
X76860000Y-58500000D03*
X76860000Y-59000000D03*
X76860000Y-59500000D03*
X76860000Y-60000000D03*
X76860000Y-60500000D03*
X76860000Y-61000000D03*
X76860000Y-61500000D03*
X76860000Y-62000000D03*
X76860000Y-62500000D03*
X76860000Y-63000000D03*
X76860000Y-63500000D03*
X76860000Y-64000000D03*
X76860000Y-64500000D03*
X76860000Y-65000000D03*
X76860000Y-65500000D03*
X76860000Y-66000000D03*
X76860000Y-66500000D03*
X76860000Y-67000000D03*
D25*
X101700000Y-77500000D03*
X99800000Y-77500000D03*
X100750000Y-79500000D03*
D18*
X83600000Y-78000000D03*
X81400000Y-78000000D03*
D26*
X101700000Y-81750000D03*
X99800000Y-81750000D03*
D17*
X89750000Y-99600000D03*
X89750000Y-97400000D03*
X89500000Y-47600000D03*
X89500000Y-45400000D03*
X111250000Y-78850000D03*
X111250000Y-76650000D03*
X105250000Y-76650000D03*
X105250000Y-78850000D03*
D27*
X65699640Y-100399920D03*
X65699640Y-96600080D03*
D28*
X66222880Y-97202060D03*
D29*
X63500000Y-98500000D03*
D30*
X63500000Y-102183000D03*
X63500000Y-94817000D03*
D28*
X66222880Y-99147700D03*
X66222880Y-99797940D03*
X66222880Y-97852300D03*
X66222880Y-98500000D03*
D27*
X65699640Y-48399920D03*
X65699640Y-44600080D03*
D28*
X66222880Y-45202060D03*
D29*
X63500000Y-46500000D03*
D30*
X63500000Y-50183000D03*
X63500000Y-42817000D03*
D28*
X66222880Y-47147700D03*
X66222880Y-47797940D03*
X66222880Y-45852300D03*
X66222880Y-46500000D03*
D31*
X90812500Y-58550000D03*
X90812500Y-59850000D03*
X90812500Y-61150000D03*
X90812500Y-62450000D03*
X91937500Y-58550000D03*
X91937500Y-59850000D03*
X91937500Y-61150000D03*
X91937500Y-62450000D03*
X93062500Y-58550000D03*
X93062500Y-59850000D03*
X93062500Y-61150000D03*
X93062500Y-62450000D03*
X94187500Y-58550000D03*
X94187500Y-59850000D03*
X94187500Y-61150000D03*
X94187500Y-62450000D03*
D32*
X95750000Y-64400000D03*
X95250000Y-64400000D03*
X94750000Y-64400000D03*
X94250000Y-64400000D03*
X93750000Y-64400000D03*
X93250000Y-64400000D03*
X92750000Y-64400000D03*
X92250000Y-64400000D03*
X91750000Y-64400000D03*
X91250000Y-64400000D03*
X90750000Y-64400000D03*
X90250000Y-64400000D03*
X89750000Y-64400000D03*
X89250000Y-64400000D03*
D33*
X88600000Y-63750000D03*
X88600000Y-63250000D03*
X88600000Y-62750000D03*
X88600000Y-62250000D03*
X88600000Y-61750000D03*
X88600000Y-61250000D03*
X88600000Y-60750000D03*
X88600000Y-60250000D03*
X88600000Y-59750000D03*
X88600000Y-59250000D03*
X88600000Y-58750000D03*
X88600000Y-58250000D03*
X88600000Y-57750000D03*
X88600000Y-57250000D03*
D32*
X89250000Y-56600000D03*
X89750000Y-56600000D03*
X90250000Y-56600000D03*
X90750000Y-56600000D03*
X91250000Y-56600000D03*
X91750000Y-56600000D03*
X92250000Y-56600000D03*
X92750000Y-56600000D03*
X93250000Y-56600000D03*
X93750000Y-56600000D03*
X94250000Y-56600000D03*
X94750000Y-56600000D03*
X95250000Y-56600000D03*
X95750000Y-56600000D03*
D33*
X96400000Y-57250000D03*
X96400000Y-57750000D03*
X96400000Y-58250000D03*
X96400000Y-58750000D03*
X96400000Y-59250000D03*
X96400000Y-59750000D03*
X96400000Y-60250000D03*
X96400000Y-60750000D03*
X96400000Y-61250000D03*
X96400000Y-61750000D03*
X96400000Y-62250000D03*
X96400000Y-62750000D03*
X96400000Y-63250000D03*
X96400000Y-63750000D03*
D34*
X84280000Y-44250000D03*
X84280000Y-48750000D03*
X76320000Y-48750000D03*
X76320000Y-44250000D03*
X76420000Y-100750000D03*
X76420000Y-96250000D03*
X84380000Y-96250000D03*
X84380000Y-100750000D03*
D17*
X109500000Y-68900000D03*
X109500000Y-71100000D03*
X106500000Y-68900000D03*
X106500000Y-71100000D03*
X104000000Y-68900000D03*
X104000000Y-71100000D03*
X112000000Y-71100000D03*
X112000000Y-68900000D03*
X98900000Y-68900000D03*
X98900000Y-71100000D03*
X101400000Y-71100000D03*
X101400000Y-68900000D03*
D35*
X119250000Y-79390000D03*
X119250000Y-81930000D03*
X119250000Y-83960000D03*
X119250000Y-86500000D03*
D36*
X121920000Y-76340000D03*
X121920000Y-90060000D03*
D26*
X107950000Y-63500000D03*
X106050000Y-63500000D03*
X102950000Y-62000000D03*
X101050000Y-62000000D03*
X107950000Y-60500000D03*
X106050000Y-60500000D03*
X102950000Y-59000000D03*
X101050000Y-59000000D03*
X102950000Y-58000000D03*
X101050000Y-58000000D03*
X107950000Y-62500000D03*
X106050000Y-62500000D03*
X102950000Y-61000000D03*
X101050000Y-61000000D03*
X107950000Y-59500000D03*
X106050000Y-59500000D03*
X98450000Y-66000000D03*
X96550000Y-66000000D03*
D37*
X93400000Y-52600000D03*
X93400000Y-54500000D03*
X80900000Y-55200000D03*
X80900000Y-57100000D03*
D26*
X83450000Y-81000000D03*
X81550000Y-81000000D03*
D37*
X81900000Y-55200000D03*
X81900000Y-57100000D03*
D26*
X83450000Y-82000000D03*
X81550000Y-82000000D03*
D21*
X127050000Y-63500000D03*
D22*
X119490000Y-55250000D03*
D23*
X126270000Y-55250000D03*
X126270000Y-71750000D03*
D22*
X119490000Y-71750000D03*
D24*
X116890000Y-67500000D03*
X116890000Y-67000000D03*
X116890000Y-66500000D03*
X116890000Y-66000000D03*
X116890000Y-65500000D03*
X116890000Y-65000000D03*
X116890000Y-64500000D03*
X116890000Y-64000000D03*
X116890000Y-63500000D03*
X116890000Y-63000000D03*
X116890000Y-62500000D03*
X116890000Y-62000000D03*
X116890000Y-61500000D03*
X116890000Y-61000000D03*
X116890000Y-60500000D03*
X116890000Y-60000000D03*
X116890000Y-59500000D03*
X116890000Y-59000000D03*
X116890000Y-58500000D03*
X116890000Y-58000000D03*
D21*
X66700000Y-83500000D03*
D22*
X74260000Y-91750000D03*
D23*
X67480000Y-91750000D03*
X67480000Y-75250000D03*
D22*
X74260000Y-75250000D03*
D24*
X76860000Y-79500000D03*
X76860000Y-80000000D03*
X76860000Y-80500000D03*
X76860000Y-81000000D03*
X76860000Y-81500000D03*
X76860000Y-82000000D03*
X76860000Y-82500000D03*
X76860000Y-83000000D03*
X76860000Y-83500000D03*
X76860000Y-84000000D03*
X76860000Y-84500000D03*
X76860000Y-85000000D03*
X76860000Y-85500000D03*
X76860000Y-86000000D03*
X76860000Y-86500000D03*
X76860000Y-87000000D03*
X76860000Y-87500000D03*
X76860000Y-88000000D03*
X76860000Y-88500000D03*
X76860000Y-89000000D03*
M02*
