G04 #@! TF.GenerationSoftware,KiCad,Pcbnew,(5.1.2)-2*
G04 #@! TF.CreationDate,2021-01-19T20:41:26+13:00*
G04 #@! TF.ProjectId,DPSwitch,44505377-6974-4636-982e-6b696361645f,rev?*
G04 #@! TF.SameCoordinates,Original*
G04 #@! TF.FileFunction,Soldermask,Bot*
G04 #@! TF.FilePolarity,Negative*
%FSLAX46Y46*%
G04 Gerber Fmt 4.6, Leading zero omitted, Abs format (unit mm)*
G04 Created by KiCad (PCBNEW (5.1.2)-2) date 2021-01-19 20:41:26*
%MOMM*%
%LPD*%
G04 APERTURE LIST*
%ADD10C,0.100000*%
G04 APERTURE END LIST*
D10*
G36*
X79912000Y-73587000D02*
G01*
X80072000Y-73454000D01*
X80248000Y-73376000D01*
X80442000Y-73353000D01*
X80655000Y-73383000D01*
X80890000Y-73468000D01*
X81092000Y-73576000D01*
X81264000Y-73703000D01*
X81406000Y-73850000D01*
X81522000Y-74021000D01*
X81613000Y-74216000D01*
X81676000Y-74444000D01*
X81685000Y-74648000D01*
X81642000Y-74816000D01*
X81548000Y-74938000D01*
X81402000Y-74997000D01*
X81182000Y-75024000D01*
X80926000Y-75020000D01*
X80675000Y-74986000D01*
X80466000Y-74921000D01*
X80315000Y-74835000D01*
X80160000Y-74716000D01*
X80013000Y-74575000D01*
X79887000Y-74426000D01*
X79794000Y-74281000D01*
X79744000Y-74118000D01*
X79735000Y-73938000D01*
X79771000Y-73784000D01*
X79830000Y-73687000D01*
X79912000Y-73587000D01*
X79912000Y-73587000D01*
G37*
G36*
X81808000Y-73494000D02*
G01*
X81976000Y-73353000D01*
X82195000Y-73283000D01*
X82379000Y-73275000D01*
X82588000Y-73302000D01*
X82812000Y-73363000D01*
X83043000Y-73456000D01*
X83274000Y-73578000D01*
X83510000Y-73738000D01*
X83671000Y-73893000D01*
X83757000Y-74044000D01*
X83770000Y-74192000D01*
X83707000Y-74360000D01*
X83576000Y-74487000D01*
X83369000Y-74579000D01*
X83078000Y-74640000D01*
X82768000Y-74675000D01*
X82512000Y-74681000D01*
X82302000Y-74657000D01*
X82128000Y-74600000D01*
X81983000Y-74509000D01*
X81855000Y-74382000D01*
X81737000Y-74202000D01*
X81674000Y-74016000D01*
X81664000Y-73831000D01*
X81709000Y-73655000D01*
X81808000Y-73494000D01*
X81808000Y-73494000D01*
G37*
G36*
X82485000Y-72011000D02*
G01*
X82635000Y-71898000D01*
X82811000Y-71826000D01*
X83003000Y-71797000D01*
X83202000Y-71813000D01*
X83395000Y-71874000D01*
X83531000Y-71947000D01*
X83648000Y-72043000D01*
X83775000Y-72191000D01*
X83939000Y-72417000D01*
X84108000Y-72678000D01*
X84208000Y-72880000D01*
X84246000Y-73047000D01*
X84232000Y-73201000D01*
X84162000Y-73350000D01*
X84038000Y-73444000D01*
X83861000Y-73482000D01*
X83632000Y-73465000D01*
X83351000Y-73392000D01*
X83137000Y-73310000D01*
X82939000Y-73212000D01*
X82761000Y-73101000D01*
X82609000Y-72980000D01*
X82485000Y-72852000D01*
X82396000Y-72721000D01*
X82339000Y-72543000D01*
X82337000Y-72347000D01*
X82387000Y-72160000D01*
X82485000Y-72011000D01*
X82485000Y-72011000D01*
G37*
G36*
X81368000Y-70428000D02*
G01*
X81485000Y-70354000D01*
X81604000Y-70305000D01*
X81798000Y-70277000D01*
X82011000Y-70277000D01*
X82227000Y-70306000D01*
X82428000Y-70359000D01*
X82600000Y-70436000D01*
X82771000Y-70557000D01*
X82940000Y-70714000D01*
X83089000Y-70884000D01*
X83198000Y-71047000D01*
X83248000Y-71179000D01*
X83227000Y-71333000D01*
X83131000Y-71481000D01*
X82969000Y-71614000D01*
X82749000Y-71721000D01*
X82530000Y-71785000D01*
X82316000Y-71808000D01*
X82101000Y-71790000D01*
X81880000Y-71731000D01*
X81646000Y-71630000D01*
X81433000Y-71511000D01*
X81316000Y-71395000D01*
X81216000Y-71228000D01*
X81164000Y-71044000D01*
X81159000Y-70851000D01*
X81203000Y-70656000D01*
X81264000Y-70529000D01*
X81368000Y-70428000D01*
X81368000Y-70428000D01*
G37*
G36*
X79670000Y-70596000D02*
G01*
X79846000Y-70423000D01*
X80025000Y-70320000D01*
X80222000Y-70278000D01*
X80379000Y-70283000D01*
X80541000Y-70340000D01*
X80704000Y-70437000D01*
X80833000Y-70568000D01*
X80929000Y-70736000D01*
X80994000Y-70944000D01*
X81029000Y-71194000D01*
X81064000Y-71419000D01*
X81140000Y-71589000D01*
X81277000Y-71746000D01*
X81461000Y-71944000D01*
X81549000Y-72117000D01*
X81573000Y-72328000D01*
X81557000Y-72486000D01*
X81493000Y-72658000D01*
X81401000Y-72825000D01*
X81271000Y-72951000D01*
X81117000Y-73052000D01*
X80955000Y-73096000D01*
X80752000Y-73094000D01*
X80537000Y-73082000D01*
X80377000Y-73102000D01*
X80230000Y-73167000D01*
X80056000Y-73287000D01*
X79862000Y-73412000D01*
X79672000Y-73491000D01*
X79485000Y-73525000D01*
X79302000Y-73514000D01*
X79123000Y-73457000D01*
X78974000Y-73374000D01*
X78867000Y-73258000D01*
X78780000Y-73101000D01*
X78732000Y-72922000D01*
X78727000Y-72734000D01*
X78752000Y-72583000D01*
X78803000Y-72434000D01*
X78888000Y-72269000D01*
X79015000Y-72071000D01*
X79136000Y-71887000D01*
X79227000Y-71727000D01*
X79298000Y-71570000D01*
X79360000Y-71395000D01*
X79422000Y-71181000D01*
X79504000Y-70901000D01*
X79578000Y-70726000D01*
X79670000Y-70596000D01*
X79670000Y-70596000D01*
G37*
G36*
X65853004Y-99894345D02*
G01*
X65948690Y-99933980D01*
X66034805Y-99991520D01*
X66108040Y-100064755D01*
X66165580Y-100150870D01*
X66205215Y-100246556D01*
X66225420Y-100348135D01*
X66225420Y-100451705D01*
X66205215Y-100553284D01*
X66165580Y-100648970D01*
X66108040Y-100735085D01*
X66034805Y-100808320D01*
X65948690Y-100865860D01*
X65853004Y-100905495D01*
X65751425Y-100925700D01*
X65647855Y-100925700D01*
X65546276Y-100905495D01*
X65450590Y-100865860D01*
X65364475Y-100808320D01*
X65291240Y-100735085D01*
X65233700Y-100648970D01*
X65194065Y-100553284D01*
X65173860Y-100451705D01*
X65173860Y-100348135D01*
X65194065Y-100246556D01*
X65233700Y-100150870D01*
X65291240Y-100064755D01*
X65364475Y-99991520D01*
X65450590Y-99933980D01*
X65546276Y-99894345D01*
X65647855Y-99874140D01*
X65751425Y-99874140D01*
X65853004Y-99894345D01*
X65853004Y-99894345D01*
G37*
G36*
X65853004Y-96094505D02*
G01*
X65948690Y-96134140D01*
X66034805Y-96191680D01*
X66108040Y-96264915D01*
X66165580Y-96351030D01*
X66205215Y-96446716D01*
X66225420Y-96548295D01*
X66225420Y-96651865D01*
X66205215Y-96753444D01*
X66165580Y-96849130D01*
X66108040Y-96935245D01*
X66034805Y-97008480D01*
X65948690Y-97066020D01*
X65853004Y-97105655D01*
X65751425Y-97125860D01*
X65647855Y-97125860D01*
X65546276Y-97105655D01*
X65450590Y-97066020D01*
X65364475Y-97008480D01*
X65291240Y-96935245D01*
X65233700Y-96849130D01*
X65194065Y-96753444D01*
X65173860Y-96651865D01*
X65173860Y-96548295D01*
X65194065Y-96446716D01*
X65233700Y-96351030D01*
X65291240Y-96264915D01*
X65364475Y-96191680D01*
X65450590Y-96134140D01*
X65546276Y-96094505D01*
X65647855Y-96074300D01*
X65751425Y-96074300D01*
X65853004Y-96094505D01*
X65853004Y-96094505D01*
G37*
G36*
X74662823Y-90422071D02*
G01*
X74914149Y-90526174D01*
X75140336Y-90677307D01*
X75332693Y-90869664D01*
X75483826Y-91095851D01*
X75587929Y-91347177D01*
X75641000Y-91613983D01*
X75641000Y-91886017D01*
X75587929Y-92152823D01*
X75483826Y-92404149D01*
X75332693Y-92630336D01*
X75140336Y-92822693D01*
X74914149Y-92973826D01*
X74662823Y-93077929D01*
X74396017Y-93131000D01*
X74123983Y-93131000D01*
X73857177Y-93077929D01*
X73605851Y-92973826D01*
X73379664Y-92822693D01*
X73187307Y-92630336D01*
X73036174Y-92404149D01*
X72932071Y-92152823D01*
X72879000Y-91886017D01*
X72879000Y-91613983D01*
X72932071Y-91347177D01*
X73036174Y-91095851D01*
X73187307Y-90869664D01*
X73379664Y-90677307D01*
X73605851Y-90526174D01*
X73857177Y-90422071D01*
X74123983Y-90369000D01*
X74396017Y-90369000D01*
X74662823Y-90422071D01*
X74662823Y-90422071D01*
G37*
G36*
X67783940Y-90748043D02*
G01*
X67973572Y-90826591D01*
X68144236Y-90940626D01*
X68289374Y-91085764D01*
X68403409Y-91256428D01*
X68481957Y-91446060D01*
X68522000Y-91647372D01*
X68522000Y-91852628D01*
X68481957Y-92053940D01*
X68403409Y-92243572D01*
X68289374Y-92414236D01*
X68144236Y-92559374D01*
X67973572Y-92673409D01*
X67783940Y-92751957D01*
X67582628Y-92792000D01*
X67377372Y-92792000D01*
X67176060Y-92751957D01*
X66986428Y-92673409D01*
X66815764Y-92559374D01*
X66670626Y-92414236D01*
X66556591Y-92243572D01*
X66478043Y-92053940D01*
X66438000Y-91852628D01*
X66438000Y-91647372D01*
X66478043Y-91446060D01*
X66556591Y-91256428D01*
X66670626Y-91085764D01*
X66815764Y-90940626D01*
X66986428Y-90826591D01*
X67176060Y-90748043D01*
X67377372Y-90708000D01*
X67582628Y-90708000D01*
X67783940Y-90748043D01*
X67783940Y-90748043D01*
G37*
G36*
X122272527Y-88548736D02*
G01*
X122372411Y-88568604D01*
X122654674Y-88685521D01*
X122908706Y-88855260D01*
X123124740Y-89071294D01*
X123294479Y-89325326D01*
X123396659Y-89572010D01*
X123411396Y-89607590D01*
X123457482Y-89839279D01*
X123471000Y-89907242D01*
X123471000Y-90212758D01*
X123411396Y-90512411D01*
X123330380Y-90708000D01*
X123294479Y-90794674D01*
X123124741Y-91048705D01*
X122908705Y-91264741D01*
X122654674Y-91434479D01*
X122372411Y-91551396D01*
X122272527Y-91571264D01*
X122072760Y-91611000D01*
X121767240Y-91611000D01*
X121567473Y-91571264D01*
X121467589Y-91551396D01*
X121185326Y-91434479D01*
X120931295Y-91264741D01*
X120715259Y-91048705D01*
X120545521Y-90794674D01*
X120509620Y-90708000D01*
X120428604Y-90512411D01*
X120369000Y-90212758D01*
X120369000Y-89907242D01*
X120382519Y-89839279D01*
X120428604Y-89607590D01*
X120443342Y-89572010D01*
X120545521Y-89325326D01*
X120715260Y-89071294D01*
X120931294Y-88855260D01*
X121185326Y-88685521D01*
X121467589Y-88568604D01*
X121567473Y-88548736D01*
X121767240Y-88509000D01*
X122072760Y-88509000D01*
X122272527Y-88548736D01*
X122272527Y-88548736D01*
G37*
G36*
X112125237Y-89463117D02*
G01*
X112160722Y-89470175D01*
X112260996Y-89511710D01*
X112351242Y-89572010D01*
X112427990Y-89648758D01*
X112488290Y-89739004D01*
X112529825Y-89839279D01*
X112543344Y-89907240D01*
X112551000Y-89945733D01*
X112551000Y-90054267D01*
X112529825Y-90160722D01*
X112488290Y-90260996D01*
X112427989Y-90351243D01*
X112351243Y-90427989D01*
X112260996Y-90488290D01*
X112160722Y-90529825D01*
X112125237Y-90536883D01*
X112054269Y-90551000D01*
X111945731Y-90551000D01*
X111874763Y-90536883D01*
X111839278Y-90529825D01*
X111739004Y-90488290D01*
X111648757Y-90427989D01*
X111572011Y-90351243D01*
X111511710Y-90260996D01*
X111470175Y-90160722D01*
X111449000Y-90054267D01*
X111449000Y-89945733D01*
X111456657Y-89907240D01*
X111470175Y-89839279D01*
X111511710Y-89739004D01*
X111572010Y-89648758D01*
X111648758Y-89572010D01*
X111739004Y-89511710D01*
X111839278Y-89470175D01*
X111874763Y-89463117D01*
X111945731Y-89449000D01*
X112054269Y-89449000D01*
X112125237Y-89463117D01*
X112125237Y-89463117D01*
G37*
G36*
X117108749Y-87209837D02*
G01*
X117160722Y-87220175D01*
X117260996Y-87261710D01*
X117351243Y-87322011D01*
X117427989Y-87398757D01*
X117488290Y-87489004D01*
X117529825Y-87589278D01*
X117551000Y-87695733D01*
X117551000Y-87804267D01*
X117529825Y-87910722D01*
X117488290Y-88010996D01*
X117427989Y-88101243D01*
X117351243Y-88177989D01*
X117260996Y-88238290D01*
X117160722Y-88279825D01*
X117125237Y-88286883D01*
X117054269Y-88301000D01*
X116945731Y-88301000D01*
X116874763Y-88286883D01*
X116839278Y-88279825D01*
X116739004Y-88238290D01*
X116648757Y-88177989D01*
X116572011Y-88101243D01*
X116511710Y-88010996D01*
X116470175Y-87910722D01*
X116449000Y-87804267D01*
X116449000Y-87695733D01*
X116470175Y-87589278D01*
X116511710Y-87489004D01*
X116572011Y-87398757D01*
X116648757Y-87322011D01*
X116739004Y-87261710D01*
X116839278Y-87220175D01*
X116891251Y-87209837D01*
X116945731Y-87199000D01*
X117054269Y-87199000D01*
X117108749Y-87209837D01*
X117108749Y-87209837D01*
G37*
G36*
X119432059Y-85719521D02*
G01*
X119483644Y-85729782D01*
X119556530Y-85759973D01*
X119629416Y-85790163D01*
X119760608Y-85877822D01*
X119872178Y-85989392D01*
X119959837Y-86120584D01*
X120020218Y-86266357D01*
X120051000Y-86421108D01*
X120051000Y-86578892D01*
X120020218Y-86733643D01*
X119959837Y-86879416D01*
X119872178Y-87010608D01*
X119760608Y-87122178D01*
X119629416Y-87209837D01*
X119556529Y-87240028D01*
X119483644Y-87270218D01*
X119432059Y-87280479D01*
X119328892Y-87301000D01*
X119171108Y-87301000D01*
X119067941Y-87280479D01*
X119016356Y-87270218D01*
X118943471Y-87240028D01*
X118870584Y-87209837D01*
X118739392Y-87122178D01*
X118627822Y-87010608D01*
X118540163Y-86879416D01*
X118479782Y-86733643D01*
X118449000Y-86578892D01*
X118449000Y-86421108D01*
X118479782Y-86266357D01*
X118540163Y-86120584D01*
X118627822Y-85989392D01*
X118739392Y-85877822D01*
X118870584Y-85790163D01*
X118943470Y-85759973D01*
X119016356Y-85729782D01*
X119067941Y-85719521D01*
X119171108Y-85699000D01*
X119328892Y-85699000D01*
X119432059Y-85719521D01*
X119432059Y-85719521D01*
G37*
G36*
X74125237Y-84463117D02*
G01*
X74160722Y-84470175D01*
X74260996Y-84511710D01*
X74324691Y-84554269D01*
X74351243Y-84572011D01*
X74427989Y-84648757D01*
X74488290Y-84739004D01*
X74529825Y-84839278D01*
X74551000Y-84945733D01*
X74551000Y-85054267D01*
X74529825Y-85160722D01*
X74488290Y-85260996D01*
X74427989Y-85351243D01*
X74351243Y-85427989D01*
X74260996Y-85488290D01*
X74160722Y-85529825D01*
X74125237Y-85536883D01*
X74054269Y-85551000D01*
X73945731Y-85551000D01*
X73874763Y-85536883D01*
X73839278Y-85529825D01*
X73739004Y-85488290D01*
X73648757Y-85427989D01*
X73572011Y-85351243D01*
X73511710Y-85260996D01*
X73470175Y-85160722D01*
X73449000Y-85054267D01*
X73449000Y-84945733D01*
X73470175Y-84839278D01*
X73511710Y-84739004D01*
X73572011Y-84648757D01*
X73648757Y-84572011D01*
X73675310Y-84554269D01*
X73739004Y-84511710D01*
X73839278Y-84470175D01*
X73874763Y-84463117D01*
X73945731Y-84449000D01*
X74054269Y-84449000D01*
X74125237Y-84463117D01*
X74125237Y-84463117D01*
G37*
G36*
X117125237Y-83963117D02*
G01*
X117160722Y-83970175D01*
X117260996Y-84011710D01*
X117351242Y-84072010D01*
X117427990Y-84148758D01*
X117488290Y-84239004D01*
X117529825Y-84339279D01*
X117551000Y-84445731D01*
X117551000Y-84554269D01*
X117529825Y-84660721D01*
X117488290Y-84760996D01*
X117427990Y-84851242D01*
X117351242Y-84927990D01*
X117260996Y-84988290D01*
X117160722Y-85029825D01*
X117125237Y-85036883D01*
X117054269Y-85051000D01*
X116945731Y-85051000D01*
X116874763Y-85036883D01*
X116839278Y-85029825D01*
X116739004Y-84988290D01*
X116648758Y-84927990D01*
X116572010Y-84851242D01*
X116511710Y-84760996D01*
X116470175Y-84660721D01*
X116449000Y-84554269D01*
X116449000Y-84445731D01*
X116470175Y-84339279D01*
X116511710Y-84239004D01*
X116572010Y-84148758D01*
X116648758Y-84072010D01*
X116739004Y-84011710D01*
X116839278Y-83970175D01*
X116874763Y-83963117D01*
X116945731Y-83949000D01*
X117054269Y-83949000D01*
X117125237Y-83963117D01*
X117125237Y-83963117D01*
G37*
G36*
X119432059Y-83179521D02*
G01*
X119483644Y-83189782D01*
X119556529Y-83219972D01*
X119629416Y-83250163D01*
X119760608Y-83337822D01*
X119872178Y-83449392D01*
X119959837Y-83580584D01*
X120020218Y-83726357D01*
X120051000Y-83881108D01*
X120051000Y-84038892D01*
X120020218Y-84193643D01*
X119959837Y-84339416D01*
X119872178Y-84470608D01*
X119760608Y-84582178D01*
X119629416Y-84669837D01*
X119556529Y-84700028D01*
X119483644Y-84730218D01*
X119439473Y-84739004D01*
X119328892Y-84761000D01*
X119171108Y-84761000D01*
X119060527Y-84739004D01*
X119016356Y-84730218D01*
X118943471Y-84700028D01*
X118870584Y-84669837D01*
X118739392Y-84582178D01*
X118627822Y-84470608D01*
X118540163Y-84339416D01*
X118479782Y-84193643D01*
X118449000Y-84038892D01*
X118449000Y-83881108D01*
X118479782Y-83726357D01*
X118540163Y-83580584D01*
X118627822Y-83449392D01*
X118739392Y-83337822D01*
X118870584Y-83250163D01*
X118943470Y-83219973D01*
X119016356Y-83189782D01*
X119067941Y-83179521D01*
X119171108Y-83159000D01*
X119328892Y-83159000D01*
X119432059Y-83179521D01*
X119432059Y-83179521D01*
G37*
G36*
X66926351Y-82753821D02*
G01*
X67067574Y-82812317D01*
X67194671Y-82897241D01*
X67302759Y-83005329D01*
X67387683Y-83132426D01*
X67446179Y-83273649D01*
X67476000Y-83423571D01*
X67476000Y-83576429D01*
X67446179Y-83726351D01*
X67387683Y-83867574D01*
X67302759Y-83994671D01*
X67194671Y-84102759D01*
X67067574Y-84187683D01*
X66926351Y-84246179D01*
X66776429Y-84276000D01*
X66623571Y-84276000D01*
X66473649Y-84246179D01*
X66332426Y-84187683D01*
X66205329Y-84102759D01*
X66097241Y-83994671D01*
X66012317Y-83867574D01*
X65953821Y-83726351D01*
X65924000Y-83576429D01*
X65924000Y-83423571D01*
X65953821Y-83273649D01*
X66012317Y-83132426D01*
X66097241Y-83005329D01*
X66205329Y-82897241D01*
X66332426Y-82812317D01*
X66473649Y-82753821D01*
X66623571Y-82724000D01*
X66776429Y-82724000D01*
X66926351Y-82753821D01*
X66926351Y-82753821D01*
G37*
G36*
X81125237Y-82463117D02*
G01*
X81160722Y-82470175D01*
X81204455Y-82488290D01*
X81260996Y-82511710D01*
X81321560Y-82552177D01*
X81351243Y-82572011D01*
X81427989Y-82648757D01*
X81488290Y-82739004D01*
X81518658Y-82812318D01*
X81529825Y-82839279D01*
X81541355Y-82897241D01*
X81551000Y-82945733D01*
X81551000Y-83054267D01*
X81529825Y-83160722D01*
X81488290Y-83260996D01*
X81427989Y-83351243D01*
X81351243Y-83427989D01*
X81260996Y-83488290D01*
X81160722Y-83529825D01*
X81125237Y-83536883D01*
X81054269Y-83551000D01*
X80945731Y-83551000D01*
X80874763Y-83536883D01*
X80839278Y-83529825D01*
X80739004Y-83488290D01*
X80648757Y-83427989D01*
X80572011Y-83351243D01*
X80511710Y-83260996D01*
X80470175Y-83160722D01*
X80449000Y-83054267D01*
X80449000Y-82945733D01*
X80458646Y-82897241D01*
X80470175Y-82839279D01*
X80481343Y-82812318D01*
X80511710Y-82739004D01*
X80572011Y-82648757D01*
X80648757Y-82572011D01*
X80678441Y-82552177D01*
X80739004Y-82511710D01*
X80795545Y-82488290D01*
X80839278Y-82470175D01*
X80874763Y-82463117D01*
X80945731Y-82449000D01*
X81054269Y-82449000D01*
X81125237Y-82463117D01*
X81125237Y-82463117D01*
G37*
G36*
X119428217Y-81148757D02*
G01*
X119483644Y-81159782D01*
X119556530Y-81189973D01*
X119629416Y-81220163D01*
X119760608Y-81307822D01*
X119872178Y-81419392D01*
X119959837Y-81550584D01*
X119961363Y-81554269D01*
X120000502Y-81648757D01*
X120020218Y-81696357D01*
X120051000Y-81851108D01*
X120051000Y-82008892D01*
X120020218Y-82163643D01*
X119959837Y-82309416D01*
X119872178Y-82440608D01*
X119760608Y-82552178D01*
X119629416Y-82639837D01*
X119556529Y-82670028D01*
X119483644Y-82700218D01*
X119432059Y-82710479D01*
X119328892Y-82731000D01*
X119171108Y-82731000D01*
X119067941Y-82710479D01*
X119016356Y-82700218D01*
X118943471Y-82670028D01*
X118870584Y-82639837D01*
X118739392Y-82552178D01*
X118627822Y-82440608D01*
X118540163Y-82309416D01*
X118479782Y-82163643D01*
X118449000Y-82008892D01*
X118449000Y-81851108D01*
X118479782Y-81696357D01*
X118499499Y-81648757D01*
X118538637Y-81554269D01*
X118540163Y-81550584D01*
X118627822Y-81419392D01*
X118739392Y-81307822D01*
X118870584Y-81220163D01*
X118943470Y-81189973D01*
X119016356Y-81159782D01*
X119071783Y-81148757D01*
X119171108Y-81129000D01*
X119328892Y-81129000D01*
X119428217Y-81148757D01*
X119428217Y-81148757D01*
G37*
G36*
X74125237Y-81463117D02*
G01*
X74160722Y-81470175D01*
X74260996Y-81511710D01*
X74324691Y-81554269D01*
X74351243Y-81572011D01*
X74427989Y-81648757D01*
X74488290Y-81739004D01*
X74529825Y-81839278D01*
X74551000Y-81945733D01*
X74551000Y-82054267D01*
X74529825Y-82160722D01*
X74488290Y-82260996D01*
X74427990Y-82351242D01*
X74351242Y-82427990D01*
X74332356Y-82440609D01*
X74260996Y-82488290D01*
X74160722Y-82529825D01*
X74125237Y-82536883D01*
X74054269Y-82551000D01*
X73945731Y-82551000D01*
X73874763Y-82536883D01*
X73839278Y-82529825D01*
X73739004Y-82488290D01*
X73667644Y-82440609D01*
X73648758Y-82427990D01*
X73572010Y-82351242D01*
X73511710Y-82260996D01*
X73470175Y-82160722D01*
X73449000Y-82054267D01*
X73449000Y-81945733D01*
X73470175Y-81839278D01*
X73511710Y-81739004D01*
X73572011Y-81648757D01*
X73648757Y-81572011D01*
X73675310Y-81554269D01*
X73739004Y-81511710D01*
X73839278Y-81470175D01*
X73874763Y-81463117D01*
X73945731Y-81449000D01*
X74054269Y-81449000D01*
X74125237Y-81463117D01*
X74125237Y-81463117D01*
G37*
G36*
X117125237Y-80963117D02*
G01*
X117160722Y-80970175D01*
X117260996Y-81011710D01*
X117351242Y-81072010D01*
X117427990Y-81148758D01*
X117488290Y-81239004D01*
X117529825Y-81339279D01*
X117551000Y-81445731D01*
X117551000Y-81554269D01*
X117529825Y-81660721D01*
X117488290Y-81760996D01*
X117427990Y-81851242D01*
X117351242Y-81927990D01*
X117260996Y-81988290D01*
X117160722Y-82029825D01*
X117125237Y-82036883D01*
X117054269Y-82051000D01*
X116945731Y-82051000D01*
X116874763Y-82036883D01*
X116839278Y-82029825D01*
X116739004Y-81988290D01*
X116648758Y-81927990D01*
X116572010Y-81851242D01*
X116511710Y-81760996D01*
X116470175Y-81660721D01*
X116449000Y-81554269D01*
X116449000Y-81445731D01*
X116470175Y-81339279D01*
X116511710Y-81239004D01*
X116572010Y-81148758D01*
X116648758Y-81072010D01*
X116739004Y-81011710D01*
X116839278Y-80970175D01*
X116874763Y-80963117D01*
X116945731Y-80949000D01*
X117054269Y-80949000D01*
X117125237Y-80963117D01*
X117125237Y-80963117D01*
G37*
G36*
X81125237Y-79463117D02*
G01*
X81160722Y-79470175D01*
X81204455Y-79488290D01*
X81260996Y-79511710D01*
X81351242Y-79572010D01*
X81427990Y-79648758D01*
X81488290Y-79739004D01*
X81529825Y-79839279D01*
X81542025Y-79900609D01*
X81551000Y-79945733D01*
X81551000Y-80054267D01*
X81529825Y-80160722D01*
X81488290Y-80260996D01*
X81427989Y-80351243D01*
X81351243Y-80427989D01*
X81260996Y-80488290D01*
X81160722Y-80529825D01*
X81125237Y-80536883D01*
X81054269Y-80551000D01*
X80945731Y-80551000D01*
X80874763Y-80536883D01*
X80839278Y-80529825D01*
X80739004Y-80488290D01*
X80648757Y-80427989D01*
X80572011Y-80351243D01*
X80511710Y-80260996D01*
X80470175Y-80160722D01*
X80449000Y-80054267D01*
X80449000Y-79945733D01*
X80457976Y-79900609D01*
X80470175Y-79839279D01*
X80511710Y-79739004D01*
X80572010Y-79648758D01*
X80648758Y-79572010D01*
X80739004Y-79511710D01*
X80795545Y-79488290D01*
X80839278Y-79470175D01*
X80874763Y-79463117D01*
X80945731Y-79449000D01*
X81054269Y-79449000D01*
X81125237Y-79463117D01*
X81125237Y-79463117D01*
G37*
G36*
X119432059Y-78609521D02*
G01*
X119483644Y-78619782D01*
X119553595Y-78648757D01*
X119629416Y-78680163D01*
X119760608Y-78767822D01*
X119872178Y-78879392D01*
X119959837Y-79010584D01*
X120020218Y-79156357D01*
X120051000Y-79311108D01*
X120051000Y-79468892D01*
X120034668Y-79551000D01*
X120020218Y-79623644D01*
X120009815Y-79648758D01*
X119959837Y-79769416D01*
X119872178Y-79900608D01*
X119760608Y-80012178D01*
X119629416Y-80099837D01*
X119556530Y-80130027D01*
X119483644Y-80160218D01*
X119432059Y-80170479D01*
X119328892Y-80191000D01*
X119171108Y-80191000D01*
X119067941Y-80170479D01*
X119016356Y-80160218D01*
X118943471Y-80130028D01*
X118870584Y-80099837D01*
X118739392Y-80012178D01*
X118627822Y-79900608D01*
X118540163Y-79769416D01*
X118490185Y-79648758D01*
X118479782Y-79623644D01*
X118465332Y-79551000D01*
X118449000Y-79468892D01*
X118449000Y-79311108D01*
X118479782Y-79156357D01*
X118540163Y-79010584D01*
X118627822Y-78879392D01*
X118739392Y-78767822D01*
X118870584Y-78680163D01*
X118946405Y-78648757D01*
X119016356Y-78619782D01*
X119067941Y-78609521D01*
X119171108Y-78589000D01*
X119328892Y-78589000D01*
X119432059Y-78609521D01*
X119432059Y-78609521D01*
G37*
G36*
X74125237Y-78463117D02*
G01*
X74160722Y-78470175D01*
X74260996Y-78511710D01*
X74324691Y-78554269D01*
X74351243Y-78572011D01*
X74427989Y-78648757D01*
X74488290Y-78739004D01*
X74529825Y-78839278D01*
X74551000Y-78945733D01*
X74551000Y-79054267D01*
X74529825Y-79160722D01*
X74488290Y-79260996D01*
X74427989Y-79351243D01*
X74351243Y-79427989D01*
X74260996Y-79488290D01*
X74160722Y-79529825D01*
X74125237Y-79536883D01*
X74054269Y-79551000D01*
X73945731Y-79551000D01*
X73874763Y-79536883D01*
X73839278Y-79529825D01*
X73739004Y-79488290D01*
X73648757Y-79427989D01*
X73572011Y-79351243D01*
X73511710Y-79260996D01*
X73470175Y-79160722D01*
X73449000Y-79054267D01*
X73449000Y-78945733D01*
X73470175Y-78839278D01*
X73511710Y-78739004D01*
X73572011Y-78648757D01*
X73648757Y-78572011D01*
X73675310Y-78554269D01*
X73739004Y-78511710D01*
X73839278Y-78470175D01*
X73874763Y-78463117D01*
X73945731Y-78449000D01*
X74054269Y-78449000D01*
X74125237Y-78463117D01*
X74125237Y-78463117D01*
G37*
G36*
X117125237Y-77963117D02*
G01*
X117160722Y-77970175D01*
X117260996Y-78011710D01*
X117351242Y-78072010D01*
X117427990Y-78148758D01*
X117488290Y-78239004D01*
X117529825Y-78339279D01*
X117551000Y-78445731D01*
X117551000Y-78554269D01*
X117529825Y-78660721D01*
X117488290Y-78760996D01*
X117427990Y-78851242D01*
X117351242Y-78927990D01*
X117260996Y-78988290D01*
X117160722Y-79029825D01*
X117125237Y-79036883D01*
X117054269Y-79051000D01*
X116945731Y-79051000D01*
X116874763Y-79036883D01*
X116839278Y-79029825D01*
X116739004Y-78988290D01*
X116648758Y-78927990D01*
X116572010Y-78851242D01*
X116511710Y-78760996D01*
X116470175Y-78660721D01*
X116449000Y-78554269D01*
X116449000Y-78445731D01*
X116470175Y-78339279D01*
X116511710Y-78239004D01*
X116572010Y-78148758D01*
X116648758Y-78072010D01*
X116739004Y-78011710D01*
X116839278Y-77970175D01*
X116874763Y-77963117D01*
X116945731Y-77949000D01*
X117054269Y-77949000D01*
X117125237Y-77963117D01*
X117125237Y-77963117D01*
G37*
G36*
X122272527Y-74828736D02*
G01*
X122372411Y-74848604D01*
X122607691Y-74946060D01*
X122654674Y-74965521D01*
X122908705Y-75135259D01*
X123124741Y-75351295D01*
X123147940Y-75386015D01*
X123294479Y-75605326D01*
X123411396Y-75887589D01*
X123431264Y-75987473D01*
X123468249Y-76173409D01*
X123471000Y-76187242D01*
X123471000Y-76492758D01*
X123411396Y-76792411D01*
X123294479Y-77074674D01*
X123124740Y-77328706D01*
X122908706Y-77544740D01*
X122654674Y-77714479D01*
X122372411Y-77831396D01*
X122272527Y-77851264D01*
X122072760Y-77891000D01*
X121767240Y-77891000D01*
X121567473Y-77851264D01*
X121467589Y-77831396D01*
X121185326Y-77714479D01*
X120931294Y-77544740D01*
X120715260Y-77328706D01*
X120545521Y-77074674D01*
X120428604Y-76792411D01*
X120369000Y-76492758D01*
X120369000Y-76187242D01*
X120371752Y-76173409D01*
X120408736Y-75987473D01*
X120428604Y-75887589D01*
X120545521Y-75605326D01*
X120692060Y-75386015D01*
X120715259Y-75351295D01*
X120931295Y-75135259D01*
X121185326Y-74965521D01*
X121232309Y-74946060D01*
X121467589Y-74848604D01*
X121567473Y-74828736D01*
X121767240Y-74789000D01*
X122072760Y-74789000D01*
X122272527Y-74828736D01*
X122272527Y-74828736D01*
G37*
G36*
X74662823Y-73922071D02*
G01*
X74914149Y-74026174D01*
X75140336Y-74177307D01*
X75332693Y-74369664D01*
X75483826Y-74595851D01*
X75587929Y-74847177D01*
X75641000Y-75113983D01*
X75641000Y-75386017D01*
X75587929Y-75652823D01*
X75483826Y-75904149D01*
X75332693Y-76130336D01*
X75140336Y-76322693D01*
X74914149Y-76473826D01*
X74662823Y-76577929D01*
X74396017Y-76631000D01*
X74123983Y-76631000D01*
X73857177Y-76577929D01*
X73605851Y-76473826D01*
X73379664Y-76322693D01*
X73187307Y-76130336D01*
X73036174Y-75904149D01*
X72932071Y-75652823D01*
X72879000Y-75386017D01*
X72879000Y-75113983D01*
X72932071Y-74847177D01*
X73036174Y-74595851D01*
X73187307Y-74369664D01*
X73379664Y-74177307D01*
X73605851Y-74026174D01*
X73857177Y-73922071D01*
X74123983Y-73869000D01*
X74396017Y-73869000D01*
X74662823Y-73922071D01*
X74662823Y-73922071D01*
G37*
G36*
X67783940Y-74248043D02*
G01*
X67973572Y-74326591D01*
X68144236Y-74440626D01*
X68289374Y-74585764D01*
X68403409Y-74756428D01*
X68481957Y-74946060D01*
X68522000Y-75147372D01*
X68522000Y-75352628D01*
X68481957Y-75553940D01*
X68403409Y-75743572D01*
X68289374Y-75914236D01*
X68144236Y-76059374D01*
X67973572Y-76173409D01*
X67783940Y-76251957D01*
X67582628Y-76292000D01*
X67377372Y-76292000D01*
X67176060Y-76251957D01*
X66986428Y-76173409D01*
X66815764Y-76059374D01*
X66670626Y-75914236D01*
X66556591Y-75743572D01*
X66478043Y-75553940D01*
X66438000Y-75352628D01*
X66438000Y-75147372D01*
X66478043Y-74946060D01*
X66556591Y-74756428D01*
X66670626Y-74585764D01*
X66815764Y-74440626D01*
X66986428Y-74326591D01*
X67176060Y-74248043D01*
X67377372Y-74208000D01*
X67582628Y-74208000D01*
X67783940Y-74248043D01*
X67783940Y-74248043D01*
G37*
G36*
X119892823Y-70422071D02*
G01*
X120144149Y-70526174D01*
X120370336Y-70677307D01*
X120562693Y-70869664D01*
X120713826Y-71095851D01*
X120817929Y-71347177D01*
X120871000Y-71613983D01*
X120871000Y-71886017D01*
X120817929Y-72152823D01*
X120713826Y-72404149D01*
X120562693Y-72630336D01*
X120370336Y-72822693D01*
X120144149Y-72973826D01*
X119892823Y-73077929D01*
X119626017Y-73131000D01*
X119353983Y-73131000D01*
X119087177Y-73077929D01*
X118835851Y-72973826D01*
X118609664Y-72822693D01*
X118417307Y-72630336D01*
X118266174Y-72404149D01*
X118162071Y-72152823D01*
X118109000Y-71886017D01*
X118109000Y-71613983D01*
X118162071Y-71347177D01*
X118266174Y-71095851D01*
X118417307Y-70869664D01*
X118609664Y-70677307D01*
X118835851Y-70526174D01*
X119087177Y-70422071D01*
X119353983Y-70369000D01*
X119626017Y-70369000D01*
X119892823Y-70422071D01*
X119892823Y-70422071D01*
G37*
G36*
X126573940Y-70748043D02*
G01*
X126763572Y-70826591D01*
X126934236Y-70940626D01*
X127079374Y-71085764D01*
X127193409Y-71256428D01*
X127271957Y-71446060D01*
X127312000Y-71647372D01*
X127312000Y-71852628D01*
X127271957Y-72053940D01*
X127193409Y-72243572D01*
X127079374Y-72414236D01*
X126934236Y-72559374D01*
X126763572Y-72673409D01*
X126573940Y-72751957D01*
X126372628Y-72792000D01*
X126167372Y-72792000D01*
X125966060Y-72751957D01*
X125776428Y-72673409D01*
X125605764Y-72559374D01*
X125460626Y-72414236D01*
X125346591Y-72243572D01*
X125268043Y-72053940D01*
X125228000Y-71852628D01*
X125228000Y-71647372D01*
X125268043Y-71446060D01*
X125346591Y-71256428D01*
X125460626Y-71085764D01*
X125605764Y-70940626D01*
X125776428Y-70826591D01*
X125966060Y-70748043D01*
X126167372Y-70708000D01*
X126372628Y-70708000D01*
X126573940Y-70748043D01*
X126573940Y-70748043D01*
G37*
G36*
X78449893Y-71598412D02*
G01*
X79020057Y-71852265D01*
X79020057Y-71852266D01*
X79005031Y-71886015D01*
X78653181Y-72676283D01*
X78653180Y-72676283D01*
X78390597Y-72559373D01*
X77829163Y-72309407D01*
X77858475Y-72243572D01*
X78032695Y-71852266D01*
X78196039Y-71485389D01*
X78196040Y-71485389D01*
X78449893Y-71598412D01*
X78449893Y-71598412D01*
G37*
G36*
X79100673Y-70136740D02*
G01*
X79670837Y-70390593D01*
X79670837Y-70390594D01*
X79595691Y-70559374D01*
X79303961Y-71214611D01*
X79303960Y-71214611D01*
X78996966Y-71077928D01*
X78479943Y-70847735D01*
X78489357Y-70826591D01*
X78677440Y-70404149D01*
X78846819Y-70023717D01*
X78846820Y-70023717D01*
X79100673Y-70136740D01*
X79100673Y-70136740D01*
G37*
G36*
X74662823Y-68422071D02*
G01*
X74914149Y-68526174D01*
X75140336Y-68677307D01*
X75332693Y-68869664D01*
X75483826Y-69095851D01*
X75587929Y-69347177D01*
X75641000Y-69613983D01*
X75641000Y-69886017D01*
X75587929Y-70152823D01*
X75483826Y-70404149D01*
X75332693Y-70630336D01*
X75140336Y-70822693D01*
X74914149Y-70973826D01*
X74662823Y-71077929D01*
X74396017Y-71131000D01*
X74123983Y-71131000D01*
X73857177Y-71077929D01*
X73605851Y-70973826D01*
X73379664Y-70822693D01*
X73187307Y-70630336D01*
X73036174Y-70404149D01*
X72932071Y-70152823D01*
X72879000Y-69886017D01*
X72879000Y-69613983D01*
X72932071Y-69347177D01*
X73036174Y-69095851D01*
X73187307Y-68869664D01*
X73379664Y-68677307D01*
X73605851Y-68526174D01*
X73857177Y-68422071D01*
X74123983Y-68369000D01*
X74396017Y-68369000D01*
X74662823Y-68422071D01*
X74662823Y-68422071D01*
G37*
G36*
X67783940Y-68748043D02*
G01*
X67973572Y-68826591D01*
X68144236Y-68940626D01*
X68289374Y-69085764D01*
X68403409Y-69256428D01*
X68481957Y-69446060D01*
X68522000Y-69647372D01*
X68522000Y-69852628D01*
X68481957Y-70053940D01*
X68403409Y-70243572D01*
X68289374Y-70414236D01*
X68144236Y-70559374D01*
X67973572Y-70673409D01*
X67783940Y-70751957D01*
X67582628Y-70792000D01*
X67377372Y-70792000D01*
X67176060Y-70751957D01*
X66986428Y-70673409D01*
X66815764Y-70559374D01*
X66670626Y-70414236D01*
X66556591Y-70243572D01*
X66478043Y-70053940D01*
X66438000Y-69852628D01*
X66438000Y-69647372D01*
X66478043Y-69446060D01*
X66556591Y-69256428D01*
X66670626Y-69085764D01*
X66815764Y-68940626D01*
X66986428Y-68826591D01*
X67176060Y-68748043D01*
X67377372Y-68708000D01*
X67582628Y-68708000D01*
X67783940Y-68748043D01*
X67783940Y-68748043D01*
G37*
G36*
X122125237Y-67463117D02*
G01*
X122160722Y-67470175D01*
X122260996Y-67511710D01*
X122351243Y-67572011D01*
X122427989Y-67648757D01*
X122488290Y-67739004D01*
X122529825Y-67839278D01*
X122551000Y-67945733D01*
X122551000Y-68054267D01*
X122529825Y-68160722D01*
X122488290Y-68260996D01*
X122427989Y-68351243D01*
X122351243Y-68427989D01*
X122260996Y-68488290D01*
X122160722Y-68529825D01*
X122125237Y-68536883D01*
X122054269Y-68551000D01*
X121945731Y-68551000D01*
X121874763Y-68536883D01*
X121839278Y-68529825D01*
X121739004Y-68488290D01*
X121648757Y-68427989D01*
X121572011Y-68351243D01*
X121511710Y-68260996D01*
X121470175Y-68160722D01*
X121449000Y-68054267D01*
X121449000Y-67945733D01*
X121470175Y-67839278D01*
X121511710Y-67739004D01*
X121572011Y-67648757D01*
X121648757Y-67572011D01*
X121739004Y-67511710D01*
X121839278Y-67470175D01*
X121874763Y-67463117D01*
X121945731Y-67449000D01*
X122054269Y-67449000D01*
X122125237Y-67463117D01*
X122125237Y-67463117D01*
G37*
G36*
X122125237Y-64463117D02*
G01*
X122160722Y-64470175D01*
X122260996Y-64511710D01*
X122351243Y-64572011D01*
X122427989Y-64648757D01*
X122488290Y-64739004D01*
X122529825Y-64839278D01*
X122551000Y-64945733D01*
X122551000Y-65054267D01*
X122529825Y-65160722D01*
X122488290Y-65260996D01*
X122427989Y-65351243D01*
X122351243Y-65427989D01*
X122260996Y-65488290D01*
X122160722Y-65529825D01*
X122125237Y-65536883D01*
X122054269Y-65551000D01*
X121945731Y-65551000D01*
X121874763Y-65536883D01*
X121839278Y-65529825D01*
X121739004Y-65488290D01*
X121648757Y-65427989D01*
X121572011Y-65351243D01*
X121511710Y-65260996D01*
X121470175Y-65160722D01*
X121449000Y-65054267D01*
X121449000Y-64945733D01*
X121470175Y-64839278D01*
X121511710Y-64739004D01*
X121572011Y-64648757D01*
X121648757Y-64572011D01*
X121739004Y-64511710D01*
X121839278Y-64470175D01*
X121874763Y-64463117D01*
X121945731Y-64449000D01*
X122054269Y-64449000D01*
X122125237Y-64463117D01*
X122125237Y-64463117D01*
G37*
G36*
X127276351Y-62753821D02*
G01*
X127417574Y-62812317D01*
X127544671Y-62897241D01*
X127652759Y-63005329D01*
X127737683Y-63132426D01*
X127796179Y-63273649D01*
X127826000Y-63423571D01*
X127826000Y-63576429D01*
X127796179Y-63726351D01*
X127737683Y-63867574D01*
X127652759Y-63994671D01*
X127544671Y-64102759D01*
X127417574Y-64187683D01*
X127276351Y-64246179D01*
X127126429Y-64276000D01*
X126973571Y-64276000D01*
X126823649Y-64246179D01*
X126682426Y-64187683D01*
X126555329Y-64102759D01*
X126447241Y-63994671D01*
X126362317Y-63867574D01*
X126303821Y-63726351D01*
X126274000Y-63576429D01*
X126274000Y-63423571D01*
X126303821Y-63273649D01*
X126362317Y-63132426D01*
X126447241Y-63005329D01*
X126555329Y-62897241D01*
X126682426Y-62812317D01*
X126823649Y-62753821D01*
X126973571Y-62724000D01*
X127126429Y-62724000D01*
X127276351Y-62753821D01*
X127276351Y-62753821D01*
G37*
G36*
X74125237Y-62463117D02*
G01*
X74160722Y-62470175D01*
X74260996Y-62511710D01*
X74351243Y-62572011D01*
X74427989Y-62648757D01*
X74488290Y-62739004D01*
X74518658Y-62812318D01*
X74529825Y-62839279D01*
X74541355Y-62897241D01*
X74551000Y-62945733D01*
X74551000Y-63054267D01*
X74529825Y-63160722D01*
X74488290Y-63260996D01*
X74427989Y-63351243D01*
X74351243Y-63427989D01*
X74260996Y-63488290D01*
X74160722Y-63529825D01*
X74125237Y-63536883D01*
X74054269Y-63551000D01*
X73945731Y-63551000D01*
X73874763Y-63536883D01*
X73839278Y-63529825D01*
X73739004Y-63488290D01*
X73648757Y-63427989D01*
X73572011Y-63351243D01*
X73511710Y-63260996D01*
X73470175Y-63160722D01*
X73449000Y-63054267D01*
X73449000Y-62945733D01*
X73458646Y-62897241D01*
X73470175Y-62839279D01*
X73481343Y-62812318D01*
X73511710Y-62739004D01*
X73572011Y-62648757D01*
X73648757Y-62572011D01*
X73739004Y-62511710D01*
X73839278Y-62470175D01*
X73874763Y-62463117D01*
X73945731Y-62449000D01*
X74054269Y-62449000D01*
X74125237Y-62463117D01*
X74125237Y-62463117D01*
G37*
G36*
X122125237Y-61463117D02*
G01*
X122160722Y-61470175D01*
X122260996Y-61511710D01*
X122351242Y-61572010D01*
X122427990Y-61648758D01*
X122488290Y-61739004D01*
X122529825Y-61839279D01*
X122551000Y-61945731D01*
X122551000Y-62054269D01*
X122536883Y-62125237D01*
X122529825Y-62160722D01*
X122488290Y-62260996D01*
X122427989Y-62351243D01*
X122351243Y-62427989D01*
X122260996Y-62488290D01*
X122160722Y-62529825D01*
X122125237Y-62536883D01*
X122054269Y-62551000D01*
X121945731Y-62551000D01*
X121874763Y-62536883D01*
X121839278Y-62529825D01*
X121739004Y-62488290D01*
X121648757Y-62427989D01*
X121572011Y-62351243D01*
X121511710Y-62260996D01*
X121470175Y-62160722D01*
X121463117Y-62125237D01*
X121449000Y-62054269D01*
X121449000Y-61945731D01*
X121470175Y-61839279D01*
X121511710Y-61739004D01*
X121572010Y-61648758D01*
X121648758Y-61572010D01*
X121739004Y-61511710D01*
X121839278Y-61470175D01*
X121874763Y-61463117D01*
X121945731Y-61449000D01*
X122054269Y-61449000D01*
X122125237Y-61463117D01*
X122125237Y-61463117D01*
G37*
G36*
X66926351Y-60753821D02*
G01*
X67067574Y-60812317D01*
X67194671Y-60897241D01*
X67302759Y-61005329D01*
X67387683Y-61132426D01*
X67446179Y-61273649D01*
X67476000Y-61423571D01*
X67476000Y-61576429D01*
X67446179Y-61726351D01*
X67387683Y-61867574D01*
X67302759Y-61994671D01*
X67194671Y-62102759D01*
X67067574Y-62187683D01*
X66926351Y-62246179D01*
X66776429Y-62276000D01*
X66623571Y-62276000D01*
X66473649Y-62246179D01*
X66332426Y-62187683D01*
X66205329Y-62102759D01*
X66097241Y-61994671D01*
X66012317Y-61867574D01*
X65953821Y-61726351D01*
X65924000Y-61576429D01*
X65924000Y-61423571D01*
X65953821Y-61273649D01*
X66012317Y-61132426D01*
X66097241Y-61005329D01*
X66205329Y-60897241D01*
X66332426Y-60812317D01*
X66473649Y-60753821D01*
X66623571Y-60724000D01*
X66776429Y-60724000D01*
X66926351Y-60753821D01*
X66926351Y-60753821D01*
G37*
G36*
X74125237Y-59463117D02*
G01*
X74160722Y-59470175D01*
X74260996Y-59511710D01*
X74351243Y-59572011D01*
X74427989Y-59648757D01*
X74488290Y-59739004D01*
X74529825Y-59839278D01*
X74551000Y-59945733D01*
X74551000Y-60054267D01*
X74529825Y-60160722D01*
X74488290Y-60260996D01*
X74427989Y-60351243D01*
X74351243Y-60427989D01*
X74260996Y-60488290D01*
X74160722Y-60529825D01*
X74125237Y-60536883D01*
X74054269Y-60551000D01*
X73945731Y-60551000D01*
X73874763Y-60536883D01*
X73839278Y-60529825D01*
X73739004Y-60488290D01*
X73648757Y-60427989D01*
X73572011Y-60351243D01*
X73511710Y-60260996D01*
X73470175Y-60160722D01*
X73449000Y-60054267D01*
X73449000Y-59945733D01*
X73470175Y-59839278D01*
X73511710Y-59739004D01*
X73572011Y-59648757D01*
X73648757Y-59572011D01*
X73739004Y-59511710D01*
X73839278Y-59470175D01*
X73874763Y-59463117D01*
X73945731Y-59449000D01*
X74054269Y-59449000D01*
X74125237Y-59463117D01*
X74125237Y-59463117D01*
G37*
G36*
X119625237Y-58463117D02*
G01*
X119660722Y-58470175D01*
X119760996Y-58511710D01*
X119851243Y-58572011D01*
X119927989Y-58648757D01*
X119988290Y-58739004D01*
X120029825Y-58839278D01*
X120051000Y-58945733D01*
X120051000Y-59054267D01*
X120029825Y-59160722D01*
X119988290Y-59260996D01*
X119927989Y-59351243D01*
X119851243Y-59427989D01*
X119760996Y-59488290D01*
X119660722Y-59529825D01*
X119625237Y-59536883D01*
X119554269Y-59551000D01*
X119445731Y-59551000D01*
X119374763Y-59536883D01*
X119339278Y-59529825D01*
X119239004Y-59488290D01*
X119148757Y-59427989D01*
X119072011Y-59351243D01*
X119011710Y-59260996D01*
X118970175Y-59160722D01*
X118949000Y-59054267D01*
X118949000Y-58945733D01*
X118970175Y-58839278D01*
X119011710Y-58739004D01*
X119072011Y-58648757D01*
X119148757Y-58572011D01*
X119239004Y-58511710D01*
X119339278Y-58470175D01*
X119374763Y-58463117D01*
X119445731Y-58449000D01*
X119554269Y-58449000D01*
X119625237Y-58463117D01*
X119625237Y-58463117D01*
G37*
G36*
X121625237Y-58463117D02*
G01*
X121660722Y-58470175D01*
X121760996Y-58511710D01*
X121851243Y-58572011D01*
X121927989Y-58648757D01*
X121988290Y-58739004D01*
X122029825Y-58839278D01*
X122051000Y-58945733D01*
X122051000Y-59054267D01*
X122029825Y-59160722D01*
X121988290Y-59260996D01*
X121927989Y-59351243D01*
X121851243Y-59427989D01*
X121760996Y-59488290D01*
X121660722Y-59529825D01*
X121625237Y-59536883D01*
X121554269Y-59551000D01*
X121445731Y-59551000D01*
X121374763Y-59536883D01*
X121339278Y-59529825D01*
X121239004Y-59488290D01*
X121148757Y-59427989D01*
X121072011Y-59351243D01*
X121011710Y-59260996D01*
X120970175Y-59160722D01*
X120949000Y-59054267D01*
X120949000Y-58945733D01*
X120970175Y-58839278D01*
X121011710Y-58739004D01*
X121072011Y-58648757D01*
X121148757Y-58572011D01*
X121239004Y-58511710D01*
X121339278Y-58470175D01*
X121374763Y-58463117D01*
X121445731Y-58449000D01*
X121554269Y-58449000D01*
X121625237Y-58463117D01*
X121625237Y-58463117D01*
G37*
G36*
X74125237Y-56463117D02*
G01*
X74160722Y-56470175D01*
X74260996Y-56511710D01*
X74351243Y-56572011D01*
X74427989Y-56648757D01*
X74488290Y-56739004D01*
X74529825Y-56839278D01*
X74551000Y-56945733D01*
X74551000Y-57054267D01*
X74529825Y-57160722D01*
X74488290Y-57260996D01*
X74427989Y-57351243D01*
X74351243Y-57427989D01*
X74260996Y-57488290D01*
X74160722Y-57529825D01*
X74125237Y-57536883D01*
X74054269Y-57551000D01*
X73945731Y-57551000D01*
X73874763Y-57536883D01*
X73839278Y-57529825D01*
X73739004Y-57488290D01*
X73648757Y-57427989D01*
X73572011Y-57351243D01*
X73511710Y-57260996D01*
X73470175Y-57160722D01*
X73449000Y-57054267D01*
X73449000Y-56945733D01*
X73470175Y-56839278D01*
X73511710Y-56739004D01*
X73572011Y-56648757D01*
X73648757Y-56572011D01*
X73739004Y-56511710D01*
X73839278Y-56470175D01*
X73874763Y-56463117D01*
X73945731Y-56449000D01*
X74054269Y-56449000D01*
X74125237Y-56463117D01*
X74125237Y-56463117D01*
G37*
G36*
X83125237Y-56463117D02*
G01*
X83160722Y-56470175D01*
X83260996Y-56511710D01*
X83351243Y-56572011D01*
X83427989Y-56648757D01*
X83488290Y-56739004D01*
X83529825Y-56839278D01*
X83551000Y-56945733D01*
X83551000Y-57054267D01*
X83529825Y-57160722D01*
X83488290Y-57260996D01*
X83427989Y-57351243D01*
X83351243Y-57427989D01*
X83260996Y-57488290D01*
X83160722Y-57529825D01*
X83125237Y-57536883D01*
X83054269Y-57551000D01*
X82945731Y-57551000D01*
X82874763Y-57536883D01*
X82839278Y-57529825D01*
X82739004Y-57488290D01*
X82648757Y-57427989D01*
X82572011Y-57351243D01*
X82511710Y-57260996D01*
X82470175Y-57160722D01*
X82449000Y-57054267D01*
X82449000Y-56945733D01*
X82470175Y-56839278D01*
X82511710Y-56739004D01*
X82572011Y-56648757D01*
X82648757Y-56572011D01*
X82739004Y-56511710D01*
X82839278Y-56470175D01*
X82874763Y-56463117D01*
X82945731Y-56449000D01*
X83054269Y-56449000D01*
X83125237Y-56463117D01*
X83125237Y-56463117D01*
G37*
G36*
X80125237Y-56463117D02*
G01*
X80160722Y-56470175D01*
X80260996Y-56511710D01*
X80351243Y-56572011D01*
X80427989Y-56648757D01*
X80488290Y-56739004D01*
X80529825Y-56839278D01*
X80551000Y-56945733D01*
X80551000Y-57054267D01*
X80529825Y-57160722D01*
X80488290Y-57260996D01*
X80427989Y-57351243D01*
X80351243Y-57427989D01*
X80260996Y-57488290D01*
X80160722Y-57529825D01*
X80125237Y-57536883D01*
X80054269Y-57551000D01*
X79945731Y-57551000D01*
X79874763Y-57536883D01*
X79839278Y-57529825D01*
X79739004Y-57488290D01*
X79648757Y-57427989D01*
X79572011Y-57351243D01*
X79511710Y-57260996D01*
X79470175Y-57160722D01*
X79449000Y-57054267D01*
X79449000Y-56945733D01*
X79470175Y-56839278D01*
X79511710Y-56739004D01*
X79572011Y-56648757D01*
X79648757Y-56572011D01*
X79739004Y-56511710D01*
X79839278Y-56470175D01*
X79874763Y-56463117D01*
X79945731Y-56449000D01*
X80054269Y-56449000D01*
X80125237Y-56463117D01*
X80125237Y-56463117D01*
G37*
G36*
X119892823Y-53922071D02*
G01*
X120144149Y-54026174D01*
X120370336Y-54177307D01*
X120562693Y-54369664D01*
X120713826Y-54595851D01*
X120817929Y-54847177D01*
X120871000Y-55113983D01*
X120871000Y-55386017D01*
X120817929Y-55652823D01*
X120713826Y-55904149D01*
X120562693Y-56130336D01*
X120370336Y-56322693D01*
X120144149Y-56473826D01*
X119892823Y-56577929D01*
X119626017Y-56631000D01*
X119353983Y-56631000D01*
X119087177Y-56577929D01*
X118835851Y-56473826D01*
X118609664Y-56322693D01*
X118417307Y-56130336D01*
X118266174Y-55904149D01*
X118162071Y-55652823D01*
X118109000Y-55386017D01*
X118109000Y-55113983D01*
X118162071Y-54847177D01*
X118266174Y-54595851D01*
X118417307Y-54369664D01*
X118609664Y-54177307D01*
X118835851Y-54026174D01*
X119087177Y-53922071D01*
X119353983Y-53869000D01*
X119626017Y-53869000D01*
X119892823Y-53922071D01*
X119892823Y-53922071D01*
G37*
G36*
X126573940Y-54248043D02*
G01*
X126763572Y-54326591D01*
X126934236Y-54440626D01*
X127079374Y-54585764D01*
X127193409Y-54756428D01*
X127271957Y-54946060D01*
X127312000Y-55147372D01*
X127312000Y-55352628D01*
X127271957Y-55553940D01*
X127193409Y-55743572D01*
X127079374Y-55914236D01*
X126934236Y-56059374D01*
X126763572Y-56173409D01*
X126573940Y-56251957D01*
X126372628Y-56292000D01*
X126167372Y-56292000D01*
X125966060Y-56251957D01*
X125776428Y-56173409D01*
X125605764Y-56059374D01*
X125460626Y-55914236D01*
X125346591Y-55743572D01*
X125268043Y-55553940D01*
X125228000Y-55352628D01*
X125228000Y-55147372D01*
X125268043Y-54946060D01*
X125346591Y-54756428D01*
X125460626Y-54585764D01*
X125605764Y-54440626D01*
X125776428Y-54326591D01*
X125966060Y-54248043D01*
X126167372Y-54208000D01*
X126372628Y-54208000D01*
X126573940Y-54248043D01*
X126573940Y-54248043D01*
G37*
G36*
X74662823Y-51922071D02*
G01*
X74914149Y-52026174D01*
X75140336Y-52177307D01*
X75332693Y-52369664D01*
X75483826Y-52595851D01*
X75587929Y-52847177D01*
X75641000Y-53113983D01*
X75641000Y-53386017D01*
X75587929Y-53652823D01*
X75483826Y-53904149D01*
X75332693Y-54130336D01*
X75140336Y-54322693D01*
X74914149Y-54473826D01*
X74662823Y-54577929D01*
X74396017Y-54631000D01*
X74123983Y-54631000D01*
X73857177Y-54577929D01*
X73605851Y-54473826D01*
X73379664Y-54322693D01*
X73187307Y-54130336D01*
X73036174Y-53904149D01*
X72932071Y-53652823D01*
X72879000Y-53386017D01*
X72879000Y-53113983D01*
X72932071Y-52847177D01*
X73036174Y-52595851D01*
X73187307Y-52369664D01*
X73379664Y-52177307D01*
X73605851Y-52026174D01*
X73857177Y-51922071D01*
X74123983Y-51869000D01*
X74396017Y-51869000D01*
X74662823Y-51922071D01*
X74662823Y-51922071D01*
G37*
G36*
X67783940Y-52248043D02*
G01*
X67973572Y-52326591D01*
X68144236Y-52440626D01*
X68289374Y-52585764D01*
X68403409Y-52756428D01*
X68481957Y-52946060D01*
X68522000Y-53147372D01*
X68522000Y-53352628D01*
X68481957Y-53553940D01*
X68403409Y-53743572D01*
X68289374Y-53914236D01*
X68144236Y-54059374D01*
X67973572Y-54173409D01*
X67783940Y-54251957D01*
X67582628Y-54292000D01*
X67377372Y-54292000D01*
X67176060Y-54251957D01*
X66986428Y-54173409D01*
X66815764Y-54059374D01*
X66670626Y-53914236D01*
X66556591Y-53743572D01*
X66478043Y-53553940D01*
X66438000Y-53352628D01*
X66438000Y-53147372D01*
X66478043Y-52946060D01*
X66556591Y-52756428D01*
X66670626Y-52585764D01*
X66815764Y-52440626D01*
X66986428Y-52326591D01*
X67176060Y-52248043D01*
X67377372Y-52208000D01*
X67582628Y-52208000D01*
X67783940Y-52248043D01*
X67783940Y-52248043D01*
G37*
G36*
X65853004Y-47894345D02*
G01*
X65948690Y-47933980D01*
X66034805Y-47991520D01*
X66108040Y-48064755D01*
X66165580Y-48150870D01*
X66205215Y-48246556D01*
X66225420Y-48348135D01*
X66225420Y-48451705D01*
X66205215Y-48553284D01*
X66165580Y-48648970D01*
X66108040Y-48735085D01*
X66034805Y-48808320D01*
X65948690Y-48865860D01*
X65853004Y-48905495D01*
X65751425Y-48925700D01*
X65647855Y-48925700D01*
X65546276Y-48905495D01*
X65450590Y-48865860D01*
X65364475Y-48808320D01*
X65291240Y-48735085D01*
X65233700Y-48648970D01*
X65194065Y-48553284D01*
X65173860Y-48451705D01*
X65173860Y-48348135D01*
X65194065Y-48246556D01*
X65233700Y-48150870D01*
X65291240Y-48064755D01*
X65364475Y-47991520D01*
X65450590Y-47933980D01*
X65546276Y-47894345D01*
X65647855Y-47874140D01*
X65751425Y-47874140D01*
X65853004Y-47894345D01*
X65853004Y-47894345D01*
G37*
G36*
X65853004Y-44094505D02*
G01*
X65948690Y-44134140D01*
X66034805Y-44191680D01*
X66108040Y-44264915D01*
X66165580Y-44351030D01*
X66205215Y-44446716D01*
X66225420Y-44548295D01*
X66225420Y-44651865D01*
X66205215Y-44753444D01*
X66165580Y-44849130D01*
X66108040Y-44935245D01*
X66034805Y-45008480D01*
X65948690Y-45066020D01*
X65853004Y-45105655D01*
X65751425Y-45125860D01*
X65647855Y-45125860D01*
X65546276Y-45105655D01*
X65450590Y-45066020D01*
X65364475Y-45008480D01*
X65291240Y-44935245D01*
X65233700Y-44849130D01*
X65194065Y-44753444D01*
X65173860Y-44651865D01*
X65173860Y-44548295D01*
X65194065Y-44446716D01*
X65233700Y-44351030D01*
X65291240Y-44264915D01*
X65364475Y-44191680D01*
X65450590Y-44134140D01*
X65546276Y-44094505D01*
X65647855Y-44074300D01*
X65751425Y-44074300D01*
X65853004Y-44094505D01*
X65853004Y-44094505D01*
G37*
M02*
